<svg width="512" height="512" viewBox="0 0 512 512" fill="none" xmlns="http://www.w3.org/2000/svg">
<rect width="512" height="512" fill="#1F2329"/>
<path d="M31.115 92.5168C30.3061 64.9144 52.0266 41.8825 79.629 41.0737L419.483 31.1151C447.086 30.3063 470.117 52.0267 470.926 79.6291L473.855 179.586C474.664 207.189 452.944 230.22 425.341 231.029L85.487 240.988C57.8846 241.797 34.8528 220.076 34.044 192.474L31.115 92.5168Z" fill="#2A2F36"/>
<path d="M38.1446 332.414C37.3358 304.811 59.0562 281.78 86.6586 280.971L426.513 271.012C454.115 270.203 477.147 291.924 477.956 319.526L480.885 419.483C481.694 447.086 459.973 470.117 432.371 470.926L92.5166 480.885C64.9143 481.694 41.8824 459.973 41.0736 432.371L38.1446 332.414Z" fill="#2A2F36"/>
<path d="M52.9644 185.028C52.4467 167.362 66.3478 152.622 84.0133 152.104L211.263 148.375C228.929 147.858 243.669 161.759 244.187 179.424L244.265 182.09C244.782 199.755 230.881 214.496 213.216 215.013L85.966 218.742C68.3005 219.26 53.5601 205.359 53.0425 187.693L52.9644 185.028Z" fill="white"/>
<path d="M59.994 424.925C59.4763 407.259 73.3774 392.519 91.043 392.001L218.293 388.272C235.958 387.755 250.699 401.656 251.216 419.321L251.294 421.987C251.812 439.652 237.911 454.393 220.245 454.91L92.9957 458.639C75.3301 459.157 60.5897 445.256 60.0721 427.59L59.994 424.925Z" fill="white"/>
<path d="M263.309 178.864C262.791 161.198 276.693 146.458 294.358 145.94L421.608 142.212C439.273 141.694 454.014 155.595 454.531 173.261L454.61 175.926C455.127 193.592 441.226 208.332 423.561 208.85L296.311 212.578C278.645 213.096 263.905 199.195 263.387 181.529L263.309 178.864Z" fill="#10B981"/>
<path d="M270.339 418.761C269.821 401.095 283.722 386.355 301.388 385.837L428.637 382.109C446.303 381.591 461.043 395.492 461.561 413.158L461.639 415.823C462.157 433.489 448.256 448.229 430.59 448.747L303.34 452.475C285.675 452.993 270.935 439.092 270.417 421.426L270.339 418.761Z" fill="white"/>
<path d="M127.823 176.345L130.583 176.264C131.878 176.226 133.037 176.482 134.059 177.032C135.081 177.582 135.894 178.365 136.498 179.382C137.102 180.399 137.424 181.589 137.464 182.952C137.504 184.315 137.252 185.525 136.709 186.581C136.166 187.637 135.4 188.472 134.412 189.087C133.424 189.701 132.283 190.027 130.988 190.065L128.227 190.146C126.933 190.184 125.774 189.928 124.752 189.378C123.73 188.828 122.917 188.045 122.313 187.028C121.709 186.011 121.387 184.821 121.347 183.458C121.307 182.095 121.559 180.886 122.102 179.83C122.645 178.773 123.41 177.938 124.399 177.324C125.387 176.709 126.528 176.383 127.823 176.345ZM127.878 178.219C126.89 178.248 126.061 178.48 125.392 178.915C124.728 179.349 124.231 179.949 123.901 180.715C123.577 181.48 123.43 182.374 123.46 183.396C123.489 184.407 123.688 185.283 124.057 186.022C124.431 186.761 124.962 187.329 125.65 187.723C126.343 188.118 127.184 188.301 128.173 188.272L130.933 188.191C131.921 188.162 132.747 187.93 133.411 187.496C134.08 187.061 134.577 186.461 134.901 185.696C135.231 184.93 135.381 184.036 135.351 183.014C135.322 182.003 135.12 181.128 134.746 180.388C134.377 179.649 133.846 179.082 133.153 178.687C132.465 178.292 131.626 178.109 130.638 178.138L127.878 178.219ZM130.207 173.888L130.748 192.357L128.635 192.419L128.094 173.95L130.207 173.888Z" fill="#1F2329" fill-opacity="0.3"/>
<path d="M146.304 191.458C145.122 191.493 144.077 191.242 143.169 190.706C142.267 190.169 141.551 189.403 141.022 188.407C140.498 187.41 140.216 186.236 140.177 184.885C140.137 183.522 140.349 182.325 140.813 181.293C141.283 180.262 141.953 179.452 142.822 178.864C143.698 178.276 144.726 177.964 145.907 177.93C147.088 177.895 148.13 178.146 149.033 178.682C149.941 179.218 150.657 179.988 151.181 180.99C151.71 181.992 151.995 183.174 152.035 184.537C152.075 185.889 151.859 187.078 151.389 188.103C150.925 189.129 150.255 189.935 149.38 190.524C148.51 191.112 147.485 191.423 146.304 191.458ZM146.251 189.652C147.148 189.626 147.88 189.374 148.445 188.897C149.011 188.42 149.422 187.803 149.679 187.045C149.935 186.287 150.05 185.471 150.025 184.596C149.999 183.721 149.836 182.911 149.535 182.163C149.235 181.416 148.788 180.818 148.195 180.369C147.602 179.921 146.857 179.71 145.96 179.736C145.063 179.762 144.331 180.017 143.766 180.499C143.2 180.982 142.789 181.605 142.533 182.369C142.277 183.132 142.161 183.951 142.187 184.826C142.213 185.7 142.376 186.508 142.676 187.25C142.976 187.992 143.423 188.584 144.015 189.027C144.608 189.47 145.353 189.678 146.251 189.652Z" fill="#1F2329" fill-opacity="0.3"/>
<path d="M153.255 179.761L153.2 177.887L163.832 177.575L163.887 179.449L159.593 179.575L159.922 190.786L157.911 190.845L157.583 179.634L153.255 179.761Z" fill="#1F2329" fill-opacity="0.3"/>
<path d="M171.793 190.711C170.611 190.746 169.567 190.495 168.658 189.959C167.756 189.423 167.04 188.656 166.511 187.66C165.987 186.664 165.705 185.489 165.666 184.138C165.626 182.775 165.838 181.578 166.302 180.547C166.772 179.515 167.442 178.706 168.311 178.117C169.187 177.529 170.215 177.217 171.396 177.183C172.577 177.148 173.619 177.399 174.522 177.935C175.43 178.472 176.146 179.241 176.67 180.243C177.199 181.245 177.484 182.427 177.524 183.79C177.564 185.142 177.348 186.331 176.878 187.356C176.414 188.382 175.744 189.189 174.869 189.777C173.999 190.365 172.974 190.677 171.793 190.711ZM171.74 188.905C172.637 188.879 173.369 188.627 173.934 188.15C174.5 187.673 174.911 187.056 175.168 186.298C175.424 185.54 175.539 184.724 175.514 183.849C175.488 182.975 175.325 182.164 175.025 181.416C174.724 180.669 174.277 180.071 173.685 179.623C173.092 179.174 172.346 178.963 171.449 178.989C170.552 179.015 169.82 179.27 169.255 179.752C168.689 180.235 168.278 180.858 168.022 181.622C167.766 182.385 167.65 183.204 167.676 184.079C167.702 184.953 167.865 185.762 168.165 186.503C168.465 187.245 168.912 187.837 169.504 188.28C170.097 188.723 170.842 188.931 171.74 188.905Z" fill="#1F2329" fill-opacity="0.3"/>
<path d="M134.853 416.242L137.613 416.161C138.908 416.123 140.066 416.379 141.089 416.929C142.111 417.479 142.924 418.262 143.528 419.279C144.132 420.296 144.454 421.486 144.494 422.849C144.533 424.212 144.282 425.422 143.739 426.478C143.196 427.534 142.43 428.369 141.442 428.984C140.454 429.598 139.312 429.924 138.017 429.962L135.257 430.043C133.962 430.081 132.804 429.825 131.781 429.275C130.759 428.725 129.946 427.942 129.342 426.925C128.738 425.908 128.416 424.718 128.376 423.355C128.337 421.992 128.588 420.783 129.131 419.727C129.674 418.67 130.44 417.835 131.428 417.221C132.416 416.606 133.558 416.28 134.853 416.242ZM134.908 418.116C133.919 418.145 133.091 418.377 132.421 418.812C131.758 419.246 131.261 419.846 130.931 420.612C130.606 421.377 130.459 422.271 130.489 423.293C130.519 424.304 130.718 425.18 131.086 425.919C131.46 426.658 131.991 427.226 132.679 427.62C133.373 428.015 134.214 428.198 135.202 428.169L137.962 428.088C138.951 428.059 139.777 427.827 140.44 427.393C141.11 426.958 141.606 426.358 141.931 425.593C142.261 424.827 142.411 423.933 142.381 422.911C142.351 421.9 142.149 421.025 141.775 420.285C141.407 419.546 140.876 418.979 140.182 418.584C139.494 418.189 138.656 418.007 137.668 418.035L134.908 418.116ZM137.236 413.785L137.778 432.254L135.665 432.316L135.124 413.847L137.236 413.785Z" fill="#1F2329" fill-opacity="0.3"/>
<path d="M153.333 431.355C152.152 431.39 151.107 431.139 150.199 430.603C149.296 430.067 148.581 429.3 148.051 428.304C147.527 427.307 147.246 426.133 147.206 424.782C147.166 423.419 147.378 422.222 147.843 421.19C148.313 420.159 148.982 419.35 149.852 418.761C150.727 418.173 151.755 417.861 152.937 417.827C154.118 417.792 155.16 418.043 156.062 418.579C156.971 419.115 157.687 419.885 158.21 420.887C158.74 421.889 159.025 423.071 159.065 424.434C159.104 425.786 158.889 426.975 158.419 428C157.954 429.026 157.285 429.832 156.409 430.421C155.54 431.009 154.514 431.32 153.333 431.355ZM153.28 429.549C154.178 429.523 154.909 429.271 155.475 428.794C156.041 428.317 156.452 427.7 156.708 426.942C156.964 426.184 157.08 425.368 157.054 424.493C157.029 423.619 156.866 422.808 156.565 422.06C156.265 421.313 155.818 420.715 155.225 420.267C154.632 419.818 153.887 419.607 152.99 419.633C152.092 419.659 151.361 419.914 150.795 420.396C150.229 420.879 149.819 421.502 149.562 422.266C149.306 423.029 149.191 423.848 149.217 424.723C149.242 425.597 149.405 426.406 149.705 427.147C150.006 427.889 150.452 428.481 151.045 428.924C151.638 429.367 152.383 429.575 153.28 429.549Z" fill="#1F2329" fill-opacity="0.3"/>
<path d="M160.285 419.658L160.23 417.784L170.862 417.472L170.916 419.346L166.623 419.472L166.951 430.683L164.941 430.742L164.612 419.531L160.285 419.658Z" fill="#1F2329" fill-opacity="0.3"/>
<path d="M178.822 430.608C177.641 430.643 176.596 430.392 175.688 429.856C174.786 429.32 174.07 428.553 173.54 427.557C173.016 426.561 172.735 425.387 172.695 424.035C172.655 422.672 172.867 421.475 173.332 420.444C173.802 419.412 174.472 418.603 175.341 418.014C176.216 417.426 177.244 417.115 178.426 417.08C179.607 417.045 180.649 417.296 181.551 417.832C182.46 418.369 183.176 419.138 183.699 420.14C184.229 421.142 184.514 422.324 184.554 423.687C184.593 425.039 184.378 426.228 183.908 427.253C183.443 428.279 182.774 429.086 181.898 429.674C181.029 430.262 180.003 430.574 178.822 430.608ZM178.769 428.802C179.667 428.776 180.398 428.524 180.964 428.047C181.53 427.57 181.941 426.953 182.197 426.195C182.454 425.437 182.569 424.621 182.543 423.746C182.518 422.872 182.355 422.061 182.054 421.313C181.754 420.566 181.307 419.968 180.714 419.52C180.121 419.071 179.376 418.86 178.479 418.886C177.581 418.912 176.85 419.167 176.284 419.649C175.719 420.132 175.308 420.755 175.051 421.519C174.795 422.282 174.68 423.101 174.706 423.976C174.731 424.851 174.894 425.659 175.195 426.4C175.495 427.142 175.941 427.734 176.534 428.177C177.127 428.62 177.872 428.828 178.769 428.802Z" fill="#1F2329" fill-opacity="0.3"/>
<path d="M323.876 185.982L323.365 168.535L329.754 168.348C330.992 168.311 332.024 168.486 332.848 168.871C333.672 169.25 334.295 169.781 334.719 170.462C335.142 171.137 335.367 171.906 335.392 172.77C335.413 173.497 335.298 174.114 335.045 174.621C334.793 175.123 334.447 175.531 334.007 175.846C333.573 176.154 333.091 176.384 332.561 176.536L332.566 176.706C333.146 176.718 333.716 176.889 334.277 177.219C334.844 177.543 335.318 178.015 335.7 178.635C336.082 179.255 336.286 180.016 336.313 180.919C336.339 181.811 336.152 182.618 335.753 183.34C335.359 184.057 334.734 184.635 333.877 185.075C333.02 185.509 331.915 185.746 330.564 185.786L323.876 185.982ZM326.443 183.647L330.242 183.536C331.503 183.499 332.399 183.228 332.93 182.724C333.461 182.219 333.715 181.601 333.694 180.868C333.678 180.317 333.524 179.816 333.232 179.364C332.94 178.912 332.532 178.558 332.007 178.3C331.488 178.042 330.876 177.924 330.172 177.945L326.279 178.059L326.443 183.647ZM326.219 176.006L329.745 175.902C330.336 175.885 330.864 175.756 331.329 175.515C331.799 175.274 332.167 174.944 332.434 174.527C332.705 174.105 332.833 173.612 332.817 173.05C332.796 172.328 332.525 171.731 332.005 171.257C331.485 170.784 330.703 170.562 329.658 170.593L326.063 170.698L326.219 176.006Z" fill="white"/>
<path d="M341.76 181.885L347.248 172.2L349.991 172.12L350.375 185.205L347.879 185.279L347.6 175.754L342.137 185.447L339.368 185.528L338.985 172.443L341.481 172.369L341.76 181.885Z" fill="white"/>
<path d="M352.632 188.916L352.457 182.936L353.522 182.905C353.787 182.647 354.008 182.342 354.186 181.99C354.369 181.638 354.518 181.222 354.635 180.741C354.757 180.26 354.855 179.7 354.927 179.061C354.999 178.416 355.057 177.681 355.101 176.856L355.367 171.963L364.261 171.702L364.58 182.581L366.59 182.522L366.765 188.502L364.278 188.575L364.167 184.801L355.043 185.069L355.154 188.843L352.632 188.916ZM356.248 182.825L362.092 182.654L361.837 173.956L357.714 174.077L357.52 176.785C357.43 178.163 357.3 179.361 357.131 180.378C356.962 181.389 356.667 182.204 356.248 182.825Z" fill="white"/>
<path d="M374.792 184.754C373.503 184.792 372.384 184.549 371.437 184.025C370.495 183.496 369.756 182.736 369.221 181.746C368.692 180.749 368.407 179.573 368.367 178.215C368.328 176.875 368.543 175.686 369.013 174.649C369.489 173.612 370.17 172.794 371.056 172.193C371.948 171.593 373.001 171.275 374.217 171.24C374.955 171.218 375.674 171.319 376.374 171.543C377.074 171.767 377.707 172.132 378.274 172.639C378.84 173.145 379.294 173.811 379.637 174.636C379.979 175.456 380.168 176.46 380.202 177.647L380.229 178.55L369.827 178.854L369.771 176.946L377.677 176.715C377.657 176.044 377.504 175.455 377.216 174.946C376.928 174.432 376.532 174.031 376.03 173.744C375.532 173.458 374.954 173.324 374.295 173.343C373.58 173.364 372.96 173.559 372.437 173.927C371.919 174.288 371.523 174.755 371.25 175.326C370.982 175.89 370.858 176.499 370.877 177.153L370.921 178.643C370.946 179.518 371.122 180.258 371.446 180.862C371.777 181.466 372.225 181.922 372.791 182.229C373.357 182.531 374.012 182.671 374.756 182.649C375.238 182.635 375.677 182.554 376.07 182.406C376.464 182.252 376.801 182.032 377.083 181.745C377.364 181.459 377.575 181.109 377.717 180.695L380.14 181.059C379.968 181.775 379.64 182.407 379.156 182.955C378.677 183.498 378.067 183.928 377.326 184.245C376.591 184.557 375.746 184.726 374.792 184.754Z" fill="white"/>
<path d="M388.744 184.345C387.517 184.381 386.438 184.132 385.508 183.596C384.577 183.061 383.844 182.295 383.309 181.299C382.774 180.303 382.486 179.129 382.447 177.777C382.407 176.42 382.625 175.225 383.1 174.194C383.576 173.162 384.263 172.352 385.161 171.763C386.059 171.174 387.121 170.862 388.348 170.826C389.575 170.79 390.653 171.039 391.584 171.575C392.515 172.11 393.248 172.879 393.783 173.881C394.319 174.883 394.606 176.062 394.646 177.42C394.686 178.771 394.467 179.96 393.992 180.986C393.516 182.011 392.829 182.819 391.931 183.408C391.033 183.997 389.971 184.309 388.744 184.345ZM388.69 182.207C389.485 182.184 390.138 181.954 390.648 181.519C391.158 181.083 391.528 180.512 391.757 179.806C391.992 179.1 392.098 178.327 392.073 177.486C392.048 176.652 391.898 175.889 391.622 175.197C391.352 174.501 390.949 173.947 390.414 173.536C389.879 173.126 389.214 172.932 388.419 172.955C387.618 172.979 386.96 173.211 386.444 173.652C385.934 174.094 385.561 174.67 385.327 175.382C385.097 176.088 384.995 176.858 385.019 177.693C385.044 178.534 385.191 179.3 385.462 179.991C385.738 180.682 386.143 181.23 386.678 181.635C387.218 182.04 387.889 182.23 388.69 182.207Z" fill="white"/>
<path d="M331.524 425.861L331.012 408.414L337.112 408.235C338.327 408.199 339.336 408.38 340.138 408.777C340.939 409.169 341.543 409.711 341.95 410.404C342.357 411.091 342.573 411.861 342.598 412.713C342.62 413.462 342.504 414.085 342.252 414.581C342.005 415.078 341.67 415.474 341.246 415.771C340.829 416.067 340.372 416.291 339.876 416.442L339.881 416.612C340.416 416.63 340.958 416.802 341.508 417.127C342.057 417.452 342.523 417.927 342.905 418.553C343.287 419.178 343.492 419.951 343.519 420.871C343.544 421.746 343.369 422.538 342.992 423.248C342.615 423.958 342.003 424.531 341.158 424.965C340.312 425.399 339.202 425.636 337.828 425.676L331.524 425.861ZM333.581 423.925L337.773 423.802C339.153 423.761 340.125 423.466 340.688 422.915C341.257 422.358 341.531 421.697 341.508 420.93C341.491 420.339 341.325 419.798 341.009 419.307C340.693 418.811 340.252 418.42 339.687 418.135C339.122 417.845 338.458 417.711 337.697 417.733L333.404 417.859L333.581 423.925ZM333.35 416.019L337.268 415.904C337.905 415.886 338.474 415.744 338.978 415.479C339.488 415.214 339.886 414.85 340.174 414.387C340.467 413.923 340.605 413.385 340.587 412.772C340.565 412.005 340.279 411.362 339.729 410.844C339.18 410.32 338.325 410.075 337.167 410.109L333.18 410.226L333.35 416.019Z" fill="#1F2329" fill-opacity="0.3"/>
<path d="M348.777 422.388L354.785 412.083L357.102 412.015L357.485 425.1L355.475 425.159L355.178 415.038L349.205 425.343L346.854 425.412L346.47 412.326L348.481 412.267L348.777 422.388Z" fill="#1F2329" fill-opacity="0.3"/>
<path d="M359.88 428.781L359.716 423.159L360.806 423.127C361.065 422.841 361.286 422.533 361.47 422.204C361.653 421.874 361.81 421.486 361.939 421.039C362.073 420.586 362.182 420.037 362.266 419.392C362.349 418.742 362.417 417.958 362.47 417.042L362.761 411.849L371.075 411.605L371.404 422.816L373.414 422.757L373.579 428.38L371.569 428.439L371.459 424.691L361.781 424.974L361.891 428.723L359.88 428.781ZM363.089 423.06L369.393 422.875L369.12 413.538L364.69 413.668L364.446 416.984C364.344 418.356 364.203 419.557 364.023 420.586C363.843 421.614 363.531 422.439 363.089 423.06Z" fill="#1F2329" fill-opacity="0.3"/>
<path d="M381.632 424.665C380.371 424.702 379.276 424.456 378.345 423.926C377.42 423.39 376.695 422.627 376.172 421.636C375.654 420.64 375.375 419.471 375.336 418.131C375.297 416.791 375.506 415.602 375.965 414.566C376.429 413.523 377.092 412.702 377.956 412.103C378.825 411.498 379.85 411.178 381.031 411.143C381.713 411.123 382.389 411.217 383.06 411.425C383.731 411.632 384.347 411.984 384.907 412.479C385.467 412.968 385.921 413.626 386.27 414.451C386.618 415.277 386.81 416.3 386.846 417.521L386.871 418.373L376.784 418.668L376.733 416.931L384.775 416.695C384.753 415.957 384.586 415.302 384.274 414.731C383.967 414.161 383.54 413.716 382.99 413.396C382.446 413.077 381.811 412.928 381.084 412.949C380.283 412.973 379.596 413.192 379.023 413.606C378.455 414.015 378.024 414.539 377.73 415.179C377.437 415.819 377.3 416.499 377.321 417.22L377.355 418.379C377.384 419.367 377.579 420.2 377.94 420.877C378.306 421.548 378.802 422.054 379.425 422.394C380.049 422.728 380.767 422.883 381.579 422.859C382.107 422.844 382.582 422.756 383.004 422.596C383.431 422.43 383.796 422.192 384.1 421.882C384.403 421.566 384.634 421.178 384.791 420.719L386.749 421.207C386.564 421.872 386.237 422.461 385.769 422.975C385.301 423.484 384.716 423.887 384.014 424.186C383.312 424.48 382.518 424.639 381.632 424.665Z" fill="#1F2329" fill-opacity="0.3"/>
<path d="M395.425 424.261C394.243 424.296 393.199 424.045 392.29 423.509C391.388 422.973 390.672 422.206 390.143 421.21C389.619 420.214 389.337 419.04 389.298 417.688C389.258 416.325 389.47 415.128 389.934 414.097C390.404 413.065 391.074 412.256 391.943 411.667C392.819 411.079 393.847 410.768 395.028 410.733C396.209 410.698 397.251 410.949 398.154 411.485C399.062 412.022 399.778 412.791 400.302 413.793C400.831 414.795 401.116 415.977 401.156 417.34C401.196 418.692 400.98 419.881 400.51 420.906C400.046 421.932 399.376 422.739 398.501 423.327C397.631 423.915 396.606 424.227 395.425 424.261ZM395.372 422.455C396.269 422.429 397.001 422.177 397.566 421.7C398.132 421.223 398.543 420.606 398.8 419.848C399.056 419.09 399.171 418.274 399.146 417.399C399.12 416.525 398.957 415.714 398.657 414.966C398.356 414.219 397.909 413.621 397.316 413.173C396.724 412.724 395.978 412.513 395.081 412.539C394.184 412.565 393.452 412.82 392.887 413.302C392.321 413.785 391.91 414.408 391.654 415.172C391.398 415.935 391.282 416.754 391.308 417.629C391.334 418.504 391.497 419.312 391.797 420.053C392.097 420.795 392.544 421.387 393.136 421.83C393.729 422.273 394.474 422.481 395.372 422.455Z" fill="#1F2329" fill-opacity="0.3"/>
<path d="M177.695 317.138L180.864 317.045L181.546 340.302L190.746 340.033L190.065 316.775L193.234 316.683L193.915 339.94L203.116 339.67L202.434 316.413L205.604 316.32L206.37 342.491L178.462 343.309L177.695 317.138Z" fill="white" fill-opacity="0.3"/>
<path d="M218.105 342.607C216.861 342.644 215.726 342.443 214.698 342.004C213.67 341.556 212.845 340.894 212.223 340.017C211.6 339.132 211.27 338.05 211.232 336.772C211.199 335.648 211.394 334.729 211.817 334.018C212.239 333.298 212.815 332.727 213.544 332.305C214.274 331.883 215.083 331.56 215.972 331.338C216.869 331.107 217.771 330.919 218.679 330.773C219.867 330.585 220.831 330.441 221.57 330.343C222.317 330.236 222.858 330.079 223.193 329.873C223.537 329.667 223.701 329.321 223.687 328.836L223.684 328.733C223.647 327.473 223.273 326.503 222.563 325.825C221.861 325.146 220.816 324.827 219.427 324.868C217.987 324.91 216.868 325.258 216.068 325.913C215.269 326.567 214.714 327.257 214.402 327.982L211.51 327.044C211.986 325.836 212.641 324.888 213.473 324.198C214.314 323.5 215.237 323.004 216.243 322.71C217.257 322.408 218.259 322.242 219.247 322.213C219.877 322.194 220.604 322.25 221.426 322.379C222.257 322.5 223.062 322.779 223.842 323.216C224.631 323.654 225.294 324.329 225.833 325.243C226.371 326.156 226.663 327.393 226.709 328.952L227.088 341.884L224.072 341.972L223.994 339.314L223.841 339.319C223.649 339.751 223.321 340.216 222.859 340.716C222.396 341.215 221.773 341.647 220.991 342.011C220.209 342.375 219.247 342.574 218.105 342.607ZM218.486 339.885C219.678 339.85 220.677 339.586 221.481 339.094C222.293 338.601 222.898 337.978 223.293 337.224C223.698 336.471 223.888 335.685 223.864 334.867L223.783 332.107C223.66 332.264 223.383 332.413 222.952 332.553C222.529 332.685 222.038 332.806 221.479 332.916C220.928 333.018 220.389 333.11 219.863 333.194C219.345 333.269 218.925 333.332 218.602 333.384C217.821 333.509 217.094 333.697 216.419 333.947C215.752 334.188 215.217 334.541 214.813 335.004C214.417 335.459 214.23 336.07 214.253 336.837C214.283 337.885 214.694 338.666 215.485 339.18C216.284 339.685 217.285 339.92 218.486 339.885Z" fill="white" fill-opacity="0.3"/>
<path d="M246.369 314.307L247.956 316.102C247.377 316.699 246.699 317.124 245.922 317.377C245.145 317.63 244.263 317.796 243.276 317.876C242.289 317.957 241.192 318.04 239.984 318.126C238.622 318.218 237.503 318.583 236.627 319.222C235.75 319.862 235.086 320.768 234.634 321.941C234.183 323.114 233.913 324.546 233.827 326.236L234.082 326.229C234.711 324.983 235.604 324.053 236.763 323.439C237.922 322.825 239.174 322.499 240.52 322.459C242.053 322.414 243.444 322.732 244.692 323.411C245.939 324.091 246.942 325.123 247.698 326.508C248.455 327.892 248.864 329.616 248.924 331.677C248.984 333.73 248.67 335.513 247.981 337.025C247.301 338.537 246.316 339.717 245.028 340.565C243.748 341.404 242.231 341.849 240.476 341.901C238.721 341.952 237.171 341.584 235.826 340.796C234.481 340 233.419 338.795 232.638 337.181C231.857 335.558 231.431 333.537 231.361 331.118L231.299 329.022C231.171 324.652 231.815 321.316 233.231 319.015C234.656 316.714 236.862 315.481 239.85 315.317C240.906 315.252 241.847 315.216 242.674 315.208C243.5 315.201 244.219 315.142 244.83 315.03C245.44 314.918 245.953 314.677 246.369 314.307ZM240.396 339.192C241.58 339.157 242.59 338.829 243.424 338.208C244.267 337.586 244.903 336.728 245.331 335.632C245.759 334.528 245.952 333.239 245.908 331.766C245.867 330.334 245.597 329.123 245.099 328.132C244.609 327.14 243.926 326.392 243.05 325.889C242.175 325.386 241.136 325.153 239.935 325.188C239.057 325.213 238.274 325.386 237.584 325.704C236.894 326.023 236.311 326.479 235.833 327.073C235.356 327.667 234.994 328.385 234.746 329.228C234.506 330.07 234.393 331.029 234.408 332.103C234.472 334.301 235.039 336.045 236.109 337.335C237.178 338.625 238.607 339.244 240.396 339.192Z" fill="white" fill-opacity="0.3"/>
<path d="M252.079 341.151L251.997 338.34L252.713 338.319C253.301 338.302 253.787 338.173 254.172 337.931C254.557 337.681 254.86 337.259 255.081 336.664C255.311 336.06 255.474 335.228 255.571 334.168C255.676 333.099 255.734 331.742 255.746 330.096L255.849 321.396L268.934 321.013L269.51 340.641L266.494 340.729L266.001 323.912L258.794 324.124L258.692 331.135C258.671 332.747 258.568 334.17 258.383 335.403C258.205 336.628 257.907 337.66 257.488 338.499C257.078 339.338 256.517 339.977 255.805 340.415C255.093 340.854 254.192 341.089 253.102 341.121L252.079 341.151Z" fill="white" fill-opacity="0.3"/>
<path d="M283.028 340.654C281.257 340.706 279.689 340.33 278.327 339.525C276.974 338.721 275.9 337.571 275.105 336.077C274.32 334.582 273.897 332.821 273.838 330.794C273.778 328.749 274.096 326.954 274.793 325.407C275.498 323.86 276.502 322.645 277.807 321.763C279.12 320.88 280.662 320.413 282.434 320.361C284.206 320.309 285.769 320.686 287.122 321.49C288.485 322.294 289.559 323.448 290.344 324.951C291.139 326.454 291.566 328.228 291.626 330.272C291.685 332.3 291.362 334.083 290.657 335.621C289.96 337.159 288.956 338.37 287.643 339.252C286.339 340.135 284.8 340.602 283.028 340.654ZM282.949 337.945C284.295 337.905 285.392 337.528 286.241 336.812C287.09 336.097 287.707 335.171 288.091 334.034C288.475 332.897 288.649 331.673 288.61 330.361C288.572 329.049 288.327 327.833 287.876 326.712C287.426 325.591 286.756 324.694 285.866 324.021C284.977 323.348 283.859 323.031 282.513 323.07C281.167 323.11 280.07 323.492 279.221 324.216C278.373 324.94 277.757 325.874 277.372 327.02C276.988 328.165 276.815 329.393 276.854 330.705C276.892 332.017 277.137 333.229 277.587 334.342C278.037 335.454 278.707 336.342 279.596 337.007C280.485 337.672 281.603 337.984 282.949 337.945Z" fill="white" fill-opacity="0.3"/>
<path d="M309.322 328.27L309.405 331.082L298.568 331.399L298.486 328.588L309.322 328.27ZM298.954 320.133L299.53 339.761L296.514 339.849L295.939 320.221L298.954 320.133ZM311.375 319.769L311.95 339.397L308.935 339.485L308.36 319.857L311.375 319.769Z" fill="white" fill-opacity="0.3"/>
<path d="M319.698 326.636L325.32 326.471C327.621 326.404 329.397 326.936 330.649 328.067C331.902 329.199 332.554 330.659 332.607 332.448C332.641 333.624 332.4 334.701 331.883 335.679C331.366 336.65 330.587 337.436 329.547 338.037C328.508 338.63 327.221 338.95 325.687 338.994L317.458 339.236L316.883 319.608L319.899 319.519L320.391 336.336L325.605 336.183C326.798 336.148 327.768 335.804 328.516 335.151C329.265 334.499 329.624 333.678 329.595 332.69C329.565 331.65 329.157 330.814 328.371 330.181C327.585 329.547 326.596 329.248 325.403 329.283L319.78 329.447L319.698 326.636ZM335.91 338.695L335.335 319.067L338.351 318.979L338.926 338.607L335.91 338.695Z" fill="white" fill-opacity="0.3"/>
<path d="M11.1235 93.1025C9.99119 54.4592 40.3999 22.2146 79.0432 21.0823L418.897 11.1237C457.541 9.99131 489.785 40.4 490.918 79.0433L500.876 418.897C502.009 457.541 471.6 489.785 432.957 490.918L93.1024 500.876C54.4591 502.009 22.2145 471.6 21.0822 432.957L11.1235 93.1025Z" fill="#1F2329"/>
<path d="M31.115 92.5168C30.3061 64.9144 52.0266 41.8825 79.629 41.0737L419.483 31.1151C447.086 30.3063 470.117 52.0267 470.926 79.6291L473.855 179.586C474.664 207.189 452.944 230.22 425.341 231.029L85.487 240.988C57.8846 241.797 34.8528 220.076 34.044 192.474L31.115 92.5168Z" fill="#2A2F36"/>
<path d="M140.173 86.6523L136.186 86.7691C136.007 85.9217 135.7 85.1804 135.264 84.5452C134.827 83.91 134.3 83.3755 133.682 82.9417C133.064 82.5079 132.377 82.187 131.62 81.9789C130.872 81.7706 130.081 81.6787 129.246 81.7032C127.738 81.7474 126.399 82.166 125.229 82.9592C124.067 83.7521 123.162 84.8913 122.515 86.3768C121.876 87.862 121.588 89.661 121.65 91.7737C121.712 93.9035 122.106 95.6911 122.83 97.1364C123.563 98.5814 124.537 99.6613 125.752 100.376C126.966 101.091 128.319 101.426 129.81 101.383C130.636 101.358 131.417 101.225 132.151 100.981C132.894 100.729 133.562 100.373 134.154 99.9124C134.746 99.4517 135.241 98.8958 135.64 98.2446C136.047 97.5847 136.319 96.8349 136.456 95.9953L140.443 95.8912C140.268 97.1839 139.89 98.3801 139.308 99.48C138.735 100.571 137.982 101.523 137.051 102.334C136.128 103.137 135.064 103.77 133.858 104.231C132.652 104.693 131.33 104.945 129.89 104.987C127.624 105.053 125.589 104.576 123.786 103.554C121.982 102.524 120.54 101.019 119.458 99.0385C118.386 97.0577 117.809 94.6744 117.727 91.8887C117.645 89.0944 118.086 86.6813 119.05 84.6494C120.013 82.609 121.365 81.0261 123.105 79.9007C124.846 78.7669 126.845 78.1669 129.102 78.1007C130.491 78.0601 131.792 78.2223 133.004 78.5875C134.226 78.9439 135.329 79.4914 136.314 80.2299C137.299 80.9599 138.123 81.8651 138.785 82.9456C139.447 84.0176 139.91 85.2532 140.173 86.6523Z" fill="white"/>
<path d="M153.388 104.337C151.548 104.391 149.929 104.016 148.533 103.213C147.137 102.41 146.037 101.261 145.235 99.7668C144.432 98.2726 144.001 96.5117 143.942 94.4842C143.882 92.4481 144.209 90.6565 144.922 89.1094C145.636 87.5623 146.666 86.3469 148.013 85.4634C149.36 84.5798 150.953 84.111 152.794 84.0571C154.634 84.0032 156.252 84.3778 157.648 85.181C159.044 85.9842 160.144 87.1372 160.947 88.6399C161.75 90.1426 162.181 91.9119 162.241 93.948C162.3 95.9755 161.973 97.7586 161.259 99.2972C160.545 100.836 159.515 102.047 158.168 102.931C156.821 103.814 155.228 104.283 153.388 104.337ZM153.307 101.129C154.499 101.094 155.478 100.75 156.243 100.096C157.009 99.4431 157.563 98.587 157.908 97.5282C158.26 96.4691 158.418 95.3091 158.381 94.0483C158.344 92.796 158.119 91.6515 157.705 90.6149C157.299 89.5695 156.695 88.7389 155.893 88.1229C155.09 87.5069 154.093 87.2164 152.9 87.2514C151.699 87.2866 150.711 87.6353 149.938 88.2974C149.173 88.9593 148.614 89.824 148.262 90.8916C147.917 91.9505 147.764 93.106 147.8 94.3583C147.837 95.6192 148.059 96.768 148.464 97.8049C148.878 98.8415 149.486 99.6635 150.289 100.271C151.099 100.878 152.105 101.164 153.307 101.129Z" fill="white"/>
<path d="M181.144 76.1665L182.799 78.5352C182.227 79.0892 181.57 79.4921 180.827 79.7441C180.092 79.9873 179.24 80.153 178.27 80.2411C177.301 80.3206 176.19 80.4001 174.939 80.4794C173.526 80.5634 172.373 80.9042 171.478 81.5016C170.583 82.0906 169.904 82.9461 169.443 84.068C168.989 85.1812 168.715 86.5705 168.618 88.236L168.861 88.2289C169.464 86.9919 170.324 86.0544 171.439 85.4164C172.563 84.7781 173.836 84.4381 175.259 84.3964C176.843 84.35 178.264 84.6707 179.52 85.3586C180.777 86.0466 181.779 87.0787 182.527 88.4551C183.283 89.8228 183.691 91.5118 183.75 93.5223C183.81 95.5584 183.486 97.3286 182.78 98.8329C182.082 100.337 181.068 101.513 179.737 102.362C178.415 103.203 176.838 103.65 175.006 103.703C173.174 103.757 171.565 103.391 170.178 102.604C168.799 101.809 167.71 100.605 166.913 98.9909C166.124 97.3769 165.694 95.3688 165.624 92.9664L165.567 91.024C165.435 86.5345 166.137 83.1332 167.672 80.8202C169.207 78.5072 171.567 77.2742 174.751 77.1212C175.781 77.0654 176.701 77.0342 177.511 77.0275C178.321 77.0124 179.027 76.9533 179.629 76.8504C180.24 76.7387 180.745 76.5107 181.144 76.1665ZM174.925 100.495C175.99 100.464 176.898 100.169 177.649 99.6099C178.408 99.042 178.982 98.2535 179.37 97.2446C179.758 96.2356 179.932 95.0539 179.893 93.6993C179.854 92.3703 179.612 91.2477 179.167 90.3313C178.723 89.415 178.106 88.7254 177.316 88.2625C176.526 87.7911 175.591 87.5713 174.509 87.603C173.708 87.6265 172.996 87.788 172.374 88.0876C171.752 88.3787 171.223 88.7992 170.787 89.3491C170.36 89.8988 170.034 90.5649 169.809 91.3473C169.593 92.121 169.491 93.0065 169.504 94.0037C169.563 96.0313 170.075 97.632 171.038 98.806C172.011 99.9798 173.306 100.543 174.925 100.495Z" fill="white"/>
<path d="M188.513 110.278L187.722 83.2894L191.453 83.1801L191.546 86.3619L191.866 86.3526C192.075 85.9372 192.381 85.455 192.783 84.9061C193.184 84.3571 193.75 83.8716 194.479 83.4495C195.208 83.0189 196.182 82.7857 197.4 82.75C198.985 82.7036 200.411 83.0625 201.678 83.8269C202.945 84.5912 203.955 85.717 204.706 87.2041C205.466 88.691 205.877 90.4951 205.939 92.6164C206.001 94.7376 205.701 96.5668 205.038 98.1039C204.375 99.6325 203.438 100.824 202.227 101.678C201.015 102.523 199.617 102.969 198.033 103.016C196.84 103.051 195.859 102.879 195.089 102.501C194.327 102.122 193.726 101.671 193.284 101.147C192.842 100.623 192.5 100.155 192.258 99.7446L192.028 99.7513L192.333 110.166L188.513 110.278ZM191.753 92.9937C191.794 94.3738 192.03 95.5776 192.46 96.6052C192.891 97.6328 193.494 98.4294 194.27 98.995C195.045 99.5521 195.982 99.8145 197.081 99.7823C198.223 99.7488 199.168 99.4185 199.917 98.7911C200.666 98.1553 201.221 97.3077 201.582 96.2484C201.951 95.1888 202.117 94.003 202.079 92.6911C202.041 91.3962 201.811 90.2391 201.389 89.2198C200.975 88.2002 200.372 87.4036 199.579 86.83C198.795 86.2561 197.828 85.986 196.678 86.0197C195.57 86.0522 194.641 86.365 193.891 86.9583C193.15 87.5513 192.598 88.3647 192.236 89.3984C191.874 90.4322 191.713 91.6306 191.753 92.9937Z" fill="white"/>
<path d="M216.231 102.534C214.987 102.57 213.856 102.373 212.837 101.942C211.818 101.503 211.002 100.849 210.388 99.9807C209.783 99.1117 209.461 98.034 209.424 96.7476C209.391 95.6401 209.577 94.7223 209.982 93.9943C210.387 93.2662 210.946 92.6828 211.658 92.2442C212.37 91.8055 213.17 91.4666 214.058 91.2274C214.946 90.9882 215.853 90.7996 216.778 90.6617C217.95 90.4909 218.901 90.3522 219.631 90.2456C220.361 90.1304 220.889 89.9657 221.215 89.7515C221.541 89.5373 221.698 89.2002 221.684 88.7402L221.682 88.6507C221.649 87.5347 221.308 86.6793 220.66 86.0844C220.02 85.4892 219.083 85.2097 217.847 85.2459C216.561 85.2836 215.556 85.5987 214.831 86.1912C214.115 86.7749 213.626 87.4159 213.366 88.1142L209.751 87.4016C210.142 86.1965 210.735 85.2156 211.532 84.459C212.336 83.6936 213.271 83.1291 214.334 82.7654C215.398 82.3932 216.521 82.1897 217.706 82.155C218.489 82.132 219.323 82.2014 220.206 82.3631C221.097 82.5161 221.933 82.8241 222.714 83.2872C223.503 83.7501 224.158 84.4258 224.679 85.3143C225.199 86.1944 225.48 87.35 225.522 88.7812L225.904 101.815L222.173 101.925L222.094 99.2412L221.941 99.2457C221.708 99.747 221.352 100.243 220.872 100.735C220.392 101.227 219.769 101.641 219.003 101.979C218.237 102.317 217.313 102.502 216.231 102.534ZM216.972 99.4424C218.028 99.4115 218.925 99.1763 219.662 98.7369C220.408 98.2973 220.967 97.7352 221.339 97.0507C221.72 96.3574 221.899 95.6232 221.876 94.848L221.802 92.3178C221.67 92.4581 221.409 92.5936 221.021 92.7244C220.641 92.8463 220.205 92.9572 219.713 93.0568C219.221 93.148 218.742 93.2345 218.276 93.3164C217.809 93.3898 217.419 93.4524 217.105 93.5042C216.366 93.6196 215.693 93.7971 215.087 94.0365C214.488 94.2758 214.012 94.6094 213.658 95.0376C213.312 95.457 213.149 96.0075 213.169 96.689C213.197 97.6346 213.567 98.34 214.28 98.8051C214.992 99.2617 215.89 99.4742 216.972 99.4424Z" fill="white"/>
<path d="M228.081 85.4065L227.984 82.1096L244.545 81.6243L244.642 84.9212L238.24 85.1088L238.718 101.44L234.987 101.549L234.508 85.2182L228.081 85.4065Z" fill="white"/>
<path d="M251.659 88.1688L257.358 88.0018C259.761 87.9314 261.627 88.4735 262.957 89.6283C264.287 90.783 264.979 92.3017 265.034 94.1844C265.07 95.4112 264.813 96.5229 264.262 97.5195C263.712 98.5162 262.887 99.3163 261.787 99.9198C260.688 100.515 259.337 100.836 257.736 100.883L249.161 101.134L248.586 81.5059L252.33 81.3962L252.809 97.7273L257.639 97.5857C258.738 97.5535 259.633 97.2417 260.323 96.6502C261.013 96.0502 261.345 95.3029 261.319 94.4084C261.291 93.4628 260.915 92.7022 260.191 92.1265C259.466 91.5424 258.554 91.2664 257.455 91.2986L251.756 91.4657L251.659 88.1688Z" fill="white"/>
<path d="M279.031 100.259L278.456 80.6306L294.468 80.1615L295.043 99.7894L291.299 99.8991L290.82 83.5681L282.271 83.8186L282.75 100.15L279.031 100.259Z" fill="white"/>
<path d="M300.367 107L299.576 80.0118L303.307 79.9024L303.401 83.0843L303.72 83.075C303.93 82.6595 304.235 82.1774 304.637 81.6284C305.039 81.0795 305.604 80.594 306.334 80.1719C307.063 79.7412 308.037 79.5081 309.255 79.4724C310.839 79.4259 312.265 79.7849 313.532 80.5493C314.8 81.3136 315.809 82.4393 316.56 83.9265C317.32 85.4134 317.731 87.2175 317.793 89.3387C317.855 91.46 317.555 93.2892 316.892 94.8263C316.23 96.3549 315.292 97.5462 314.081 98.4002C312.87 99.2457 311.472 99.6917 309.887 99.7381C308.694 99.7731 307.713 99.6015 306.943 99.2233C306.182 98.8448 305.58 98.3935 305.138 97.8693C304.697 97.3451 304.355 96.8776 304.113 96.4669L303.883 96.4737L304.188 106.888L300.367 107ZM303.608 89.716C303.648 91.0961 303.884 92.3 304.315 93.3276C304.746 94.3552 305.349 95.1518 306.124 95.7174C306.899 96.2744 307.836 96.5369 308.935 96.5047C310.077 96.4712 311.022 96.1408 311.771 95.5135C312.52 94.8777 313.075 94.0301 313.436 92.9708C313.806 91.9112 313.971 90.7254 313.933 89.4135C313.895 88.1186 313.665 86.9615 313.243 85.9421C312.829 84.9226 312.226 84.126 311.433 83.5524C310.649 82.9785 309.682 82.7084 308.532 82.7421C307.425 82.7746 306.496 83.0874 305.746 83.6807C305.004 84.2736 304.453 85.087 304.091 86.1208C303.729 87.1546 303.568 88.353 303.608 89.716Z" fill="white"/>
<path d="M330.64 99.1428C328.8 99.1967 327.181 98.8221 325.785 98.0189C324.389 97.2157 323.289 96.067 322.487 94.5728C321.684 93.0786 321.253 91.3178 321.194 89.2902C321.134 87.2542 321.461 85.4626 322.175 83.9155C322.888 82.3683 323.918 81.153 325.265 80.2694C326.612 79.3858 328.205 78.9171 330.046 78.8632C331.886 78.8092 333.504 79.1839 334.9 79.9871C336.296 80.7903 337.396 81.9432 338.199 83.4459C339.002 84.9486 339.433 86.718 339.493 88.754C339.552 90.7816 339.225 92.5647 338.511 94.1033C337.797 95.6419 336.767 96.853 335.42 97.7366C334.073 98.6201 332.48 99.0889 330.64 99.1428ZM330.559 95.935C331.751 95.9 332.73 95.5559 333.496 94.9025C334.261 94.2491 334.815 93.393 335.16 92.3342C335.512 91.2751 335.67 90.1152 335.633 88.8543C335.596 87.602 335.371 86.4576 334.957 85.421C334.551 84.3756 333.947 83.5449 333.145 82.929C332.342 82.313 331.345 82.0225 330.152 82.0574C328.951 82.0926 327.963 82.4413 327.19 83.1034C326.425 83.7653 325.866 84.6301 325.514 85.6977C325.17 86.7565 325.016 87.9121 325.053 89.1644C325.089 90.4252 325.311 91.5741 325.716 92.6109C326.13 93.6475 326.738 94.4696 327.541 95.077C328.351 95.6842 329.357 95.9702 330.559 95.935Z" fill="white"/>
<path d="M354.919 93.3027L360.821 78.2171L364.118 78.1205L356.476 97.9893L353.639 98.0724L345.014 78.6803L348.272 78.5849L354.919 93.3027ZM347.212 78.6159L347.787 98.2439L344.043 98.3536L343.467 78.7256L347.212 78.6159ZM362.431 97.8148L361.856 78.1868L365.574 78.0779L366.15 97.7058L362.431 97.8148Z" fill="white"/>
<path d="M368.329 81.2969L368.232 78L384.793 77.5147L384.89 80.8116L378.488 80.9992L378.966 97.3302L375.235 97.4396L374.757 81.1085L368.329 81.2969Z" fill="white"/>
<path d="M52.9644 185.028C52.4467 167.362 66.3478 152.622 84.0133 152.104L211.263 148.375C228.929 147.858 243.669 161.759 244.187 179.424L244.265 182.09C244.782 199.755 230.881 214.496 213.216 215.013L85.966 218.742C68.3005 219.26 53.5601 205.359 53.0425 187.693L52.9644 185.028Z" fill="white"/>
<path d="M263.309 178.864C262.791 161.198 276.693 146.458 294.358 145.94L421.608 142.212C439.273 141.694 454.014 155.595 454.531 173.261L454.61 175.926C455.127 193.592 441.226 208.332 423.561 208.85L296.311 212.578C278.645 213.096 263.905 199.195 263.387 181.529L263.309 178.864Z" fill="#10B981"/>
<path d="M127.823 176.345L130.583 176.264C131.878 176.226 133.037 176.482 134.059 177.032C135.081 177.582 135.894 178.365 136.498 179.382C137.102 180.399 137.424 181.589 137.464 182.952C137.504 184.315 137.252 185.525 136.709 186.581C136.166 187.637 135.4 188.472 134.412 189.087C133.424 189.701 132.283 190.027 130.988 190.065L128.227 190.146C126.933 190.184 125.774 189.928 124.752 189.378C123.73 188.828 122.917 188.045 122.313 187.028C121.709 186.011 121.387 184.821 121.347 183.458C121.307 182.095 121.559 180.886 122.102 179.83C122.645 178.773 123.41 177.938 124.399 177.324C125.387 176.709 126.528 176.383 127.823 176.345ZM127.878 178.219C126.89 178.248 126.061 178.48 125.392 178.915C124.728 179.349 124.231 179.949 123.901 180.715C123.577 181.48 123.43 182.374 123.46 183.396C123.489 184.407 123.688 185.283 124.057 186.022C124.431 186.761 124.962 187.329 125.65 187.723C126.343 188.118 127.184 188.301 128.173 188.272L130.933 188.191C131.921 188.162 132.747 187.93 133.411 187.496C134.08 187.061 134.577 186.461 134.901 185.696C135.231 184.93 135.381 184.036 135.351 183.014C135.322 182.003 135.12 181.128 134.746 180.388C134.377 179.649 133.846 179.082 133.153 178.687C132.465 178.292 131.626 178.109 130.638 178.138L127.878 178.219ZM130.207 173.888L130.748 192.357L128.635 192.419L128.094 173.95L130.207 173.888Z" fill="#1F2329" fill-opacity="0.3"/>
<path d="M146.304 191.458C145.122 191.493 144.077 191.242 143.169 190.706C142.267 190.169 141.551 189.403 141.022 188.407C140.498 187.41 140.216 186.236 140.177 184.885C140.137 183.522 140.349 182.325 140.813 181.293C141.283 180.262 141.953 179.452 142.822 178.864C143.698 178.276 144.726 177.964 145.907 177.93C147.088 177.895 148.13 178.146 149.033 178.682C149.941 179.218 150.657 179.988 151.181 180.99C151.71 181.992 151.995 183.174 152.035 184.537C152.075 185.889 151.859 187.078 151.389 188.103C150.925 189.129 150.255 189.935 149.38 190.524C148.51 191.112 147.485 191.423 146.304 191.458ZM146.251 189.652C147.148 189.626 147.88 189.374 148.445 188.897C149.011 188.42 149.422 187.803 149.679 187.045C149.935 186.287 150.05 185.471 150.025 184.596C149.999 183.721 149.836 182.911 149.535 182.163C149.235 181.416 148.788 180.818 148.195 180.369C147.602 179.921 146.857 179.71 145.96 179.736C145.063 179.762 144.331 180.017 143.766 180.499C143.2 180.982 142.789 181.605 142.533 182.369C142.277 183.132 142.161 183.951 142.187 184.826C142.213 185.7 142.376 186.508 142.676 187.25C142.976 187.992 143.423 188.584 144.015 189.027C144.608 189.47 145.353 189.678 146.251 189.652Z" fill="#1F2329" fill-opacity="0.3"/>
<path d="M153.255 179.761L153.2 177.887L163.832 177.575L163.887 179.449L159.593 179.575L159.922 190.786L157.911 190.845L157.583 179.634L153.255 179.761Z" fill="#1F2329" fill-opacity="0.3"/>
<path d="M171.793 190.711C170.611 190.746 169.567 190.495 168.658 189.959C167.756 189.423 167.04 188.656 166.511 187.66C165.987 186.664 165.705 185.489 165.666 184.138C165.626 182.775 165.838 181.578 166.302 180.547C166.772 179.515 167.442 178.706 168.311 178.117C169.187 177.529 170.215 177.217 171.396 177.183C172.577 177.148 173.619 177.399 174.522 177.935C175.43 178.472 176.146 179.241 176.67 180.243C177.199 181.245 177.484 182.427 177.524 183.79C177.564 185.142 177.348 186.331 176.878 187.356C176.414 188.382 175.744 189.189 174.869 189.777C173.999 190.365 172.974 190.677 171.793 190.711ZM171.74 188.905C172.637 188.879 173.369 188.627 173.934 188.15C174.5 187.673 174.911 187.056 175.168 186.298C175.424 185.54 175.539 184.724 175.514 183.849C175.488 182.975 175.325 182.164 175.025 181.416C174.724 180.669 174.277 180.071 173.685 179.623C173.092 179.174 172.346 178.963 171.449 178.989C170.552 179.015 169.82 179.27 169.255 179.752C168.689 180.235 168.278 180.858 168.022 181.622C167.766 182.385 167.65 183.204 167.676 184.079C167.702 184.953 167.865 185.762 168.165 186.503C168.465 187.245 168.912 187.837 169.504 188.28C170.097 188.723 170.842 188.931 171.74 188.905Z" fill="#1F2329" fill-opacity="0.3"/>
<path d="M323.876 185.982L323.365 168.535L329.754 168.348C330.992 168.311 332.024 168.486 332.848 168.871C333.672 169.25 334.295 169.781 334.719 170.462C335.142 171.137 335.367 171.906 335.392 172.77C335.413 173.497 335.298 174.114 335.045 174.621C334.793 175.123 334.447 175.531 334.007 175.846C333.573 176.154 333.091 176.384 332.561 176.536L332.566 176.706C333.146 176.718 333.716 176.889 334.277 177.219C334.844 177.543 335.318 178.015 335.7 178.635C336.082 179.255 336.286 180.016 336.313 180.919C336.339 181.811 336.152 182.618 335.753 183.34C335.359 184.057 334.734 184.635 333.877 185.075C333.02 185.509 331.915 185.746 330.564 185.786L323.876 185.982ZM326.443 183.647L330.242 183.536C331.503 183.499 332.399 183.228 332.93 182.724C333.461 182.219 333.715 181.601 333.694 180.868C333.678 180.317 333.524 179.816 333.232 179.364C332.94 178.912 332.532 178.558 332.007 178.3C331.488 178.042 330.876 177.924 330.172 177.945L326.279 178.059L326.443 183.647ZM326.219 176.006L329.745 175.902C330.336 175.885 330.864 175.756 331.329 175.515C331.799 175.274 332.167 174.944 332.434 174.527C332.705 174.105 332.833 173.612 332.817 173.05C332.796 172.328 332.525 171.731 332.005 171.257C331.485 170.784 330.703 170.562 329.658 170.593L326.063 170.698L326.219 176.006Z" fill="white"/>
<path d="M341.76 181.885L347.248 172.2L349.991 172.12L350.375 185.205L347.879 185.279L347.6 175.754L342.137 185.447L339.368 185.528L338.985 172.443L341.481 172.369L341.76 181.885Z" fill="white"/>
<path d="M352.632 188.916L352.457 182.936L353.522 182.905C353.787 182.647 354.008 182.342 354.186 181.99C354.369 181.638 354.518 181.222 354.635 180.741C354.757 180.26 354.855 179.7 354.927 179.061C354.999 178.416 355.057 177.681 355.101 176.856L355.367 171.963L364.261 171.702L364.58 182.581L366.59 182.522L366.765 188.502L364.278 188.575L364.167 184.801L355.043 185.069L355.154 188.843L352.632 188.916ZM356.248 182.825L362.092 182.654L361.837 173.956L357.714 174.077L357.52 176.785C357.43 178.163 357.3 179.361 357.131 180.378C356.962 181.389 356.667 182.204 356.248 182.825Z" fill="white"/>
<path d="M374.792 184.754C373.503 184.792 372.384 184.549 371.437 184.025C370.495 183.496 369.756 182.736 369.221 181.746C368.692 180.749 368.407 179.573 368.367 178.215C368.328 176.875 368.543 175.686 369.013 174.649C369.489 173.612 370.17 172.794 371.056 172.193C371.948 171.593 373.001 171.275 374.217 171.24C374.955 171.218 375.674 171.319 376.374 171.543C377.074 171.767 377.707 172.132 378.274 172.639C378.84 173.145 379.294 173.811 379.637 174.636C379.979 175.456 380.168 176.46 380.202 177.647L380.229 178.55L369.827 178.854L369.771 176.946L377.677 176.715C377.657 176.044 377.504 175.455 377.216 174.946C376.928 174.432 376.532 174.031 376.03 173.744C375.532 173.458 374.954 173.324 374.295 173.343C373.58 173.364 372.96 173.559 372.437 173.927C371.919 174.288 371.523 174.755 371.25 175.326C370.982 175.89 370.858 176.499 370.877 177.153L370.921 178.643C370.946 179.518 371.122 180.258 371.446 180.862C371.777 181.466 372.225 181.922 372.791 182.229C373.357 182.531 374.012 182.671 374.756 182.649C375.238 182.635 375.677 182.554 376.07 182.406C376.464 182.252 376.801 182.032 377.083 181.745C377.364 181.459 377.575 181.109 377.717 180.695L380.14 181.059C379.968 181.775 379.64 182.407 379.156 182.955C378.677 183.498 378.067 183.928 377.326 184.245C376.591 184.557 375.746 184.726 374.792 184.754Z" fill="white"/>
<path d="M388.744 184.345C387.517 184.381 386.438 184.132 385.508 183.596C384.577 183.061 383.844 182.295 383.309 181.299C382.774 180.303 382.486 179.129 382.447 177.777C382.407 176.42 382.625 175.225 383.1 174.194C383.576 173.162 384.263 172.352 385.161 171.763C386.059 171.174 387.121 170.862 388.348 170.826C389.575 170.79 390.653 171.039 391.584 171.575C392.515 172.11 393.248 172.879 393.783 173.881C394.319 174.883 394.606 176.062 394.646 177.42C394.686 178.771 394.467 179.96 393.992 180.986C393.516 182.011 392.829 182.819 391.931 183.408C391.033 183.997 389.971 184.309 388.744 184.345ZM388.69 182.207C389.485 182.184 390.138 181.954 390.648 181.519C391.158 181.083 391.528 180.512 391.757 179.806C391.992 179.1 392.098 178.327 392.073 177.486C392.048 176.652 391.898 175.889 391.622 175.197C391.352 174.501 390.949 173.947 390.414 173.536C389.879 173.126 389.214 172.932 388.419 172.955C387.618 172.979 386.96 173.211 386.444 173.652C385.934 174.094 385.561 174.67 385.327 175.382C385.097 176.088 384.995 176.858 385.019 177.693C385.044 178.534 385.191 179.3 385.462 179.991C385.738 180.682 386.143 181.23 386.678 181.635C387.218 182.04 387.889 182.23 388.69 182.207Z" fill="white"/>
<path d="M38.1446 332.414C37.3358 304.811 59.0562 281.78 86.6586 280.971L426.513 271.012C454.115 270.203 477.147 291.924 477.956 319.526L480.885 419.483C481.694 447.086 459.973 470.117 432.371 470.926L92.5166 480.885C64.9143 481.694 41.8824 459.973 41.0736 432.371L38.1446 332.414Z" fill="#2A2F36"/>
<path d="M177.695 317.138L180.864 317.045L181.546 340.302L190.746 340.033L190.065 316.775L193.234 316.683L193.915 339.94L203.116 339.67L202.434 316.413L205.604 316.32L206.37 342.491L178.462 343.309L177.695 317.138Z" fill="white" fill-opacity="0.3"/>
<path d="M218.105 342.607C216.861 342.644 215.726 342.443 214.698 342.004C213.67 341.556 212.845 340.894 212.223 340.017C211.6 339.132 211.27 338.05 211.232 336.772C211.199 335.648 211.394 334.729 211.817 334.018C212.239 333.298 212.815 332.727 213.544 332.305C214.274 331.883 215.083 331.56 215.972 331.338C216.869 331.107 217.771 330.919 218.679 330.773C219.867 330.585 220.831 330.441 221.57 330.343C222.317 330.236 222.858 330.079 223.193 329.873C223.537 329.667 223.701 329.321 223.687 328.836L223.684 328.733C223.647 327.473 223.273 326.503 222.563 325.825C221.861 325.146 220.816 324.827 219.427 324.868C217.987 324.91 216.868 325.258 216.068 325.913C215.269 326.567 214.714 327.257 214.402 327.982L211.51 327.044C211.986 325.836 212.641 324.888 213.473 324.198C214.314 323.5 215.237 323.004 216.243 322.71C217.257 322.408 218.259 322.242 219.247 322.213C219.877 322.194 220.604 322.25 221.426 322.379C222.257 322.5 223.062 322.779 223.842 323.216C224.631 323.654 225.294 324.329 225.833 325.243C226.371 326.156 226.663 327.393 226.709 328.952L227.088 341.884L224.072 341.972L223.994 339.314L223.841 339.319C223.649 339.751 223.321 340.216 222.859 340.716C222.396 341.215 221.773 341.647 220.991 342.011C220.209 342.375 219.247 342.574 218.105 342.607ZM218.486 339.885C219.678 339.85 220.677 339.586 221.481 339.094C222.293 338.601 222.898 337.978 223.293 337.224C223.698 336.471 223.888 335.685 223.864 334.867L223.783 332.107C223.66 332.264 223.383 332.413 222.952 332.553C222.529 332.685 222.038 332.806 221.479 332.916C220.928 333.018 220.389 333.11 219.863 333.194C219.345 333.269 218.925 333.332 218.602 333.384C217.821 333.509 217.094 333.697 216.419 333.947C215.752 334.188 215.217 334.541 214.813 335.004C214.417 335.459 214.23 336.07 214.253 336.837C214.283 337.885 214.694 338.666 215.485 339.18C216.284 339.685 217.285 339.92 218.486 339.885Z" fill="white" fill-opacity="0.3"/>
<path d="M246.369 314.307L247.956 316.102C247.377 316.699 246.699 317.124 245.922 317.377C245.145 317.63 244.263 317.796 243.276 317.876C242.289 317.957 241.192 318.04 239.984 318.126C238.622 318.218 237.503 318.583 236.627 319.222C235.75 319.862 235.086 320.768 234.634 321.941C234.183 323.114 233.913 324.546 233.827 326.236L234.082 326.229C234.711 324.983 235.604 324.053 236.763 323.439C237.922 322.825 239.174 322.499 240.52 322.459C242.053 322.414 243.444 322.732 244.692 323.411C245.939 324.091 246.942 325.123 247.698 326.508C248.455 327.892 248.864 329.616 248.924 331.677C248.984 333.73 248.67 335.513 247.981 337.025C247.301 338.537 246.316 339.717 245.028 340.565C243.748 341.404 242.231 341.849 240.476 341.901C238.721 341.952 237.171 341.584 235.826 340.796C234.481 340 233.419 338.795 232.638 337.181C231.857 335.558 231.431 333.537 231.361 331.118L231.299 329.022C231.171 324.652 231.815 321.316 233.231 319.015C234.656 316.714 236.862 315.481 239.85 315.317C240.906 315.252 241.847 315.216 242.674 315.208C243.5 315.201 244.219 315.142 244.83 315.03C245.44 314.918 245.953 314.677 246.369 314.307ZM240.396 339.192C241.58 339.157 242.59 338.829 243.424 338.208C244.267 337.586 244.903 336.728 245.331 335.632C245.759 334.528 245.952 333.239 245.908 331.766C245.867 330.334 245.597 329.123 245.099 328.132C244.609 327.14 243.926 326.392 243.05 325.889C242.175 325.386 241.136 325.153 239.935 325.188C239.057 325.213 238.274 325.386 237.584 325.704C236.894 326.023 236.311 326.479 235.833 327.073C235.356 327.667 234.994 328.385 234.746 329.228C234.506 330.07 234.393 331.029 234.408 332.103C234.472 334.301 235.039 336.045 236.109 337.335C237.178 338.625 238.607 339.244 240.396 339.192Z" fill="white" fill-opacity="0.3"/>
<path d="M252.079 341.151L251.997 338.34L252.713 338.319C253.301 338.302 253.787 338.173 254.172 337.931C254.557 337.681 254.86 337.259 255.081 336.664C255.311 336.06 255.474 335.228 255.571 334.168C255.676 333.099 255.734 331.742 255.746 330.096L255.849 321.396L268.934 321.013L269.51 340.641L266.494 340.729L266.001 323.912L258.794 324.124L258.692 331.135C258.671 332.747 258.568 334.17 258.383 335.403C258.205 336.628 257.907 337.66 257.488 338.499C257.078 339.338 256.517 339.977 255.805 340.415C255.093 340.854 254.192 341.089 253.102 341.121L252.079 341.151Z" fill="white" fill-opacity="0.3"/>
<path d="M283.028 340.654C281.257 340.706 279.689 340.33 278.327 339.525C276.974 338.721 275.9 337.571 275.105 336.077C274.32 334.582 273.897 332.821 273.838 330.794C273.778 328.749 274.096 326.954 274.793 325.407C275.498 323.86 276.502 322.645 277.807 321.763C279.12 320.88 280.662 320.413 282.434 320.361C284.206 320.309 285.769 320.686 287.122 321.49C288.485 322.294 289.559 323.448 290.344 324.951C291.139 326.454 291.566 328.228 291.626 330.272C291.685 332.3 291.362 334.083 290.657 335.621C289.96 337.159 288.956 338.37 287.643 339.252C286.339 340.135 284.8 340.602 283.028 340.654ZM282.949 337.945C284.295 337.905 285.392 337.528 286.241 336.812C287.09 336.097 287.707 335.171 288.091 334.034C288.475 332.897 288.649 331.673 288.61 330.361C288.572 329.049 288.327 327.833 287.876 326.712C287.426 325.591 286.756 324.694 285.866 324.021C284.977 323.348 283.859 323.031 282.513 323.07C281.167 323.11 280.07 323.492 279.221 324.216C278.373 324.94 277.757 325.874 277.372 327.02C276.988 328.165 276.815 329.393 276.854 330.705C276.892 332.017 277.137 333.229 277.587 334.342C278.037 335.454 278.707 336.342 279.596 337.007C280.485 337.672 281.603 337.984 282.949 337.945Z" fill="white" fill-opacity="0.3"/>
<path d="M309.322 328.27L309.405 331.082L298.568 331.399L298.486 328.588L309.322 328.27ZM298.954 320.133L299.53 339.761L296.514 339.849L295.939 320.221L298.954 320.133ZM311.375 319.769L311.95 339.397L308.935 339.485L308.36 319.857L311.375 319.769Z" fill="white" fill-opacity="0.3"/>
<path d="M319.698 326.636L325.32 326.471C327.621 326.404 329.397 326.936 330.649 328.067C331.902 329.199 332.554 330.659 332.607 332.448C332.641 333.624 332.4 334.701 331.883 335.679C331.366 336.65 330.587 337.436 329.547 338.037C328.508 338.63 327.221 338.95 325.687 338.994L317.458 339.236L316.883 319.608L319.899 319.519L320.391 336.336L325.605 336.183C326.798 336.148 327.768 335.804 328.516 335.151C329.265 334.499 329.624 333.678 329.595 332.69C329.565 331.65 329.157 330.814 328.371 330.181C327.585 329.547 326.596 329.248 325.403 329.283L319.78 329.447L319.698 326.636ZM335.91 338.695L335.335 319.067L338.351 318.979L338.926 338.607L335.91 338.695Z" fill="white" fill-opacity="0.3"/>
<path d="M59.994 424.925C59.4763 407.259 73.3774 392.519 91.043 392.001L218.293 388.272C235.958 387.755 250.699 401.656 251.216 419.321L251.294 421.987C251.812 439.652 237.911 454.393 220.245 454.91L92.9957 458.639C75.3301 459.157 60.5897 445.256 60.0721 427.59L59.994 424.925Z" fill="white"/>
<path d="M270.339 418.761C269.821 401.095 283.722 386.355 301.388 385.837L428.637 382.109C446.303 381.591 461.043 395.492 461.561 413.158L461.639 415.823C462.157 433.489 448.256 448.229 430.59 448.747L303.34 452.475C285.675 452.993 270.935 439.092 270.417 421.426L270.339 418.761Z" fill="white"/>
<path d="M134.853 416.242L137.613 416.161C138.908 416.123 140.066 416.379 141.089 416.929C142.111 417.479 142.924 418.262 143.528 419.279C144.132 420.296 144.454 421.486 144.494 422.849C144.533 424.212 144.282 425.422 143.739 426.478C143.196 427.534 142.43 428.369 141.442 428.984C140.454 429.598 139.312 429.924 138.017 429.962L135.257 430.043C133.962 430.081 132.804 429.825 131.781 429.275C130.759 428.725 129.946 427.942 129.342 426.925C128.738 425.908 128.416 424.718 128.376 423.355C128.337 421.992 128.588 420.783 129.131 419.727C129.674 418.67 130.44 417.835 131.428 417.221C132.416 416.606 133.558 416.28 134.853 416.242ZM134.908 418.116C133.919 418.145 133.091 418.377 132.421 418.812C131.758 419.246 131.261 419.846 130.931 420.612C130.606 421.377 130.459 422.271 130.489 423.293C130.519 424.304 130.718 425.18 131.086 425.919C131.46 426.658 131.991 427.226 132.679 427.62C133.373 428.015 134.214 428.198 135.202 428.169L137.962 428.088C138.951 428.059 139.777 427.827 140.44 427.393C141.11 426.958 141.606 426.358 141.931 425.593C142.261 424.827 142.411 423.933 142.381 422.911C142.351 421.9 142.149 421.025 141.775 420.285C141.407 419.546 140.876 418.979 140.182 418.584C139.494 418.189 138.656 418.007 137.668 418.035L134.908 418.116ZM137.236 413.785L137.778 432.254L135.665 432.316L135.124 413.847L137.236 413.785Z" fill="#1F2329" fill-opacity="0.3"/>
<path d="M153.333 431.355C152.152 431.39 151.107 431.139 150.199 430.603C149.296 430.067 148.581 429.3 148.051 428.304C147.527 427.307 147.246 426.133 147.206 424.782C147.166 423.419 147.378 422.222 147.843 421.19C148.313 420.159 148.982 419.35 149.852 418.761C150.727 418.173 151.755 417.861 152.937 417.827C154.118 417.792 155.16 418.043 156.062 418.579C156.971 419.115 157.687 419.885 158.21 420.887C158.74 421.889 159.025 423.071 159.065 424.434C159.104 425.786 158.889 426.975 158.419 428C157.954 429.026 157.285 429.832 156.409 430.421C155.54 431.009 154.514 431.32 153.333 431.355ZM153.28 429.549C154.178 429.523 154.909 429.271 155.475 428.794C156.041 428.317 156.452 427.7 156.708 426.942C156.964 426.184 157.08 425.368 157.054 424.493C157.029 423.619 156.866 422.808 156.565 422.06C156.265 421.313 155.818 420.715 155.225 420.267C154.632 419.818 153.887 419.607 152.99 419.633C152.092 419.659 151.361 419.914 150.795 420.396C150.229 420.879 149.819 421.502 149.562 422.266C149.306 423.029 149.191 423.848 149.217 424.723C149.242 425.597 149.405 426.406 149.705 427.147C150.006 427.889 150.452 428.481 151.045 428.924C151.638 429.367 152.383 429.575 153.28 429.549Z" fill="#1F2329" fill-opacity="0.3"/>
<path d="M160.285 419.658L160.23 417.784L170.862 417.472L170.916 419.346L166.623 419.472L166.951 430.683L164.941 430.742L164.612 419.531L160.285 419.658Z" fill="#1F2329" fill-opacity="0.3"/>
<path d="M178.822 430.608C177.641 430.643 176.596 430.392 175.688 429.856C174.786 429.32 174.07 428.553 173.54 427.557C173.016 426.561 172.735 425.387 172.695 424.035C172.655 422.672 172.867 421.475 173.332 420.444C173.802 419.412 174.472 418.603 175.341 418.014C176.216 417.426 177.244 417.115 178.426 417.08C179.607 417.045 180.649 417.296 181.551 417.832C182.46 418.369 183.176 419.138 183.699 420.14C184.229 421.142 184.514 422.324 184.554 423.687C184.593 425.039 184.378 426.228 183.908 427.253C183.443 428.279 182.774 429.086 181.898 429.674C181.029 430.262 180.003 430.574 178.822 430.608ZM178.769 428.802C179.667 428.776 180.398 428.524 180.964 428.047C181.53 427.57 181.941 426.953 182.197 426.195C182.454 425.437 182.569 424.621 182.543 423.746C182.518 422.872 182.355 422.061 182.054 421.313C181.754 420.566 181.307 419.968 180.714 419.52C180.121 419.071 179.376 418.86 178.479 418.886C177.581 418.912 176.85 419.167 176.284 419.649C175.719 420.132 175.308 420.755 175.051 421.519C174.795 422.282 174.68 423.101 174.706 423.976C174.731 424.851 174.894 425.659 175.195 426.4C175.495 427.142 175.941 427.734 176.534 428.177C177.127 428.62 177.872 428.828 178.769 428.802Z" fill="#1F2329" fill-opacity="0.3"/>
<path d="M331.524 425.861L331.012 408.414L337.112 408.235C338.327 408.199 339.336 408.38 340.138 408.777C340.939 409.169 341.543 409.711 341.95 410.404C342.357 411.091 342.573 411.861 342.598 412.713C342.62 413.462 342.504 414.085 342.252 414.581C342.005 415.078 341.67 415.474 341.246 415.771C340.829 416.067 340.372 416.291 339.876 416.442L339.881 416.612C340.416 416.63 340.958 416.802 341.508 417.127C342.057 417.452 342.523 417.927 342.905 418.553C343.287 419.178 343.492 419.951 343.519 420.871C343.544 421.746 343.369 422.538 342.992 423.248C342.615 423.958 342.003 424.531 341.158 424.965C340.312 425.399 339.202 425.636 337.828 425.676L331.524 425.861ZM333.581 423.925L337.773 423.802C339.153 423.761 340.125 423.466 340.688 422.915C341.257 422.358 341.531 421.697 341.508 420.93C341.491 420.339 341.325 419.798 341.009 419.307C340.693 418.811 340.252 418.42 339.687 418.135C339.122 417.845 338.458 417.711 337.697 417.733L333.404 417.859L333.581 423.925ZM333.35 416.019L337.268 415.904C337.905 415.886 338.474 415.744 338.978 415.479C339.488 415.214 339.886 414.85 340.174 414.387C340.467 413.923 340.605 413.385 340.587 412.772C340.565 412.005 340.279 411.362 339.729 410.844C339.18 410.32 338.325 410.075 337.167 410.109L333.18 410.226L333.35 416.019Z" fill="#1F2329" fill-opacity="0.3"/>
<path d="M348.777 422.388L354.785 412.083L357.102 412.015L357.485 425.1L355.475 425.159L355.178 415.038L349.205 425.343L346.854 425.412L346.47 412.326L348.481 412.267L348.777 422.388Z" fill="#1F2329" fill-opacity="0.3"/>
<path d="M359.88 428.781L359.716 423.159L360.806 423.127C361.065 422.841 361.286 422.533 361.47 422.204C361.653 421.874 361.81 421.486 361.939 421.039C362.073 420.586 362.182 420.037 362.266 419.392C362.349 418.742 362.417 417.958 362.47 417.042L362.761 411.849L371.075 411.605L371.404 422.816L373.414 422.757L373.579 428.38L371.569 428.439L371.459 424.691L361.781 424.974L361.891 428.723L359.88 428.781ZM363.089 423.06L369.393 422.875L369.12 413.538L364.69 413.668L364.446 416.984C364.344 418.356 364.203 419.557 364.023 420.586C363.843 421.614 363.531 422.439 363.089 423.06Z" fill="#1F2329" fill-opacity="0.3"/>
<path d="M381.632 424.665C380.371 424.702 379.276 424.456 378.345 423.926C377.42 423.39 376.695 422.627 376.172 421.636C375.654 420.64 375.375 419.471 375.336 418.131C375.297 416.791 375.506 415.602 375.965 414.566C376.429 413.523 377.092 412.702 377.956 412.103C378.825 411.498 379.85 411.178 381.031 411.143C381.713 411.123 382.389 411.217 383.06 411.425C383.731 411.632 384.347 411.984 384.907 412.479C385.467 412.968 385.921 413.626 386.27 414.451C386.618 415.277 386.81 416.3 386.846 417.521L386.871 418.373L376.784 418.668L376.733 416.931L384.775 416.695C384.753 415.957 384.586 415.302 384.274 414.731C383.967 414.161 383.54 413.716 382.99 413.396C382.446 413.077 381.811 412.928 381.084 412.949C380.283 412.973 379.596 413.192 379.023 413.606C378.455 414.015 378.024 414.539 377.73 415.179C377.437 415.819 377.3 416.499 377.321 417.22L377.355 418.379C377.384 419.367 377.579 420.2 377.94 420.877C378.306 421.548 378.802 422.054 379.425 422.394C380.049 422.728 380.767 422.883 381.579 422.859C382.107 422.844 382.582 422.756 383.004 422.596C383.431 422.43 383.796 422.192 384.1 421.882C384.403 421.566 384.634 421.178 384.791 420.719L386.749 421.207C386.564 421.872 386.237 422.461 385.769 422.975C385.301 423.484 384.716 423.887 384.014 424.186C383.312 424.48 382.518 424.639 381.632 424.665Z" fill="#1F2329" fill-opacity="0.3"/>
<path d="M395.425 424.261C394.243 424.296 393.199 424.045 392.29 423.509C391.388 422.973 390.672 422.206 390.143 421.21C389.619 420.214 389.337 419.04 389.298 417.688C389.258 416.325 389.47 415.128 389.934 414.097C390.404 413.065 391.074 412.256 391.943 411.667C392.819 411.079 393.847 410.768 395.028 410.733C396.209 410.698 397.251 410.949 398.154 411.485C399.062 412.022 399.778 412.791 400.302 413.793C400.831 414.795 401.116 415.977 401.156 417.34C401.196 418.692 400.98 419.881 400.51 420.906C400.046 421.932 399.376 422.739 398.501 423.327C397.631 423.915 396.606 424.227 395.425 424.261ZM395.372 422.455C396.269 422.429 397.001 422.177 397.566 421.7C398.132 421.223 398.543 420.606 398.8 419.848C399.056 419.09 399.171 418.274 399.146 417.399C399.12 416.525 398.957 415.714 398.657 414.966C398.356 414.219 397.909 413.621 397.316 413.173C396.724 412.724 395.978 412.513 395.081 412.539C394.184 412.565 393.452 412.82 392.887 413.302C392.321 413.785 391.91 414.408 391.654 415.172C391.398 415.935 391.282 416.754 391.308 417.629C391.334 418.504 391.497 419.312 391.797 420.053C392.097 420.795 392.544 421.387 393.136 421.83C393.729 422.273 394.474 422.481 395.372 422.455Z" fill="#1F2329" fill-opacity="0.3"/>
</svg>
