<svg width="489" height="489" viewBox="0 0 489 489" fill="none" xmlns="http://www.w3.org/2000/svg">
<path d="M20.018 80.2371C19.2931 52.6324 41.0836 29.6668 68.6883 28.942L408.571 20.0177C436.176 19.2929 459.142 41.0834 459.866 68.6881L462.491 168.654C463.216 196.258 441.425 219.224 413.821 219.949L73.9379 228.873C46.3332 229.598 23.3675 207.807 22.6427 180.203L20.018 80.2371Z" fill="#2A2F36"/>
<path d="M26.3174 320.154C25.5926 292.55 47.3831 269.584 74.9878 268.859L414.871 259.935C442.475 259.21 465.441 281.001 466.166 308.605L468.791 408.571C469.515 436.176 447.725 459.141 420.12 459.866L80.2373 468.79C52.6326 469.515 29.667 447.725 28.9422 420.12L26.3174 320.154Z" fill="#2A2F36"/>
<path d="M41.5857 172.814C41.1218 155.147 55.0677 140.449 72.7347 139.985L199.995 136.644C217.662 136.18 232.36 150.126 232.824 167.793L232.894 170.458C233.358 188.125 219.412 202.823 201.745 203.287L74.4846 206.629C56.8176 207.093 42.1196 193.147 41.6557 175.48L41.5857 172.814Z" fill="white"/>
<path d="M47.8851 412.731C47.4213 395.064 61.3672 380.366 79.0342 379.902L206.295 376.561C223.962 376.097 238.66 390.043 239.124 407.71L239.194 410.376C239.657 428.043 225.712 442.741 208.045 443.205L80.7841 446.546C63.117 447.01 48.419 433.064 47.9551 415.397L47.8851 412.731Z" fill="white"/>
<path d="M251.948 167.291C251.484 149.624 265.43 134.926 283.097 134.462L410.358 131.12C428.025 130.656 442.723 144.602 443.187 162.269L443.257 164.935C443.721 182.602 429.775 197.3 412.108 197.764L284.847 201.105C267.18 201.569 252.482 187.623 252.018 169.956L251.948 167.291Z" fill="white"/>
<path d="M258.248 407.208C257.784 389.541 271.73 374.843 289.397 374.379L416.657 371.038C434.324 370.574 449.022 384.52 449.486 402.187L449.556 404.852C450.02 422.519 436.074 437.217 418.407 437.681L291.147 441.023C273.48 441.487 258.782 427.541 258.318 409.874L258.248 407.208Z" fill="#10B981"/>
<path d="M116.47 164.359L119.231 164.287C120.526 164.253 121.684 164.512 122.704 165.065C123.725 165.618 124.535 166.404 125.136 167.423C125.737 168.441 126.055 169.632 126.091 170.996C126.127 172.359 125.872 173.568 125.325 174.622C124.779 175.677 124.011 176.509 123.021 177.121C122.031 177.732 120.888 178.055 119.593 178.089L116.833 178.162C115.538 178.196 114.38 177.936 113.36 177.383C112.339 176.83 111.528 176.044 110.928 175.026C110.327 174.007 110.008 172.816 109.973 171.453C109.937 170.09 110.192 168.881 110.738 167.826C111.285 166.772 112.053 165.939 113.043 165.328C114.033 164.716 115.175 164.393 116.47 164.359ZM116.52 166.234C115.531 166.26 114.702 166.489 114.031 166.922C113.366 167.354 112.868 167.952 112.535 168.717C112.209 169.482 112.059 170.375 112.086 171.397C112.112 172.408 112.308 173.284 112.675 174.025C113.046 174.765 113.576 175.334 114.263 175.731C114.955 176.128 115.795 176.313 116.784 176.287L119.544 176.215C120.532 176.189 121.359 175.96 122.024 175.527C122.695 175.095 123.193 174.496 123.52 173.732C123.852 172.967 124.005 172.073 123.978 171.051C123.952 170.04 123.753 169.164 123.381 168.424C123.015 167.683 122.485 167.114 121.793 166.718C121.106 166.321 120.268 166.135 119.28 166.161L116.52 166.234ZM118.862 161.909L119.347 180.38L117.234 180.436L116.749 161.965L118.862 161.909Z" fill="#1F2329" fill-opacity="0.3"/>
<path d="M134.905 179.529C133.723 179.56 132.679 179.306 131.773 178.767C130.872 178.228 130.159 177.459 129.632 176.461C129.111 175.463 128.833 174.288 128.798 172.937C128.762 171.573 128.978 170.377 129.445 169.347C129.919 168.317 130.591 167.51 131.462 166.924C132.339 166.338 133.368 166.03 134.55 165.999C135.731 165.968 136.772 166.222 137.673 166.761C138.579 167.3 139.293 168.071 139.814 169.075C140.34 170.079 140.622 171.262 140.657 172.625C140.693 173.977 140.474 175.165 140.001 176.189C139.533 177.213 138.861 178.018 137.984 178.604C137.113 179.189 136.086 179.498 134.905 179.529ZM134.857 177.722C135.755 177.699 136.487 177.449 137.054 176.974C137.622 176.499 138.035 175.883 138.293 175.126C138.552 174.369 138.67 173.553 138.647 172.678C138.624 171.803 138.463 170.992 138.165 170.244C137.867 169.496 137.422 168.896 136.831 168.446C136.239 167.995 135.494 167.782 134.597 167.805C133.7 167.829 132.967 168.081 132.4 168.562C131.833 169.043 131.42 169.665 131.162 170.428C130.903 171.19 130.786 172.009 130.809 172.884C130.832 173.758 130.992 174.567 131.29 175.309C131.588 176.052 132.033 176.646 132.624 177.09C133.216 177.535 133.96 177.746 134.857 177.722Z" fill="#1F2329" fill-opacity="0.3"/>
<path d="M141.892 167.852L141.843 165.978L152.475 165.699L152.525 167.573L148.231 167.686L148.525 178.898L146.514 178.951L146.22 167.739L141.892 167.852Z" fill="#1F2329" fill-opacity="0.3"/>
<path d="M160.396 178.859C159.215 178.89 158.171 178.636 157.264 178.097C156.363 177.558 155.65 176.79 155.123 175.792C154.603 174.794 154.325 173.619 154.289 172.267C154.253 170.904 154.469 169.708 154.937 168.678C155.41 167.648 156.082 166.84 156.953 166.255C157.83 165.669 158.859 165.361 160.041 165.33C161.222 165.299 162.263 165.553 163.164 166.092C164.071 166.631 164.784 167.402 165.305 168.406C165.832 169.409 166.113 170.593 166.149 171.956C166.184 173.308 165.965 174.496 165.492 175.52C165.024 176.544 164.352 177.349 163.475 177.934C162.604 178.52 161.577 178.828 160.396 178.859ZM160.349 177.053C161.246 177.029 161.978 176.78 162.546 176.305C163.113 175.829 163.526 175.213 163.784 174.456C164.043 173.699 164.161 172.883 164.138 172.009C164.115 171.134 163.954 170.323 163.656 169.574C163.358 168.826 162.913 168.227 162.322 167.776C161.73 167.326 160.986 167.112 160.088 167.136C159.191 167.16 158.459 167.412 157.891 167.893C157.324 168.374 156.912 168.996 156.653 169.758C156.395 170.521 156.277 171.34 156.3 172.214C156.323 173.089 156.483 173.898 156.781 174.64C157.079 175.383 157.524 175.976 158.115 176.421C158.707 176.866 159.451 177.077 160.349 177.053Z" fill="#1F2329" fill-opacity="0.3"/>
<path d="M122.77 404.277L125.53 404.204C126.825 404.17 127.983 404.43 129.004 404.983C130.024 405.536 130.835 406.321 131.436 407.34C132.037 408.359 132.355 409.55 132.391 410.913C132.426 412.276 132.171 413.485 131.625 414.539C131.078 415.594 130.31 416.427 129.32 417.038C128.33 417.65 127.188 417.972 125.893 418.006L123.132 418.079C121.837 418.113 120.68 417.853 119.659 417.3C118.638 416.747 117.828 415.962 117.227 414.943C116.626 413.924 116.308 412.733 116.272 411.37C116.236 410.007 116.492 408.798 117.038 407.744C117.584 406.689 118.353 405.856 119.342 405.245C120.332 404.633 121.475 404.311 122.77 404.277ZM122.819 406.151C121.831 406.177 121.001 406.406 120.331 406.839C119.666 407.271 119.167 407.87 118.835 408.634C118.508 409.399 118.358 410.292 118.385 411.315C118.412 412.326 118.608 413.202 118.974 413.942C119.346 414.683 119.875 415.251 120.562 415.648C121.254 416.045 122.095 416.23 123.083 416.204L125.844 416.132C126.832 416.106 127.659 415.877 128.324 415.445C128.994 415.012 129.493 414.413 129.82 413.649C130.152 412.884 130.305 411.991 130.278 410.968C130.251 409.957 130.052 409.082 129.68 408.341C129.314 407.6 128.785 407.032 128.092 406.635C127.405 406.238 126.568 406.053 125.58 406.079L122.819 406.151ZM125.161 401.827L125.646 420.298L123.533 420.353L123.048 401.882L125.161 401.827Z" fill="#1F2329" fill-opacity="0.3"/>
<path d="M141.204 419.446C140.023 419.477 138.979 419.223 138.072 418.684C137.172 418.145 136.458 417.377 135.932 416.379C135.411 415.381 135.133 414.206 135.097 412.854C135.062 411.491 135.277 410.294 135.745 409.265C136.218 408.235 136.89 407.427 137.761 406.842C138.638 406.256 139.668 405.947 140.849 405.916C142.03 405.885 143.072 406.139 143.972 406.678C144.879 407.217 145.593 407.989 146.113 408.992C146.64 409.996 146.921 411.179 146.957 412.542C146.992 413.894 146.773 415.082 146.3 416.106C145.833 417.13 145.16 417.935 144.283 418.521C143.412 419.107 142.386 419.415 141.204 419.446ZM141.157 417.64C142.054 417.616 142.787 417.367 143.354 416.891C143.921 416.416 144.334 415.8 144.593 415.043C144.851 414.286 144.969 413.47 144.946 412.595C144.923 411.721 144.763 410.909 144.465 410.161C144.166 409.413 143.722 408.814 143.13 408.363C142.538 407.913 141.794 407.699 140.896 407.723C139.999 407.746 139.267 407.998 138.7 408.479C138.133 408.96 137.72 409.582 137.461 410.345C137.203 411.108 137.085 411.926 137.108 412.801C137.131 413.676 137.291 414.484 137.589 415.227C137.887 415.969 138.332 416.563 138.924 417.008C139.515 417.453 140.259 417.663 141.157 417.64Z" fill="#1F2329" fill-opacity="0.3"/>
<path d="M148.191 407.77L148.142 405.895L158.775 405.616L158.824 407.491L154.53 407.603L154.825 418.815L152.814 418.868L152.519 407.656L148.191 407.77Z" fill="#1F2329" fill-opacity="0.3"/>
<path d="M166.696 418.777C165.514 418.808 164.47 418.554 163.564 418.015C162.663 417.476 161.949 416.707 161.423 415.709C160.902 414.711 160.624 413.536 160.589 412.185C160.553 410.821 160.769 409.625 161.236 408.595C161.709 407.565 162.381 406.758 163.253 406.172C164.13 405.587 165.159 405.278 166.34 405.247C167.522 405.216 168.563 405.47 169.464 406.009C170.37 406.548 171.084 407.319 171.605 408.323C172.131 409.327 172.412 410.51 172.448 411.873C172.484 413.225 172.265 414.413 171.791 415.437C171.324 416.461 170.652 417.266 169.775 417.852C168.903 418.437 167.877 418.746 166.696 418.777ZM166.648 416.97C167.545 416.947 168.278 416.697 168.845 416.222C169.412 415.747 169.825 415.131 170.084 414.374C170.343 413.617 170.46 412.801 170.437 411.926C170.414 411.051 170.254 410.24 169.956 409.492C169.658 408.744 169.213 408.144 168.621 407.694C168.03 407.243 167.285 407.03 166.388 407.053C165.49 407.077 164.758 407.329 164.191 407.81C163.624 408.291 163.211 408.913 162.952 409.676C162.694 410.438 162.576 411.257 162.599 412.132C162.622 413.006 162.783 413.815 163.081 414.557C163.379 415.3 163.823 415.894 164.415 416.338C165.006 416.783 165.751 416.994 166.648 416.97Z" fill="#1F2329" fill-opacity="0.3"/>
<path d="M313.111 174.577L312.653 157.128L318.753 156.968C319.969 156.936 320.977 157.12 321.777 157.519C322.578 157.913 323.18 158.457 323.585 159.151C323.989 159.84 324.203 160.61 324.225 161.462C324.245 162.212 324.128 162.835 323.874 163.33C323.625 163.825 323.289 164.221 322.865 164.516C322.446 164.811 321.989 165.033 321.492 165.183L321.497 165.353C322.032 165.373 322.573 165.547 323.122 165.873C323.67 166.2 324.135 166.677 324.515 167.303C324.895 167.93 325.097 168.703 325.122 169.623C325.145 170.498 324.966 171.29 324.587 171.999C324.208 172.708 323.595 173.278 322.748 173.71C321.901 174.141 320.79 174.375 319.416 174.411L313.111 174.577ZM315.175 172.647L319.367 172.537C320.747 172.5 321.72 172.208 322.285 171.659C322.856 171.104 323.131 170.443 323.111 169.676C323.095 169.085 322.931 168.544 322.616 168.052C322.302 167.555 321.863 167.163 321.298 166.876C320.733 166.584 320.071 166.448 319.31 166.468L315.016 166.581L315.175 172.647ZM314.967 164.74L318.886 164.637C319.522 164.621 320.093 164.481 320.597 164.217C321.108 163.954 321.507 163.591 321.797 163.129C322.091 162.666 322.231 162.128 322.215 161.515C322.194 160.748 321.91 160.105 321.362 159.585C320.814 159.059 319.961 158.812 318.802 158.842L314.815 158.947L314.967 164.74Z" fill="#1F2329" fill-opacity="0.3"/>
<path d="M330.375 171.156L336.414 160.869L338.732 160.808L339.075 173.895L337.065 173.948L336.799 163.826L330.794 174.112L328.442 174.174L328.099 161.088L330.11 161.035L330.375 171.156Z" fill="#1F2329" fill-opacity="0.3"/>
<path d="M341.459 177.584L341.311 171.961L342.402 171.932C342.662 171.647 342.884 171.339 343.068 171.011C343.253 170.682 343.41 170.294 343.541 169.847C343.677 169.395 343.787 168.846 343.873 168.202C343.958 167.551 344.028 166.768 344.084 165.852L344.391 160.66L352.706 160.442L353.001 171.654L355.011 171.601L355.159 177.224L353.148 177.277L353.05 173.528L343.371 173.782L343.47 177.531L341.459 177.584ZM344.685 171.872L350.99 171.706L350.745 162.369L346.314 162.485L346.06 165.8C345.954 167.172 345.81 168.372 345.626 169.4C345.443 170.428 345.129 171.252 344.685 171.872Z" fill="#1F2329" fill-opacity="0.3"/>
<path d="M363.223 173.534C361.962 173.567 360.867 173.317 359.938 172.784C359.015 172.246 358.293 171.481 357.772 170.488C357.257 169.49 356.982 168.321 356.947 166.98C356.912 165.64 357.125 164.452 357.586 163.417C358.054 162.376 358.72 161.557 359.585 160.96C360.456 160.357 361.482 160.041 362.663 160.01C363.345 159.992 364.021 160.088 364.692 160.297C365.362 160.507 365.977 160.86 366.535 161.357C367.094 161.848 367.546 162.507 367.892 163.334C368.237 164.16 368.426 165.184 368.458 166.405L368.481 167.257L358.393 167.522L358.348 165.784L366.39 165.573C366.371 164.834 366.206 164.179 365.895 163.608C365.59 163.036 365.164 162.59 364.615 162.269C364.073 161.948 363.438 161.797 362.711 161.816C361.91 161.837 361.222 162.054 360.648 162.467C360.079 162.874 359.646 163.397 359.35 164.035C359.055 164.674 358.916 165.354 358.935 166.075L358.965 167.234C358.991 168.222 359.184 169.056 359.543 169.734C359.907 170.407 360.401 170.914 361.023 171.255C361.646 171.591 362.364 171.749 363.176 171.727C363.704 171.714 364.179 171.627 364.601 171.468C365.029 171.304 365.395 171.067 365.699 170.757C366.004 170.443 366.235 170.056 366.394 169.597L368.35 170.091C368.163 170.755 367.835 171.344 367.365 171.856C366.895 172.363 366.309 172.765 365.606 173.062C364.904 173.353 364.109 173.51 363.223 173.534Z" fill="#1F2329" fill-opacity="0.3"/>
<path d="M377.017 173.171C375.835 173.202 374.791 172.949 373.885 172.41C372.984 171.871 372.27 171.102 371.744 170.104C371.223 169.106 370.945 167.931 370.91 166.579C370.874 165.216 371.09 164.02 371.557 162.99C372.03 161.96 372.703 161.153 373.574 160.567C374.451 159.981 375.48 159.673 376.661 159.642C377.843 159.611 378.884 159.865 379.785 160.404C380.691 160.943 381.405 161.714 381.926 162.718C382.452 163.722 382.734 164.905 382.769 166.268C382.805 167.62 382.586 168.808 382.113 169.832C381.645 170.856 380.973 171.661 380.096 172.247C379.224 172.832 378.198 173.14 377.017 173.171ZM376.969 171.365C377.867 171.342 378.599 171.092 379.166 170.617C379.734 170.142 380.147 169.526 380.405 168.768C380.664 168.011 380.782 167.196 380.759 166.321C380.736 165.446 380.575 164.635 380.277 163.887C379.979 163.139 379.534 162.539 378.942 162.089C378.351 161.638 377.606 161.425 376.709 161.448C375.811 161.472 375.079 161.724 374.512 162.205C373.945 162.686 373.532 163.308 373.274 164.071C373.015 164.833 372.897 165.652 372.92 166.527C372.943 167.401 373.104 168.21 373.402 168.952C373.7 169.695 374.145 170.288 374.736 170.733C375.327 171.178 376.072 171.389 376.969 171.365Z" fill="#1F2329" fill-opacity="0.3"/>
<path d="M318.793 414.51L318.335 397.062L324.725 396.894C325.963 396.861 326.993 397.039 327.816 397.426C328.639 397.808 329.261 398.341 329.683 399.023C330.104 399.7 330.326 400.47 330.349 401.333C330.368 402.06 330.25 402.677 329.997 403.184C329.743 403.685 329.395 404.092 328.954 404.405C328.519 404.712 328.036 404.94 327.506 405.091L327.511 405.261C328.091 405.274 328.661 405.447 329.221 405.779C329.786 406.105 330.259 406.579 330.639 407.2C331.019 407.82 331.221 408.582 331.245 409.486C331.268 410.377 331.079 411.184 330.677 411.905C330.281 412.62 329.654 413.196 328.796 413.634C327.938 414.065 326.833 414.299 325.481 414.335L318.793 414.51ZM321.366 412.183L325.166 412.083C326.427 412.05 327.324 411.782 327.856 411.28C328.389 410.777 328.645 410.159 328.626 409.426C328.611 408.875 328.459 408.374 328.169 407.921C327.878 407.468 327.471 407.112 326.947 406.853C326.429 406.594 325.817 406.474 325.113 406.492L321.219 406.594L321.366 412.183ZM321.166 404.541L324.693 404.448C325.283 404.433 325.812 404.305 326.277 404.066C326.748 403.826 327.118 403.498 327.385 403.082C327.658 402.66 327.787 402.168 327.773 401.605C327.754 400.884 327.485 400.286 326.967 399.81C326.448 399.335 325.667 399.111 324.622 399.139L321.026 399.233L321.166 404.541Z" fill="white"/>
<path d="M336.689 410.468L342.207 400.8L344.95 400.728L345.294 413.814L342.797 413.88L342.547 404.355L337.055 414.031L334.286 414.103L333.943 401.017L336.439 400.951L336.689 410.468Z" fill="white"/>
<path d="M347.54 417.532L347.383 411.551L348.448 411.523C348.714 411.266 348.936 410.962 349.114 410.611C349.298 410.259 349.449 409.843 349.568 409.363C349.691 408.882 349.79 408.322 349.864 407.684C349.939 407.039 349.999 406.305 350.045 405.479L350.326 400.587L359.221 400.353L359.506 411.233L361.517 411.18L361.674 417.161L359.186 417.226L359.087 413.452L349.963 413.692L350.062 417.466L347.54 417.532ZM351.174 411.452L357.019 411.298L356.79 402.6L352.667 402.708L352.465 405.416C352.37 406.794 352.237 407.991 352.065 409.007C351.892 410.018 351.595 410.833 351.174 411.452Z" fill="white"/>
<path d="M369.712 413.437C368.423 413.471 367.305 413.225 366.359 412.699C365.419 412.166 364.682 411.404 364.151 410.412C363.624 409.414 363.343 408.236 363.307 406.879C363.272 405.538 363.491 404.35 363.964 403.315C364.443 402.279 365.126 401.463 366.014 400.865C366.908 400.268 367.963 399.953 369.178 399.921C369.916 399.902 370.635 400.005 371.335 400.231C372.034 400.457 372.666 400.824 373.231 401.332C373.795 401.84 374.248 402.508 374.588 403.334C374.928 404.155 375.113 405.159 375.144 406.346L375.168 407.25L364.765 407.523L364.715 405.614L372.621 405.407C372.604 404.736 372.452 404.146 372.166 403.637C371.879 403.121 371.485 402.72 370.983 402.432C370.487 402.143 369.909 402.008 369.25 402.025C368.535 402.044 367.914 402.236 367.39 402.603C366.871 402.963 366.474 403.428 366.199 403.998C365.929 404.562 365.803 405.171 365.82 405.824L365.86 407.315C365.883 408.19 366.055 408.93 366.378 409.535C366.707 410.14 367.154 410.597 367.719 410.907C368.284 411.21 368.938 411.352 369.682 411.332C370.165 411.32 370.603 411.24 370.997 411.093C371.391 410.941 371.729 410.722 372.012 410.436C372.294 410.15 372.507 409.8 372.649 409.387L375.072 409.759C374.897 410.474 374.567 411.105 374.081 411.652C373.601 412.193 372.99 412.621 372.248 412.936C371.512 413.245 370.666 413.412 369.712 413.437Z" fill="white"/>
<path d="M383.665 413.071C382.438 413.103 381.36 412.85 380.431 412.312C379.502 411.774 378.771 411.006 378.239 410.008C377.707 409.01 377.423 407.835 377.388 406.484C377.352 405.126 377.574 403.932 378.053 402.902C378.531 401.872 379.221 401.064 380.12 400.478C381.02 399.892 382.083 399.582 383.31 399.55C384.537 399.518 385.615 399.771 386.544 400.309C387.474 400.848 388.204 401.618 388.736 402.622C389.269 403.625 389.553 404.806 389.588 406.163C389.624 407.515 389.402 408.703 388.923 409.727C388.444 410.752 387.755 411.557 386.855 412.143C385.955 412.73 384.892 413.039 383.665 413.071ZM383.618 410.932C384.413 410.912 385.066 410.684 385.578 410.25C386.089 409.816 386.461 409.246 386.692 408.541C386.93 407.836 387.037 407.063 387.015 406.222C386.993 405.387 386.845 404.624 386.571 403.932C386.303 403.234 385.902 402.679 385.368 402.267C384.834 401.855 384.17 401.659 383.375 401.68C382.574 401.701 381.915 401.931 381.398 402.371C380.886 402.811 380.512 403.386 380.275 404.097C380.044 404.803 379.939 405.573 379.961 406.408C379.983 407.248 380.128 408.014 380.396 408.707C380.67 409.398 381.074 409.948 381.607 410.354C382.147 410.761 382.817 410.953 383.618 410.932Z" fill="white"/>
<path d="M164.471 305.341L168.382 305.239L168.979 327.986L177.618 327.76L177.021 305.012L180.931 304.909L181.529 327.657L190.142 327.431L189.545 304.683L193.443 304.581L194.13 330.753L165.158 331.514L164.471 305.341Z" fill="white"/>
<path d="M205.656 330.886C204.412 330.918 203.281 330.718 202.264 330.284C201.246 329.842 200.432 329.185 199.821 328.315C199.218 327.444 198.9 326.365 198.866 325.079C198.837 323.971 199.026 323.054 199.433 322.327C199.841 321.6 200.401 321.019 201.114 320.582C201.827 320.146 202.628 319.809 203.517 319.573C204.406 319.336 205.314 319.15 206.239 319.015C207.412 318.848 208.363 318.712 209.093 318.608C209.824 318.495 210.352 318.332 210.679 318.119C211.006 317.905 211.163 317.569 211.151 317.109L211.149 317.019C211.12 315.903 210.782 315.047 210.135 314.45C209.497 313.853 208.56 313.57 207.325 313.603C206.039 313.637 205.032 313.949 204.306 314.539C203.588 315.12 203.097 315.76 202.834 316.457L199.222 315.734C199.617 314.53 200.213 313.551 201.012 312.797C201.819 312.034 202.755 311.472 203.819 311.112C204.884 310.743 206.008 310.543 207.193 310.511C207.976 310.491 208.81 310.563 209.692 310.727C210.583 310.883 211.418 311.193 212.198 311.659C212.986 312.124 213.639 312.802 214.156 313.692C214.674 314.574 214.952 315.73 214.989 317.161L215.331 330.197L211.6 330.295L211.529 327.611L211.376 327.615C211.142 328.116 210.784 328.611 210.302 329.101C209.821 329.591 209.196 330.004 208.429 330.34C207.662 330.675 206.738 330.857 205.656 330.886ZM206.406 327.797C207.462 327.769 208.36 327.536 209.099 327.099C209.846 326.662 210.407 326.102 210.781 325.418C211.164 324.726 211.345 323.992 211.324 323.217L211.258 320.687C211.125 320.827 210.865 320.961 210.476 321.091C210.095 321.212 209.659 321.321 209.167 321.419C208.675 321.509 208.196 321.594 207.729 321.675C207.262 321.747 206.871 321.808 206.557 321.859C205.818 321.972 205.145 322.147 204.538 322.385C203.938 322.622 203.461 322.955 203.106 323.382C202.759 323.8 202.594 324.35 202.612 325.032C202.637 325.977 203.005 326.684 203.716 327.151C204.427 327.61 205.324 327.825 206.406 327.797Z" fill="white"/>
<path d="M234.858 302.726L236.506 305.1C235.932 305.652 235.273 306.053 234.529 306.302C233.794 306.543 232.942 306.706 231.972 306.792C231.002 306.868 229.891 306.944 228.64 307.02C227.227 307.1 226.072 307.437 225.175 308.032C224.278 308.618 223.598 309.471 223.132 310.592C222.676 311.704 222.397 313.092 222.295 314.757L222.538 314.751C223.145 313.516 224.007 312.581 225.125 311.946C226.25 311.311 227.525 310.975 228.948 310.938C230.532 310.896 231.952 311.221 233.206 311.913C234.46 312.605 235.46 313.64 236.203 315.019C236.956 316.389 237.358 318.079 237.411 320.09C237.464 322.126 237.136 323.895 236.425 325.397C235.722 326.899 234.705 328.072 233.371 328.917C232.046 329.754 230.468 330.196 228.636 330.244C226.804 330.292 225.196 329.921 223.811 329.13C222.434 328.331 221.35 327.123 220.557 325.507C219.773 323.89 219.349 321.881 219.286 319.478L219.235 317.536C219.117 313.046 219.83 309.647 221.372 307.339C222.914 305.03 225.277 303.804 228.462 303.661C229.493 303.608 230.413 303.58 231.222 303.576C232.032 303.563 232.738 303.506 233.341 303.405C233.952 303.295 234.457 303.069 234.858 302.726ZM228.565 327.036C229.629 327.008 230.538 326.715 231.291 326.159C232.052 325.593 232.628 324.806 233.019 323.798C233.411 322.791 233.589 321.609 233.553 320.255C233.518 318.926 233.28 317.802 232.838 316.885C232.396 315.967 231.781 315.275 230.993 314.81C230.205 314.336 229.27 314.114 228.188 314.142C227.387 314.163 226.675 314.322 226.052 314.62C225.428 314.909 224.898 315.328 224.461 315.877C224.032 316.425 223.704 317.09 223.477 317.872C223.259 318.645 223.154 319.53 223.163 320.528C223.216 322.555 223.723 324.158 224.683 325.335C225.652 326.511 226.946 327.078 228.565 327.036Z" fill="white"/>
<path d="M240.383 329.539L240.283 326.229L240.986 326.211C241.531 326.197 241.984 326.07 242.344 325.83C242.713 325.582 243.009 325.173 243.233 324.604C243.457 324.036 243.62 323.256 243.721 322.264C243.823 321.264 243.884 320.009 243.904 318.5L244.021 309.8L257.721 309.441L258.236 329.07L254.492 329.168L254.063 312.836L247.647 313.004L247.516 319.684C247.482 321.304 247.353 322.723 247.129 323.94C246.914 325.156 246.578 326.175 246.122 326.997C245.666 327.81 245.068 328.427 244.329 328.847C243.59 329.259 242.683 329.479 241.61 329.507L240.383 329.539Z" fill="white"/>
<path d="M271.611 329.115C269.771 329.164 268.154 328.784 266.76 327.977C265.366 327.169 264.27 326.017 263.472 324.521C262.674 323.024 262.248 321.262 262.195 319.234C262.141 317.198 262.474 315.407 263.192 313.862C263.91 312.317 264.944 311.105 266.294 310.226C267.643 309.346 269.238 308.882 271.078 308.834C272.919 308.786 274.536 309.165 275.929 309.973C277.323 310.78 278.419 311.936 279.218 313.442C280.016 314.947 280.442 316.717 280.495 318.754C280.549 320.781 280.216 322.563 279.498 324.1C278.779 325.636 277.745 326.844 276.396 327.724C275.046 328.603 273.451 329.067 271.611 329.115ZM271.539 325.907C272.732 325.876 273.712 325.535 274.479 324.884C275.247 324.233 275.804 323.378 276.151 322.321C276.507 321.263 276.669 320.103 276.636 318.842C276.603 317.59 276.381 316.445 275.97 315.407C275.567 314.36 274.966 313.528 274.165 312.909C273.364 312.291 272.368 311.997 271.175 312.029C269.974 312.06 268.985 312.406 268.21 313.066C267.443 313.725 266.881 314.588 266.526 315.655C266.178 316.713 266.021 317.868 266.054 319.12C266.087 320.381 266.305 321.531 266.707 322.569C267.118 323.606 267.724 324.43 268.524 325.04C269.333 325.65 270.338 325.939 271.539 325.907Z" fill="white"/>
<path d="M298.019 316.554L298.105 319.864L287.473 320.143L287.386 316.834L298.019 316.554ZM288.245 308.639L288.76 328.269L285.016 328.367L284.501 308.737L288.245 308.639ZM300.475 308.318L300.991 327.948L297.259 328.046L296.743 308.416L300.475 308.318Z" fill="white"/>
<path d="M308.64 314.856L314.339 314.706C316.742 314.643 318.606 315.191 319.933 316.35C321.259 317.509 321.947 319.029 321.996 320.912C322.029 322.139 321.768 323.25 321.214 324.245C320.661 325.24 319.833 326.038 318.732 326.638C317.631 327.229 316.279 327.546 314.678 327.588L306.102 327.813L305.587 308.184L309.331 308.085L309.76 324.418L314.591 324.291C315.69 324.262 316.586 323.953 317.278 323.364C317.97 322.766 318.304 322.019 318.28 321.125C318.256 320.179 317.882 319.417 317.159 318.84C316.436 318.253 315.525 317.975 314.426 318.003L308.726 318.153L308.64 314.856ZM324.952 327.318L324.437 307.689L328.258 307.588L328.774 327.218L324.952 327.318Z" fill="white"/>
<path d="M0.0248412 80.7621C-0.989894 42.1155 29.5168 9.96359 68.1634 8.94885L408.046 0.0246228C446.693 -0.990113 478.845 29.5166 479.859 68.1632L488.784 408.046C489.798 446.693 459.292 478.845 420.645 479.859L80.7623 488.783C42.1157 489.798 9.96381 459.292 8.94907 420.645L0.0248412 80.7621Z" fill="#1F2329"/>
<path d="M20.018 80.2371C19.2931 52.6324 41.0836 29.6668 68.6883 28.942L408.571 20.0177C436.176 19.2929 459.142 41.0834 459.866 68.6881L462.491 168.654C463.216 196.258 441.425 219.224 413.821 219.949L73.9379 228.873C46.3332 229.598 23.3675 207.807 22.6427 180.203L20.018 80.2371Z" fill="#2A2F36"/>
<path d="M41.5857 172.814C41.1218 155.147 55.0677 140.449 72.7347 139.985L199.995 136.644C217.662 136.18 232.36 150.126 232.824 167.793L232.894 170.458C233.358 188.125 219.412 202.823 201.745 203.287L74.4846 206.629C56.8176 207.093 42.1196 193.147 41.6557 175.48L41.5857 172.814Z" fill="white"/>
<path d="M251.948 167.291C251.484 149.624 265.43 134.926 283.097 134.462L410.358 131.12C428.025 130.656 442.723 144.602 443.187 162.269L443.257 164.935C443.721 182.602 429.775 197.3 412.108 197.764L284.847 201.105C267.18 201.569 252.482 187.623 252.018 169.956L251.948 167.291Z" fill="white"/>
<path d="M116.47 164.359L119.231 164.287C120.526 164.253 121.684 164.512 122.704 165.065C123.725 165.618 124.535 166.404 125.136 167.423C125.737 168.441 126.055 169.632 126.091 170.996C126.127 172.359 125.872 173.568 125.325 174.622C124.779 175.677 124.011 176.509 123.021 177.121C122.031 177.732 120.888 178.055 119.593 178.089L116.833 178.162C115.538 178.196 114.38 177.936 113.36 177.383C112.339 176.83 111.528 176.044 110.928 175.026C110.327 174.007 110.008 172.816 109.973 171.453C109.937 170.09 110.192 168.881 110.738 167.826C111.285 166.772 112.053 165.939 113.043 165.328C114.033 164.716 115.175 164.393 116.47 164.359ZM116.52 166.234C115.531 166.26 114.702 166.489 114.031 166.922C113.366 167.354 112.868 167.952 112.535 168.717C112.209 169.482 112.059 170.375 112.086 171.397C112.112 172.408 112.308 173.284 112.675 174.025C113.046 174.765 113.576 175.334 114.263 175.731C114.955 176.128 115.795 176.313 116.784 176.287L119.544 176.215C120.532 176.189 121.359 175.96 122.024 175.527C122.695 175.095 123.193 174.496 123.52 173.732C123.852 172.967 124.005 172.073 123.978 171.051C123.952 170.04 123.753 169.164 123.381 168.424C123.015 167.683 122.485 167.114 121.793 166.718C121.106 166.321 120.268 166.135 119.28 166.161L116.52 166.234ZM118.862 161.909L119.347 180.38L117.234 180.436L116.749 161.965L118.862 161.909Z" fill="#1F2329" fill-opacity="0.3"/>
<path d="M134.905 179.529C133.723 179.56 132.679 179.306 131.773 178.767C130.872 178.228 130.159 177.459 129.632 176.461C129.111 175.463 128.833 174.288 128.798 172.937C128.762 171.573 128.978 170.377 129.445 169.347C129.919 168.317 130.591 167.51 131.462 166.924C132.339 166.338 133.368 166.03 134.55 165.999C135.731 165.968 136.772 166.222 137.673 166.761C138.579 167.3 139.293 168.071 139.814 169.075C140.34 170.079 140.622 171.262 140.657 172.625C140.693 173.977 140.474 175.165 140.001 176.189C139.533 177.213 138.861 178.018 137.984 178.604C137.113 179.189 136.086 179.498 134.905 179.529ZM134.857 177.722C135.755 177.699 136.487 177.449 137.054 176.974C137.622 176.499 138.035 175.883 138.293 175.126C138.552 174.369 138.67 173.553 138.647 172.678C138.624 171.803 138.463 170.992 138.165 170.244C137.867 169.496 137.422 168.896 136.831 168.446C136.239 167.995 135.494 167.782 134.597 167.805C133.7 167.829 132.967 168.081 132.4 168.562C131.833 169.043 131.42 169.665 131.162 170.428C130.903 171.19 130.786 172.009 130.809 172.884C130.832 173.758 130.992 174.567 131.29 175.309C131.588 176.052 132.033 176.646 132.624 177.09C133.216 177.535 133.96 177.746 134.857 177.722Z" fill="#1F2329" fill-opacity="0.3"/>
<path d="M141.892 167.852L141.843 165.978L152.475 165.699L152.525 167.573L148.231 167.686L148.525 178.898L146.514 178.951L146.22 167.739L141.892 167.852Z" fill="#1F2329" fill-opacity="0.3"/>
<path d="M160.396 178.859C159.215 178.89 158.171 178.636 157.264 178.097C156.363 177.558 155.65 176.79 155.123 175.792C154.603 174.794 154.325 173.619 154.289 172.267C154.253 170.904 154.469 169.708 154.937 168.678C155.41 167.648 156.082 166.84 156.953 166.255C157.83 165.669 158.859 165.361 160.041 165.33C161.222 165.299 162.263 165.553 163.164 166.092C164.071 166.631 164.784 167.402 165.305 168.406C165.832 169.409 166.113 170.593 166.149 171.956C166.184 173.308 165.965 174.496 165.492 175.52C165.024 176.544 164.352 177.349 163.475 177.934C162.604 178.52 161.577 178.828 160.396 178.859ZM160.349 177.053C161.246 177.029 161.978 176.78 162.546 176.305C163.113 175.829 163.526 175.213 163.784 174.456C164.043 173.699 164.161 172.883 164.138 172.009C164.115 171.134 163.954 170.323 163.656 169.574C163.358 168.826 162.913 168.227 162.322 167.776C161.73 167.326 160.986 167.112 160.088 167.136C159.191 167.16 158.459 167.412 157.891 167.893C157.324 168.374 156.912 168.996 156.653 169.758C156.395 170.521 156.277 171.34 156.3 172.214C156.323 173.089 156.483 173.898 156.781 174.64C157.079 175.383 157.524 175.976 158.115 176.421C158.707 176.866 159.451 177.077 160.349 177.053Z" fill="#1F2329" fill-opacity="0.3"/>
<path d="M313.111 174.577L312.653 157.128L318.753 156.968C319.969 156.936 320.977 157.12 321.777 157.519C322.578 157.913 323.18 158.457 323.585 159.151C323.989 159.84 324.203 160.61 324.225 161.462C324.245 162.212 324.128 162.835 323.874 163.33C323.625 163.825 323.289 164.221 322.865 164.516C322.446 164.811 321.989 165.033 321.492 165.183L321.497 165.353C322.032 165.373 322.573 165.547 323.122 165.873C323.67 166.2 324.135 166.677 324.515 167.303C324.895 167.93 325.097 168.703 325.122 169.623C325.145 170.498 324.966 171.29 324.587 171.999C324.208 172.708 323.595 173.278 322.748 173.71C321.901 174.141 320.79 174.375 319.416 174.411L313.111 174.577ZM315.175 172.647L319.367 172.537C320.747 172.5 321.72 172.208 322.285 171.659C322.856 171.104 323.131 170.443 323.111 169.676C323.095 169.085 322.931 168.544 322.616 168.052C322.302 167.555 321.863 167.163 321.298 166.876C320.733 166.584 320.071 166.448 319.31 166.468L315.016 166.581L315.175 172.647ZM314.967 164.74L318.886 164.637C319.522 164.621 320.093 164.481 320.597 164.217C321.108 163.954 321.507 163.591 321.797 163.129C322.091 162.666 322.231 162.128 322.215 161.515C322.194 160.748 321.91 160.105 321.362 159.585C320.814 159.059 319.961 158.812 318.802 158.842L314.815 158.947L314.967 164.74Z" fill="#1F2329" fill-opacity="0.3"/>
<path d="M330.375 171.156L336.414 160.869L338.732 160.808L339.075 173.895L337.065 173.948L336.799 163.826L330.794 174.112L328.442 174.174L328.099 161.088L330.11 161.035L330.375 171.156Z" fill="#1F2329" fill-opacity="0.3"/>
<path d="M341.459 177.584L341.311 171.961L342.402 171.932C342.662 171.647 342.884 171.339 343.068 171.011C343.253 170.682 343.41 170.294 343.541 169.847C343.677 169.395 343.787 168.846 343.873 168.202C343.958 167.551 344.028 166.768 344.084 165.852L344.391 160.66L352.706 160.442L353.001 171.654L355.011 171.601L355.159 177.224L353.148 177.277L353.05 173.528L343.371 173.782L343.47 177.531L341.459 177.584ZM344.685 171.872L350.99 171.706L350.745 162.369L346.314 162.485L346.06 165.8C345.954 167.172 345.81 168.372 345.626 169.4C345.443 170.428 345.129 171.252 344.685 171.872Z" fill="#1F2329" fill-opacity="0.3"/>
<path d="M363.223 173.534C361.962 173.567 360.867 173.317 359.938 172.784C359.015 172.246 358.293 171.481 357.772 170.488C357.257 169.49 356.982 168.321 356.947 166.98C356.912 165.64 357.125 164.452 357.586 163.417C358.054 162.376 358.72 161.557 359.585 160.96C360.456 160.357 361.482 160.041 362.663 160.01C363.345 159.992 364.021 160.088 364.692 160.297C365.362 160.507 365.977 160.86 366.535 161.357C367.094 161.848 367.546 162.507 367.892 163.334C368.237 164.16 368.426 165.184 368.458 166.405L368.481 167.257L358.393 167.522L358.348 165.784L366.39 165.573C366.371 164.834 366.206 164.179 365.895 163.608C365.59 163.036 365.164 162.59 364.615 162.269C364.073 161.948 363.438 161.797 362.711 161.816C361.91 161.837 361.222 162.054 360.648 162.467C360.079 162.874 359.646 163.397 359.35 164.035C359.055 164.674 358.916 165.354 358.935 166.075L358.965 167.234C358.991 168.222 359.184 169.056 359.543 169.734C359.907 170.407 360.401 170.914 361.023 171.255C361.646 171.591 362.364 171.749 363.176 171.727C363.704 171.714 364.179 171.627 364.601 171.468C365.029 171.304 365.395 171.067 365.699 170.757C366.004 170.443 366.235 170.056 366.394 169.597L368.35 170.091C368.163 170.755 367.835 171.344 367.365 171.856C366.895 172.363 366.309 172.765 365.606 173.062C364.904 173.353 364.109 173.51 363.223 173.534Z" fill="#1F2329" fill-opacity="0.3"/>
<path d="M377.017 173.171C375.835 173.202 374.791 172.949 373.885 172.41C372.984 171.871 372.27 171.102 371.744 170.104C371.223 169.106 370.945 167.931 370.91 166.579C370.874 165.216 371.09 164.02 371.557 162.99C372.03 161.96 372.703 161.153 373.574 160.567C374.451 159.981 375.48 159.673 376.661 159.642C377.843 159.611 378.884 159.865 379.785 160.404C380.691 160.943 381.405 161.714 381.926 162.718C382.452 163.722 382.734 164.905 382.769 166.268C382.805 167.62 382.586 168.808 382.113 169.832C381.645 170.856 380.973 171.661 380.096 172.247C379.224 172.832 378.198 173.14 377.017 173.171ZM376.969 171.365C377.867 171.342 378.599 171.092 379.166 170.617C379.734 170.142 380.147 169.526 380.405 168.768C380.664 168.011 380.782 167.196 380.759 166.321C380.736 165.446 380.575 164.635 380.277 163.887C379.979 163.139 379.534 162.539 378.942 162.089C378.351 161.638 377.606 161.425 376.709 161.448C375.811 161.472 375.079 161.724 374.512 162.205C373.945 162.686 373.532 163.308 373.274 164.071C373.015 164.833 372.897 165.652 372.92 166.527C372.943 167.401 373.104 168.21 373.402 168.952C373.7 169.695 374.145 170.288 374.736 170.733C375.327 171.178 376.072 171.389 376.969 171.365Z" fill="#1F2329" fill-opacity="0.3"/>
<path d="M26.3174 320.154C25.5926 292.55 47.3831 269.584 74.9878 268.859L414.871 259.935C442.475 259.21 465.441 281.001 466.166 308.605L468.791 408.571C469.515 436.176 447.725 459.141 420.12 459.866L80.2373 468.79C52.6326 469.515 29.667 447.725 28.9422 420.12L26.3174 320.154Z" fill="#2A2F36"/>
<path d="M164.471 305.341L168.382 305.239L168.979 327.986L177.618 327.76L177.021 305.012L180.931 304.909L181.529 327.657L190.142 327.431L189.545 304.683L193.443 304.581L194.13 330.753L165.158 331.514L164.471 305.341Z" fill="white"/>
<path d="M205.656 330.886C204.412 330.918 203.281 330.718 202.264 330.284C201.246 329.842 200.432 329.185 199.821 328.315C199.218 327.444 198.9 326.365 198.866 325.079C198.837 323.971 199.026 323.054 199.433 322.327C199.841 321.6 200.401 321.019 201.114 320.582C201.827 320.146 202.628 319.809 203.517 319.573C204.406 319.336 205.314 319.15 206.239 319.015C207.412 318.848 208.363 318.712 209.093 318.608C209.824 318.495 210.352 318.332 210.679 318.119C211.006 317.905 211.163 317.569 211.151 317.109L211.149 317.019C211.12 315.903 210.782 315.047 210.135 314.45C209.497 313.853 208.56 313.57 207.325 313.603C206.039 313.637 205.032 313.949 204.306 314.539C203.588 315.12 203.097 315.76 202.834 316.457L199.222 315.734C199.617 314.53 200.213 313.551 201.012 312.797C201.819 312.034 202.755 311.472 203.819 311.112C204.884 310.743 206.008 310.543 207.193 310.511C207.976 310.491 208.81 310.563 209.692 310.727C210.583 310.883 211.418 311.193 212.198 311.659C212.986 312.124 213.639 312.802 214.156 313.692C214.674 314.574 214.952 315.73 214.989 317.161L215.331 330.197L211.6 330.295L211.529 327.611L211.376 327.615C211.142 328.116 210.784 328.611 210.302 329.101C209.821 329.591 209.196 330.004 208.429 330.34C207.662 330.675 206.738 330.857 205.656 330.886ZM206.406 327.797C207.462 327.769 208.36 327.536 209.099 327.099C209.846 326.662 210.407 326.102 210.781 325.418C211.164 324.726 211.345 323.992 211.324 323.217L211.258 320.687C211.125 320.827 210.865 320.961 210.476 321.091C210.095 321.212 209.659 321.321 209.167 321.419C208.675 321.509 208.196 321.594 207.729 321.675C207.262 321.747 206.871 321.808 206.557 321.859C205.818 321.972 205.145 322.147 204.538 322.385C203.938 322.622 203.461 322.955 203.106 323.382C202.759 323.8 202.594 324.35 202.612 325.032C202.637 325.977 203.005 326.684 203.716 327.151C204.427 327.61 205.324 327.825 206.406 327.797Z" fill="white"/>
<path d="M234.858 302.726L236.506 305.1C235.932 305.652 235.273 306.053 234.529 306.302C233.794 306.543 232.942 306.706 231.972 306.792C231.002 306.868 229.891 306.944 228.64 307.02C227.227 307.1 226.072 307.437 225.175 308.032C224.278 308.618 223.598 309.471 223.132 310.592C222.676 311.704 222.397 313.092 222.295 314.757L222.538 314.751C223.145 313.516 224.007 312.581 225.125 311.946C226.25 311.311 227.525 310.975 228.948 310.938C230.532 310.896 231.952 311.221 233.206 311.913C234.46 312.605 235.46 313.64 236.203 315.019C236.956 316.389 237.358 318.079 237.411 320.09C237.464 322.126 237.136 323.895 236.425 325.397C235.722 326.899 234.705 328.072 233.371 328.917C232.046 329.754 230.468 330.196 228.636 330.244C226.804 330.292 225.196 329.921 223.811 329.13C222.434 328.331 221.35 327.123 220.557 325.507C219.773 323.89 219.349 321.881 219.286 319.478L219.235 317.536C219.117 313.046 219.83 309.647 221.372 307.339C222.914 305.03 225.277 303.804 228.462 303.661C229.493 303.608 230.413 303.58 231.222 303.576C232.032 303.563 232.738 303.506 233.341 303.405C233.952 303.295 234.457 303.069 234.858 302.726ZM228.565 327.036C229.629 327.008 230.538 326.715 231.291 326.159C232.052 325.593 232.628 324.806 233.019 323.798C233.411 322.791 233.589 321.609 233.553 320.255C233.518 318.926 233.28 317.802 232.838 316.885C232.396 315.967 231.781 315.275 230.993 314.81C230.205 314.336 229.27 314.114 228.188 314.142C227.387 314.163 226.675 314.322 226.052 314.62C225.428 314.909 224.898 315.328 224.461 315.877C224.032 316.425 223.704 317.09 223.477 317.872C223.259 318.645 223.154 319.53 223.163 320.528C223.216 322.555 223.723 324.158 224.683 325.335C225.652 326.511 226.946 327.078 228.565 327.036Z" fill="white"/>
<path d="M240.383 329.539L240.283 326.229L240.986 326.211C241.531 326.197 241.984 326.07 242.344 325.83C242.713 325.582 243.009 325.173 243.233 324.604C243.457 324.036 243.62 323.256 243.721 322.264C243.823 321.264 243.884 320.009 243.904 318.5L244.021 309.8L257.721 309.441L258.236 329.07L254.492 329.168L254.063 312.836L247.647 313.004L247.516 319.684C247.482 321.304 247.353 322.723 247.129 323.94C246.914 325.156 246.578 326.175 246.122 326.997C245.666 327.81 245.068 328.427 244.329 328.847C243.59 329.259 242.683 329.479 241.61 329.507L240.383 329.539Z" fill="white"/>
<path d="M271.611 329.115C269.771 329.164 268.154 328.784 266.76 327.977C265.366 327.169 264.27 326.017 263.472 324.521C262.674 323.024 262.248 321.262 262.195 319.234C262.141 317.198 262.474 315.407 263.192 313.862C263.91 312.317 264.944 311.105 266.294 310.226C267.643 309.346 269.238 308.882 271.078 308.834C272.919 308.786 274.536 309.165 275.929 309.973C277.323 310.78 278.419 311.936 279.218 313.442C280.016 314.947 280.442 316.717 280.495 318.754C280.549 320.781 280.216 322.563 279.498 324.1C278.779 325.636 277.745 326.844 276.396 327.724C275.046 328.603 273.451 329.067 271.611 329.115ZM271.539 325.907C272.732 325.876 273.712 325.535 274.479 324.884C275.247 324.233 275.804 323.378 276.151 322.321C276.507 321.263 276.669 320.103 276.636 318.842C276.603 317.59 276.381 316.445 275.97 315.407C275.567 314.36 274.966 313.528 274.165 312.909C273.364 312.291 272.368 311.997 271.175 312.029C269.974 312.06 268.985 312.406 268.21 313.066C267.443 313.725 266.881 314.588 266.526 315.655C266.178 316.713 266.021 317.868 266.054 319.12C266.087 320.381 266.305 321.531 266.707 322.569C267.118 323.606 267.724 324.43 268.524 325.04C269.333 325.65 270.338 325.939 271.539 325.907Z" fill="white"/>
<path d="M298.019 316.554L298.105 319.864L287.473 320.143L287.386 316.834L298.019 316.554ZM288.245 308.639L288.76 328.269L285.016 328.367L284.501 308.737L288.245 308.639ZM300.475 308.318L300.991 327.948L297.259 328.046L296.743 308.416L300.475 308.318Z" fill="white"/>
<path d="M308.64 314.856L314.339 314.706C316.742 314.643 318.606 315.191 319.933 316.35C321.259 317.509 321.947 319.029 321.996 320.912C322.029 322.139 321.768 323.25 321.214 324.245C320.661 325.24 319.833 326.038 318.732 326.638C317.631 327.229 316.279 327.546 314.678 327.588L306.102 327.813L305.587 308.184L309.331 308.085L309.76 324.418L314.591 324.291C315.69 324.262 316.586 323.953 317.278 323.364C317.97 322.766 318.304 322.019 318.28 321.125C318.256 320.179 317.882 319.417 317.159 318.84C316.436 318.253 315.525 317.975 314.426 318.003L308.726 318.153L308.64 314.856ZM324.952 327.318L324.437 307.689L328.258 307.588L328.774 327.218L324.952 327.318Z" fill="white"/>
<path d="M47.8851 412.731C47.4213 395.064 61.3672 380.366 79.0342 379.902L206.295 376.561C223.962 376.097 238.66 390.043 239.124 407.71L239.194 410.376C239.657 428.043 225.712 442.741 208.045 443.205L80.7841 446.546C63.117 447.01 48.419 433.064 47.9551 415.397L47.8851 412.731Z" fill="white"/>
<path d="M258.248 407.208C257.784 389.541 271.73 374.843 289.397 374.379L416.657 371.038C434.324 370.574 449.022 384.52 449.486 402.187L449.556 404.852C450.02 422.519 436.074 437.217 418.407 437.681L291.147 441.023C273.48 441.487 258.782 427.541 258.318 409.874L258.248 407.208Z" fill="#10B981"/>
<path d="M122.77 404.277L125.53 404.204C126.825 404.17 127.983 404.43 129.004 404.983C130.024 405.536 130.835 406.321 131.436 407.34C132.037 408.359 132.355 409.55 132.391 410.913C132.426 412.276 132.171 413.485 131.625 414.539C131.078 415.594 130.31 416.427 129.32 417.038C128.33 417.65 127.188 417.972 125.893 418.006L123.132 418.079C121.837 418.113 120.68 417.853 119.659 417.3C118.638 416.747 117.828 415.962 117.227 414.943C116.626 413.924 116.308 412.733 116.272 411.37C116.236 410.007 116.492 408.798 117.038 407.744C117.584 406.689 118.353 405.856 119.342 405.245C120.332 404.633 121.475 404.311 122.77 404.277ZM122.819 406.151C121.831 406.177 121.001 406.406 120.331 406.839C119.666 407.271 119.167 407.87 118.835 408.634C118.508 409.399 118.358 410.292 118.385 411.315C118.412 412.326 118.608 413.202 118.974 413.942C119.346 414.683 119.875 415.251 120.562 415.648C121.254 416.045 122.095 416.23 123.083 416.204L125.844 416.132C126.832 416.106 127.659 415.877 128.324 415.445C128.994 415.012 129.493 414.413 129.82 413.649C130.152 412.884 130.305 411.991 130.278 410.968C130.251 409.957 130.052 409.082 129.68 408.341C129.314 407.6 128.785 407.032 128.092 406.635C127.405 406.238 126.568 406.053 125.58 406.079L122.819 406.151ZM125.161 401.827L125.646 420.298L123.533 420.353L123.048 401.882L125.161 401.827Z" fill="#1F2329" fill-opacity="0.3"/>
<path d="M141.204 419.446C140.023 419.477 138.979 419.223 138.072 418.684C137.172 418.145 136.458 417.377 135.932 416.379C135.411 415.381 135.133 414.206 135.097 412.854C135.062 411.491 135.277 410.294 135.745 409.265C136.218 408.235 136.89 407.427 137.761 406.842C138.638 406.256 139.668 405.947 140.849 405.916C142.03 405.885 143.072 406.139 143.972 406.678C144.879 407.217 145.593 407.989 146.113 408.992C146.64 409.996 146.921 411.179 146.957 412.542C146.992 413.894 146.773 415.082 146.3 416.106C145.833 417.13 145.16 417.935 144.283 418.521C143.412 419.107 142.386 419.415 141.204 419.446ZM141.157 417.64C142.054 417.616 142.787 417.367 143.354 416.891C143.921 416.416 144.334 415.8 144.593 415.043C144.851 414.286 144.969 413.47 144.946 412.595C144.923 411.721 144.763 410.909 144.465 410.161C144.166 409.413 143.722 408.814 143.13 408.363C142.538 407.913 141.794 407.699 140.896 407.723C139.999 407.746 139.267 407.998 138.7 408.479C138.133 408.96 137.72 409.582 137.461 410.345C137.203 411.108 137.085 411.926 137.108 412.801C137.131 413.676 137.291 414.484 137.589 415.227C137.887 415.969 138.332 416.563 138.924 417.008C139.515 417.453 140.259 417.663 141.157 417.64Z" fill="#1F2329" fill-opacity="0.3"/>
<path d="M148.191 407.77L148.142 405.895L158.775 405.616L158.824 407.491L154.53 407.603L154.825 418.815L152.814 418.868L152.519 407.656L148.191 407.77Z" fill="#1F2329" fill-opacity="0.3"/>
<path d="M166.696 418.777C165.514 418.808 164.47 418.554 163.564 418.015C162.663 417.476 161.949 416.707 161.423 415.709C160.902 414.711 160.624 413.536 160.589 412.185C160.553 410.821 160.769 409.625 161.236 408.595C161.709 407.565 162.381 406.758 163.253 406.172C164.13 405.587 165.159 405.278 166.34 405.247C167.522 405.216 168.563 405.47 169.464 406.009C170.37 406.548 171.084 407.319 171.605 408.323C172.131 409.327 172.412 410.51 172.448 411.873C172.484 413.225 172.265 414.413 171.791 415.437C171.324 416.461 170.652 417.266 169.775 417.852C168.903 418.437 167.877 418.746 166.696 418.777ZM166.648 416.97C167.545 416.947 168.278 416.697 168.845 416.222C169.412 415.747 169.825 415.131 170.084 414.374C170.343 413.617 170.46 412.801 170.437 411.926C170.414 411.051 170.254 410.24 169.956 409.492C169.658 408.744 169.213 408.144 168.621 407.694C168.03 407.243 167.285 407.03 166.388 407.053C165.49 407.077 164.758 407.329 164.191 407.81C163.624 408.291 163.211 408.913 162.952 409.676C162.694 410.438 162.576 411.257 162.599 412.132C162.622 413.006 162.783 413.815 163.081 414.557C163.379 415.3 163.823 415.894 164.415 416.338C165.006 416.783 165.751 416.994 166.648 416.97Z" fill="#1F2329" fill-opacity="0.3"/>
<path d="M318.793 414.51L318.335 397.062L324.725 396.894C325.963 396.861 326.993 397.039 327.816 397.426C328.639 397.808 329.261 398.341 329.683 399.023C330.104 399.7 330.326 400.47 330.349 401.333C330.368 402.06 330.25 402.677 329.997 403.184C329.743 403.685 329.395 404.092 328.954 404.405C328.519 404.712 328.036 404.94 327.506 405.091L327.511 405.261C328.091 405.274 328.661 405.447 329.221 405.779C329.786 406.105 330.259 406.579 330.639 407.2C331.019 407.82 331.221 408.582 331.245 409.486C331.268 410.377 331.079 411.184 330.677 411.905C330.281 412.62 329.654 413.196 328.796 413.634C327.938 414.065 326.833 414.299 325.481 414.335L318.793 414.51ZM321.366 412.183L325.166 412.083C326.427 412.05 327.324 411.782 327.856 411.28C328.389 410.777 328.645 410.159 328.626 409.426C328.611 408.875 328.459 408.374 328.169 407.921C327.878 407.468 327.471 407.112 326.947 406.853C326.429 406.594 325.817 406.474 325.113 406.492L321.219 406.594L321.366 412.183ZM321.166 404.541L324.693 404.448C325.283 404.433 325.812 404.305 326.277 404.066C326.748 403.826 327.118 403.498 327.385 403.082C327.658 402.66 327.787 402.168 327.773 401.605C327.754 400.884 327.485 400.286 326.967 399.81C326.448 399.335 325.667 399.111 324.622 399.139L321.026 399.233L321.166 404.541Z" fill="white"/>
<path d="M336.689 410.468L342.207 400.8L344.95 400.728L345.294 413.814L342.797 413.88L342.547 404.355L337.055 414.031L334.286 414.103L333.943 401.017L336.439 400.951L336.689 410.468Z" fill="white"/>
<path d="M347.54 417.532L347.383 411.551L348.448 411.523C348.714 411.266 348.936 410.962 349.114 410.611C349.298 410.259 349.449 409.843 349.568 409.363C349.691 408.882 349.79 408.322 349.864 407.684C349.939 407.039 349.999 406.305 350.045 405.479L350.326 400.587L359.221 400.353L359.506 411.233L361.517 411.18L361.674 417.161L359.186 417.226L359.087 413.452L349.963 413.692L350.062 417.466L347.54 417.532ZM351.174 411.452L357.019 411.298L356.79 402.6L352.667 402.708L352.465 405.416C352.37 406.794 352.237 407.991 352.065 409.007C351.892 410.018 351.595 410.833 351.174 411.452Z" fill="white"/>
<path d="M369.712 413.437C368.423 413.471 367.305 413.225 366.359 412.699C365.419 412.166 364.682 411.404 364.151 410.412C363.624 409.414 363.343 408.236 363.307 406.879C363.272 405.538 363.491 404.35 363.964 403.315C364.443 402.279 365.126 401.463 366.014 400.865C366.908 400.268 367.963 399.953 369.178 399.921C369.916 399.902 370.635 400.005 371.335 400.231C372.034 400.457 372.666 400.824 373.231 401.332C373.795 401.84 374.248 402.508 374.588 403.334C374.928 404.155 375.113 405.159 375.144 406.346L375.168 407.25L364.765 407.523L364.715 405.614L372.621 405.407C372.604 404.736 372.452 404.146 372.166 403.637C371.879 403.121 371.485 402.72 370.983 402.432C370.487 402.143 369.909 402.008 369.25 402.025C368.535 402.044 367.914 402.236 367.39 402.603C366.871 402.963 366.474 403.428 366.199 403.998C365.929 404.562 365.803 405.171 365.82 405.824L365.86 407.315C365.883 408.19 366.055 408.93 366.378 409.535C366.707 410.14 367.154 410.597 367.719 410.907C368.284 411.21 368.938 411.352 369.682 411.332C370.165 411.32 370.603 411.24 370.997 411.093C371.391 410.941 371.729 410.722 372.012 410.436C372.294 410.15 372.507 409.8 372.649 409.387L375.072 409.759C374.897 410.474 374.567 411.105 374.081 411.652C373.601 412.193 372.99 412.621 372.248 412.936C371.512 413.245 370.666 413.412 369.712 413.437Z" fill="white"/>
<path d="M383.665 413.071C382.438 413.103 381.36 412.85 380.431 412.312C379.502 411.774 378.771 411.006 378.239 410.008C377.707 409.01 377.423 407.835 377.388 406.484C377.352 405.126 377.574 403.932 378.053 402.902C378.531 401.872 379.221 401.064 380.12 400.478C381.02 399.892 382.083 399.582 383.31 399.55C384.537 399.518 385.615 399.771 386.544 400.309C387.474 400.848 388.204 401.618 388.736 402.622C389.269 403.625 389.553 404.806 389.588 406.163C389.624 407.515 389.402 408.703 388.923 409.727C388.444 410.752 387.755 411.557 386.855 412.143C385.955 412.73 384.892 413.039 383.665 413.071ZM383.618 410.932C384.413 410.912 385.066 410.684 385.578 410.25C386.089 409.816 386.461 409.246 386.692 408.541C386.93 407.836 387.037 407.063 387.015 406.222C386.993 405.387 386.845 404.624 386.571 403.932C386.303 403.234 385.902 402.679 385.368 402.267C384.834 401.855 384.17 401.659 383.375 401.68C382.574 401.701 381.915 401.931 381.398 402.371C380.886 402.811 380.512 403.386 380.275 404.097C380.044 404.803 379.939 405.573 379.961 406.408C379.983 407.248 380.128 408.014 380.396 408.707C380.67 409.398 381.074 409.948 381.607 410.354C382.147 410.761 382.817 410.953 383.618 410.932Z" fill="white"/>
<path d="M130.177 74.3437L127.008 74.4269C126.796 73.5202 126.447 72.7279 125.96 72.0501C125.482 71.3721 124.905 70.8075 124.228 70.3564C123.559 69.8965 122.822 69.5578 122.014 69.3403C121.207 69.1228 120.369 69.0254 119.5 69.0482C117.916 69.0898 116.49 69.528 115.225 70.3626C113.968 71.197 112.981 72.4037 112.264 73.9828C111.555 75.5616 111.23 77.4841 111.29 79.7504C111.349 82.0166 111.774 83.9195 112.565 85.4589C113.364 86.9981 114.413 88.1514 115.712 88.9187C117.02 89.6858 118.466 90.0485 120.051 90.0069C120.92 89.9841 121.751 89.8429 122.546 89.5833C123.341 89.3237 124.06 88.951 124.703 88.4652C125.355 87.9707 125.902 87.3723 126.344 86.6701C126.795 85.9592 127.102 85.1497 127.265 84.2417L130.435 84.1585C130.231 85.5023 129.828 86.7108 129.225 87.7838C128.623 88.8568 127.862 89.7762 126.945 90.542C126.027 91.2994 124.989 91.885 123.832 92.2991C122.684 92.7129 121.449 92.9371 120.128 92.9718C117.896 93.0304 115.897 92.5373 114.13 91.4924C112.363 90.4475 110.955 88.9328 109.906 86.9483C108.856 84.9638 108.295 82.5913 108.223 79.8309C108.15 77.0705 108.586 74.6719 109.53 72.635C110.474 70.5982 111.801 69.0117 113.51 67.8755C115.219 66.7393 117.19 66.1419 119.422 66.0833C120.743 66.0487 121.988 66.2078 123.156 66.5608C124.334 66.9135 125.401 67.4482 126.357 68.1648C127.314 68.8729 128.121 69.7469 128.779 70.7868C129.437 71.8182 129.903 73.0038 130.177 74.3437Z" fill="white" fill-opacity="0.3"/>
<path d="M143.347 92.4133C141.575 92.4598 140.009 92.0789 138.649 91.2706C137.298 90.462 136.228 89.3093 135.438 87.8125C134.657 86.3154 134.24 84.553 134.187 82.5253C134.133 80.4806 134.457 78.686 135.158 77.1414C135.868 75.5967 136.876 74.3852 138.183 73.5068C139.498 72.6282 141.042 72.1657 142.814 72.1192C144.586 72.0726 146.148 72.4536 147.499 73.2622C148.859 74.0705 149.93 75.2275 150.711 76.7331C151.501 78.2384 151.922 80.0135 151.976 82.0582C152.029 84.0859 151.701 85.8679 150.991 87.4041C150.29 88.9401 149.281 90.1474 147.966 91.026C146.659 91.9043 145.119 92.3668 143.347 92.4133ZM143.276 89.704C144.622 89.6687 145.721 89.2945 146.572 88.5816C147.422 87.8687 148.042 86.9444 148.43 85.8089C148.818 84.6733 148.995 83.4495 148.96 82.1374C148.926 80.8254 148.685 79.6083 148.238 78.4861C147.79 77.3639 147.123 76.4649 146.236 75.7891C145.348 75.1133 144.232 74.7931 142.885 74.8284C141.539 74.8638 140.441 75.2422 139.59 75.9636C138.74 76.6851 138.12 77.6178 137.733 78.7619C137.345 79.906 137.168 81.1341 137.203 82.4461C137.237 83.7582 137.478 84.971 137.925 86.0847C138.372 87.1983 139.039 88.0888 139.926 88.7561C140.813 89.4234 141.93 89.7393 143.276 89.704Z" fill="white" fill-opacity="0.3"/>
<path d="M170.695 64.2767L172.277 66.0767C171.696 66.6717 171.016 67.0945 170.239 67.3451C169.461 67.5957 168.578 67.7596 167.592 67.8367C166.605 67.9137 165.507 67.9937 164.298 68.0766C162.937 68.1635 161.816 68.5254 160.938 69.1623C160.059 69.7992 159.393 70.7034 158.937 71.8749C158.482 73.0463 158.209 74.4773 158.117 76.1678L158.372 76.1611C159.004 74.9168 159.901 73.9895 161.061 73.3793C162.222 72.7691 163.475 72.4463 164.821 72.4109C166.355 72.3707 167.745 72.6923 168.99 73.3757C170.236 74.0592 171.235 75.0944 171.988 76.4813C172.74 77.8683 173.143 79.5927 173.198 81.6545C173.252 83.7078 172.932 85.4895 172.238 86.9997C171.553 88.5097 170.565 89.6866 169.274 90.5304C167.992 91.3655 166.473 91.8061 164.718 91.8522C162.963 91.8982 161.414 91.5254 160.072 90.7337C158.73 89.9334 157.67 88.725 156.895 87.1084C156.119 85.4833 155.699 83.461 155.636 81.0414L155.581 78.9455C155.466 74.5749 156.12 71.2412 157.543 68.9445C158.975 66.6476 161.185 65.4216 164.173 65.2664C165.229 65.2046 166.17 65.1713 166.997 65.1667C167.824 65.162 168.543 65.1048 169.154 64.9949C169.765 64.8851 170.279 64.6457 170.695 64.2767ZM164.647 89.1429C165.831 89.1118 166.841 88.7869 167.678 88.1681C168.523 87.5491 169.161 86.6926 169.592 85.5985C170.024 84.4959 170.22 83.2076 170.182 81.7337C170.144 80.3024 169.878 79.0902 169.383 78.0971C168.896 77.1039 168.216 76.3544 167.341 75.8488C166.467 75.3432 165.429 75.1061 164.228 75.1377C163.35 75.1607 162.566 75.3305 161.876 75.647C161.185 75.9636 160.6 76.418 160.121 77.0103C159.642 77.6027 159.277 78.3199 159.026 79.162C158.784 80.0038 158.669 80.9617 158.68 82.0357C158.738 84.2338 159.299 85.9796 160.365 87.2731C161.43 88.5666 162.858 89.1898 164.647 89.1429Z" fill="white" fill-opacity="0.3"/>
<path d="M178.255 98.4537L177.547 71.463L180.46 71.3865L180.542 74.5047L180.9 74.4953C181.113 74.1487 181.408 73.7061 181.786 73.1676C182.172 72.6204 182.731 72.1283 183.461 71.6913C184.199 71.2457 185.208 71.006 186.486 70.9725C188.139 70.9291 189.606 71.304 190.889 72.0974C192.172 72.8907 193.186 74.0363 193.933 75.5343C194.68 77.0322 195.081 78.8121 195.135 80.8739C195.19 82.9527 194.883 84.7639 194.216 86.3075C193.549 87.8426 192.6 89.0441 191.369 89.9119C190.139 90.7712 188.705 91.2223 187.07 91.2653C185.809 91.2984 184.794 91.1162 184.024 90.7186C183.255 90.3125 182.659 89.8465 182.236 89.3205C181.812 88.7859 181.485 88.3427 181.254 87.9907L180.999 87.9974L181.271 98.3745L178.255 98.4537ZM180.769 81.1999C180.808 82.6824 181.06 83.9844 181.524 85.1062C181.988 86.2194 182.646 87.0845 183.498 87.7016C184.349 88.3101 185.38 88.5985 186.59 88.5667C187.851 88.5336 188.894 88.1737 189.72 87.487C190.554 86.7916 191.17 85.8717 191.566 84.7274C191.97 83.5743 192.154 82.2992 192.118 80.9019C192.081 79.5217 191.836 78.2834 191.381 77.1871C190.934 76.0819 190.276 75.2168 189.407 74.5917C188.546 73.9578 187.477 73.6576 186.199 73.6912C184.972 73.7234 183.949 74.0614 183.131 74.7053C182.312 75.3406 181.704 76.2177 181.307 77.3365C180.91 78.4467 180.731 79.7345 180.769 81.1999Z" fill="white" fill-opacity="0.3"/>
<path d="M205.781 90.8252C204.537 90.8578 203.402 90.6532 202.375 90.2112C201.349 89.7607 200.526 89.096 199.906 88.2171C199.286 87.3296 198.959 86.2469 198.926 84.969C198.896 83.8444 199.094 82.9269 199.518 82.2167C199.943 81.4979 200.52 80.9286 201.251 80.5087C201.982 80.0888 202.792 79.7691 203.681 79.5497C204.579 79.3215 205.482 79.1358 206.391 78.9926C207.579 78.8079 208.543 78.6675 209.283 78.5713C210.03 78.4665 210.572 78.3116 210.907 78.1067C211.251 77.9015 211.417 77.5562 211.404 77.0705L211.402 76.9683C211.369 75.7074 210.998 74.7366 210.289 74.0561C209.589 73.3754 208.545 73.0533 207.156 73.0897C205.717 73.1276 204.596 73.4724 203.795 74.1244C202.993 74.7763 202.436 75.4645 202.122 76.1889L199.233 75.2416C199.713 74.0355 200.37 73.0889 201.204 72.402C202.047 71.7063 202.972 71.2131 203.979 70.9224C204.994 70.6229 205.996 70.4602 206.984 70.4343C207.615 70.4177 208.341 70.4754 209.163 70.6072C209.993 70.7304 210.798 71.0119 211.577 71.4519C212.364 71.8916 213.025 72.569 213.561 73.4843C214.097 74.3995 214.385 75.6367 214.426 77.1958L214.765 90.1289L211.749 90.208L211.68 87.5499L211.526 87.5539C211.333 87.9853 211.004 88.45 210.54 88.9482C210.075 89.4463 209.451 89.8762 208.668 90.2378C207.885 90.5994 206.922 90.7952 205.781 90.8252ZM206.169 88.1038C207.362 88.0725 208.361 87.8118 209.167 87.3217C209.981 86.8314 210.587 86.2102 210.985 85.458C211.392 84.7056 211.584 83.9204 211.563 83.1025L211.49 80.3421C211.366 80.4988 211.089 80.6468 210.658 80.786C210.235 80.9165 209.744 81.0359 209.184 81.1444C208.632 81.2442 208.093 81.335 207.567 81.4171C207.049 81.4904 206.628 81.5525 206.306 81.6036C205.525 81.7265 204.796 81.9118 204.121 82.1598C203.453 82.399 202.917 82.7498 202.511 83.2123C202.114 83.6661 201.925 84.2764 201.946 85.0431C201.973 86.0911 202.382 86.8732 203.171 87.3896C203.969 87.8973 204.968 88.1353 206.169 88.1038Z" fill="white" fill-opacity="0.3"/>
<path d="M217.158 73.2364L217.084 70.4248L233.033 70.0061L233.107 72.8176L226.666 72.9867L227.107 89.8048L224.091 89.884L223.65 73.0659L217.158 73.2364Z" fill="white" fill-opacity="0.3"/>
<path d="M240.226 76.9276L245.849 76.78C248.149 76.7196 249.924 77.257 251.173 78.3922C252.422 79.5274 253.07 80.9896 253.117 82.7788C253.148 83.9545 252.903 85.0309 252.383 86.0079C251.863 86.9765 251.082 87.76 250.041 88.3586C248.999 88.9486 247.711 89.2638 246.178 89.3041L237.948 89.5202L237.432 69.8906L240.448 69.8114L240.89 86.6294L246.104 86.4925C247.297 86.4612 248.268 86.1203 249.018 85.4697C249.769 84.8191 250.131 83.9996 250.105 83.0113C250.078 81.9719 249.672 81.1342 248.888 80.4984C248.104 79.8625 247.116 79.5602 245.923 79.5915L240.3 79.7391L240.226 76.9276Z" fill="white" fill-opacity="0.3"/>
<path d="M267.996 88.7312L267.48 69.1016L282.918 68.6962L283.434 88.3258L280.418 88.405L279.976 71.587L270.57 71.8339L271.012 88.652L267.996 88.7312Z" fill="white" fill-opacity="0.3"/>
<path d="M289.135 95.5423L288.426 68.5516L291.34 68.4751L291.422 71.5934L291.78 71.584C291.992 71.2374 292.288 70.7948 292.666 70.2563C293.052 69.709 293.61 69.2169 294.341 68.78C295.079 68.3343 296.088 68.0947 297.365 68.0611C299.018 68.0177 300.486 68.3927 301.769 69.186C303.051 69.9793 304.066 71.125 304.813 72.6229C305.56 74.1209 305.961 75.9007 306.015 77.9625C306.069 80.0414 305.763 81.8526 305.096 83.3962C304.429 84.9313 303.48 86.1327 302.249 87.0006C301.019 87.8599 299.585 88.311 297.949 88.3539C296.689 88.387 295.673 88.2048 294.904 87.8073C294.135 87.4012 293.539 86.9351 293.115 86.4091C292.692 85.8746 292.365 85.4313 292.134 85.0793L291.879 85.086L292.151 95.4631L289.135 95.5423ZM291.649 78.2886C291.688 79.771 291.94 81.0731 292.404 82.1948C292.868 83.308 293.526 84.1732 294.377 84.7902C295.229 85.3988 296.26 85.6871 297.469 85.6554C298.73 85.6223 299.774 85.2624 300.6 84.5757C301.434 83.8803 302.049 82.9604 302.446 81.8161C302.85 80.663 303.034 79.3878 302.997 77.9906C302.961 76.6104 302.715 75.3721 302.26 74.2757C301.814 73.1706 301.156 72.3054 300.287 71.6803C299.426 71.0464 298.357 70.7463 297.079 70.7798C295.852 70.812 294.829 71.1501 294.011 71.7939C293.192 72.4293 292.584 73.3064 292.187 74.4251C291.79 75.5353 291.611 76.8232 291.649 78.2886Z" fill="white" fill-opacity="0.3"/>
<path d="M318.857 87.805C317.085 87.8515 315.519 87.4706 314.159 86.6623C312.808 85.8537 311.738 84.701 310.948 83.2042C310.167 81.7071 309.75 79.9447 309.697 77.917C309.643 75.8723 309.967 74.0776 310.668 72.5331C311.378 70.9884 312.386 69.7769 313.693 68.8985C315.008 68.0199 316.552 67.5574 318.324 67.5108C320.096 67.4643 321.658 67.8453 323.009 68.6539C324.369 69.4622 325.439 70.6192 326.221 72.1248C327.01 73.6301 327.432 75.4052 327.486 77.4499C327.539 79.4776 327.211 81.2596 326.501 82.7958C325.799 84.3318 324.791 85.5391 323.476 86.4176C322.169 87.296 320.629 87.7584 318.857 87.805ZM318.786 85.0957C320.132 85.0603 321.231 84.6862 322.081 83.9733C322.932 83.2604 323.552 82.3361 323.94 81.2005C324.328 80.065 324.504 78.8412 324.47 77.5291C324.435 76.2171 324.195 75 323.747 73.8778C323.3 72.7556 322.633 71.8566 321.746 71.1808C320.858 70.505 319.741 70.1848 318.395 70.2201C317.049 70.2555 315.951 70.6339 315.1 71.3553C314.249 72.0767 313.63 73.0095 313.243 74.1536C312.855 75.2977 312.678 76.5258 312.713 77.8378C312.747 79.1499 312.988 80.3627 313.435 81.4764C313.882 82.59 314.549 83.4805 315.436 84.1478C316.323 84.8151 317.44 85.131 318.786 85.0957Z" fill="white" fill-opacity="0.3"/>
<path d="M342.972 82.6702L349.414 66.9503L352.277 66.8751L344.307 86.7275L341.853 86.7919L333.005 67.3811L335.817 67.3073L342.972 82.6702ZM334.845 67.3328L335.361 86.9624L332.345 87.0416L331.829 67.412L334.845 67.3328ZM350.799 86.5571L350.283 66.9275L353.299 66.8483L353.815 86.4779L350.799 86.5571Z" fill="white" fill-opacity="0.3"/>
<path d="M356.223 69.585L356.149 66.7734L372.098 66.3547L372.172 69.1662L365.731 69.3353L366.173 86.1534L363.157 86.2326L362.715 69.4145L356.223 69.585Z" fill="white" fill-opacity="0.3"/>
</svg>
