<svg width="512" height="256" viewBox="0 0 512 256" fill="none" xmlns="http://www.w3.org/2000/svg">
<rect width="512" height="256" fill="#1F2329"/>
<path d="M20 85.4151C20 67.742 34.3269 53.4151 52 53.4151H137.17C154.843 53.4151 169.17 67.742 169.17 85.4151V170.585C169.17 188.258 154.843 202.585 137.17 202.585H52C34.3269 202.585 20 188.258 20 170.585V85.4151Z" fill="#10B981"/>
<path d="M181.415 85.4151C181.415 67.742 195.742 53.4151 213.415 53.4151H298.585C316.258 53.4151 330.585 67.742 330.585 85.4151V170.585C330.585 188.258 316.258 202.585 298.585 202.585H213.415C195.742 202.585 181.415 188.258 181.415 170.585V85.4151Z" fill="#10B981"/>
<path d="M342.83 85.4151C342.83 67.742 357.157 53.4151 374.83 53.4151H460C477.673 53.4151 492 67.742 492 85.4151V170.585C492 188.258 477.673 202.585 460 202.585H374.83C357.157 202.585 342.83 188.258 342.83 170.585V85.4151Z" fill="#10B981"/>
<path d="M49.9263 137.208V119.753H60.8695V122.02H52.5598V127.338H60.2985V129.597H52.5598V134.941H60.9718V137.208H49.9263Z" fill="white"/>
<path d="M71.8958 127.372V129.588H64.1571V127.372H71.8958Z" fill="white"/>
<path d="M75.4966 137.208V119.753H81.7182C83.0762 119.753 84.2012 120 85.0932 120.494C85.9853 120.989 86.6529 121.665 87.0961 122.523C87.5392 123.375 87.7608 124.335 87.7608 125.404C87.7608 126.477 87.5364 127.443 87.0875 128.301C86.6444 129.154 85.9739 129.83 85.0762 130.33C84.1841 130.824 83.062 131.071 81.7097 131.071H77.4313V128.838H81.4711C82.329 128.838 83.025 128.691 83.5591 128.395C84.0932 128.094 84.4853 127.685 84.7353 127.168C84.9853 126.651 85.1103 126.063 85.1103 125.404C85.1103 124.744 84.9853 124.159 84.7353 123.648C84.4853 123.137 84.0904 122.736 83.5506 122.446C83.0165 122.156 82.312 122.012 81.437 122.012H78.1301V137.208H75.4966Z" fill="white"/>
<path d="M90.6436 137.208V124.117H93.1067V126.196H93.2431C93.4817 125.492 93.9022 124.938 94.5044 124.534C95.1124 124.125 95.7999 123.921 96.5669 123.921C96.726 123.921 96.9135 123.926 97.1294 123.938C97.351 123.949 97.5243 123.963 97.6493 123.98V126.418C97.547 126.389 97.3652 126.358 97.1039 126.324C96.8425 126.284 96.5811 126.264 96.3198 126.264C95.7175 126.264 95.1806 126.392 94.709 126.648C94.2431 126.898 93.8738 127.247 93.601 127.696C93.3283 128.139 93.1919 128.645 93.1919 129.213V137.208H90.6436Z" fill="white"/>
<path d="M104.9 137.472C103.673 137.472 102.602 137.191 101.687 136.628C100.772 136.066 100.062 135.279 99.5563 134.267C99.0506 133.256 98.7978 132.074 98.7978 130.722C98.7978 129.364 99.0506 128.176 99.5563 127.159C100.062 126.142 100.772 125.352 101.687 124.79C102.602 124.227 103.673 123.946 104.9 123.946C106.127 123.946 107.198 124.227 108.113 124.79C109.028 125.352 109.738 126.142 110.244 127.159C110.749 128.176 111.002 129.364 111.002 130.722C111.002 132.074 110.749 133.256 110.244 134.267C109.738 135.279 109.028 136.066 108.113 136.628C107.198 137.191 106.127 137.472 104.9 137.472ZM104.909 135.333C105.704 135.333 106.363 135.122 106.886 134.702C107.409 134.281 107.795 133.722 108.045 133.023C108.301 132.324 108.428 131.554 108.428 130.713C108.428 129.878 108.301 129.111 108.045 128.412C107.795 127.708 107.409 127.142 106.886 126.716C106.363 126.29 105.704 126.077 104.909 126.077C104.107 126.077 103.443 126.29 102.914 126.716C102.392 127.142 102.002 127.708 101.747 128.412C101.497 129.111 101.372 129.878 101.372 130.713C101.372 131.554 101.497 132.324 101.747 133.023C102.002 133.722 102.392 134.281 102.914 134.702C103.443 135.122 104.107 135.333 104.909 135.333Z" fill="white"/>
<path d="M113.847 137.208V124.117H116.293V126.247H116.455C116.727 125.526 117.173 124.963 117.793 124.56C118.412 124.151 119.154 123.946 120.017 123.946C120.892 123.946 121.625 124.151 122.216 124.56C122.813 124.969 123.253 125.531 123.537 126.247H123.673C123.986 125.548 124.483 124.992 125.165 124.577C125.847 124.156 126.659 123.946 127.602 123.946C128.79 123.946 129.759 124.318 130.509 125.063C131.264 125.807 131.642 126.929 131.642 128.429V137.208H129.094V128.668C129.094 127.781 128.852 127.139 128.369 126.742C127.887 126.344 127.31 126.145 126.639 126.145C125.81 126.145 125.165 126.401 124.705 126.912C124.244 127.418 124.014 128.068 124.014 128.864V137.208H121.475V128.506C121.475 127.796 121.253 127.225 120.81 126.793C120.367 126.361 119.79 126.145 119.08 126.145C118.597 126.145 118.151 126.273 117.742 126.529C117.338 126.779 117.012 127.128 116.762 127.577C116.517 128.026 116.395 128.546 116.395 129.137V137.208H113.847Z" fill="white"/>
<path d="M141.169 124.117V126.162H134.018V124.117H141.169ZM135.936 120.98H138.484V133.364C138.484 133.858 138.558 134.23 138.705 134.48C138.853 134.725 139.044 134.892 139.276 134.983C139.515 135.068 139.774 135.111 140.052 135.111C140.257 135.111 140.436 135.097 140.589 135.068C140.742 135.04 140.862 135.017 140.947 135L141.407 137.105C141.259 137.162 141.049 137.219 140.776 137.276C140.504 137.338 140.163 137.372 139.754 137.378C139.083 137.389 138.458 137.27 137.879 137.02C137.299 136.77 136.83 136.384 136.472 135.861C136.115 135.338 135.936 134.682 135.936 133.892V120.98Z" fill="white"/>
<path d="M171.47 141.394V116.167H179.106V141.394H171.47ZM162.675 132.599V124.962H187.902V132.599H162.675Z" fill="#10B981"/>
<path d="M324.09 126.53V118.894H349.317V126.53H324.09ZM324.09 138.667V131.03H349.317V138.667H324.09Z" fill="#10B981"/>
<path d="M217.224 125.267C217.059 124.75 216.838 124.287 216.559 123.878C216.287 123.463 215.96 123.111 215.579 122.821C215.199 122.526 214.764 122.301 214.275 122.148C213.792 121.994 213.261 121.918 212.682 121.918C211.699 121.918 210.812 122.171 210.023 122.676C209.233 123.182 208.608 123.923 208.148 124.901C207.693 125.872 207.466 127.063 207.466 128.472C207.466 129.887 207.696 131.083 208.156 132.06C208.616 133.037 209.247 133.779 210.048 134.284C210.849 134.79 211.761 135.043 212.784 135.043C213.733 135.043 214.559 134.85 215.264 134.463C215.974 134.077 216.523 133.531 216.909 132.827C217.301 132.117 217.497 131.281 217.497 130.321L218.179 130.449H213.184V128.276H220.045V130.262C220.045 131.727 219.733 133 219.108 134.08C218.488 135.154 217.63 135.983 216.534 136.568C215.443 137.154 214.193 137.446 212.784 137.446C211.204 137.446 209.818 137.083 208.625 136.355C207.437 135.628 206.511 134.597 205.846 133.262C205.182 131.921 204.849 130.33 204.849 128.489C204.849 127.097 205.042 125.847 205.429 124.739C205.815 123.631 206.358 122.691 207.057 121.918C207.761 121.139 208.588 120.546 209.537 120.137C210.491 119.722 211.534 119.514 212.665 119.514C213.608 119.514 214.486 119.654 215.298 119.932C216.116 120.21 216.844 120.605 217.48 121.117C218.122 121.628 218.653 122.236 219.074 122.941C219.494 123.639 219.778 124.415 219.926 125.267H217.224Z" fill="white"/>
<path d="M228.826 137.472C227.536 137.472 226.425 137.196 225.493 136.645C224.567 136.088 223.851 135.307 223.346 134.301C222.846 133.29 222.596 132.105 222.596 130.747C222.596 129.406 222.846 128.225 223.346 127.202C223.851 126.179 224.556 125.381 225.459 124.807C226.368 124.233 227.431 123.946 228.647 123.946C229.385 123.946 230.101 124.068 230.795 124.313C231.488 124.557 232.11 124.941 232.661 125.463C233.212 125.986 233.647 126.665 233.965 127.5C234.283 128.33 234.442 129.338 234.442 130.526V131.429H224.036V129.52H231.945C231.945 128.85 231.809 128.256 231.536 127.739C231.263 127.216 230.88 126.804 230.385 126.503C229.897 126.202 229.323 126.051 228.664 126.051C227.948 126.051 227.323 126.227 226.789 126.58C226.26 126.926 225.851 127.381 225.562 127.943C225.277 128.5 225.135 129.105 225.135 129.759V131.25C225.135 132.125 225.289 132.869 225.596 133.483C225.908 134.097 226.343 134.566 226.9 134.889C227.456 135.208 228.107 135.367 228.851 135.367C229.334 135.367 229.775 135.298 230.172 135.162C230.57 135.02 230.914 134.81 231.204 134.531C231.493 134.253 231.715 133.909 231.868 133.5L234.28 133.935C234.087 134.645 233.741 135.267 233.241 135.801C232.746 136.33 232.124 136.742 231.374 137.037C230.63 137.327 229.78 137.472 228.826 137.472Z" fill="white"/>
<path d="M239.818 129.435V137.208H237.27V124.117H239.716V126.247H239.878C240.179 125.554 240.65 124.997 241.292 124.577C241.94 124.156 242.755 123.946 243.738 123.946C244.63 123.946 245.412 124.134 246.082 124.509C246.753 124.878 247.273 125.429 247.642 126.162C248.011 126.895 248.196 127.801 248.196 128.881V137.208H245.648V129.188C245.648 128.239 245.4 127.497 244.906 126.963C244.412 126.423 243.733 126.154 242.869 126.154C242.278 126.154 241.753 126.281 241.292 126.537C240.838 126.793 240.477 127.168 240.21 127.662C239.949 128.151 239.818 128.742 239.818 129.435Z" fill="white"/>
<path d="M257.255 137.472C255.966 137.472 254.855 137.196 253.923 136.645C252.997 136.088 252.281 135.307 251.775 134.301C251.275 133.29 251.025 132.105 251.025 130.747C251.025 129.406 251.275 128.225 251.775 127.202C252.281 126.179 252.986 125.381 253.889 124.807C254.798 124.233 255.861 123.946 257.076 123.946C257.815 123.946 258.531 124.068 259.224 124.313C259.917 124.557 260.54 124.941 261.091 125.463C261.642 125.986 262.076 126.665 262.395 127.5C262.713 128.33 262.872 129.338 262.872 130.526V131.429H252.466V129.52H260.375C260.375 128.85 260.238 128.256 259.966 127.739C259.693 127.216 259.309 126.804 258.815 126.503C258.326 126.202 257.753 126.051 257.094 126.051C256.378 126.051 255.753 126.227 255.219 126.58C254.69 126.926 254.281 127.381 253.991 127.943C253.707 128.5 253.565 129.105 253.565 129.759V131.25C253.565 132.125 253.719 132.869 254.025 133.483C254.338 134.097 254.773 134.566 255.329 134.889C255.886 135.208 256.537 135.367 257.281 135.367C257.764 135.367 258.204 135.298 258.602 135.162C259 135.02 259.344 134.81 259.633 134.531C259.923 134.253 260.145 133.909 260.298 133.5L262.71 133.935C262.517 134.645 262.17 135.267 261.67 135.801C261.176 136.33 260.554 136.742 259.804 137.037C259.059 137.327 258.21 137.472 257.255 137.472Z" fill="white"/>
<path d="M265.699 137.208V124.117H268.162V126.196H268.299C268.537 125.492 268.958 124.938 269.56 124.534C270.168 124.125 270.856 123.921 271.623 123.921C271.782 123.921 271.969 123.926 272.185 123.938C272.407 123.949 272.58 123.963 272.705 123.98V126.418C272.603 126.389 272.421 126.358 272.16 126.324C271.898 126.284 271.637 126.264 271.376 126.264C270.773 126.264 270.236 126.392 269.765 126.648C269.299 126.898 268.929 127.247 268.657 127.696C268.384 128.139 268.248 128.645 268.248 129.213V137.208H265.699Z" fill="white"/>
<path d="M278.603 137.497C277.773 137.497 277.023 137.344 276.353 137.037C275.682 136.725 275.151 136.273 274.759 135.682C274.373 135.091 274.179 134.367 274.179 133.509C274.179 132.77 274.322 132.162 274.606 131.685C274.89 131.208 275.273 130.83 275.756 130.551C276.239 130.273 276.779 130.063 277.375 129.921C277.972 129.779 278.58 129.671 279.199 129.597C279.983 129.506 280.62 129.432 281.108 129.375C281.597 129.313 281.952 129.213 282.174 129.077C282.395 128.941 282.506 128.719 282.506 128.412V128.352C282.506 127.608 282.296 127.031 281.875 126.622C281.461 126.213 280.841 126.009 280.018 126.009C279.16 126.009 278.483 126.199 277.989 126.58C277.5 126.955 277.162 127.372 276.975 127.833L274.58 127.287C274.864 126.492 275.279 125.85 275.824 125.361C276.376 124.867 277.009 124.509 277.725 124.287C278.441 124.06 279.194 123.946 279.983 123.946C280.506 123.946 281.06 124.009 281.645 124.134C282.236 124.253 282.787 124.475 283.299 124.798C283.816 125.122 284.239 125.585 284.569 126.188C284.898 126.784 285.063 127.56 285.063 128.514V137.208H282.574V135.418H282.472C282.307 135.747 282.06 136.071 281.731 136.389C281.401 136.708 280.978 136.972 280.461 137.182C279.944 137.392 279.324 137.497 278.603 137.497ZM279.157 135.452C279.861 135.452 280.464 135.313 280.964 135.034C281.469 134.756 281.853 134.392 282.114 133.943C282.381 133.489 282.515 133.003 282.515 132.486V130.798C282.424 130.889 282.248 130.975 281.986 131.054C281.731 131.128 281.438 131.193 281.108 131.25C280.779 131.301 280.458 131.35 280.145 131.395C279.833 131.435 279.572 131.469 279.361 131.497C278.867 131.56 278.415 131.665 278.006 131.813C277.603 131.96 277.279 132.173 277.035 132.452C276.796 132.725 276.677 133.088 276.677 133.543C276.677 134.173 276.91 134.651 277.375 134.975C277.841 135.293 278.435 135.452 279.157 135.452Z" fill="white"/>
<path d="M294.568 124.117V126.162H287.417V124.117H294.568ZM289.335 120.98H291.883V133.364C291.883 133.858 291.957 134.23 292.105 134.48C292.253 134.725 292.443 134.892 292.676 134.983C292.915 135.068 293.173 135.111 293.452 135.111C293.656 135.111 293.835 135.097 293.988 135.068C294.142 135.04 294.261 135.017 294.346 135L294.807 137.105C294.659 137.162 294.449 137.219 294.176 137.276C293.903 137.338 293.562 137.372 293.153 137.378C292.483 137.389 291.858 137.27 291.278 137.02C290.699 136.77 290.23 136.384 289.872 135.861C289.514 135.338 289.335 134.682 289.335 133.892V120.98Z" fill="white"/>
<path d="M302.888 137.472C301.599 137.472 300.488 137.196 299.556 136.645C298.63 136.088 297.914 135.307 297.408 134.301C296.908 133.29 296.658 132.105 296.658 130.747C296.658 129.406 296.908 128.225 297.408 127.202C297.914 126.179 298.618 125.381 299.522 124.807C300.431 124.233 301.493 123.946 302.709 123.946C303.448 123.946 304.164 124.068 304.857 124.313C305.55 124.557 306.172 124.941 306.724 125.463C307.275 125.986 307.709 126.665 308.027 127.5C308.346 128.33 308.505 129.338 308.505 130.526V131.429H298.099V129.52H306.008C306.008 128.85 305.871 128.256 305.599 127.739C305.326 127.216 304.942 126.804 304.448 126.503C303.959 126.202 303.385 126.051 302.726 126.051C302.01 126.051 301.385 126.227 300.851 126.58C300.323 126.926 299.914 127.381 299.624 127.943C299.34 128.5 299.198 129.105 299.198 129.759V131.25C299.198 132.125 299.351 132.869 299.658 133.483C299.971 134.097 300.405 134.566 300.962 134.889C301.519 135.208 302.17 135.367 302.914 135.367C303.397 135.367 303.837 135.298 304.235 135.162C304.633 135.02 304.976 134.81 305.266 134.531C305.556 134.253 305.777 133.909 305.931 133.5L308.343 133.935C308.15 134.645 307.803 135.267 307.303 135.801C306.809 136.33 306.187 136.742 305.437 137.037C304.692 137.327 303.843 137.472 302.888 137.472Z" fill="white"/>
<path d="M377.772 137.208V119.753H383.994C385.352 119.753 386.477 120 387.369 120.494C388.261 120.989 388.928 121.665 389.372 122.523C389.815 123.375 390.036 124.335 390.036 125.404C390.036 126.477 389.812 127.443 389.363 128.301C388.92 129.154 388.249 129.83 387.352 130.33C386.46 130.824 385.337 131.071 383.985 131.071H379.707V128.838H383.747C384.605 128.838 385.301 128.691 385.835 128.395C386.369 128.094 386.761 127.685 387.011 127.168C387.261 126.651 387.386 126.063 387.386 125.404C387.386 124.744 387.261 124.159 387.011 123.648C386.761 123.137 386.366 122.736 385.826 122.446C385.292 122.156 384.587 122.012 383.712 122.012H380.406V137.208H377.772Z" fill="white"/>
<path d="M398.397 137.472C397.107 137.472 395.997 137.196 395.065 136.645C394.139 136.088 393.423 135.307 392.917 134.301C392.417 133.29 392.167 132.105 392.167 130.747C392.167 129.406 392.417 128.225 392.917 127.202C393.423 126.179 394.127 125.381 395.031 124.807C395.94 124.233 397.002 123.946 398.218 123.946C398.957 123.946 399.673 124.068 400.366 124.313C401.059 124.557 401.681 124.941 402.232 125.463C402.783 125.986 403.218 126.665 403.536 127.5C403.855 128.33 404.014 129.338 404.014 130.526V131.429H393.607V129.52H401.516C401.516 128.85 401.38 128.256 401.107 127.739C400.835 127.216 400.451 126.804 399.957 126.503C399.468 126.202 398.894 126.051 398.235 126.051C397.519 126.051 396.894 126.227 396.36 126.58C395.832 126.926 395.423 127.381 395.133 127.943C394.849 128.5 394.707 129.105 394.707 129.759V131.25C394.707 132.125 394.86 132.869 395.167 133.483C395.48 134.097 395.914 134.566 396.471 134.889C397.028 135.208 397.678 135.367 398.423 135.367C398.906 135.367 399.346 135.298 399.744 135.162C400.141 135.02 400.485 134.81 400.775 134.531C401.065 134.253 401.286 133.909 401.44 133.5L403.852 133.935C403.659 134.645 403.312 135.267 402.812 135.801C402.318 136.33 401.695 136.742 400.945 137.037C400.201 137.327 399.352 137.472 398.397 137.472Z" fill="white"/>
<path d="M406.841 137.208V124.117H409.304V126.196H409.44C409.679 125.492 410.1 124.938 410.702 124.534C411.31 124.125 411.997 123.921 412.764 123.921C412.923 123.921 413.111 123.926 413.327 123.938C413.548 123.949 413.722 123.963 413.847 123.98V126.418C413.744 126.389 413.563 126.358 413.301 126.324C413.04 126.284 412.779 126.264 412.517 126.264C411.915 126.264 411.378 126.392 410.906 126.648C410.44 126.898 410.071 127.247 409.798 127.696C409.526 128.139 409.389 128.645 409.389 129.213V137.208H406.841Z" fill="white"/>
<path d="M423.056 124.117V126.162H415.658V124.117H423.056ZM417.686 137.208V122.6C417.686 121.781 417.865 121.102 418.223 120.563C418.581 120.017 419.056 119.611 419.646 119.344C420.237 119.071 420.879 118.935 421.573 118.935C422.084 118.935 422.521 118.977 422.885 119.063C423.249 119.142 423.519 119.216 423.695 119.284L423.098 121.347C422.979 121.313 422.825 121.273 422.638 121.227C422.45 121.176 422.223 121.151 421.956 121.151C421.337 121.151 420.894 121.304 420.627 121.611C420.365 121.918 420.234 122.361 420.234 122.941V137.208H417.686Z" fill="white"/>
<path d="M430.811 137.472C429.521 137.472 428.411 137.196 427.479 136.645C426.553 136.088 425.837 135.307 425.331 134.301C424.831 133.29 424.581 132.105 424.581 130.747C424.581 129.406 424.831 128.225 425.331 127.202C425.837 126.179 426.541 125.381 427.445 124.807C428.354 124.233 429.416 123.946 430.632 123.946C431.371 123.946 432.087 124.068 432.78 124.313C433.473 124.557 434.095 124.941 434.646 125.463C435.198 125.986 435.632 126.665 435.95 127.5C436.269 128.33 436.428 129.338 436.428 130.526V131.429H426.021V129.52H433.931C433.931 128.85 433.794 128.256 433.521 127.739C433.249 127.216 432.865 126.804 432.371 126.503C431.882 126.202 431.308 126.051 430.649 126.051C429.933 126.051 429.308 126.227 428.774 126.58C428.246 126.926 427.837 127.381 427.547 127.943C427.263 128.5 427.121 129.105 427.121 129.759V131.25C427.121 132.125 427.274 132.869 427.581 133.483C427.894 134.097 428.328 134.566 428.885 134.889C429.442 135.208 430.092 135.367 430.837 135.367C431.32 135.367 431.76 135.298 432.158 135.162C432.556 135.02 432.899 134.81 433.189 134.531C433.479 134.253 433.7 133.909 433.854 133.5L436.266 133.935C436.073 134.645 435.726 135.267 435.226 135.801C434.732 136.33 434.109 136.742 433.359 137.037C432.615 137.327 431.766 137.472 430.811 137.472Z" fill="white"/>
<path d="M444.769 137.472C443.502 137.472 442.411 137.185 441.497 136.611C440.587 136.031 439.889 135.233 439.4 134.216C438.911 133.199 438.667 132.034 438.667 130.722C438.667 129.392 438.917 128.219 439.417 127.202C439.917 126.179 440.622 125.381 441.531 124.807C442.44 124.233 443.511 123.946 444.744 123.946C445.738 123.946 446.624 124.131 447.403 124.5C448.181 124.864 448.809 125.375 449.286 126.034C449.769 126.693 450.056 127.463 450.147 128.344H447.667C447.531 127.73 447.218 127.202 446.73 126.759C446.247 126.316 445.599 126.094 444.786 126.094C444.076 126.094 443.454 126.281 442.92 126.656C442.391 127.026 441.98 127.554 441.684 128.242C441.389 128.923 441.241 129.73 441.241 130.662C441.241 131.617 441.386 132.441 441.676 133.134C441.965 133.827 442.374 134.364 442.903 134.744C443.437 135.125 444.065 135.316 444.786 135.316C445.269 135.316 445.707 135.227 446.099 135.051C446.497 134.869 446.829 134.611 447.096 134.276C447.369 133.941 447.559 133.537 447.667 133.066H450.147C450.056 133.912 449.781 134.668 449.32 135.333C448.86 135.997 448.244 136.52 447.471 136.901C446.704 137.281 445.803 137.472 444.769 137.472Z" fill="white"/>
<path d="M458.983 124.117V126.162H451.833V124.117H458.983ZM453.75 120.98H456.298V133.364C456.298 133.858 456.372 134.23 456.52 134.48C456.668 134.725 456.858 134.892 457.091 134.983C457.33 135.068 457.588 135.111 457.867 135.111C458.071 135.111 458.25 135.097 458.404 135.068C458.557 135.04 458.676 135.017 458.761 135L459.222 137.105C459.074 137.162 458.864 137.219 458.591 137.276C458.318 137.338 457.977 137.372 457.568 137.378C456.898 137.389 456.273 137.27 455.693 137.02C455.114 136.77 454.645 136.384 454.287 135.861C453.929 135.338 453.75 134.682 453.75 133.892V120.98Z" fill="white"/>
<path d="M20 85.4151C20 67.742 34.3269 53.4151 52 53.4151H137.17C154.843 53.4151 169.17 67.742 169.17 85.4151V170.585C169.17 188.258 154.843 202.585 137.17 202.585H52C34.3269 202.585 20 188.258 20 170.585V85.4151Z" fill="#10B981"/>
<path d="M181.415 85.4151C181.415 67.742 195.742 53.4151 213.415 53.4151H298.585C316.258 53.4151 330.585 67.742 330.585 85.4151V170.585C330.585 188.258 316.258 202.585 298.585 202.585H213.415C195.742 202.585 181.415 188.258 181.415 170.585V85.4151Z" fill="#10B981"/>
<path d="M342.83 85.4151C342.83 67.742 357.157 53.4151 374.83 53.4151H460C477.673 53.4151 492 67.742 492 85.4151V170.585C492 188.258 477.673 202.585 460 202.585H374.83C357.157 202.585 342.83 188.258 342.83 170.585V85.4151Z" fill="#10B981"/>
<path d="M202.566 130.783C202.566 145.846 190.355 158.057 175.292 158.057C160.23 158.057 148.019 145.846 148.019 130.783C148.019 115.72 160.23 103.509 175.292 103.509C190.355 103.509 202.566 115.72 202.566 130.783Z" fill="#1F2329"/>
<path d="M363.981 130.783C363.981 145.846 351.77 158.057 336.708 158.057C321.645 158.057 309.434 145.846 309.434 130.783C309.434 115.72 321.645 103.509 336.708 103.509C351.77 103.509 363.981 115.72 363.981 130.783Z" fill="#1F2329"/>
<path d="M171.47 141.394V116.167H179.106V141.394H171.47ZM162.675 132.599V124.962H187.902V132.599H162.675Z" fill="#10B981"/>
<path d="M324.09 126.53V118.894H349.317V126.53H324.09ZM324.09 138.667V131.03H349.317V138.667H324.09Z" fill="#10B981"/>
<path d="M57.4622 135.208V120.662H66.5815V122.551H59.6568V126.983H66.1056V128.865H59.6568V133.318H66.6667V135.208H57.4622Z" fill="white"/>
<path d="M75.7701 127.012V128.858H69.3212V127.012H75.7701Z" fill="white"/>
<path d="M78.7708 135.208V120.662H83.9554C85.0871 120.662 86.0246 120.868 86.7679 121.28C87.5113 121.692 88.0676 122.255 88.437 122.97C88.8063 123.681 88.9909 124.481 88.9909 125.371C88.9909 126.266 88.8039 127.071 88.4299 127.786C88.0605 128.496 87.5018 129.059 86.7537 129.476C86.0104 129.888 85.0752 130.094 83.9483 130.094H80.383V128.233H83.7495C84.4644 128.233 85.0444 128.11 85.4895 127.864C85.9346 127.613 86.2613 127.272 86.4696 126.841C86.678 126.41 86.7821 125.92 86.7821 125.371C86.7821 124.822 86.678 124.334 86.4696 123.908C86.2613 123.482 85.9322 123.148 85.4824 122.906C85.0373 122.665 84.4502 122.544 83.7211 122.544H80.9654V135.208H78.7708Z" fill="white"/>
<path d="M91.3933 135.208V124.298H93.4458V126.031H93.5595C93.7583 125.444 94.1087 124.983 94.6106 124.646C95.1172 124.306 95.6902 124.135 96.3294 124.135C96.4619 124.135 96.6182 124.14 96.7981 124.149C96.9828 124.159 97.1272 124.171 97.2314 124.185V126.216C97.1461 126.192 96.9946 126.166 96.7768 126.138C96.559 126.105 96.3412 126.088 96.1234 126.088C95.6215 126.088 95.1741 126.195 94.7811 126.408C94.3928 126.616 94.085 126.907 93.8578 127.281C93.6305 127.651 93.5169 128.072 93.5169 128.546V135.208H91.3933Z" fill="white"/>
<path d="M103.274 135.428C102.251 135.428 101.358 135.193 100.596 134.725C99.8337 134.256 99.2419 133.6 98.8205 132.757C98.3991 131.914 98.1884 130.93 98.1884 129.803C98.1884 128.671 98.3991 127.682 98.8205 126.834C99.2419 125.986 99.8337 125.328 100.596 124.86C101.358 124.391 102.251 124.156 103.274 124.156C104.296 124.156 105.189 124.391 105.951 124.86C106.713 125.328 107.305 125.986 107.727 126.834C108.148 127.682 108.359 128.671 108.359 129.803C108.359 130.93 108.148 131.914 107.727 132.757C107.305 133.6 106.713 134.256 105.951 134.725C105.189 135.193 104.296 135.428 103.274 135.428ZM103.281 133.645C103.944 133.645 104.493 133.47 104.928 133.119C105.364 132.769 105.686 132.303 105.894 131.72C106.107 131.138 106.214 130.496 106.214 129.796C106.214 129.1 106.107 128.46 105.894 127.878C105.686 127.291 105.364 126.82 104.928 126.465C104.493 126.11 103.944 125.932 103.281 125.932C102.613 125.932 102.059 126.11 101.619 126.465C101.183 126.82 100.859 127.291 100.646 127.878C100.437 128.46 100.333 129.1 100.333 129.796C100.333 130.496 100.437 131.138 100.646 131.72C100.859 132.303 101.183 132.769 101.619 133.119C102.059 133.47 102.613 133.645 103.281 133.645Z" fill="white"/>
<path d="M110.729 135.208V124.298H112.768V126.074H112.903C113.13 125.473 113.501 125.004 114.018 124.668C114.534 124.327 115.152 124.156 115.871 124.156C116.6 124.156 117.211 124.327 117.704 124.668C118.201 125.009 118.568 125.477 118.805 126.074H118.918C119.179 125.492 119.593 125.028 120.161 124.682C120.729 124.332 121.406 124.156 122.192 124.156C123.182 124.156 123.989 124.467 124.614 125.087C125.244 125.707 125.559 126.642 125.559 127.892V135.208H123.435V128.091C123.435 127.352 123.234 126.817 122.831 126.486C122.429 126.155 121.948 125.989 121.39 125.989C120.698 125.989 120.161 126.202 119.778 126.628C119.394 127.049 119.202 127.592 119.202 128.254V135.208H117.086V127.956C117.086 127.364 116.901 126.888 116.532 126.529C116.162 126.169 115.682 125.989 115.09 125.989C114.688 125.989 114.316 126.095 113.975 126.308C113.639 126.517 113.367 126.808 113.158 127.182C112.955 127.556 112.853 127.989 112.853 128.482V135.208H110.729Z" fill="white"/>
<path d="M133.497 124.298V126.003H127.539V124.298H133.497ZM129.137 121.685H131.26V132.004C131.26 132.416 131.322 132.726 131.445 132.935C131.568 133.138 131.727 133.278 131.921 133.354C132.119 133.425 132.335 133.46 132.567 133.46C132.737 133.46 132.887 133.449 133.014 133.425C133.142 133.401 133.242 133.382 133.313 133.368L133.696 135.122C133.573 135.17 133.398 135.217 133.171 135.264C132.943 135.316 132.659 135.345 132.318 135.35C131.76 135.359 131.239 135.26 130.756 135.051C130.273 134.843 129.882 134.521 129.584 134.085C129.286 133.65 129.137 133.103 129.137 132.445V121.685Z" fill="white"/>
<path d="M223.78 125.257C223.642 124.826 223.458 124.441 223.226 124.1C222.998 123.754 222.726 123.46 222.409 123.219C222.092 122.973 221.729 122.786 221.322 122.658C220.92 122.53 220.477 122.466 219.994 122.466C219.175 122.466 218.436 122.677 217.778 123.098C217.12 123.52 216.599 124.137 216.216 124.952C215.837 125.762 215.648 126.753 215.648 127.928C215.648 129.107 215.839 130.103 216.223 130.918C216.606 131.732 217.132 132.35 217.799 132.771C218.467 133.193 219.227 133.404 220.079 133.404C220.87 133.404 221.559 133.243 222.146 132.921C222.738 132.599 223.195 132.144 223.517 131.557C223.844 130.965 224.007 130.269 224.007 129.469L224.575 129.575H220.413V127.764H226.13V129.419C226.13 130.641 225.87 131.701 225.349 132.601C224.833 133.496 224.118 134.187 223.204 134.675C222.295 135.163 221.254 135.406 220.079 135.406C218.763 135.406 217.608 135.103 216.613 134.497C215.624 133.891 214.852 133.032 214.298 131.919C213.744 130.802 213.467 129.476 213.467 127.942C213.467 126.782 213.628 125.74 213.95 124.817C214.272 123.894 214.724 123.11 215.307 122.466C215.894 121.817 216.583 121.323 217.373 120.982C218.169 120.636 219.038 120.463 219.98 120.463C220.766 120.463 221.497 120.579 222.174 120.811C222.856 121.043 223.462 121.372 223.993 121.798C224.528 122.225 224.97 122.731 225.321 123.318C225.671 123.901 225.908 124.547 226.031 125.257H223.78Z" fill="white"/>
<path d="M233.448 135.428C232.373 135.428 231.447 135.198 230.671 134.739C229.899 134.275 229.302 133.624 228.881 132.786C228.464 131.943 228.256 130.956 228.256 129.824C228.256 128.707 228.464 127.722 228.881 126.869C229.302 126.017 229.889 125.352 230.642 124.874C231.4 124.396 232.285 124.156 233.298 124.156C233.914 124.156 234.511 124.258 235.088 124.462C235.666 124.665 236.184 124.985 236.644 125.421C237.103 125.856 237.465 126.422 237.73 127.118C237.995 127.809 238.128 128.65 238.128 129.639V130.392H229.456V128.801H236.047C236.047 128.243 235.933 127.748 235.706 127.317C235.479 126.881 235.159 126.538 234.747 126.287C234.34 126.036 233.862 125.911 233.313 125.911C232.716 125.911 232.195 126.057 231.75 126.351C231.31 126.64 230.969 127.019 230.727 127.487C230.491 127.951 230.372 128.456 230.372 129V130.243C230.372 130.972 230.5 131.592 230.756 132.104C231.016 132.615 231.378 133.006 231.842 133.276C232.306 133.541 232.849 133.673 233.469 133.673C233.871 133.673 234.238 133.617 234.57 133.503C234.901 133.385 235.188 133.209 235.429 132.977C235.671 132.745 235.855 132.459 235.983 132.118L237.993 132.48C237.832 133.072 237.543 133.591 237.127 134.036C236.715 134.476 236.196 134.819 235.571 135.066C234.951 135.307 234.243 135.428 233.448 135.428Z" fill="white"/>
<path d="M242.608 128.73V135.208H240.484V124.298H242.523V126.074H242.657C242.908 125.496 243.301 125.032 243.836 124.682C244.376 124.332 245.056 124.156 245.875 124.156C246.618 124.156 247.269 124.313 247.828 124.625C248.387 124.933 248.82 125.392 249.128 126.003C249.435 126.614 249.589 127.369 249.589 128.269V135.208H247.466V128.524C247.466 127.734 247.26 127.116 246.848 126.671C246.436 126.221 245.87 125.996 245.15 125.996C244.658 125.996 244.22 126.102 243.836 126.316C243.458 126.529 243.157 126.841 242.934 127.253C242.717 127.66 242.608 128.153 242.608 128.73Z" fill="white"/>
<path d="M257.139 135.428C256.064 135.428 255.139 135.198 254.362 134.739C253.59 134.275 252.994 133.624 252.572 132.786C252.156 131.943 251.947 130.956 251.947 129.824C251.947 128.707 252.156 127.722 252.572 126.869C252.994 126.017 253.581 125.352 254.334 124.874C255.091 124.396 255.977 124.156 256.99 124.156C257.605 124.156 258.202 124.258 258.78 124.462C259.357 124.665 259.876 124.985 260.335 125.421C260.794 125.856 261.157 126.422 261.422 127.118C261.687 127.809 261.819 128.65 261.819 129.639V130.392H253.148V128.801H259.738C259.738 128.243 259.625 127.748 259.398 127.317C259.17 126.881 258.851 126.538 258.439 126.287C258.032 126.036 257.553 125.911 257.004 125.911C256.407 125.911 255.887 126.057 255.442 126.351C255.001 126.64 254.66 127.019 254.419 127.487C254.182 127.951 254.064 128.456 254.064 129V130.243C254.064 130.972 254.192 131.592 254.447 132.104C254.708 132.615 255.07 133.006 255.534 133.276C255.998 133.541 256.54 133.673 257.16 133.673C257.563 133.673 257.93 133.617 258.261 133.503C258.593 133.385 258.879 133.209 259.121 132.977C259.362 132.745 259.547 132.459 259.674 132.118L261.684 132.48C261.523 133.072 261.235 133.591 260.818 134.036C260.406 134.476 259.888 134.819 259.263 135.066C258.642 135.307 257.934 135.428 257.139 135.428Z" fill="white"/>
<path d="M264.176 135.208V124.298H266.228V126.031H266.342C266.541 125.444 266.891 124.983 267.393 124.646C267.9 124.306 268.472 124.135 269.112 124.135C269.244 124.135 269.4 124.14 269.58 124.149C269.765 124.159 269.909 124.171 270.014 124.185V126.216C269.928 126.192 269.777 126.166 269.559 126.138C269.341 126.105 269.123 126.088 268.906 126.088C268.404 126.088 267.956 126.195 267.563 126.408C267.175 126.616 266.867 126.907 266.64 127.281C266.413 127.651 266.299 128.072 266.299 128.546V135.208H264.176Z" fill="white"/>
<path d="M274.928 135.449C274.237 135.449 273.612 135.321 273.053 135.066C272.495 134.805 272.052 134.429 271.725 133.936C271.403 133.444 271.242 132.84 271.242 132.125C271.242 131.51 271.361 131.003 271.597 130.605C271.834 130.208 272.154 129.893 272.556 129.661C272.959 129.429 273.409 129.253 273.906 129.135C274.403 129.017 274.909 128.927 275.426 128.865C276.079 128.789 276.609 128.728 277.016 128.681C277.424 128.628 277.72 128.546 277.904 128.432C278.089 128.318 278.181 128.134 278.181 127.878V127.828C278.181 127.208 278.006 126.727 277.656 126.387C277.31 126.046 276.794 125.875 276.107 125.875C275.392 125.875 274.829 126.034 274.417 126.351C274.01 126.664 273.728 127.012 273.572 127.395L271.576 126.941C271.813 126.278 272.159 125.743 272.613 125.335C273.072 124.923 273.6 124.625 274.197 124.441C274.793 124.251 275.421 124.156 276.079 124.156C276.515 124.156 276.976 124.209 277.464 124.313C277.956 124.412 278.416 124.597 278.842 124.867C279.273 125.137 279.625 125.522 279.9 126.024C280.175 126.521 280.312 127.168 280.312 127.963V135.208H278.238V133.716H278.153C278.016 133.991 277.81 134.261 277.535 134.526C277.26 134.791 276.908 135.011 276.477 135.186C276.046 135.361 275.53 135.449 274.928 135.449ZM275.39 133.744C275.977 133.744 276.479 133.628 276.896 133.396C277.317 133.164 277.637 132.861 277.855 132.487C278.077 132.109 278.188 131.704 278.188 131.273V129.867C278.113 129.942 277.966 130.013 277.748 130.08C277.535 130.141 277.291 130.196 277.016 130.243C276.742 130.286 276.474 130.326 276.214 130.364C275.954 130.397 275.736 130.425 275.561 130.449C275.149 130.501 274.772 130.589 274.431 130.712C274.095 130.835 273.825 131.012 273.622 131.244C273.423 131.472 273.323 131.775 273.323 132.154C273.323 132.679 273.517 133.077 273.906 133.347C274.294 133.612 274.789 133.744 275.39 133.744Z" fill="white"/>
<path d="M288.233 124.298V126.003H282.274V124.298H288.233ZM283.872 121.685H285.996V132.004C285.996 132.416 286.057 132.726 286.18 132.935C286.303 133.138 286.462 133.278 286.656 133.354C286.855 133.425 287.07 133.46 287.302 133.46C287.473 133.46 287.622 133.449 287.75 133.425C287.878 133.401 287.977 133.382 288.048 133.368L288.432 135.122C288.309 135.17 288.133 135.217 287.906 135.264C287.679 135.316 287.395 135.345 287.054 135.35C286.495 135.359 285.974 135.26 285.491 135.051C285.008 134.843 284.618 134.521 284.319 134.085C284.021 133.65 283.872 133.103 283.872 132.445V121.685Z" fill="white"/>
<path d="M295.166 135.428C294.092 135.428 293.166 135.198 292.389 134.739C291.618 134.275 291.021 133.624 290.6 132.786C290.183 131.943 289.975 130.956 289.975 129.824C289.975 128.707 290.183 127.722 290.6 126.869C291.021 126.017 291.608 125.352 292.361 124.874C293.119 124.396 294.004 124.156 295.017 124.156C295.633 124.156 296.229 124.258 296.807 124.462C297.385 124.665 297.903 124.985 298.362 125.421C298.822 125.856 299.184 126.422 299.449 127.118C299.714 127.809 299.847 128.65 299.847 129.639V130.392H291.175V128.801H297.766C297.766 128.243 297.652 127.748 297.425 127.317C297.198 126.881 296.878 126.538 296.466 126.287C296.059 126.036 295.581 125.911 295.031 125.911C294.435 125.911 293.914 126.057 293.469 126.351C293.029 126.64 292.688 127.019 292.446 127.487C292.209 127.951 292.091 128.456 292.091 129V130.243C292.091 130.972 292.219 131.592 292.475 132.104C292.735 132.615 293.097 133.006 293.561 133.276C294.025 133.541 294.567 133.673 295.188 133.673C295.59 133.673 295.957 133.617 296.289 133.503C296.62 133.385 296.906 133.209 297.148 132.977C297.389 132.745 297.574 132.459 297.702 132.118L299.712 132.48C299.551 133.072 299.262 133.591 298.845 134.036C298.433 134.476 297.915 134.819 297.29 135.066C296.67 135.307 295.962 135.428 295.166 135.428Z" fill="white"/>
<path d="M384.472 135.208V120.662H389.657C390.788 120.662 391.726 120.868 392.469 121.28C393.213 121.692 393.769 122.255 394.138 122.97C394.508 123.681 394.692 124.481 394.692 125.371C394.692 126.266 394.505 127.071 394.131 127.786C393.762 128.496 393.203 129.059 392.455 129.476C391.712 129.888 390.777 130.094 389.65 130.094H386.084V128.233H389.451C390.166 128.233 390.746 128.11 391.191 127.864C391.636 127.613 391.963 127.272 392.171 126.841C392.379 126.41 392.483 125.92 392.483 125.371C392.483 124.822 392.379 124.334 392.171 123.908C391.963 123.482 391.634 123.148 391.184 122.906C390.739 122.665 390.152 122.544 389.422 122.544H386.667V135.208H384.472Z" fill="white"/>
<path d="M401.66 135.428C400.585 135.428 399.659 135.198 398.883 134.739C398.111 134.275 397.514 133.624 397.093 132.786C396.676 131.943 396.468 130.956 396.468 129.824C396.468 128.707 396.676 127.722 397.093 126.869C397.514 126.017 398.101 125.352 398.854 124.874C399.612 124.396 400.497 124.156 401.51 124.156C402.126 124.156 402.723 124.258 403.3 124.462C403.878 124.665 404.396 124.985 404.856 125.421C405.315 125.856 405.677 126.422 405.942 127.118C406.207 127.809 406.34 128.65 406.34 129.639V130.392H397.668V128.801H404.259C404.259 128.243 404.145 127.748 403.918 127.317C403.691 126.881 403.371 126.538 402.959 126.287C402.552 126.036 402.074 125.911 401.525 125.911C400.928 125.911 400.407 126.057 399.962 126.351C399.522 126.64 399.181 127.019 398.939 127.487C398.703 127.951 398.584 128.456 398.584 129V130.243C398.584 130.972 398.712 131.592 398.968 132.104C399.228 132.615 399.59 133.006 400.054 133.276C400.518 133.541 401.061 133.673 401.681 133.673C402.083 133.673 402.45 133.617 402.782 133.503C403.113 133.385 403.4 133.209 403.641 132.977C403.883 132.745 404.067 132.459 404.195 132.118L406.205 132.48C406.044 133.072 405.755 133.591 405.339 134.036C404.927 134.476 404.408 134.819 403.783 135.066C403.163 135.307 402.455 135.428 401.66 135.428Z" fill="white"/>
<path d="M408.696 135.208V124.298H410.749V126.031H410.862C411.061 125.444 411.412 124.983 411.913 124.646C412.42 124.306 412.993 124.135 413.632 124.135C413.765 124.135 413.921 124.14 414.101 124.149C414.286 124.159 414.43 124.171 414.534 124.185V126.216C414.449 126.192 414.297 126.166 414.08 126.138C413.862 126.105 413.644 126.088 413.426 126.088C412.924 126.088 412.477 126.195 412.084 126.408C411.696 126.616 411.388 126.907 411.161 127.281C410.933 127.651 410.82 128.072 410.82 128.546V135.208H408.696Z" fill="white"/>
<path d="M422.208 124.298V126.003H416.043V124.298H422.208ZM417.734 135.208V123.034C417.734 122.352 417.883 121.787 418.181 121.337C418.48 120.882 418.875 120.544 419.367 120.321C419.86 120.094 420.395 119.98 420.972 119.98C421.399 119.98 421.763 120.016 422.066 120.087C422.369 120.153 422.594 120.215 422.741 120.271L422.244 121.99C422.144 121.962 422.016 121.929 421.86 121.891C421.704 121.848 421.515 121.827 421.292 121.827C420.776 121.827 420.407 121.955 420.184 122.21C419.966 122.466 419.857 122.835 419.857 123.318V135.208H417.734Z" fill="white"/>
<path d="M428.671 135.428C427.596 135.428 426.671 135.198 425.894 134.739C425.123 134.275 424.526 133.624 424.105 132.786C423.688 131.943 423.48 130.956 423.48 129.824C423.48 128.707 423.688 127.722 424.105 126.869C424.526 126.017 425.113 125.352 425.866 124.874C426.623 124.396 427.509 124.156 428.522 124.156C429.138 124.156 429.734 124.258 430.312 124.462C430.89 124.665 431.408 124.985 431.867 125.421C432.327 125.856 432.689 126.422 432.954 127.118C433.219 127.809 433.352 128.65 433.352 129.639V130.392H424.68V128.801H431.271C431.271 128.243 431.157 127.748 430.93 127.317C430.703 126.881 430.383 126.538 429.971 126.287C429.564 126.036 429.086 125.911 428.536 125.911C427.94 125.911 427.419 126.057 426.974 126.351C426.534 126.64 426.193 127.019 425.951 127.487C425.714 127.951 425.596 128.456 425.596 129V130.243C425.596 130.972 425.724 131.592 425.98 132.104C426.24 132.615 426.602 133.006 427.066 133.276C427.53 133.541 428.072 133.673 428.693 133.673C429.095 133.673 429.462 133.617 429.793 133.503C430.125 133.385 430.411 133.209 430.653 132.977C430.894 132.745 431.079 132.459 431.207 132.118L433.217 132.48C433.056 133.072 432.767 133.591 432.35 134.036C431.938 134.476 431.42 134.819 430.795 135.066C430.175 135.307 429.467 135.428 428.671 135.428Z" fill="white"/>
<path d="M440.303 135.428C439.247 135.428 438.338 135.189 437.576 134.71C436.818 134.227 436.236 133.562 435.829 132.715C435.421 131.867 435.218 130.896 435.218 129.803C435.218 128.695 435.426 127.717 435.843 126.869C436.259 126.017 436.847 125.352 437.604 124.874C438.362 124.396 439.254 124.156 440.282 124.156C441.11 124.156 441.849 124.31 442.498 124.618C443.146 124.921 443.67 125.347 444.067 125.896C444.47 126.446 444.709 127.087 444.785 127.821H442.718C442.604 127.31 442.344 126.869 441.937 126.5C441.534 126.131 440.994 125.946 440.317 125.946C439.725 125.946 439.207 126.102 438.762 126.415C438.321 126.723 437.978 127.163 437.732 127.736C437.486 128.304 437.363 128.976 437.363 129.753C437.363 130.548 437.483 131.235 437.725 131.813C437.966 132.39 438.307 132.838 438.748 133.155C439.193 133.472 439.716 133.631 440.317 133.631C440.72 133.631 441.084 133.557 441.411 133.411C441.742 133.259 442.019 133.044 442.242 132.764C442.469 132.485 442.628 132.149 442.718 131.756H444.785C444.709 132.461 444.479 133.091 444.096 133.645C443.712 134.199 443.198 134.635 442.554 134.952C441.915 135.269 441.165 135.428 440.303 135.428Z" fill="white"/>
<path d="M452.148 124.298V126.003H446.189V124.298H452.148ZM447.787 121.685H449.911V132.004C449.911 132.416 449.972 132.726 450.095 132.935C450.218 133.138 450.377 133.278 450.571 133.354C450.77 133.425 450.985 133.46 451.217 133.46C451.388 133.46 451.537 133.449 451.665 133.425C451.793 133.401 451.892 133.382 451.963 133.368L452.347 135.122C452.224 135.17 452.048 135.217 451.821 135.264C451.594 135.316 451.31 135.345 450.969 135.35C450.41 135.359 449.889 135.26 449.406 135.051C448.923 134.843 448.533 134.521 448.234 134.085C447.936 133.65 447.787 133.103 447.787 132.445V121.685Z" fill="white"/>
</svg>
