<svg width="512" height="512" viewBox="0 0 512 512" fill="none" xmlns="http://www.w3.org/2000/svg">
<rect width="512" height="512" fill="#1F2329"/>
<path d="M45.2836 74.6202C46.7418 47.0445 70.2784 25.8721 97.8541 27.3302L437.38 45.2836C464.955 46.7418 486.128 70.2784 484.67 97.8541L479.389 197.715C477.931 225.29 454.395 246.463 426.819 245.005L87.2932 227.051C59.7175 225.593 38.5451 202.056 40.0032 174.481L45.2836 74.6202Z" fill="#2A2F36"/>
<path d="M32.6106 314.285C34.0688 286.71 57.6054 265.537 85.1811 266.995L424.707 284.949C452.282 286.407 473.455 309.944 471.997 337.519L466.716 437.38C465.258 464.955 441.722 486.128 414.146 484.67L74.6202 466.716C47.0445 465.258 25.872 441.722 27.3302 414.146L32.6106 314.285Z" fill="#2A2F36"/>
<path d="M59.4706 168.612C60.4039 150.963 75.4673 137.413 93.1157 138.346L220.242 145.068C237.891 146.001 251.441 161.065 250.508 178.713L250.367 181.376C249.434 199.025 234.371 212.575 216.722 211.642L89.5955 204.92C71.947 203.986 58.3966 188.923 59.3298 171.275L59.4706 168.612Z" fill="#10B981"/>
<path d="M46.7976 408.277C47.7309 390.628 62.7943 377.078 80.4427 378.011L207.569 384.733C225.218 385.667 238.768 400.73 237.835 418.378L237.694 421.041C236.761 438.69 221.698 452.24 204.049 451.307L76.9225 444.585C59.274 443.652 45.7236 428.588 46.6568 410.94L46.7976 408.277Z" fill="white"/>
<path d="M269.612 179.723C270.545 162.075 285.609 148.525 303.257 149.458L430.384 156.18C448.032 157.113 461.583 172.177 460.65 189.825L460.509 192.488C459.576 210.137 444.512 223.687 426.864 222.754L299.737 216.032C282.089 215.098 268.538 200.035 269.471 182.386L269.612 179.723Z" fill="white"/>
<path d="M256.939 419.389C257.872 401.74 272.936 388.19 290.584 389.123L417.711 395.845C435.359 396.778 448.91 411.842 447.977 429.49L447.836 432.153C446.903 449.802 431.839 463.352 414.191 462.419L287.064 455.697C269.416 454.763 255.865 439.7 256.798 422.052L256.939 419.389Z" fill="white"/>
<path d="M134.275 166.004L137.415 166.17C138.743 166.24 139.905 166.594 140.901 167.233C141.903 167.866 142.668 168.723 143.197 169.804C143.732 170.879 143.963 172.109 143.89 173.493C143.817 174.867 143.458 176.057 142.814 177.064C142.174 178.071 141.323 178.84 140.259 179.37C139.202 179.894 138.009 180.121 136.681 180.051L133.541 179.885C132.213 179.815 131.048 179.466 130.046 178.838C129.044 178.205 128.275 177.356 127.739 176.292C127.21 175.229 126.981 174.008 127.054 172.629C127.128 171.239 127.487 170.034 128.133 169.016C128.778 167.997 129.63 167.223 130.688 166.693C131.752 166.163 132.947 165.933 134.275 166.004ZM134.155 168.276C133.247 168.228 132.462 168.377 131.801 168.723C131.14 169.064 130.621 169.577 130.243 170.263C129.866 170.948 129.651 171.782 129.599 172.763C129.548 173.722 129.675 174.557 129.979 175.267C130.288 175.972 130.754 176.528 131.375 176.937C131.997 177.34 132.759 177.565 133.661 177.612L136.81 177.779C137.712 177.827 138.491 177.683 139.146 177.348C139.807 177.007 140.323 176.5 140.694 175.825C141.071 175.145 141.286 174.323 141.337 173.358C141.388 172.388 141.262 171.545 140.958 170.829C140.661 170.108 140.201 169.543 139.58 169.135C138.965 168.721 138.206 168.49 137.304 168.443L134.155 168.276ZM137.265 163.84L136.29 182.292L133.711 182.156L134.687 163.704L137.265 163.84Z" fill="white"/>
<path d="M152.001 182.67C150.776 182.606 149.721 182.268 148.837 181.658C147.953 181.048 147.286 180.225 146.834 179.188C146.382 178.151 146.192 176.958 146.264 175.608C146.336 174.251 146.651 173.079 147.209 172.09C147.768 171.101 148.519 170.35 149.462 169.837C150.405 169.323 151.49 169.099 152.715 169.164C153.941 169.228 154.996 169.566 155.879 170.176C156.763 170.786 157.431 171.612 157.882 172.654C158.333 173.697 158.523 174.896 158.451 176.252C158.38 177.602 158.065 178.769 157.507 179.752C156.948 180.736 156.197 181.484 155.254 181.997C154.311 182.511 153.227 182.735 152.001 182.67ZM152.123 180.535C152.917 180.577 153.586 180.401 154.13 180.009C154.675 179.617 155.09 179.078 155.377 178.394C155.669 177.709 155.837 176.947 155.882 176.108C155.926 175.273 155.838 174.501 155.62 173.789C155.408 173.073 155.052 172.488 154.552 172.035C154.053 171.581 153.406 171.334 152.611 171.292C151.811 171.249 151.136 171.427 150.586 171.825C150.042 172.223 149.623 172.767 149.331 173.457C149.044 174.141 148.879 174.901 148.835 175.735C148.79 176.575 148.874 177.35 149.087 178.061C149.305 178.773 149.665 179.352 150.164 179.799C150.67 180.247 151.323 180.492 152.123 180.535Z" fill="white"/>
<path d="M159.95 171.919L160.066 169.723L171.096 170.306L170.98 172.502L166.716 172.277L166.141 183.153L163.656 183.022L164.231 172.145L159.95 171.919Z" fill="white"/>
<path d="M177.98 184.044C176.755 183.979 175.7 183.642 174.816 183.032C173.933 182.422 173.265 181.598 172.813 180.562C172.362 179.525 172.172 178.332 172.243 176.981C172.315 175.625 172.63 174.453 173.189 173.464C173.747 172.475 174.498 171.724 175.442 171.21C176.385 170.697 177.469 170.473 178.695 170.537C179.92 170.602 180.975 170.94 181.859 171.55C182.743 172.16 183.41 172.986 183.861 174.028C184.313 175.07 184.502 176.27 184.431 177.626C184.359 178.976 184.044 180.143 183.486 181.126C182.928 182.109 182.177 182.858 181.234 183.371C180.29 183.885 179.206 184.109 177.98 184.044ZM178.102 181.908C178.896 181.95 179.566 181.775 180.11 181.383C180.654 180.991 181.069 180.452 181.356 179.767C181.648 179.083 181.816 178.321 181.861 177.481C181.905 176.647 181.818 175.874 181.599 175.163C181.387 174.446 181.031 173.861 180.531 173.408C180.032 172.955 179.385 172.708 178.591 172.666C177.791 172.623 177.116 172.801 176.565 173.199C176.021 173.596 175.602 174.14 175.31 174.831C175.023 175.515 174.858 176.275 174.814 177.109C174.769 177.948 174.854 178.724 175.066 179.435C175.285 180.146 175.644 180.726 176.144 181.173C176.649 181.621 177.302 181.866 178.102 181.908Z" fill="white"/>
<path d="M122.116 405.764L124.874 405.91C126.167 405.979 127.301 406.329 128.275 406.961C129.248 407.592 129.995 408.44 130.513 409.503C131.031 410.566 131.255 411.778 131.183 413.14C131.111 414.501 130.761 415.686 130.133 416.694C129.505 417.702 128.673 418.472 127.638 419.003C126.603 419.535 125.438 419.766 124.145 419.698L121.387 419.552C120.094 419.483 118.96 419.133 117.986 418.502C117.013 417.87 116.267 417.022 115.748 415.959C115.23 414.896 115.006 413.684 115.078 412.322C115.15 410.961 115.5 409.776 116.128 408.768C116.756 407.76 117.588 406.99 118.623 406.459C119.658 405.927 120.823 405.696 122.116 405.764ZM122.017 407.637C121.03 407.585 120.185 407.748 119.482 408.126C118.785 408.504 118.241 409.061 117.849 409.797C117.463 410.534 117.243 411.413 117.189 412.434C117.136 413.444 117.262 414.332 117.569 415.1C117.881 415.867 118.364 416.476 119.017 416.926C119.676 417.376 120.499 417.627 121.486 417.68L124.244 417.825C125.231 417.878 126.073 417.714 126.77 417.336C127.473 416.958 128.017 416.4 128.403 415.664C128.795 414.928 129.018 414.049 129.072 413.028C129.125 412.018 128.996 411.129 128.684 410.362C128.377 409.595 127.895 408.986 127.236 408.536C126.582 408.086 125.762 407.835 124.775 407.783L122.017 407.637ZM124.693 403.511L123.718 421.962L121.607 421.851L122.583 403.399L124.693 403.511Z" fill="#1F2329" fill-opacity="0.3"/>
<path d="M139.295 422.342C138.115 422.28 137.094 421.944 136.233 421.335C135.377 420.727 134.727 419.904 134.281 418.868C133.841 417.832 133.656 416.639 133.728 415.288C133.8 413.927 134.109 412.751 134.657 411.762C135.21 410.772 135.944 410.02 136.858 409.505C137.779 408.991 138.829 408.765 140.009 408.827C141.19 408.889 142.207 409.225 143.063 409.833C143.924 410.442 144.574 411.268 145.014 412.309C145.46 413.351 145.647 414.553 145.575 415.915C145.503 417.265 145.191 418.432 144.639 419.416C144.091 420.4 143.358 421.149 142.437 421.664C141.522 422.178 140.475 422.405 139.295 422.342ZM139.39 420.538C140.287 420.585 141.036 420.395 141.639 419.966C142.242 419.537 142.703 418.955 143.02 418.221C143.338 417.487 143.52 416.682 143.566 415.809C143.612 414.935 143.516 414.113 143.278 413.344C143.04 412.575 142.644 411.942 142.09 411.446C141.536 410.95 140.81 410.679 139.914 410.631C139.017 410.584 138.268 410.778 137.664 411.212C137.061 411.647 136.6 412.234 136.282 412.974C135.964 413.714 135.782 414.521 135.736 415.395C135.69 416.268 135.786 417.087 136.024 417.851C136.263 418.614 136.659 419.241 137.214 419.732C137.768 420.222 138.494 420.491 139.39 420.538Z" fill="#1F2329" fill-opacity="0.3"/>
<path d="M147.182 411.255L147.281 409.382L157.903 409.944L157.804 411.816L153.514 411.589L152.922 422.79L150.914 422.684L151.506 411.483L147.182 411.255Z" fill="#1F2329" fill-opacity="0.3"/>
<path d="M164.759 423.689C163.579 423.626 162.558 423.291 161.697 422.682C160.842 422.073 160.191 421.251 159.745 420.215C159.305 419.179 159.121 417.985 159.192 416.635C159.264 415.273 159.574 414.098 160.121 413.108C160.674 412.119 161.408 411.367 162.323 410.852C163.243 410.337 164.294 410.111 165.474 410.174C166.654 410.236 167.672 410.571 168.527 411.18C169.388 411.789 170.039 412.614 170.479 413.656C170.924 414.698 171.111 415.9 171.039 417.261C170.968 418.612 170.656 419.779 170.103 420.762C169.556 421.746 168.822 422.495 167.902 423.01C166.987 423.525 165.939 423.751 164.759 423.689ZM164.855 421.884C165.751 421.932 166.501 421.741 167.104 421.312C167.707 420.883 168.167 420.302 168.485 419.567C168.802 418.833 168.984 418.029 169.031 417.155C169.077 416.281 168.981 415.46 168.743 414.691C168.505 413.921 168.108 413.289 167.554 412.793C167 412.297 166.275 412.025 165.378 411.978C164.482 411.93 163.732 412.124 163.129 412.559C162.525 412.993 162.065 413.581 161.747 414.321C161.429 415.061 161.247 415.867 161.201 416.741C161.154 417.615 161.25 418.434 161.489 419.197C161.727 419.961 162.124 420.588 162.678 421.078C163.233 421.568 163.958 421.837 164.855 421.884Z" fill="#1F2329" fill-opacity="0.3"/>
<path d="M330.008 191.818L330.93 174.388L337.024 174.71C338.238 174.775 339.228 175.038 339.995 175.499C340.761 175.955 341.319 176.545 341.668 177.269C342.017 177.987 342.169 178.772 342.124 179.623C342.084 180.372 341.918 180.983 341.626 181.457C341.339 181.931 340.972 182.299 340.526 182.56C340.085 182.821 339.612 183.006 339.105 183.116L339.096 183.286C339.628 183.349 340.154 183.564 340.675 183.933C341.196 184.302 341.622 184.814 341.951 185.469C342.281 186.123 342.421 186.91 342.373 187.829C342.326 188.703 342.086 189.478 341.652 190.155C341.218 190.832 340.562 191.352 339.683 191.716C338.805 192.079 337.679 192.224 336.306 192.151L330.008 191.818ZM332.218 190.058L336.405 190.279C337.784 190.352 338.777 190.137 339.384 189.634C339.997 189.126 340.323 188.489 340.364 187.723C340.395 187.133 340.274 186.58 339.999 186.065C339.725 185.544 339.318 185.119 338.778 184.789C338.238 184.453 337.588 184.265 336.828 184.225L332.538 183.998L332.218 190.058ZM332.636 182.16L336.551 182.367C337.186 182.4 337.766 182.306 338.29 182.083C338.819 181.861 339.246 181.53 339.571 181.092C339.901 180.655 340.083 180.13 340.115 179.517C340.156 178.751 339.923 178.087 339.418 177.525C338.913 176.958 338.082 176.644 336.925 176.583L332.942 176.372L332.636 182.16Z" fill="#1F2329" fill-opacity="0.3"/>
<path d="M347.489 189.773L354.321 179.995L356.636 180.117L355.945 193.19L353.936 193.084L354.471 182.973L347.673 192.752L345.324 192.628L346.015 179.556L348.023 179.662L347.489 189.773Z" fill="#1F2329" fill-opacity="0.3"/>
<path d="M358.03 197.055L358.327 191.438L359.416 191.496C359.698 191.232 359.944 190.943 360.154 190.63C360.364 190.317 360.551 189.943 360.716 189.508C360.888 189.067 361.041 188.529 361.177 187.893C361.314 187.252 361.446 186.477 361.573 185.567L362.29 180.416L370.596 180.855L370.004 192.056L372.013 192.162L371.715 197.779L369.707 197.673L369.905 193.928L360.237 193.417L360.039 197.162L358.03 197.055ZM361.697 191.616L367.995 191.949L368.489 182.622L364.063 182.388L363.548 185.672C363.334 187.032 363.095 188.217 362.831 189.227C362.567 190.237 362.189 191.034 361.697 191.616Z" fill="#1F2329" fill-opacity="0.3"/>
<path d="M380.046 194.737C378.787 194.671 377.715 194.335 376.831 193.731C375.952 193.121 375.293 192.301 374.853 191.271C374.418 190.235 374.236 189.048 374.307 187.709C374.378 186.37 374.684 185.202 375.226 184.207C375.774 183.206 376.503 182.442 377.413 181.916C378.328 181.384 379.376 181.149 380.556 181.211C381.237 181.247 381.904 181.396 382.556 181.658C383.207 181.921 383.792 182.321 384.31 182.861C384.828 183.395 385.226 184.087 385.506 184.938C385.785 185.789 385.893 186.825 385.828 188.045L385.783 188.896L375.706 188.363L375.798 186.627L383.832 187.052C383.871 186.314 383.758 185.648 383.494 185.054C383.235 184.46 382.845 183.981 382.324 183.618C381.808 183.255 381.187 183.054 380.461 183.016C379.661 182.973 378.958 183.135 378.353 183.502C377.753 183.863 377.281 184.35 376.936 184.963C376.59 185.576 376.399 186.243 376.361 186.964L376.299 188.121C376.247 189.109 376.373 189.954 376.677 190.659C376.987 191.358 377.439 191.903 378.033 192.292C378.627 192.677 379.33 192.89 380.142 192.933C380.669 192.961 381.15 192.912 381.583 192.787C382.022 192.657 382.406 192.45 382.734 192.166C383.062 191.876 383.323 191.508 383.518 191.063L385.429 191.711C385.19 192.358 384.816 192.919 384.308 193.392C383.799 193.861 383.183 194.215 382.459 194.455C381.736 194.69 380.931 194.784 380.046 194.737Z" fill="#1F2329" fill-opacity="0.3"/>
<path d="M393.825 195.466C392.645 195.404 391.624 195.068 390.763 194.459C389.908 193.851 389.257 193.028 388.811 191.992C388.371 190.956 388.187 189.763 388.258 188.412C388.33 187.05 388.64 185.875 389.187 184.885C389.74 183.896 390.474 183.144 391.389 182.629C392.309 182.115 393.36 181.888 394.54 181.951C395.72 182.013 396.738 182.349 397.593 182.957C398.454 183.566 399.105 184.391 399.545 185.433C399.99 186.475 400.177 187.677 400.105 189.039C400.034 190.389 399.722 191.556 399.169 192.54C398.622 193.523 397.888 194.273 396.968 194.787C396.053 195.302 395.005 195.528 393.825 195.466ZM393.921 193.662C394.817 193.709 395.567 193.518 396.17 193.089C396.773 192.66 397.233 192.079 397.551 191.344C397.868 190.61 398.05 189.806 398.097 188.932C398.143 188.059 398.047 187.237 397.809 186.468C397.571 185.698 397.174 185.066 396.62 184.57C396.066 184.074 395.341 183.803 394.444 183.755C393.548 183.708 392.798 183.901 392.195 184.336C391.591 184.771 391.131 185.358 390.813 186.098C390.495 186.838 390.313 187.645 390.267 188.518C390.22 189.392 390.316 190.211 390.555 190.975C390.793 191.738 391.19 192.365 391.744 192.855C392.299 193.346 393.024 193.614 393.921 193.662Z" fill="#1F2329" fill-opacity="0.3"/>
<path d="M317.335 431.484L318.257 414.053L324.351 414.376C325.565 414.44 326.555 414.703 327.322 415.164C328.088 415.62 328.646 416.21 328.995 416.934C329.344 417.652 329.496 418.437 329.451 419.288C329.411 420.037 329.245 420.648 328.953 421.122C328.666 421.596 328.299 421.964 327.853 422.225C327.412 422.486 326.939 422.672 326.432 422.781L326.423 422.952C326.955 423.014 327.481 423.229 328.002 423.598C328.523 423.967 328.949 424.479 329.278 425.134C329.608 425.788 329.748 426.575 329.7 427.495C329.653 428.368 329.413 429.144 328.979 429.821C328.545 430.497 327.889 431.017 327.01 431.381C326.132 431.744 325.006 431.889 323.633 431.817L317.335 431.484ZM319.545 429.723L323.732 429.944C325.111 430.017 326.104 429.802 326.711 429.299C327.324 428.791 327.65 428.154 327.691 427.388C327.722 426.798 327.601 426.246 327.326 425.73C327.052 425.21 326.645 424.784 326.105 424.454C325.565 424.118 324.915 423.93 324.155 423.89L319.865 423.663L319.545 429.723ZM319.963 421.825L323.878 422.032C324.513 422.065 325.093 421.971 325.617 421.748C326.146 421.526 326.573 421.196 326.898 420.758C327.228 420.32 327.41 419.795 327.442 419.182C327.483 418.416 327.25 417.752 326.745 417.191C326.24 416.623 325.409 416.309 324.252 416.248L320.269 416.037L319.963 421.825Z" fill="#1F2329" fill-opacity="0.3"/>
<path d="M334.816 429.438L341.648 419.66L343.963 419.782L343.272 432.855L341.263 432.749L341.798 422.638L335 432.418L332.651 432.293L333.342 419.221L335.35 419.327L334.816 429.438Z" fill="#1F2329" fill-opacity="0.3"/>
<path d="M345.357 436.721L345.654 431.103L346.743 431.161C347.025 430.897 347.271 430.609 347.481 430.295C347.691 429.982 347.878 429.608 348.043 429.173C348.215 428.732 348.368 428.194 348.504 427.559C348.641 426.917 348.773 426.142 348.9 425.233L349.617 420.081L357.923 420.521L357.331 431.721L359.34 431.827L359.042 437.444L357.034 437.338L357.232 433.593L347.564 433.082L347.366 436.827L345.357 436.721ZM349.024 431.282L355.322 431.615L355.816 422.287L351.39 422.053L350.875 425.337C350.661 426.697 350.422 427.882 350.158 428.892C349.894 429.902 349.516 430.699 349.024 431.282Z" fill="#1F2329" fill-opacity="0.3"/>
<path d="M367.373 434.403C366.114 434.336 365.042 434.001 364.158 433.396C363.279 432.786 362.62 431.966 362.18 430.936C361.745 429.9 361.563 428.713 361.634 427.374C361.705 426.035 362.011 424.868 362.553 423.872C363.101 422.871 363.83 422.107 364.74 421.581C365.655 421.049 366.703 420.814 367.883 420.877C368.564 420.913 369.231 421.062 369.883 421.324C370.534 421.586 371.119 421.986 371.637 422.526C372.155 423.06 372.553 423.752 372.833 424.603C373.112 425.455 373.22 426.49 373.155 427.71L373.11 428.561L363.033 428.028L363.125 426.292L371.159 426.717C371.198 425.979 371.085 425.313 370.821 424.719C370.562 424.125 370.172 423.646 369.651 423.283C369.135 422.92 368.514 422.719 367.788 422.681C366.988 422.639 366.285 422.801 365.68 423.167C365.08 423.528 364.608 424.015 364.263 424.628C363.917 425.241 363.726 425.908 363.688 426.629L363.626 427.786C363.574 428.774 363.7 429.62 364.004 430.324C364.314 431.023 364.766 431.568 365.36 431.958C365.954 432.342 366.657 432.555 367.469 432.598C367.996 432.626 368.477 432.578 368.91 432.453C369.349 432.322 369.733 432.115 370.061 431.831C370.389 431.541 370.65 431.173 370.845 430.728L372.756 431.376C372.517 432.023 372.143 432.584 371.635 433.058C371.126 433.526 370.51 433.88 369.786 434.121C369.063 434.355 368.258 434.449 367.373 434.403Z" fill="#1F2329" fill-opacity="0.3"/>
<path d="M381.152 435.131C379.972 435.069 378.951 434.733 378.09 434.124C377.235 433.516 376.584 432.693 376.138 431.657C375.698 430.621 375.514 429.428 375.585 428.077C375.657 426.716 375.967 425.54 376.514 424.55C377.067 423.561 377.801 422.809 378.716 422.294C379.636 421.78 380.687 421.554 381.867 421.616C383.047 421.678 384.065 422.014 384.92 422.622C385.781 423.231 386.432 424.056 386.872 425.098C387.317 426.14 387.504 427.342 387.432 428.704C387.361 430.054 387.049 431.221 386.496 432.205C385.949 433.189 385.215 433.938 384.295 434.452C383.38 434.967 382.332 435.194 381.152 435.131ZM381.248 433.327C382.144 433.374 382.894 433.184 383.497 432.755C384.1 432.326 384.56 431.744 384.878 431.01C385.195 430.275 385.377 429.471 385.424 428.598C385.47 427.724 385.374 426.902 385.136 426.133C384.898 425.364 384.501 424.731 383.947 424.235C383.393 423.739 382.668 423.468 381.771 423.42C380.875 423.373 380.125 423.567 379.522 424.001C378.918 424.436 378.458 425.023 378.14 425.763C377.822 426.503 377.64 427.31 377.594 428.184C377.547 429.057 377.643 429.876 377.882 430.64C378.12 431.403 378.517 432.03 379.071 432.521C379.626 433.011 380.351 433.279 381.248 433.327Z" fill="#1F2329" fill-opacity="0.3"/>
<path d="M172.944 310.509L176.11 310.676L174.881 333.911L184.073 334.397L185.302 311.162L188.468 311.329L187.239 334.564L196.431 335.05L197.659 311.815L200.825 311.983L199.443 338.128L171.561 336.654L172.944 310.509Z" fill="white" fill-opacity="0.3"/>
<path d="M211.128 339.207C209.886 339.141 208.771 338.848 207.782 338.326C206.795 337.796 206.027 337.068 205.478 336.143C204.93 335.209 204.69 334.104 204.758 332.828C204.817 331.704 205.086 330.805 205.566 330.131C206.046 329.448 206.666 328.926 207.428 328.565C208.19 328.204 209.022 327.949 209.926 327.801C210.839 327.644 211.754 327.53 212.671 327.459C213.871 327.369 214.843 327.305 215.587 327.268C216.341 327.223 216.893 327.111 217.244 326.933C217.603 326.756 217.796 326.425 217.821 325.94L217.827 325.837C217.893 324.578 217.6 323.581 216.948 322.846C216.304 322.113 215.288 321.709 213.901 321.636C212.463 321.56 211.318 321.815 210.468 322.401C209.618 322.988 209.008 323.63 208.638 324.327L205.832 323.155C206.406 321.99 207.136 321.099 208.022 320.48C208.917 319.853 209.878 319.434 210.905 319.224C211.941 319.006 212.952 318.923 213.939 318.975C214.569 319.008 215.288 319.123 216.097 319.319C216.915 319.508 217.695 319.852 218.437 320.352C219.187 320.853 219.793 321.58 220.254 322.535C220.716 323.49 220.906 324.746 220.823 326.303L220.14 339.223L217.127 339.063L217.268 336.408L217.115 336.4C216.888 336.815 216.523 337.252 216.021 337.712C215.519 338.172 214.863 338.551 214.053 338.849C213.244 339.148 212.269 339.267 211.128 339.207ZM211.731 336.525C212.923 336.588 213.939 336.407 214.781 335.982C215.631 335.557 216.285 334.986 216.741 334.268C217.205 333.55 217.459 332.782 217.503 331.965L217.648 329.208C217.513 329.354 217.224 329.48 216.784 329.584C216.352 329.681 215.853 329.761 215.286 329.825C214.728 329.881 214.184 329.929 213.652 329.969C213.13 330.001 212.706 330.03 212.38 330.056C211.592 330.116 210.851 330.244 210.158 330.437C209.474 330.623 208.912 330.931 208.471 331.36C208.039 331.781 207.803 332.374 207.762 333.14C207.707 334.187 208.052 334.999 208.798 335.576C209.554 336.145 210.531 336.461 211.731 336.525Z" fill="white" fill-opacity="0.3"/>
<path d="M241.618 313.321L243.053 315.24C242.427 315.787 241.716 316.155 240.921 316.343C240.126 316.532 239.233 316.625 238.243 316.624C237.253 316.623 236.153 316.616 234.941 316.603C233.577 316.582 232.432 316.855 231.506 317.42C230.58 317.986 229.844 318.834 229.297 319.966C228.751 321.098 228.365 322.503 228.14 324.181L228.395 324.194C229.124 323.004 230.091 322.15 231.296 321.634C232.501 321.117 233.776 320.894 235.12 320.965C236.652 321.046 238.012 321.477 239.2 322.256C240.388 323.036 241.302 324.147 241.943 325.589C242.583 327.031 242.849 328.782 242.74 330.842C242.632 332.893 242.172 334.644 241.362 336.094C240.559 337.546 239.482 338.641 238.128 339.38C236.784 340.111 235.235 340.43 233.482 340.338C231.728 340.245 230.214 339.751 228.938 338.856C227.663 337.952 226.703 336.664 226.058 334.991C225.413 333.309 225.154 331.26 225.282 328.843L225.392 326.75C225.623 322.383 226.539 319.112 228.139 316.935C229.748 314.758 232.048 313.711 235.039 313.792C236.096 313.814 237.037 313.855 237.862 313.916C238.686 313.976 239.407 313.976 240.025 313.915C240.643 313.854 241.174 313.656 241.618 313.321ZM233.625 337.631C234.808 337.694 235.841 337.45 236.723 336.899C237.614 336.349 238.318 335.545 238.835 334.489C239.352 333.424 239.65 332.155 239.727 330.682C239.803 329.253 239.633 328.023 239.218 326.994C238.812 325.966 238.193 325.165 237.361 324.592C236.529 324.018 235.514 323.7 234.314 323.637C233.437 323.59 232.642 323.698 231.928 323.959C231.215 324.22 230.596 324.626 230.071 325.179C229.547 325.732 229.127 326.418 228.81 327.238C228.502 328.058 228.312 329.003 228.238 330.075C228.122 332.271 228.544 334.055 229.504 335.429C230.464 336.803 231.837 337.537 233.625 337.631Z" fill="white" fill-opacity="0.3"/>
<path d="M245.108 340.543L245.256 337.734L245.971 337.772C246.558 337.803 247.054 337.714 247.458 337.505C247.862 337.287 248.198 336.891 248.468 336.317C248.746 335.734 248.977 334.918 249.16 333.87C249.353 332.813 249.522 331.465 249.669 329.826L250.485 321.163L263.558 321.855L262.521 341.464L259.508 341.304L260.396 324.504L253.196 324.123L252.52 331.103C252.367 332.708 252.147 334.117 251.861 335.331C251.584 336.537 251.202 337.541 250.716 338.343C250.238 339.146 249.627 339.736 248.881 340.115C248.136 340.494 247.218 340.654 246.129 340.597L245.108 340.543Z" fill="white" fill-opacity="0.3"/>
<path d="M275.993 342.586C274.223 342.492 272.692 341.989 271.4 341.075C270.117 340.163 269.141 338.929 268.472 337.374C267.812 335.82 267.535 334.03 267.643 332.005C267.751 329.962 268.215 328.199 269.036 326.715C269.866 325.231 270.966 324.103 272.339 323.33C273.719 322.558 275.295 322.219 277.065 322.313C278.836 322.406 280.362 322.91 281.645 323.822C282.937 324.736 283.913 325.974 284.573 327.536C285.241 329.099 285.521 330.902 285.413 332.945C285.306 334.97 284.838 336.721 284.009 338.196C283.188 339.672 282.088 340.796 280.707 341.567C279.335 342.34 277.764 342.679 275.993 342.586ZM276.136 339.879C277.481 339.95 278.606 339.664 279.51 339.021C280.415 338.377 281.105 337.505 281.582 336.403C282.058 335.302 282.331 334.096 282.4 332.785C282.47 331.475 282.326 330.242 281.969 329.088C281.611 327.934 281.017 326.985 280.186 326.242C279.355 325.498 278.267 325.09 276.922 325.019C275.577 324.948 274.453 325.239 273.548 325.891C272.643 326.543 271.952 327.423 271.475 328.533C270.998 329.643 270.725 330.854 270.655 332.164C270.586 333.475 270.73 334.703 271.088 335.848C271.446 336.994 272.04 337.934 272.872 338.67C273.703 339.405 274.792 339.808 276.136 339.879Z" fill="white" fill-opacity="0.3"/>
<path d="M303.214 332.401L303.066 335.209L292.24 334.637L292.388 331.828L303.214 332.401ZM293.549 323.44L292.512 343.049L289.499 342.89L290.536 323.281L293.549 323.44ZM305.958 324.097L304.921 343.706L301.908 343.546L302.945 323.937L305.958 324.097Z" fill="white" fill-opacity="0.3"/>
<path d="M313.689 331.623L319.306 331.92C321.604 332.042 323.331 332.718 324.486 333.948C325.641 335.178 326.172 336.687 326.077 338.475C326.015 339.649 325.687 340.703 325.091 341.636C324.496 342.56 323.656 343.279 322.57 343.794C321.485 344.3 320.177 344.512 318.645 344.431L310.423 343.997L311.46 324.388L314.473 324.547L313.584 341.347L318.793 341.623C319.985 341.686 320.98 341.423 321.779 340.833C322.579 340.244 323.004 339.456 323.057 338.468C323.111 337.43 322.773 336.563 322.042 335.867C321.311 335.171 320.349 334.792 319.158 334.729L313.54 334.432L313.689 331.623ZM328.858 344.971L329.894 325.362L332.907 325.522L331.87 345.131L328.858 344.971Z" fill="white" fill-opacity="0.3"/>
<path d="M25.3115 73.5642C27.3529 34.9582 60.3042 5.31671 98.9102 7.35812L438.436 25.3115C477.042 27.3529 506.683 60.3042 504.642 98.9102L486.688 438.436C484.647 477.042 451.696 506.683 413.09 504.642L73.5641 486.688C34.9581 484.647 5.31669 451.696 7.3581 413.09L25.3115 73.5642Z" fill="#1F2329"/>
<path d="M45.2836 74.6202C46.7418 47.0445 70.2784 25.8721 97.8541 27.3302L437.38 45.2836C464.955 46.7418 486.128 70.2784 484.67 97.8541L479.389 197.715C477.931 225.29 454.395 246.463 426.819 245.005L87.2932 227.051C59.7175 225.593 38.5451 202.056 40.0032 174.481L45.2836 74.6202Z" fill="#2A2F36"/>
<path d="M59.4706 168.612C60.4039 150.963 75.4673 137.413 93.1157 138.346L220.242 145.068C237.891 146.001 251.441 161.065 250.508 178.713L250.367 181.376C249.434 199.025 234.371 212.575 216.722 211.642L89.5955 204.92C71.947 203.986 58.3966 188.923 59.3298 171.275L59.4706 168.612Z" fill="#10B981"/>
<path d="M269.612 179.723C270.545 162.075 285.609 148.525 303.257 149.458L430.384 156.18C448.032 157.113 461.583 172.177 460.65 189.825L460.509 192.488C459.576 210.137 444.512 223.687 426.864 222.754L299.737 216.032C282.089 215.098 268.538 200.035 269.471 182.386L269.612 179.723Z" fill="white"/>
<path d="M134.275 166.004L137.415 166.17C138.743 166.24 139.905 166.594 140.901 167.233C141.903 167.866 142.668 168.723 143.197 169.804C143.732 170.879 143.963 172.109 143.89 173.493C143.817 174.867 143.458 176.057 142.814 177.064C142.174 178.071 141.323 178.84 140.259 179.37C139.202 179.894 138.009 180.121 136.681 180.051L133.541 179.885C132.213 179.815 131.048 179.466 130.046 178.838C129.044 178.205 128.275 177.356 127.739 176.292C127.21 175.229 126.981 174.008 127.054 172.629C127.128 171.239 127.487 170.034 128.133 169.016C128.778 167.997 129.63 167.223 130.688 166.693C131.752 166.163 132.947 165.933 134.275 166.004ZM134.155 168.276C133.247 168.228 132.462 168.377 131.801 168.723C131.14 169.064 130.621 169.577 130.243 170.263C129.866 170.948 129.651 171.782 129.599 172.763C129.548 173.722 129.675 174.557 129.979 175.267C130.288 175.972 130.754 176.528 131.375 176.937C131.997 177.34 132.759 177.565 133.661 177.612L136.81 177.779C137.712 177.827 138.491 177.683 139.146 177.348C139.807 177.007 140.323 176.5 140.694 175.825C141.071 175.145 141.286 174.323 141.337 173.358C141.388 172.388 141.262 171.545 140.958 170.829C140.661 170.108 140.201 169.543 139.58 169.135C138.965 168.721 138.206 168.49 137.304 168.443L134.155 168.276ZM137.265 163.84L136.29 182.292L133.711 182.156L134.687 163.704L137.265 163.84Z" fill="white"/>
<path d="M152.001 182.67C150.776 182.606 149.721 182.268 148.837 181.658C147.953 181.048 147.286 180.225 146.834 179.188C146.382 178.151 146.192 176.958 146.264 175.608C146.336 174.251 146.651 173.079 147.209 172.09C147.768 171.101 148.519 170.35 149.462 169.837C150.405 169.323 151.49 169.099 152.715 169.164C153.941 169.228 154.996 169.566 155.879 170.176C156.763 170.786 157.431 171.612 157.882 172.654C158.333 173.697 158.523 174.896 158.451 176.252C158.38 177.602 158.065 178.769 157.507 179.752C156.948 180.736 156.197 181.484 155.254 181.997C154.311 182.511 153.227 182.735 152.001 182.67ZM152.123 180.535C152.917 180.577 153.586 180.401 154.13 180.009C154.675 179.617 155.09 179.078 155.377 178.394C155.669 177.709 155.837 176.947 155.882 176.108C155.926 175.273 155.838 174.501 155.62 173.789C155.408 173.073 155.052 172.488 154.552 172.035C154.053 171.581 153.406 171.334 152.611 171.292C151.811 171.249 151.136 171.427 150.586 171.825C150.042 172.223 149.623 172.767 149.331 173.457C149.044 174.141 148.879 174.901 148.835 175.735C148.79 176.575 148.874 177.35 149.087 178.061C149.305 178.773 149.665 179.352 150.164 179.799C150.67 180.247 151.323 180.492 152.123 180.535Z" fill="white"/>
<path d="M159.95 171.919L160.066 169.723L171.096 170.306L170.98 172.502L166.716 172.277L166.141 183.153L163.656 183.022L164.231 172.145L159.95 171.919Z" fill="white"/>
<path d="M177.98 184.044C176.755 183.979 175.7 183.642 174.816 183.032C173.933 182.422 173.265 181.598 172.813 180.562C172.362 179.525 172.172 178.332 172.243 176.981C172.315 175.625 172.63 174.453 173.189 173.464C173.747 172.475 174.498 171.724 175.442 171.21C176.385 170.697 177.469 170.473 178.695 170.537C179.92 170.602 180.975 170.94 181.859 171.55C182.743 172.16 183.41 172.986 183.861 174.028C184.313 175.07 184.502 176.27 184.431 177.626C184.359 178.976 184.044 180.143 183.486 181.126C182.928 182.109 182.177 182.858 181.234 183.371C180.29 183.885 179.206 184.109 177.98 184.044ZM178.102 181.908C178.896 181.95 179.566 181.775 180.11 181.383C180.654 180.991 181.069 180.452 181.356 179.767C181.648 179.083 181.816 178.321 181.861 177.481C181.905 176.647 181.818 175.874 181.599 175.163C181.387 174.446 181.031 173.861 180.531 173.408C180.032 172.955 179.385 172.708 178.591 172.666C177.791 172.623 177.116 172.801 176.565 173.199C176.021 173.596 175.602 174.14 175.31 174.831C175.023 175.515 174.858 176.275 174.814 177.109C174.769 177.948 174.854 178.724 175.066 179.435C175.285 180.146 175.644 180.726 176.144 181.173C176.649 181.621 177.302 181.866 178.102 181.908Z" fill="white"/>
<path d="M154.455 77.7217L150.472 77.511C150.364 76.6519 150.118 75.8878 149.735 75.219C149.352 74.5501 148.871 73.9741 148.29 73.4911C147.71 73.0081 147.051 72.6319 146.315 72.3625C145.586 72.0935 144.805 71.937 143.971 71.8929C142.465 71.8132 141.096 72.1206 139.864 72.8151C138.641 73.51 137.646 74.5712 136.879 75.9986C136.121 77.4264 135.686 79.1957 135.574 81.3064C135.462 83.4341 135.707 85.2479 136.311 86.7478C136.923 88.2481 137.805 89.4042 138.957 90.2162C140.109 91.0281 141.429 91.4735 142.919 91.5523C143.744 91.5959 144.533 91.5267 145.285 91.3445C146.046 91.1544 146.741 90.854 147.368 90.4433C147.996 90.0327 148.535 89.5193 148.986 88.903C149.446 88.2787 149.779 87.5538 149.984 86.7283L153.967 86.9517C153.686 88.2256 153.211 89.3867 152.541 90.4352C151.88 91.4756 151.052 92.3621 150.057 93.0947C149.072 93.8192 147.959 94.3621 146.72 94.7233C145.48 95.0845 144.141 95.227 142.703 95.151C140.439 95.0313 138.45 94.3884 136.737 93.2225C135.024 92.048 133.709 90.4295 132.794 88.3669C131.888 86.3048 131.508 83.8822 131.655 81.0992C131.803 78.3076 132.44 75.9388 133.567 73.9928C134.695 72.0382 136.172 70.5716 137.999 69.5928C139.826 68.6055 141.868 68.1715 144.123 68.2908C145.51 68.3641 146.793 68.6326 147.972 69.096C149.16 69.5514 150.215 70.1875 151.136 71.0044C152.058 71.8127 152.804 72.7824 153.376 73.9136C153.948 75.0363 154.308 76.3057 154.455 77.7217Z" fill="white"/>
<path d="M166.175 96.4305C164.336 96.3333 162.754 95.8272 161.429 94.9122C160.103 93.9972 159.101 92.7621 158.424 91.2072C157.747 89.6522 157.462 87.8619 157.569 85.8363C157.676 83.8022 158.149 82.0435 158.987 80.5601C159.825 79.0767 160.952 77.95 162.366 77.1799C163.781 76.4097 165.408 76.0733 167.246 76.1705C169.084 76.2677 170.666 76.7738 171.992 77.6888C173.318 78.6039 174.319 79.8431 174.996 81.4066C175.673 82.9701 175.958 84.7689 175.85 86.803C175.743 88.8286 175.271 90.5788 174.433 92.0537C173.595 93.5286 172.469 94.6511 171.054 95.4212C169.64 96.1913 168.013 96.5278 166.175 96.4305ZM166.357 93.2269C167.548 93.2899 168.552 93.0272 169.369 92.4388C170.185 91.8504 170.808 91.0427 171.238 90.0157C171.676 88.9891 171.929 87.846 171.995 86.5864C172.061 85.3353 171.931 84.1762 171.603 83.1091C171.284 82.034 170.75 81.1565 170.001 80.4768C169.252 79.7971 168.282 79.4257 167.09 79.3627C165.89 79.2993 164.877 79.5658 164.052 80.1622C163.235 80.7592 162.608 81.5751 162.169 82.6102C161.739 83.6373 161.491 84.7763 161.425 86.0274C161.358 87.287 161.484 88.4502 161.804 89.5168C162.131 90.5839 162.67 91.453 163.42 92.1242C164.178 92.7959 165.157 93.1634 166.357 93.2269Z" fill="white"/>
<path d="M196.148 70.6321L197.603 73.1286C196.988 73.6338 196.3 73.9814 195.538 74.1716C194.786 74.3537 193.924 74.4489 192.95 74.4572C191.977 74.457 190.864 74.445 189.611 74.4214C188.196 74.3893 187.018 74.6343 186.077 75.1563C185.137 75.6699 184.39 76.4668 183.838 77.5471C183.295 78.6194 182.907 79.9815 182.675 81.6334L182.917 81.6463C183.62 80.463 184.553 79.5991 185.717 79.0547C186.89 78.5107 188.186 78.2763 189.608 78.3515C191.191 78.4352 192.58 78.8714 193.776 79.6601C194.972 80.4487 195.886 81.5596 196.519 82.9928C197.16 84.4178 197.428 86.1347 197.322 88.1432C197.214 90.1773 196.747 91.915 195.919 93.3563C195.101 94.798 193.993 95.8874 192.597 96.6243C191.21 97.3532 189.602 97.6693 187.772 97.5726C185.942 97.4758 184.368 96.9786 183.05 96.0811C181.741 95.1755 180.755 93.8858 180.093 92.2121C179.439 90.5389 179.175 88.5023 179.302 86.1022L179.405 84.1617C179.642 79.6765 180.62 76.3443 182.34 74.165C184.06 71.9857 186.513 70.9505 189.699 71.0592C190.73 71.0881 191.649 71.1325 192.457 71.1922C193.265 71.2435 193.974 71.2426 194.582 71.1894C195.2 71.1282 195.722 70.9424 196.148 70.6321ZM187.954 94.3689C189.018 94.4252 189.947 94.2054 190.741 93.7098C191.545 93.206 192.181 92.4673 192.651 91.4936C193.121 90.5199 193.391 89.3564 193.463 88.0032C193.533 86.6755 193.384 85.5368 193.016 84.587C192.648 83.6373 192.09 82.8994 191.341 82.3733C190.593 81.8388 189.678 81.5429 188.597 81.4857C187.797 81.4434 187.075 81.5461 186.43 81.7936C185.786 82.0327 185.224 82.4083 184.745 82.9207C184.274 83.4334 183.894 84.0706 183.607 84.832C183.328 85.5854 183.154 86.4595 183.084 87.4544C182.977 89.4799 183.355 91.1173 184.22 92.3663C185.092 93.6159 186.337 94.2834 187.954 94.3689Z" fill="white"/>
<path d="M200.694 105.233L202.12 78.2706L205.847 78.4677L205.679 81.6465L205.998 81.6634C206.241 81.2665 206.585 80.8111 207.031 80.2969C207.476 79.7828 208.08 79.3453 208.841 78.9845C209.603 78.6151 210.593 78.4626 211.81 78.5269C213.393 78.6106 214.784 79.0854 215.985 79.9511C217.185 80.8168 218.099 82.0216 218.725 83.5653C219.361 85.1095 219.622 86.9413 219.51 89.0605C219.398 91.1797 218.949 92.978 218.162 94.4556C217.376 95.9247 216.345 97.0351 215.067 97.7869C213.79 98.5302 212.361 98.8599 210.777 98.7762C209.586 98.7132 208.622 98.4617 207.886 98.0216C207.158 97.582 206.595 97.0829 206.198 96.5242C205.801 95.9655 205.499 95.4716 205.291 95.0424L205.061 95.0302L204.511 105.435L200.694 105.233ZM205.342 88.2728C205.269 89.6516 205.405 90.8707 205.75 91.9302C206.095 92.9897 206.631 93.8331 207.357 94.4604C208.084 95.0791 208.996 95.4176 210.094 95.4756C211.235 95.5359 212.204 95.2842 213.002 94.7204C213.8 94.1482 214.423 93.3489 214.87 92.3228C215.325 91.2971 215.587 90.129 215.657 88.8183C215.725 87.5246 215.591 86.3526 215.254 85.302C214.925 84.252 214.389 83.4086 213.646 82.7719C212.912 82.1356 211.97 81.7871 210.821 81.7264C209.715 81.6679 208.764 81.9035 207.968 82.4332C207.18 82.9634 206.563 83.7287 206.118 84.7293C205.672 85.7299 205.414 86.9111 205.342 88.2728Z" fill="white"/>
<path d="M228.954 99.7886C227.711 99.7229 226.6 99.4337 225.62 98.921C224.641 98.3998 223.881 97.6811 223.34 96.7649C222.808 95.8492 222.576 94.7488 222.644 93.4636C222.703 92.3572 222.964 91.4578 223.427 90.7654C223.89 90.073 224.495 89.5374 225.24 89.1586C225.986 88.7798 226.811 88.5077 227.716 88.3422C228.621 88.1767 229.54 88.0631 230.473 88.0015C231.655 87.9275 232.614 87.8672 233.351 87.8208C234.087 87.7659 234.627 87.6451 234.97 87.4584C235.313 87.2717 235.496 86.9485 235.52 86.4889L235.525 86.3996C235.584 85.2846 235.315 84.4041 234.718 83.7581C234.129 83.1124 233.217 82.757 231.983 82.6917C230.698 82.6238 229.67 82.8553 228.9 83.3864C228.138 83.9094 227.598 84.5082 227.281 85.1827L223.737 84.176C224.226 83.007 224.898 82.0781 225.753 81.3894C226.618 80.6926 227.595 80.2066 228.685 79.9314C229.776 79.6476 230.912 79.537 232.095 79.5996C232.878 79.641 233.703 79.7785 234.57 80.0121C235.446 80.2376 236.254 80.6132 236.994 81.1388C237.743 81.6649 238.34 82.392 238.786 83.3203C239.232 84.24 239.418 85.4148 239.342 86.8446L238.654 99.8662L234.926 99.6691L235.068 96.9882L234.915 96.9801C234.642 97.4607 234.246 97.9262 233.727 98.3767C233.208 98.8272 232.553 99.1894 231.762 99.4634C230.971 99.7373 230.035 99.8457 228.954 99.7886ZM229.946 96.7686C231.001 96.8244 231.914 96.6636 232.685 96.2861C233.465 95.9091 234.068 95.3948 234.495 94.7432C234.931 94.0835 235.17 93.3664 235.211 92.5919L235.344 90.0642C235.201 90.1931 234.93 90.3068 234.532 90.4053C234.144 90.4957 233.7 90.5704 233.202 90.6294C232.704 90.6799 232.22 90.7268 231.748 90.7701C231.277 90.805 230.883 90.8353 230.565 90.8612C229.82 90.9157 229.135 91.0374 228.511 91.2262C227.895 91.4156 227.393 91.7091 227.005 92.1068C226.626 92.4964 226.418 93.0316 226.382 93.7125C226.332 94.6572 226.643 95.3905 227.315 95.9126C227.988 96.4261 228.865 96.7114 229.946 96.7686Z" fill="white"/>
<path d="M242.169 83.6912L242.343 80.3975L258.888 81.2724L258.714 84.5661L252.318 84.2279L251.455 100.543L247.727 100.346L248.59 84.0307L242.169 83.6912Z" fill="white"/>
<path d="M265.441 88.3783L271.135 88.6794C273.535 88.8063 275.35 89.4997 276.581 90.7596C277.812 92.0196 278.377 93.59 278.278 95.4709C278.213 96.6964 277.865 97.7833 277.235 98.7314C276.604 99.6796 275.717 100.409 274.571 100.921C273.427 101.423 272.054 101.632 270.454 101.548L261.888 101.095L262.925 81.4858L266.666 81.6836L265.803 97.9989L270.629 98.2541C271.727 98.3121 272.644 98.0747 273.38 97.5419C274.117 97.0005 274.509 96.283 274.557 95.3893C274.607 94.4446 274.294 93.6557 273.619 93.0226C272.945 92.381 272.059 92.0311 270.961 91.9731L265.267 91.672L265.441 88.3783Z" fill="white"/>
<path d="M291.729 102.673L292.766 83.0638L308.762 83.9096L307.726 103.519L303.985 103.321L304.848 87.0055L296.307 86.5539L295.444 102.869L291.729 102.673Z" fill="white"/>
<path d="M312.44 111.142L313.866 84.1795L317.593 84.3766L317.425 87.5554L317.745 87.5723C317.987 87.1755 318.332 86.72 318.777 86.2058C319.222 85.6917 319.826 85.2542 320.587 84.8934C321.349 84.524 322.339 84.3715 323.556 84.4358C325.139 84.5196 326.531 84.9943 327.731 85.86C328.931 86.7257 329.845 87.9305 330.472 89.4742C331.107 91.0185 331.368 92.8502 331.256 94.9694C331.144 97.0886 330.695 98.887 329.908 100.365C329.122 101.834 328.091 102.944 326.813 103.696C325.537 104.439 324.107 104.769 322.524 104.685C321.332 104.622 320.368 104.371 319.632 103.931C318.904 103.491 318.342 102.992 317.944 102.433C317.547 101.874 317.245 101.38 317.037 100.951L316.807 100.939L316.257 111.344L312.44 111.142ZM317.088 94.1818C317.015 95.5605 317.151 96.7796 317.496 97.8391C317.841 98.8986 318.377 99.742 319.103 100.369C319.83 100.988 320.743 101.326 321.841 101.385C322.981 101.445 323.95 101.193 324.748 100.629C325.546 100.057 326.169 99.2579 326.616 98.2317C327.071 97.206 327.334 96.0379 327.403 94.7272C327.471 93.4336 327.337 92.2615 327 91.211C326.671 90.1609 326.136 89.3175 325.393 88.6808C324.658 88.0445 323.717 87.696 322.568 87.6353C321.461 87.5768 320.51 87.8124 319.714 88.3421C318.926 88.8723 318.31 89.6377 317.864 90.6383C317.419 91.6389 317.16 92.82 317.088 94.1818Z" fill="white"/>
<path d="M343.255 105.794C341.417 105.697 339.835 105.191 338.509 104.276C337.184 103.361 336.182 102.126 335.505 100.571C334.827 99.0159 334.542 97.2256 334.649 95.2C334.757 93.1659 335.23 91.4072 336.068 89.9238C336.906 88.4404 338.032 87.3136 339.447 86.5435C340.862 85.7734 342.488 85.437 344.327 85.5342C346.165 85.6314 347.747 86.1375 349.073 87.0525C350.399 87.9675 351.4 89.2068 352.077 90.7703C352.754 92.3338 353.038 94.1326 352.931 96.1667C352.824 98.1923 352.351 99.9425 351.514 101.417C350.676 102.892 349.55 104.015 348.135 104.785C346.72 105.555 345.094 105.891 343.255 105.794ZM343.438 102.591C344.629 102.654 345.633 102.391 346.449 101.802C347.266 101.214 347.889 100.406 348.319 99.3793C348.757 98.3527 349.009 97.2096 349.076 95.95C349.142 94.6989 349.011 93.5399 348.684 92.4728C348.365 91.3976 347.831 90.5202 347.082 89.8405C346.333 89.1608 345.362 88.7894 344.171 88.7264C342.971 88.6629 341.958 88.9294 341.133 89.5259C340.316 90.1228 339.688 90.9388 339.25 91.9739C338.82 93.0009 338.572 94.14 338.506 95.3911C338.439 96.6507 338.565 97.8138 338.884 98.8805C339.212 99.9475 339.751 100.817 340.5 101.488C341.259 102.16 342.238 102.527 343.438 102.591Z" fill="white"/>
<path d="M367.932 101.965L375.051 87.4148L378.345 87.589L369.099 106.764L366.265 106.614L359.259 86.5798L362.515 86.7519L367.932 101.965ZM361.455 86.6959L360.418 106.305L356.678 106.107L357.715 86.4981L361.455 86.6959ZM375.048 107.078L376.085 87.4695L379.8 87.666L378.763 107.275L375.048 107.078Z" fill="white"/>
<path d="M382.281 91.1001L382.456 87.8064L399.001 88.6812L398.827 91.9749L392.431 91.6367L391.568 107.952L387.84 107.755L388.703 91.4396L382.281 91.1001Z" fill="white"/>
<path d="M330.008 191.818L330.93 174.388L337.024 174.71C338.238 174.775 339.228 175.038 339.995 175.499C340.761 175.955 341.319 176.545 341.668 177.269C342.017 177.987 342.169 178.772 342.124 179.623C342.084 180.372 341.918 180.983 341.626 181.457C341.339 181.931 340.972 182.299 340.526 182.56C340.085 182.821 339.612 183.006 339.105 183.116L339.096 183.286C339.628 183.349 340.154 183.564 340.675 183.933C341.196 184.302 341.622 184.814 341.951 185.469C342.281 186.123 342.421 186.91 342.373 187.829C342.326 188.703 342.086 189.478 341.652 190.155C341.218 190.832 340.562 191.352 339.683 191.716C338.805 192.079 337.679 192.224 336.306 192.151L330.008 191.818ZM332.218 190.058L336.405 190.279C337.784 190.352 338.777 190.137 339.384 189.634C339.997 189.126 340.323 188.489 340.364 187.723C340.395 187.133 340.274 186.58 339.999 186.065C339.725 185.544 339.318 185.119 338.778 184.789C338.238 184.453 337.588 184.265 336.828 184.225L332.538 183.998L332.218 190.058ZM332.636 182.16L336.551 182.367C337.186 182.4 337.766 182.306 338.29 182.083C338.819 181.861 339.246 181.53 339.571 181.092C339.901 180.655 340.083 180.13 340.115 179.517C340.156 178.751 339.923 178.087 339.418 177.525C338.913 176.958 338.082 176.644 336.925 176.583L332.942 176.372L332.636 182.16Z" fill="#1F2329" fill-opacity="0.3"/>
<path d="M347.489 189.773L354.321 179.995L356.636 180.117L355.945 193.19L353.936 193.084L354.471 182.973L347.673 192.752L345.324 192.628L346.015 179.556L348.023 179.662L347.489 189.773Z" fill="#1F2329" fill-opacity="0.3"/>
<path d="M358.03 197.055L358.327 191.438L359.416 191.496C359.698 191.232 359.944 190.943 360.154 190.63C360.364 190.317 360.551 189.943 360.716 189.508C360.888 189.067 361.041 188.529 361.177 187.893C361.314 187.252 361.446 186.477 361.573 185.567L362.29 180.416L370.596 180.855L370.004 192.056L372.013 192.162L371.715 197.779L369.707 197.673L369.905 193.928L360.237 193.417L360.039 197.162L358.03 197.055ZM361.697 191.616L367.995 191.949L368.489 182.622L364.063 182.388L363.548 185.672C363.334 187.032 363.095 188.217 362.831 189.227C362.567 190.237 362.189 191.034 361.697 191.616Z" fill="#1F2329" fill-opacity="0.3"/>
<path d="M380.046 194.737C378.787 194.671 377.715 194.335 376.831 193.731C375.952 193.121 375.293 192.301 374.853 191.271C374.418 190.235 374.236 189.048 374.307 187.709C374.378 186.37 374.684 185.202 375.226 184.207C375.774 183.206 376.503 182.442 377.413 181.916C378.328 181.384 379.376 181.149 380.556 181.211C381.237 181.247 381.904 181.396 382.556 181.658C383.207 181.921 383.792 182.321 384.31 182.861C384.828 183.395 385.226 184.087 385.506 184.938C385.785 185.789 385.893 186.825 385.828 188.045L385.783 188.896L375.706 188.363L375.798 186.627L383.832 187.052C383.871 186.314 383.758 185.648 383.494 185.054C383.235 184.46 382.845 183.981 382.324 183.618C381.808 183.255 381.187 183.054 380.461 183.016C379.661 182.973 378.958 183.135 378.353 183.502C377.753 183.863 377.281 184.35 376.936 184.963C376.59 185.576 376.399 186.243 376.361 186.964L376.299 188.121C376.247 189.109 376.373 189.954 376.677 190.659C376.987 191.358 377.439 191.903 378.033 192.292C378.627 192.677 379.33 192.89 380.142 192.933C380.669 192.961 381.15 192.912 381.583 192.787C382.022 192.657 382.406 192.45 382.734 192.166C383.062 191.876 383.323 191.508 383.518 191.063L385.429 191.711C385.19 192.358 384.816 192.919 384.308 193.392C383.799 193.861 383.183 194.215 382.459 194.455C381.736 194.69 380.931 194.784 380.046 194.737Z" fill="#1F2329" fill-opacity="0.3"/>
<path d="M393.825 195.466C392.645 195.404 391.624 195.068 390.763 194.459C389.908 193.851 389.257 193.028 388.811 191.992C388.371 190.956 388.187 189.763 388.258 188.412C388.33 187.05 388.64 185.875 389.187 184.885C389.74 183.896 390.474 183.144 391.389 182.629C392.309 182.115 393.36 181.888 394.54 181.951C395.72 182.013 396.738 182.349 397.593 182.957C398.454 183.566 399.105 184.391 399.545 185.433C399.99 186.475 400.177 187.677 400.105 189.039C400.034 190.389 399.722 191.556 399.169 192.54C398.622 193.523 397.888 194.273 396.968 194.787C396.053 195.302 395.005 195.528 393.825 195.466ZM393.921 193.662C394.817 193.709 395.567 193.518 396.17 193.089C396.773 192.66 397.233 192.079 397.551 191.344C397.868 190.61 398.05 189.806 398.097 188.932C398.143 188.059 398.047 187.237 397.809 186.468C397.571 185.698 397.174 185.066 396.62 184.57C396.066 184.074 395.341 183.803 394.444 183.755C393.548 183.708 392.798 183.901 392.195 184.336C391.591 184.771 391.131 185.358 390.813 186.098C390.495 186.838 390.313 187.645 390.267 188.518C390.22 189.392 390.316 190.211 390.555 190.975C390.793 191.738 391.19 192.365 391.744 192.855C392.299 193.346 393.024 193.614 393.921 193.662Z" fill="#1F2329" fill-opacity="0.3"/>
<path d="M32.6106 314.285C34.0688 286.71 57.6054 265.537 85.1811 266.995L424.707 284.949C452.282 286.407 473.455 309.944 471.997 337.519L466.716 437.38C465.258 464.955 441.722 486.128 414.146 484.67L74.6202 466.716C47.0445 465.258 25.872 441.722 27.3302 414.146L32.6106 314.285Z" fill="#2A2F36"/>
<path d="M172.944 310.509L176.11 310.676L174.881 333.911L184.073 334.397L185.302 311.162L188.468 311.329L187.239 334.564L196.431 335.05L197.659 311.815L200.825 311.983L199.443 338.128L171.561 336.654L172.944 310.509Z" fill="white" fill-opacity="0.3"/>
<path d="M211.128 339.207C209.886 339.141 208.771 338.848 207.782 338.326C206.795 337.796 206.027 337.068 205.478 336.143C204.93 335.209 204.69 334.104 204.758 332.828C204.817 331.704 205.086 330.805 205.566 330.131C206.046 329.448 206.666 328.926 207.428 328.565C208.19 328.204 209.022 327.949 209.926 327.801C210.839 327.644 211.754 327.53 212.671 327.459C213.871 327.369 214.843 327.305 215.587 327.268C216.341 327.223 216.893 327.111 217.244 326.933C217.603 326.756 217.796 326.425 217.821 325.94L217.827 325.837C217.893 324.578 217.6 323.581 216.948 322.846C216.304 322.113 215.288 321.709 213.901 321.636C212.463 321.56 211.318 321.815 210.468 322.401C209.618 322.988 209.008 323.63 208.638 324.327L205.832 323.155C206.406 321.99 207.136 321.099 208.022 320.48C208.917 319.853 209.878 319.434 210.905 319.224C211.941 319.006 212.952 318.923 213.939 318.975C214.569 319.008 215.288 319.123 216.097 319.319C216.915 319.508 217.695 319.852 218.437 320.352C219.187 320.853 219.793 321.58 220.254 322.535C220.716 323.49 220.906 324.746 220.823 326.303L220.14 339.223L217.127 339.063L217.268 336.408L217.115 336.4C216.888 336.815 216.523 337.252 216.021 337.712C215.519 338.172 214.863 338.551 214.053 338.849C213.244 339.148 212.269 339.267 211.128 339.207ZM211.731 336.525C212.923 336.588 213.939 336.407 214.781 335.982C215.631 335.557 216.285 334.986 216.741 334.268C217.205 333.55 217.459 332.782 217.503 331.965L217.648 329.208C217.513 329.354 217.224 329.48 216.784 329.584C216.352 329.681 215.853 329.761 215.286 329.825C214.728 329.881 214.184 329.929 213.652 329.969C213.13 330.001 212.706 330.03 212.38 330.056C211.592 330.116 210.851 330.244 210.158 330.437C209.474 330.623 208.912 330.931 208.471 331.36C208.039 331.781 207.803 332.374 207.762 333.14C207.707 334.187 208.052 334.999 208.798 335.576C209.554 336.145 210.531 336.461 211.731 336.525Z" fill="white" fill-opacity="0.3"/>
<path d="M241.618 313.321L243.053 315.24C242.427 315.787 241.716 316.155 240.921 316.343C240.126 316.532 239.233 316.625 238.243 316.624C237.253 316.623 236.153 316.616 234.941 316.603C233.577 316.582 232.432 316.855 231.506 317.42C230.58 317.986 229.844 318.834 229.297 319.966C228.751 321.098 228.365 322.503 228.14 324.181L228.395 324.194C229.124 323.004 230.091 322.15 231.296 321.634C232.501 321.117 233.776 320.894 235.12 320.965C236.652 321.046 238.012 321.477 239.2 322.256C240.388 323.036 241.302 324.147 241.943 325.589C242.583 327.031 242.849 328.782 242.74 330.842C242.632 332.893 242.172 334.644 241.362 336.094C240.559 337.546 239.482 338.641 238.128 339.38C236.784 340.111 235.235 340.43 233.482 340.338C231.728 340.245 230.214 339.751 228.938 338.856C227.663 337.952 226.703 336.664 226.058 334.991C225.413 333.309 225.154 331.26 225.282 328.843L225.392 326.75C225.623 322.383 226.539 319.112 228.139 316.935C229.748 314.758 232.048 313.711 235.039 313.792C236.096 313.814 237.037 313.855 237.862 313.916C238.686 313.976 239.407 313.976 240.025 313.915C240.643 313.854 241.174 313.656 241.618 313.321ZM233.625 337.631C234.808 337.694 235.841 337.45 236.723 336.899C237.614 336.349 238.318 335.545 238.835 334.489C239.352 333.424 239.65 332.155 239.727 330.682C239.803 329.253 239.633 328.023 239.218 326.994C238.812 325.966 238.193 325.165 237.361 324.592C236.529 324.018 235.514 323.7 234.314 323.637C233.437 323.59 232.642 323.698 231.928 323.959C231.215 324.22 230.596 324.626 230.071 325.179C229.547 325.732 229.127 326.418 228.81 327.238C228.502 328.058 228.312 329.003 228.238 330.075C228.122 332.271 228.544 334.055 229.504 335.429C230.464 336.803 231.837 337.537 233.625 337.631Z" fill="white" fill-opacity="0.3"/>
<path d="M245.108 340.543L245.256 337.734L245.971 337.772C246.558 337.803 247.054 337.714 247.458 337.505C247.862 337.287 248.198 336.891 248.468 336.317C248.746 335.734 248.977 334.918 249.16 333.87C249.353 332.813 249.522 331.465 249.669 329.826L250.485 321.163L263.558 321.855L262.521 341.464L259.508 341.304L260.396 324.504L253.196 324.123L252.52 331.103C252.367 332.708 252.147 334.117 251.861 335.331C251.584 336.537 251.202 337.541 250.716 338.343C250.238 339.146 249.627 339.736 248.881 340.115C248.136 340.494 247.218 340.654 246.129 340.597L245.108 340.543Z" fill="white" fill-opacity="0.3"/>
<path d="M275.993 342.586C274.223 342.492 272.692 341.989 271.4 341.075C270.117 340.163 269.141 338.929 268.472 337.374C267.812 335.82 267.535 334.03 267.643 332.005C267.751 329.962 268.215 328.199 269.036 326.715C269.866 325.231 270.966 324.103 272.339 323.33C273.719 322.558 275.295 322.219 277.065 322.313C278.836 322.406 280.362 322.91 281.645 323.822C282.937 324.736 283.913 325.974 284.573 327.536C285.241 329.099 285.521 330.902 285.413 332.945C285.306 334.97 284.838 336.721 284.009 338.196C283.188 339.672 282.088 340.796 280.707 341.567C279.335 342.34 277.764 342.679 275.993 342.586ZM276.136 339.879C277.481 339.95 278.606 339.664 279.51 339.021C280.415 338.377 281.105 337.505 281.582 336.403C282.058 335.302 282.331 334.096 282.4 332.785C282.47 331.475 282.326 330.242 281.969 329.088C281.611 327.934 281.017 326.985 280.186 326.242C279.355 325.498 278.267 325.09 276.922 325.019C275.577 324.948 274.453 325.239 273.548 325.891C272.643 326.543 271.952 327.423 271.475 328.533C270.998 329.643 270.725 330.854 270.655 332.164C270.586 333.475 270.73 334.703 271.088 335.848C271.446 336.994 272.04 337.934 272.872 338.67C273.703 339.405 274.792 339.808 276.136 339.879Z" fill="white" fill-opacity="0.3"/>
<path d="M303.214 332.401L303.066 335.209L292.24 334.637L292.388 331.828L303.214 332.401ZM293.549 323.44L292.512 343.049L289.499 342.89L290.536 323.281L293.549 323.44ZM305.958 324.097L304.921 343.706L301.908 343.546L302.945 323.937L305.958 324.097Z" fill="white" fill-opacity="0.3"/>
<path d="M313.689 331.623L319.306 331.92C321.604 332.042 323.331 332.718 324.486 333.948C325.641 335.178 326.172 336.687 326.077 338.475C326.015 339.649 325.687 340.703 325.091 341.636C324.496 342.56 323.656 343.279 322.57 343.794C321.485 344.3 320.177 344.512 318.645 344.431L310.423 343.997L311.46 324.388L314.473 324.547L313.584 341.347L318.793 341.623C319.985 341.686 320.98 341.423 321.779 340.833C322.579 340.244 323.004 339.456 323.057 338.468C323.111 337.43 322.773 336.563 322.042 335.867C321.311 335.171 320.349 334.792 319.158 334.729L313.54 334.432L313.689 331.623ZM328.858 344.971L329.894 325.362L332.907 325.522L331.87 345.131L328.858 344.971Z" fill="white" fill-opacity="0.3"/>
<path d="M46.7976 408.277C47.7309 390.628 62.7943 377.078 80.4427 378.011L207.569 384.733C225.218 385.667 238.768 400.73 237.835 418.378L237.694 421.041C236.761 438.69 221.698 452.24 204.049 451.307L76.9225 444.585C59.274 443.652 45.7236 428.588 46.6568 410.94L46.7976 408.277Z" fill="white"/>
<path d="M256.939 419.389C257.872 401.74 272.936 388.19 290.584 389.123L417.711 395.845C435.359 396.778 448.91 411.842 447.977 429.49L447.836 432.153C446.903 449.802 431.839 463.352 414.191 462.419L287.064 455.697C269.416 454.763 255.865 439.7 256.798 422.052L256.939 419.389Z" fill="white"/>
<path d="M122.116 405.764L124.874 405.91C126.167 405.979 127.301 406.329 128.275 406.961C129.248 407.592 129.995 408.44 130.513 409.503C131.031 410.566 131.255 411.778 131.183 413.14C131.111 414.501 130.761 415.686 130.133 416.694C129.505 417.702 128.673 418.472 127.638 419.003C126.603 419.535 125.438 419.766 124.145 419.698L121.387 419.552C120.094 419.483 118.96 419.133 117.986 418.502C117.013 417.87 116.267 417.022 115.748 415.959C115.23 414.896 115.006 413.684 115.078 412.322C115.15 410.961 115.5 409.776 116.128 408.768C116.756 407.76 117.588 406.99 118.623 406.459C119.658 405.927 120.823 405.696 122.116 405.764ZM122.017 407.637C121.03 407.585 120.185 407.748 119.482 408.126C118.785 408.504 118.241 409.061 117.849 409.797C117.463 410.534 117.243 411.413 117.189 412.434C117.136 413.444 117.262 414.332 117.569 415.1C117.881 415.867 118.364 416.476 119.017 416.926C119.676 417.376 120.499 417.627 121.486 417.68L124.244 417.825C125.231 417.878 126.073 417.714 126.77 417.336C127.473 416.958 128.017 416.4 128.403 415.664C128.795 414.928 129.018 414.049 129.072 413.028C129.125 412.018 128.996 411.129 128.684 410.362C128.377 409.595 127.895 408.986 127.236 408.536C126.582 408.086 125.762 407.835 124.775 407.783L122.017 407.637ZM124.693 403.511L123.718 421.962L121.607 421.851L122.583 403.399L124.693 403.511Z" fill="#1F2329" fill-opacity="0.3"/>
<path d="M139.295 422.342C138.115 422.28 137.094 421.944 136.233 421.335C135.377 420.727 134.727 419.904 134.281 418.868C133.841 417.832 133.656 416.639 133.728 415.288C133.8 413.927 134.109 412.751 134.657 411.762C135.21 410.772 135.944 410.02 136.858 409.505C137.779 408.991 138.829 408.765 140.009 408.827C141.19 408.889 142.207 409.225 143.063 409.833C143.924 410.442 144.574 411.268 145.014 412.309C145.46 413.351 145.647 414.553 145.575 415.915C145.503 417.265 145.191 418.432 144.639 419.416C144.091 420.4 143.358 421.149 142.437 421.664C141.522 422.178 140.475 422.405 139.295 422.342ZM139.39 420.538C140.287 420.585 141.036 420.395 141.639 419.966C142.242 419.537 142.703 418.955 143.02 418.221C143.338 417.487 143.52 416.682 143.566 415.809C143.612 414.935 143.516 414.113 143.278 413.344C143.04 412.575 142.644 411.942 142.09 411.446C141.536 410.95 140.81 410.679 139.914 410.631C139.017 410.584 138.268 410.778 137.664 411.212C137.061 411.647 136.6 412.234 136.282 412.974C135.964 413.714 135.782 414.521 135.736 415.395C135.69 416.268 135.786 417.087 136.024 417.851C136.263 418.614 136.659 419.241 137.214 419.732C137.768 420.222 138.494 420.491 139.39 420.538Z" fill="#1F2329" fill-opacity="0.3"/>
<path d="M147.182 411.255L147.281 409.382L157.903 409.944L157.804 411.816L153.514 411.589L152.922 422.79L150.914 422.684L151.506 411.483L147.182 411.255Z" fill="#1F2329" fill-opacity="0.3"/>
<path d="M164.759 423.689C163.579 423.626 162.558 423.291 161.697 422.682C160.842 422.073 160.191 421.251 159.745 420.215C159.305 419.179 159.121 417.985 159.192 416.635C159.264 415.273 159.574 414.098 160.121 413.108C160.674 412.119 161.408 411.367 162.323 410.852C163.243 410.337 164.294 410.111 165.474 410.174C166.654 410.236 167.672 410.571 168.527 411.18C169.388 411.789 170.039 412.614 170.479 413.656C170.924 414.698 171.111 415.9 171.039 417.261C170.968 418.612 170.656 419.779 170.103 420.762C169.556 421.746 168.822 422.495 167.902 423.01C166.987 423.525 165.939 423.751 164.759 423.689ZM164.855 421.884C165.751 421.932 166.501 421.741 167.104 421.312C167.707 420.883 168.167 420.302 168.485 419.567C168.802 418.833 168.984 418.029 169.031 417.155C169.077 416.281 168.981 415.46 168.743 414.691C168.505 413.921 168.108 413.289 167.554 412.793C167 412.297 166.275 412.025 165.378 411.978C164.482 411.93 163.732 412.124 163.129 412.559C162.525 412.993 162.065 413.581 161.747 414.321C161.429 415.061 161.247 415.867 161.201 416.741C161.154 417.615 161.25 418.434 161.489 419.197C161.727 419.961 162.124 420.588 162.678 421.078C163.233 421.568 163.958 421.837 164.855 421.884Z" fill="#1F2329" fill-opacity="0.3"/>
<path d="M317.335 431.484L318.257 414.053L324.351 414.376C325.565 414.44 326.555 414.703 327.322 415.164C328.088 415.62 328.646 416.21 328.995 416.934C329.344 417.652 329.496 418.437 329.451 419.288C329.411 420.037 329.245 420.648 328.953 421.122C328.666 421.596 328.299 421.964 327.853 422.225C327.412 422.486 326.939 422.672 326.432 422.781L326.423 422.952C326.955 423.014 327.481 423.229 328.002 423.598C328.523 423.967 328.949 424.479 329.278 425.134C329.608 425.788 329.748 426.575 329.7 427.495C329.653 428.368 329.413 429.144 328.979 429.821C328.545 430.497 327.889 431.017 327.01 431.381C326.132 431.744 325.006 431.889 323.633 431.817L317.335 431.484ZM319.545 429.723L323.732 429.944C325.111 430.017 326.104 429.802 326.711 429.299C327.324 428.791 327.65 428.154 327.691 427.388C327.722 426.798 327.601 426.246 327.326 425.73C327.052 425.21 326.645 424.784 326.105 424.454C325.565 424.118 324.915 423.93 324.155 423.89L319.865 423.663L319.545 429.723ZM319.963 421.825L323.878 422.032C324.513 422.065 325.093 421.971 325.617 421.748C326.146 421.526 326.573 421.196 326.898 420.758C327.228 420.32 327.41 419.795 327.442 419.182C327.483 418.416 327.25 417.752 326.745 417.191C326.24 416.623 325.409 416.309 324.252 416.248L320.269 416.037L319.963 421.825Z" fill="#1F2329" fill-opacity="0.3"/>
<path d="M334.816 429.438L341.648 419.66L343.963 419.782L343.272 432.855L341.263 432.749L341.798 422.638L335 432.418L332.651 432.293L333.342 419.221L335.35 419.327L334.816 429.438Z" fill="#1F2329" fill-opacity="0.3"/>
<path d="M345.357 436.721L345.654 431.103L346.743 431.161C347.025 430.897 347.271 430.609 347.481 430.295C347.691 429.982 347.878 429.608 348.043 429.173C348.215 428.732 348.368 428.194 348.504 427.559C348.641 426.917 348.773 426.142 348.9 425.233L349.617 420.081L357.923 420.521L357.331 431.721L359.34 431.827L359.042 437.444L357.034 437.338L357.232 433.593L347.564 433.082L347.366 436.827L345.357 436.721ZM349.024 431.282L355.322 431.615L355.816 422.287L351.39 422.053L350.875 425.337C350.661 426.697 350.422 427.882 350.158 428.892C349.894 429.902 349.516 430.699 349.024 431.282Z" fill="#1F2329" fill-opacity="0.3"/>
<path d="M367.373 434.403C366.114 434.336 365.042 434.001 364.158 433.396C363.279 432.786 362.62 431.966 362.18 430.936C361.745 429.9 361.563 428.713 361.634 427.374C361.705 426.035 362.011 424.868 362.553 423.872C363.101 422.871 363.83 422.107 364.74 421.581C365.655 421.049 366.703 420.814 367.883 420.877C368.564 420.913 369.231 421.062 369.883 421.324C370.534 421.586 371.119 421.986 371.637 422.526C372.155 423.06 372.553 423.752 372.833 424.603C373.112 425.455 373.22 426.49 373.155 427.71L373.11 428.561L363.033 428.028L363.125 426.292L371.159 426.717C371.198 425.979 371.085 425.313 370.821 424.719C370.562 424.125 370.172 423.646 369.651 423.283C369.135 422.92 368.514 422.719 367.788 422.681C366.988 422.639 366.285 422.801 365.68 423.167C365.08 423.528 364.608 424.015 364.263 424.628C363.917 425.241 363.726 425.908 363.688 426.629L363.626 427.786C363.574 428.774 363.7 429.62 364.004 430.324C364.314 431.023 364.766 431.568 365.36 431.958C365.954 432.342 366.657 432.555 367.469 432.598C367.996 432.626 368.477 432.578 368.91 432.453C369.349 432.322 369.733 432.115 370.061 431.831C370.389 431.541 370.65 431.173 370.845 430.728L372.756 431.376C372.517 432.023 372.143 432.584 371.635 433.058C371.126 433.526 370.51 433.88 369.786 434.121C369.063 434.355 368.258 434.449 367.373 434.403Z" fill="#1F2329" fill-opacity="0.3"/>
<path d="M381.152 435.131C379.972 435.069 378.951 434.733 378.09 434.124C377.235 433.516 376.584 432.693 376.138 431.657C375.698 430.621 375.514 429.428 375.585 428.077C375.657 426.716 375.967 425.54 376.514 424.55C377.067 423.561 377.801 422.809 378.716 422.294C379.636 421.78 380.687 421.554 381.867 421.616C383.047 421.678 384.065 422.014 384.92 422.622C385.781 423.231 386.432 424.056 386.872 425.098C387.317 426.14 387.504 427.342 387.432 428.704C387.361 430.054 387.049 431.221 386.496 432.205C385.949 433.189 385.215 433.938 384.295 434.452C383.38 434.967 382.332 435.194 381.152 435.131ZM381.248 433.327C382.144 433.374 382.894 433.184 383.497 432.755C384.1 432.326 384.56 431.744 384.878 431.01C385.195 430.275 385.377 429.471 385.424 428.598C385.47 427.724 385.374 426.902 385.136 426.133C384.898 425.364 384.501 424.731 383.947 424.235C383.393 423.739 382.668 423.468 381.771 423.42C380.875 423.373 380.125 423.567 379.522 424.001C378.918 424.436 378.458 425.023 378.14 425.763C377.822 426.503 377.64 427.31 377.594 428.184C377.547 429.057 377.643 429.876 377.882 430.64C378.12 431.403 378.517 432.03 379.071 432.521C379.626 433.011 380.351 433.279 381.248 433.327Z" fill="#1F2329" fill-opacity="0.3"/>
</svg>
