<svg width="498" height="498" viewBox="0 0 498 498" fill="none" xmlns="http://www.w3.org/2000/svg">
<path d="M38.0248 67.3616C39.483 39.7859 63.0196 18.6134 90.5953 20.0715L430.121 38.025C457.697 39.4831 478.869 63.0197 477.411 90.5954L472.131 190.456C470.672 218.032 447.136 239.204 419.56 237.746L80.0345 219.793C52.4587 218.334 31.2863 194.798 32.7444 167.222L38.0248 67.3616Z" fill="#2A2F36"/>
<path d="M25.3518 307.027C26.81 279.451 50.3466 258.279 77.9223 259.737L417.448 277.69C445.024 279.148 466.196 302.685 464.738 330.261L459.458 430.121C457.999 457.697 434.463 478.869 406.887 477.411L67.3614 459.458C39.7857 458 18.6133 434.463 20.0714 406.887L25.3518 307.027Z" fill="#2A2F36"/>
<path d="M52.2119 161.353C53.1451 143.705 68.2085 130.154 85.8569 131.087L212.984 137.81C230.632 138.743 244.183 153.806 243.249 171.455L243.109 174.118C242.175 191.766 227.112 205.316 209.463 204.383L82.3367 197.661C64.6882 196.728 51.1378 181.664 52.071 164.016L52.2119 161.353Z" fill="#10B981"/>
<path d="M39.5388 401.018C40.4721 383.37 55.5355 369.819 73.1839 370.752L200.311 377.475C217.959 378.408 231.51 393.471 230.576 411.12L230.436 413.783C229.502 431.431 214.439 444.982 196.79 444.048L69.6637 437.326C52.0152 436.393 38.4648 421.33 39.398 403.681L39.5388 401.018Z" fill="white"/>
<path d="M262.353 172.465C263.287 154.816 278.35 141.266 295.998 142.199L423.125 148.921C440.774 149.855 454.324 164.918 453.391 182.566L453.25 185.229C452.317 202.878 437.253 216.428 419.605 215.495L292.478 208.773C274.83 207.84 261.279 192.776 262.213 175.128L262.353 172.465Z" fill="white"/>
<path d="M249.68 412.13C250.614 394.482 265.677 380.931 283.325 381.864L410.452 388.587C428.101 389.52 441.651 404.583 440.718 422.232L440.577 424.895C439.644 442.543 424.58 456.093 406.932 455.16L279.805 448.438C262.157 447.505 248.606 432.441 249.54 414.793L249.68 412.13Z" fill="white"/>
<path d="M127.016 158.745L130.157 158.911C131.484 158.981 132.646 159.336 133.642 159.974C134.644 160.608 135.41 161.465 135.939 162.545C136.473 163.62 136.704 164.85 136.631 166.235C136.559 167.608 136.2 168.798 135.555 169.805C134.915 170.812 134.064 171.581 133 172.111C131.943 172.635 130.75 172.862 129.423 172.792L126.282 172.626C124.954 172.556 123.789 172.207 122.787 171.579C121.785 170.946 121.016 170.097 120.481 169.034C119.951 167.97 119.722 166.749 119.795 165.37C119.869 163.98 120.228 162.776 120.874 161.757C121.52 160.739 122.371 159.964 123.429 159.434C124.493 158.905 125.688 158.675 127.016 158.745ZM126.896 161.017C125.988 160.969 125.204 161.118 124.542 161.465C123.881 161.805 123.362 162.318 122.984 163.004C122.607 163.689 122.392 164.523 122.34 165.505C122.289 166.464 122.416 167.298 122.72 168.008C123.03 168.713 123.495 169.27 124.116 169.678C124.738 170.081 125.5 170.306 126.402 170.354L129.551 170.52C130.453 170.568 131.232 170.424 131.887 170.089C132.548 169.748 133.064 169.241 133.435 168.566C133.813 167.887 134.027 167.064 134.078 166.1C134.129 165.129 134.003 164.286 133.7 163.571C133.402 162.849 132.943 162.284 132.321 161.876C131.706 161.462 130.947 161.232 130.045 161.184L126.896 161.017ZM130.007 156.582L129.031 175.033L126.452 174.897L127.428 156.445L130.007 156.582Z" fill="white"/>
<path d="M144.742 175.412C143.517 175.347 142.462 175.009 141.578 174.399C140.695 173.789 140.027 172.966 139.575 171.929C139.124 170.893 138.934 169.699 139.005 168.349C139.077 166.993 139.392 165.82 139.951 164.831C140.509 163.842 141.26 163.091 142.203 162.578C143.147 162.064 144.231 161.84 145.457 161.905C146.682 161.97 147.737 162.307 148.621 162.917C149.504 163.527 150.172 164.353 150.623 165.396C151.074 166.438 151.264 167.637 151.193 168.993C151.121 170.344 150.806 171.51 150.248 172.494C149.689 173.477 148.939 174.225 147.995 174.739C147.052 175.252 145.968 175.476 144.742 175.412ZM144.864 173.276C145.658 173.318 146.327 173.143 146.872 172.75C147.416 172.358 147.831 171.82 148.118 171.135C148.41 170.451 148.578 169.689 148.623 168.849C148.667 168.015 148.58 167.242 148.361 166.531C148.149 165.814 147.793 165.229 147.293 164.776C146.794 164.323 146.147 164.075 145.353 164.033C144.553 163.991 143.877 164.168 143.327 164.566C142.783 164.964 142.364 165.508 142.072 166.198C141.785 166.883 141.62 167.642 141.576 168.476C141.531 169.316 141.616 170.091 141.828 170.802C142.047 171.514 142.406 172.093 142.906 172.541C143.411 172.989 144.064 173.234 144.864 173.276Z" fill="white"/>
<path d="M152.691 164.66L152.807 162.464L163.837 163.048L163.721 165.243L159.457 165.018L158.882 175.895L156.397 175.763L156.972 164.886L152.691 164.66Z" fill="white"/>
<path d="M170.722 176.785C169.496 176.721 168.441 176.383 167.558 175.773C166.674 175.163 166.006 174.34 165.555 173.303C165.103 172.266 164.913 171.073 164.984 169.723C165.056 168.367 165.371 167.194 165.93 166.205C166.489 165.216 167.24 164.465 168.183 163.952C169.126 163.438 170.21 163.214 171.436 163.279C172.661 163.343 173.716 163.681 174.6 164.291C175.484 164.901 176.151 165.727 176.603 166.769C177.054 167.812 177.244 169.011 177.172 170.367C177.1 171.717 176.786 172.884 176.227 173.867C175.669 174.851 174.918 175.599 173.975 176.112C173.032 176.626 171.947 176.85 170.722 176.785ZM170.843 174.65C171.638 174.692 172.307 174.516 172.851 174.124C173.395 173.732 173.811 173.193 174.097 172.509C174.389 171.824 174.558 171.062 174.602 170.223C174.646 169.389 174.559 168.616 174.341 167.904C174.128 167.188 173.772 166.603 173.273 166.15C172.773 165.696 172.126 165.449 171.332 165.407C170.532 165.365 169.857 165.542 169.307 165.94C168.762 166.338 168.344 166.882 168.051 167.572C167.765 168.257 167.599 169.016 167.555 169.85C167.511 170.69 167.595 171.465 167.808 172.176C168.026 172.888 168.385 173.467 168.885 173.915C169.39 174.362 170.043 174.607 170.843 174.65Z" fill="white"/>
<path d="M114.858 398.506L117.615 398.651C118.909 398.72 120.042 399.07 121.016 399.702C121.99 400.334 122.736 401.181 123.254 402.244C123.773 403.307 123.996 404.519 123.924 405.881C123.852 407.243 123.502 408.428 122.874 409.436C122.246 410.444 121.414 411.213 120.379 411.745C119.344 412.276 118.18 412.507 116.886 412.439L114.128 412.293C112.835 412.225 111.701 411.875 110.727 411.243C109.754 410.611 109.008 409.764 108.489 408.701C107.971 407.638 107.748 406.425 107.82 405.064C107.892 403.702 108.242 402.517 108.87 401.509C109.498 400.501 110.329 399.731 111.364 399.2C112.399 398.669 113.564 398.437 114.858 398.506ZM114.759 400.378C113.771 400.326 112.926 400.489 112.223 400.867C111.526 401.245 110.982 401.803 110.59 402.539C110.204 403.275 109.984 404.154 109.93 405.175C109.877 406.185 110.003 407.074 110.31 407.841C110.622 408.609 111.105 409.217 111.758 409.667C112.417 410.117 113.24 410.369 114.227 410.421L116.985 410.567C117.972 410.619 118.814 410.456 119.512 410.077C120.214 409.699 120.759 409.142 121.145 408.405C121.536 407.669 121.759 406.791 121.813 405.769C121.867 404.759 121.737 403.871 121.425 403.103C121.119 402.336 120.636 401.727 119.977 401.277C119.324 400.827 118.503 400.576 117.516 400.524L114.759 400.378ZM117.435 396.252L116.459 414.704L114.348 414.592L115.324 396.141L117.435 396.252Z" fill="#1F2329" fill-opacity="0.3"/>
<path d="M132.036 415.084C130.856 415.021 129.835 414.686 128.974 414.077C128.119 413.468 127.468 412.646 127.022 411.609C126.582 410.573 126.397 409.38 126.469 408.03C126.541 406.668 126.85 405.492 127.398 404.503C127.951 403.514 128.685 402.762 129.6 402.247C130.52 401.732 131.57 401.506 132.751 401.568C133.931 401.631 134.949 401.966 135.804 402.575C136.665 403.184 137.316 404.009 137.756 405.051C138.201 406.093 138.388 407.295 138.316 408.656C138.244 410.007 137.932 411.174 137.38 412.157C136.833 413.141 136.099 413.89 135.178 414.405C134.264 414.92 133.216 415.146 132.036 415.084ZM132.131 413.279C133.028 413.327 133.778 413.136 134.381 412.707C134.984 412.278 135.444 411.696 135.762 410.962C136.079 410.228 136.261 409.424 136.307 408.55C136.354 407.676 136.258 406.855 136.019 406.085C135.781 405.316 135.385 404.683 134.831 404.188C134.277 403.692 133.552 403.42 132.655 403.373C131.759 403.325 131.009 403.519 130.405 403.954C129.802 404.388 129.341 404.975 129.024 405.715C128.706 406.455 128.524 407.262 128.477 408.136C128.431 409.01 128.527 409.828 128.766 410.592C129.004 411.356 129.401 411.983 129.955 412.473C130.509 412.963 131.235 413.232 132.131 413.279Z" fill="#1F2329" fill-opacity="0.3"/>
<path d="M139.924 403.996L140.023 402.124L150.644 402.685L150.545 404.558L146.256 404.331L145.663 415.531L143.655 415.425L144.247 404.225L139.924 403.996Z" fill="#1F2329" fill-opacity="0.3"/>
<path d="M157.5 416.43C156.32 416.368 155.3 416.032 154.438 415.423C153.583 414.815 152.932 413.992 152.486 412.956C152.046 411.92 151.862 410.727 151.933 409.376C152.005 408.015 152.315 406.839 152.862 405.849C153.415 404.86 154.149 404.108 155.064 403.593C155.985 403.079 157.035 402.852 158.215 402.915C159.395 402.977 160.413 403.313 161.268 403.921C162.13 404.53 162.78 405.355 163.22 406.397C163.666 407.439 163.852 408.641 163.78 410.003C163.709 411.353 163.397 412.52 162.844 413.504C162.297 414.487 161.563 415.237 160.643 415.751C159.728 416.266 158.681 416.493 157.5 416.43ZM157.596 414.626C158.492 414.673 159.242 414.482 159.845 414.053C160.448 413.624 160.908 413.043 161.226 412.309C161.544 411.574 161.726 410.77 161.772 409.897C161.818 409.023 161.722 408.201 161.484 407.432C161.246 406.663 160.85 406.03 160.296 405.534C159.741 405.038 159.016 404.767 158.12 404.719C157.223 404.672 156.473 404.865 155.87 405.3C155.267 405.735 154.806 406.322 154.488 407.062C154.17 407.802 153.988 408.609 153.942 409.483C153.896 410.356 153.992 411.175 154.23 411.939C154.469 412.702 154.865 413.329 155.419 413.819C155.974 414.31 156.699 414.578 157.596 414.626Z" fill="#1F2329" fill-opacity="0.3"/>
<path d="M322.749 184.56L323.671 167.13L329.765 167.452C330.979 167.516 331.969 167.779 332.736 168.24C333.503 168.696 334.06 169.286 334.409 170.01C334.758 170.729 334.91 171.513 334.865 172.364C334.825 173.113 334.659 173.725 334.367 174.198C334.08 174.673 333.713 175.04 333.267 175.301C332.827 175.562 332.353 175.748 331.847 175.857L331.838 176.028C332.369 176.09 332.896 176.306 333.417 176.674C333.938 177.043 334.363 177.555 334.692 178.21C335.022 178.865 335.162 179.652 335.114 180.571C335.068 181.444 334.827 182.22 334.393 182.897C333.959 183.574 333.303 184.094 332.425 184.457C331.546 184.82 330.421 184.965 329.047 184.893L322.749 184.56ZM324.959 182.799L329.146 183.02C330.525 183.093 331.518 182.878 332.125 182.376C332.738 181.867 333.065 181.23 333.105 180.464C333.136 179.874 333.015 179.322 332.741 178.807C332.466 178.286 332.059 177.86 331.519 177.53C330.979 177.194 330.329 177.006 329.569 176.966L325.28 176.739L324.959 182.799ZM325.377 174.901L329.292 175.108C329.927 175.142 330.507 175.047 331.031 174.824C331.56 174.602 331.987 174.272 332.312 173.834C332.643 173.396 332.824 172.871 332.856 172.258C332.897 171.492 332.665 170.828 332.159 170.267C331.655 169.7 330.823 169.385 329.666 169.324L325.683 169.114L325.377 174.901Z" fill="#1F2329" fill-opacity="0.3"/>
<path d="M340.23 182.514L347.063 172.736L349.378 172.859L348.686 185.931L346.678 185.825L347.212 175.714L340.414 185.494L338.065 185.37L338.756 172.297L340.765 172.403L340.23 182.514Z" fill="#1F2329" fill-opacity="0.3"/>
<path d="M350.771 189.797L351.068 184.18L352.158 184.237C352.439 183.973 352.685 183.685 352.895 183.371C353.105 183.058 353.292 182.684 353.458 182.249C353.629 181.809 353.783 181.271 353.919 180.635C354.055 179.993 354.187 179.218 354.315 178.309L355.031 173.157L363.337 173.597L362.745 184.797L364.754 184.903L364.457 190.52L362.448 190.414L362.646 186.669L352.978 186.158L352.78 189.903L350.771 189.797ZM354.439 184.358L360.737 184.691L361.23 175.363L356.804 175.129L356.289 178.413C356.075 179.773 355.836 180.958 355.572 181.968C355.308 182.978 354.93 183.775 354.439 184.358Z" fill="#1F2329" fill-opacity="0.3"/>
<path d="M372.787 187.479C371.528 187.412 370.456 187.077 369.572 186.472C368.694 185.863 368.034 185.043 367.594 184.012C367.159 182.976 366.977 181.789 367.048 180.45C367.119 179.111 367.425 177.944 367.967 176.948C368.515 175.947 369.244 175.184 370.154 174.657C371.07 174.125 372.118 173.89 373.298 173.953C373.979 173.989 374.645 174.138 375.297 174.4C375.949 174.662 376.533 175.063 377.051 175.602C377.569 176.136 377.968 176.828 378.247 177.679C378.526 178.531 378.634 179.566 378.569 180.786L378.524 181.637L368.447 181.104L368.539 179.368L376.573 179.793C376.612 179.055 376.5 178.389 376.235 177.795C375.977 177.201 375.586 176.722 375.065 176.359C374.55 175.996 373.929 175.795 373.202 175.757C372.402 175.715 371.7 175.877 371.094 176.243C370.495 176.604 370.022 177.091 369.677 177.704C369.332 178.318 369.14 178.985 369.102 179.705L369.041 180.863C368.988 181.85 369.114 182.696 369.418 183.4C369.729 184.099 370.181 184.644 370.774 185.034C371.369 185.418 372.071 185.632 372.883 185.674C373.41 185.702 373.891 185.654 374.324 185.529C374.764 185.398 375.147 185.191 375.475 184.907C375.803 184.617 376.065 184.25 376.259 183.805L378.171 184.452C377.931 185.099 377.558 185.66 377.049 186.134C376.541 186.602 375.924 186.956 375.2 187.197C374.477 187.432 373.672 187.526 372.787 187.479Z" fill="#1F2329" fill-opacity="0.3"/>
<path d="M386.566 188.207C385.386 188.145 384.366 187.809 383.504 187.2C382.649 186.592 381.998 185.77 381.552 184.733C381.112 183.697 380.928 182.504 380.999 181.154C381.071 179.792 381.381 178.616 381.928 177.627C382.481 176.637 383.215 175.885 384.13 175.37C385.051 174.856 386.101 174.63 387.281 174.692C388.461 174.755 389.479 175.09 390.334 175.699C391.195 176.307 391.846 177.133 392.286 178.174C392.732 179.216 392.918 180.418 392.846 181.78C392.775 183.13 392.463 184.297 391.91 185.281C391.363 186.265 390.629 187.014 389.709 187.529C388.794 188.043 387.747 188.27 386.566 188.207ZM386.662 186.403C387.558 186.45 388.308 186.26 388.911 185.831C389.514 185.402 389.974 184.82 390.292 184.086C390.61 183.352 390.792 182.548 390.838 181.674C390.884 180.8 390.788 179.978 390.55 179.209C390.312 178.44 389.916 177.807 389.362 177.311C388.807 176.815 388.082 176.544 387.186 176.496C386.289 176.449 385.539 176.643 384.936 177.077C384.333 177.512 383.872 178.099 383.554 178.839C383.236 179.579 383.054 180.386 383.008 181.26C382.962 182.134 383.058 182.952 383.296 183.716C383.535 184.48 383.931 185.106 384.485 185.597C385.04 186.087 385.765 186.356 386.662 186.403Z" fill="#1F2329" fill-opacity="0.3"/>
<path d="M310.076 424.225L310.998 406.795L317.092 407.117C318.306 407.181 319.296 407.444 320.063 407.906C320.83 408.362 321.387 408.951 321.736 409.675C322.085 410.394 322.237 411.178 322.192 412.029C322.152 412.778 321.986 413.39 321.694 413.864C321.407 414.338 321.04 414.705 320.594 414.966C320.154 415.227 319.68 415.413 319.174 415.523L319.165 415.693C319.696 415.755 320.223 415.971 320.744 416.34C321.265 416.709 321.69 417.22 322.019 417.875C322.349 418.53 322.489 419.317 322.441 420.236C322.395 421.11 322.154 421.885 321.72 422.562C321.286 423.239 320.63 423.759 319.752 424.122C318.873 424.485 317.748 424.631 316.374 424.558L310.076 424.225ZM312.286 422.464L316.473 422.686C317.852 422.758 318.845 422.544 319.452 422.041C320.065 421.533 320.392 420.896 320.432 420.13C320.463 419.54 320.342 418.987 320.067 418.472C319.793 417.951 319.386 417.525 318.846 417.195C318.306 416.859 317.656 416.671 316.896 416.631L312.607 416.404L312.286 422.464ZM312.704 414.566L316.619 414.773C317.254 414.807 317.834 414.712 318.358 414.49C318.887 414.267 319.314 413.937 319.639 413.499C319.97 413.061 320.151 412.536 320.183 411.923C320.224 411.157 319.992 410.493 319.486 409.932C318.982 409.365 318.15 409.051 316.993 408.989L313.01 408.779L312.704 414.566Z" fill="#1F2329" fill-opacity="0.3"/>
<path d="M327.557 422.179L334.39 412.401L336.704 412.524L336.013 425.596L334.005 425.49L334.539 415.379L327.741 425.159L325.392 425.035L326.083 411.962L328.092 412.068L327.557 422.179Z" fill="#1F2329" fill-opacity="0.3"/>
<path d="M338.098 429.462L338.395 423.845L339.485 423.902C339.766 423.638 340.012 423.35 340.222 423.037C340.432 422.723 340.619 422.349 340.785 421.914C340.956 421.474 341.109 420.936 341.246 420.3C341.382 419.659 341.514 418.883 341.642 417.974L342.358 412.823L350.664 413.262L350.072 424.462L352.081 424.568L351.784 430.186L349.775 430.079L349.973 426.335L340.305 425.823L340.107 429.568L338.098 429.462ZM341.766 424.023L348.064 424.356L348.557 415.028L344.131 414.794L343.616 418.078C343.402 419.438 343.163 420.623 342.899 421.633C342.635 422.644 342.257 423.44 341.766 424.023Z" fill="#1F2329" fill-opacity="0.3"/>
<path d="M360.114 427.144C358.855 427.077 357.783 426.742 356.899 426.137C356.021 425.528 355.361 424.708 354.921 423.677C354.486 422.642 354.304 421.454 354.375 420.115C354.446 418.776 354.752 417.609 355.294 416.613C355.842 415.612 356.571 414.849 357.481 414.322C358.397 413.79 359.445 413.555 360.625 413.618C361.306 413.654 361.972 413.803 362.624 414.065C363.276 414.327 363.86 414.728 364.378 415.267C364.896 415.801 365.295 416.493 365.574 417.345C365.853 418.196 365.961 419.231 365.896 420.451L365.851 421.302L355.774 420.769L355.866 419.033L363.9 419.458C363.939 418.721 363.827 418.055 363.562 417.46C363.304 416.866 362.913 416.388 362.392 416.024C361.877 415.661 361.256 415.461 360.529 415.422C359.729 415.38 359.027 415.542 358.421 415.908C357.822 416.269 357.349 416.756 357.004 417.369C356.659 417.983 356.467 418.65 356.429 419.37L356.368 420.528C356.315 421.515 356.441 422.361 356.745 423.065C357.056 423.765 357.508 424.309 358.101 424.699C358.696 425.083 359.398 425.297 360.21 425.34C360.737 425.368 361.218 425.319 361.651 425.194C362.091 425.064 362.474 424.856 362.802 424.572C363.13 424.282 363.392 423.915 363.586 423.47L365.498 424.117C365.258 424.764 364.885 425.325 364.376 425.799C363.868 426.267 363.251 426.621 362.527 426.862C361.804 427.097 360.999 427.191 360.114 427.144Z" fill="#1F2329" fill-opacity="0.3"/>
<path d="M373.893 427.873C372.713 427.81 371.693 427.475 370.831 426.866C369.976 426.257 369.325 425.435 368.879 424.398C368.439 423.362 368.255 422.169 368.326 420.819C368.398 419.457 368.708 418.281 369.255 417.292C369.808 416.303 370.542 415.551 371.457 415.036C372.378 414.521 373.428 414.295 374.608 414.357C375.788 414.42 376.806 414.755 377.661 415.364C378.522 415.973 379.173 416.798 379.613 417.839C380.059 418.882 380.245 420.083 380.173 421.445C380.102 422.796 379.79 423.963 379.237 424.946C378.69 425.93 377.956 426.679 377.036 427.194C376.121 427.709 375.074 427.935 373.893 427.873ZM373.989 426.068C374.885 426.116 375.635 425.925 376.238 425.496C376.841 425.067 377.301 424.485 377.619 423.751C377.937 423.017 378.119 422.213 378.165 421.339C378.211 420.465 378.115 419.644 377.877 418.874C377.639 418.105 377.243 417.472 376.689 416.977C376.134 416.481 375.409 416.209 374.513 416.162C373.616 416.114 372.866 416.308 372.263 416.742C371.66 417.177 371.199 417.764 370.881 418.504C370.563 419.244 370.381 420.051 370.335 420.925C370.289 421.799 370.385 422.617 370.623 423.381C370.862 424.145 371.258 424.772 371.812 425.262C372.367 425.752 373.092 426.021 373.989 426.068Z" fill="#1F2329" fill-opacity="0.3"/>
<path d="M165.685 303.25L168.851 303.417L167.623 326.652L176.814 327.138L178.043 303.903L181.209 304.071L179.98 327.305L189.172 327.791L190.401 304.557L193.567 304.724L192.184 330.869L164.303 329.395L165.685 303.25Z" fill="white" fill-opacity="0.3"/>
<path d="M203.87 331.948C202.627 331.883 201.512 331.589 200.524 331.067C199.536 330.537 198.768 329.809 198.22 328.884C197.671 327.951 197.431 326.845 197.499 325.569C197.558 324.445 197.828 323.546 198.307 322.872C198.787 322.189 199.408 321.667 200.169 321.306C200.931 320.945 201.764 320.691 202.668 320.542C203.581 320.386 204.496 320.272 205.413 320.201C206.612 320.111 207.584 320.047 208.329 320.009C209.082 319.964 209.634 319.852 209.985 319.674C210.344 319.497 210.537 319.166 210.562 318.681L210.568 318.579C210.634 317.319 210.342 316.322 209.689 315.588C209.045 314.854 208.029 314.45 206.642 314.377C205.204 314.301 204.06 314.556 203.209 315.143C202.359 315.729 201.749 316.371 201.379 317.069L198.573 315.896C199.147 314.732 199.877 313.84 200.763 313.221C201.658 312.594 202.619 312.176 203.646 311.965C204.682 311.747 205.693 311.664 206.681 311.716C207.31 311.749 208.03 311.864 208.839 312.061C209.657 312.249 210.436 312.593 211.178 313.093C211.928 313.594 212.534 314.322 212.996 315.276C213.457 316.231 213.647 317.487 213.565 319.044L212.881 331.964L209.869 331.805L210.009 329.149L209.856 329.141C209.629 329.556 209.264 329.993 208.762 330.453C208.26 330.913 207.604 331.292 206.795 331.591C205.985 331.889 205.01 332.009 203.87 331.948ZM204.472 329.266C205.664 329.329 206.68 329.148 207.522 328.723C208.373 328.299 209.026 327.727 209.482 327.009C209.947 326.291 210.201 325.524 210.244 324.707L210.39 321.949C210.254 322.095 209.966 322.221 209.525 322.326C209.093 322.422 208.594 322.503 208.027 322.567C207.469 322.622 206.925 322.67 206.394 322.711C205.871 322.743 205.447 322.772 205.122 322.797C204.333 322.858 203.593 322.985 202.9 323.179C202.215 323.365 201.653 323.672 201.212 324.101C200.78 324.522 200.544 325.115 200.503 325.881C200.448 326.928 200.793 327.74 201.54 328.317C202.295 328.886 203.272 329.203 204.472 329.266Z" fill="white" fill-opacity="0.3"/>
<path d="M234.36 306.062L235.794 307.981C235.168 308.528 234.457 308.896 233.662 309.085C232.867 309.273 231.974 309.367 230.984 309.366C229.995 309.364 228.894 309.357 227.683 309.345C226.318 309.324 225.173 309.596 224.247 310.161C223.321 310.727 222.585 311.576 222.038 312.707C221.492 313.839 221.106 315.244 220.881 316.922L221.136 316.936C221.865 315.745 222.832 314.892 224.037 314.375C225.242 313.858 226.517 313.636 227.862 313.707C229.394 313.788 230.754 314.218 231.941 314.998C233.129 315.778 234.043 316.888 234.684 318.33C235.325 319.773 235.59 321.523 235.481 323.583C235.373 325.634 234.913 327.385 234.103 328.836C233.301 330.287 232.223 331.382 230.869 332.121C229.525 332.852 227.976 333.172 226.223 333.079C224.47 332.986 222.955 332.492 221.68 331.597C220.405 330.693 219.444 329.405 218.799 327.732C218.154 326.051 217.895 324.002 218.023 321.585L218.134 319.491C218.364 315.125 219.28 311.853 220.88 309.676C222.489 307.5 224.789 306.452 227.78 306.533C228.837 306.555 229.778 306.596 230.603 306.657C231.427 306.718 232.149 306.717 232.766 306.656C233.384 306.595 233.915 306.397 234.36 306.062ZM226.366 330.373C227.549 330.435 228.582 330.191 229.464 329.64C230.355 329.09 231.059 328.287 231.576 327.23C232.093 326.165 232.391 324.896 232.469 323.424C232.544 321.994 232.375 320.765 231.96 319.735C231.553 318.707 230.934 317.906 230.102 317.333C229.271 316.76 228.255 316.441 227.055 316.378C226.178 316.332 225.383 316.439 224.669 316.7C223.956 316.961 223.337 317.368 222.813 317.92C222.288 318.473 221.868 319.159 221.552 319.979C221.244 320.799 221.053 321.745 220.979 322.816C220.863 325.012 221.285 326.797 222.245 328.17C223.205 329.544 224.579 330.278 226.366 330.373Z" fill="white" fill-opacity="0.3"/>
<path d="M237.849 333.284L237.997 330.476L238.712 330.513C239.3 330.544 239.795 330.455 240.199 330.246C240.603 330.029 240.94 329.633 241.209 329.058C241.487 328.475 241.718 327.66 241.902 326.611C242.094 325.554 242.263 324.206 242.41 322.567L243.226 313.905L256.299 314.596L255.262 334.205L252.249 334.046L253.138 317.245L245.938 316.864L245.261 323.844C245.108 325.449 244.888 326.859 244.602 328.072C244.325 329.278 243.944 330.282 243.457 331.084C242.98 331.887 242.368 332.478 241.623 332.856C240.877 333.235 239.96 333.396 238.87 333.338L237.849 333.284Z" fill="white" fill-opacity="0.3"/>
<path d="M268.734 335.327C266.964 335.233 265.433 334.73 264.142 333.817C262.858 332.904 261.882 331.67 261.214 330.116C260.553 328.562 260.277 326.772 260.384 324.746C260.492 322.704 260.956 320.94 261.777 319.456C262.607 317.972 263.708 316.844 265.08 316.072C266.461 315.3 268.036 314.96 269.806 315.054C271.577 315.148 273.103 315.651 274.387 316.564C275.678 317.477 276.654 318.715 277.314 320.277C277.982 321.84 278.262 323.643 278.154 325.686C278.047 327.711 277.579 329.462 276.75 330.937C275.93 332.413 274.829 333.537 273.448 334.309C272.076 335.081 270.505 335.421 268.734 335.327ZM268.878 332.62C270.222 332.692 271.347 332.405 272.251 331.762C273.156 331.118 273.847 330.246 274.323 329.145C274.799 328.043 275.072 326.837 275.142 325.527C275.211 324.216 275.067 322.984 274.71 321.83C274.353 320.676 273.758 319.727 272.927 318.983C272.096 318.239 271.008 317.832 269.663 317.761C268.319 317.689 267.194 317.98 266.289 318.632C265.384 319.284 264.693 320.165 264.216 321.275C263.739 322.385 263.466 323.595 263.397 324.906C263.327 326.216 263.471 327.444 263.829 328.59C264.187 329.735 264.781 330.676 265.613 331.411C266.445 332.146 267.533 332.549 268.878 332.62Z" fill="white" fill-opacity="0.3"/>
<path d="M295.955 325.142L295.807 327.951L284.981 327.378L285.13 324.57L295.955 325.142ZM286.29 316.182L285.253 335.791L282.24 335.631L283.277 316.022L286.29 316.182ZM298.699 316.838L297.662 336.447L294.649 336.288L295.686 316.679L298.699 316.838Z" fill="white" fill-opacity="0.3"/>
<path d="M306.43 324.365L312.047 324.662C314.345 324.783 316.072 325.459 317.227 326.689C318.383 327.92 318.913 329.429 318.819 331.216C318.757 332.39 318.428 333.444 317.832 334.377C317.237 335.301 316.397 336.021 315.311 336.535C314.226 337.041 312.918 337.254 311.386 337.173L303.164 336.738L304.201 317.129L307.214 317.288L306.326 334.089L311.534 334.364C312.726 334.427 313.721 334.164 314.52 333.575C315.32 332.985 315.746 332.197 315.798 331.21C315.853 330.171 315.514 329.304 314.783 328.608C314.052 327.913 313.09 327.533 311.899 327.47L306.282 327.173L306.43 324.365ZM321.599 337.713L322.636 318.104L325.649 318.263L324.612 337.872L321.599 337.713Z" fill="white" fill-opacity="0.3"/>
<path d="M18.0527 66.3055C20.0941 27.6995 53.0454 -1.94198 91.6514 0.0994303L431.177 18.0529C469.783 20.0943 499.424 53.0455 497.383 91.6515L479.43 431.177C477.388 469.783 444.437 499.425 405.831 497.383L66.3053 479.43C27.6994 477.388 -1.9421 444.437 0.0993068 405.831L18.0527 66.3055Z" fill="#1F2329"/>
<path d="M38.0248 67.3616C39.483 39.7859 63.0196 18.6134 90.5953 20.0715L430.121 38.025C457.697 39.4831 478.869 63.0197 477.411 90.5954L472.131 190.456C470.672 218.032 447.136 239.204 419.56 237.746L80.0345 219.793C52.4587 218.334 31.2863 194.798 32.7444 167.222L38.0248 67.3616Z" fill="#2A2F36"/>
<path d="M52.2119 161.353C53.1451 143.705 68.2085 130.154 85.8569 131.087L212.984 137.81C230.632 138.743 244.183 153.806 243.249 171.455L243.109 174.118C242.175 191.766 227.112 205.316 209.463 204.383L82.3367 197.661C64.6882 196.728 51.1378 181.664 52.071 164.016L52.2119 161.353Z" fill="#10B981"/>
<path d="M262.353 172.465C263.287 154.816 278.35 141.266 295.998 142.199L423.125 148.921C440.774 149.855 454.324 164.918 453.391 182.566L453.25 185.229C452.317 202.878 437.253 216.428 419.605 215.495L292.478 208.773C274.83 207.84 261.279 192.776 262.213 175.128L262.353 172.465Z" fill="white"/>
<path d="M127.016 158.745L130.157 158.911C131.484 158.981 132.646 159.336 133.642 159.974C134.644 160.608 135.41 161.465 135.939 162.545C136.473 163.62 136.704 164.85 136.631 166.235C136.559 167.608 136.2 168.798 135.555 169.805C134.915 170.812 134.064 171.581 133 172.111C131.943 172.635 130.75 172.862 129.423 172.792L126.282 172.626C124.954 172.556 123.789 172.207 122.787 171.579C121.785 170.946 121.016 170.097 120.481 169.034C119.951 167.97 119.722 166.749 119.795 165.37C119.869 163.98 120.228 162.776 120.874 161.757C121.52 160.739 122.371 159.964 123.429 159.434C124.493 158.905 125.688 158.675 127.016 158.745ZM126.896 161.017C125.988 160.969 125.204 161.118 124.542 161.465C123.881 161.805 123.362 162.318 122.984 163.004C122.607 163.689 122.392 164.523 122.34 165.505C122.289 166.464 122.416 167.298 122.72 168.008C123.03 168.713 123.495 169.27 124.116 169.678C124.738 170.081 125.5 170.306 126.402 170.354L129.551 170.52C130.453 170.568 131.232 170.424 131.887 170.089C132.548 169.748 133.064 169.241 133.435 168.566C133.813 167.887 134.027 167.064 134.078 166.1C134.129 165.129 134.003 164.286 133.7 163.571C133.402 162.849 132.943 162.284 132.321 161.876C131.706 161.462 130.947 161.232 130.045 161.184L126.896 161.017ZM130.007 156.582L129.031 175.033L126.452 174.897L127.428 156.445L130.007 156.582Z" fill="white"/>
<path d="M144.742 175.412C143.517 175.347 142.462 175.009 141.578 174.399C140.695 173.789 140.027 172.966 139.575 171.929C139.124 170.893 138.934 169.699 139.005 168.349C139.077 166.993 139.392 165.82 139.951 164.831C140.509 163.842 141.26 163.091 142.203 162.578C143.147 162.064 144.231 161.84 145.457 161.905C146.682 161.97 147.737 162.307 148.621 162.917C149.504 163.527 150.172 164.353 150.623 165.396C151.074 166.438 151.264 167.637 151.193 168.993C151.121 170.344 150.806 171.51 150.248 172.494C149.689 173.477 148.939 174.225 147.995 174.739C147.052 175.252 145.968 175.476 144.742 175.412ZM144.864 173.276C145.658 173.318 146.327 173.143 146.872 172.75C147.416 172.358 147.831 171.82 148.118 171.135C148.41 170.451 148.578 169.689 148.623 168.849C148.667 168.015 148.58 167.242 148.361 166.531C148.149 165.814 147.793 165.229 147.293 164.776C146.794 164.323 146.147 164.075 145.353 164.033C144.553 163.991 143.877 164.168 143.327 164.566C142.783 164.964 142.364 165.508 142.072 166.198C141.785 166.883 141.62 167.642 141.576 168.476C141.531 169.316 141.616 170.091 141.828 170.802C142.047 171.514 142.406 172.093 142.906 172.541C143.411 172.989 144.064 173.234 144.864 173.276Z" fill="white"/>
<path d="M152.691 164.66L152.807 162.464L163.837 163.048L163.721 165.243L159.457 165.018L158.882 175.895L156.397 175.763L156.972 164.886L152.691 164.66Z" fill="white"/>
<path d="M170.722 176.785C169.496 176.721 168.441 176.383 167.558 175.773C166.674 175.163 166.006 174.34 165.555 173.303C165.103 172.266 164.913 171.073 164.984 169.723C165.056 168.367 165.371 167.194 165.93 166.205C166.489 165.216 167.24 164.465 168.183 163.952C169.126 163.438 170.21 163.214 171.436 163.279C172.661 163.343 173.716 163.681 174.6 164.291C175.484 164.901 176.151 165.727 176.603 166.769C177.054 167.812 177.244 169.011 177.172 170.367C177.1 171.717 176.786 172.884 176.227 173.867C175.669 174.851 174.918 175.599 173.975 176.112C173.032 176.626 171.947 176.85 170.722 176.785ZM170.843 174.65C171.638 174.692 172.307 174.516 172.851 174.124C173.395 173.732 173.811 173.193 174.097 172.509C174.389 171.824 174.558 171.062 174.602 170.223C174.646 169.389 174.559 168.616 174.341 167.904C174.128 167.188 173.772 166.603 173.273 166.15C172.773 165.696 172.126 165.449 171.332 165.407C170.532 165.365 169.857 165.542 169.307 165.94C168.762 166.338 168.344 166.882 168.051 167.572C167.765 168.257 167.599 169.016 167.555 169.85C167.511 170.69 167.595 171.465 167.808 172.176C168.026 172.888 168.385 173.467 168.885 173.915C169.39 174.362 170.043 174.607 170.843 174.65Z" fill="white"/>
<path d="M147.196 70.463L143.213 70.2524C143.105 69.3932 142.859 68.6291 142.476 67.9603C142.094 67.2914 141.612 66.7154 141.032 66.2324C140.451 65.7494 139.793 65.3732 139.056 65.1038C138.327 64.8348 137.546 64.6783 136.712 64.6342C135.206 64.5546 133.837 64.862 132.605 65.5564C131.382 66.2513 130.387 67.3125 129.62 68.7399C128.862 70.1678 128.427 71.937 128.316 74.0477C128.203 76.1754 128.449 77.9892 129.052 79.4891C129.664 80.9894 130.546 82.1455 131.698 82.9575C132.85 83.7695 134.171 84.2148 135.66 84.2936C136.485 84.3372 137.274 84.268 138.026 84.0859C138.788 83.8957 139.482 83.5953 140.11 83.1847C140.737 82.774 141.276 82.2606 141.727 81.6443C142.187 81.02 142.52 80.2951 142.726 79.4696L146.708 79.693C146.427 80.9669 145.952 82.128 145.282 83.1765C144.621 84.2169 143.793 85.1034 142.799 85.836C141.813 86.5606 140.7 87.1034 139.461 87.4646C138.221 87.8258 136.882 87.9684 135.444 87.8923C133.18 87.7726 131.191 87.1298 129.478 85.9638C127.765 84.7893 126.451 83.1708 125.536 81.1082C124.629 79.0461 124.249 76.6235 124.396 73.8405C124.544 71.0489 125.181 68.6801 126.308 66.7341C127.436 64.7795 128.913 63.3129 130.74 62.3341C132.568 61.3468 134.609 60.9128 136.864 61.0321C138.252 61.1055 139.535 61.3739 140.714 61.8373C141.901 62.2927 142.956 62.9288 143.877 63.7457C144.799 64.554 145.545 65.5238 146.117 66.655C146.689 67.7776 147.049 69.047 147.196 70.463Z" fill="white"/>
<path d="M158.916 89.1719C157.078 89.0746 155.496 88.5685 154.17 87.6535C152.844 86.7385 151.843 85.5035 151.165 83.9485C150.488 82.3935 150.203 80.6032 150.31 78.5776C150.417 76.5436 150.89 74.7848 151.728 73.3014C152.566 71.818 153.693 70.6913 155.108 69.9212C156.522 69.1511 158.149 68.8146 159.987 68.9118C161.826 69.009 163.408 69.5151 164.733 70.4302C166.059 71.3452 167.06 72.5845 167.737 74.1479C168.414 75.7114 168.699 77.5102 168.591 79.5443C168.484 81.5699 168.012 83.3201 167.174 84.795C166.337 86.2699 165.21 87.3924 163.796 88.1625C162.381 88.9326 160.754 89.2691 158.916 89.1719ZM159.098 85.9682C160.29 86.0312 161.294 85.7685 162.11 85.1801C162.926 84.5917 163.549 83.784 163.979 82.757C164.417 81.7304 164.67 80.5873 164.736 79.3277C164.803 78.0766 164.672 76.9175 164.344 75.8504C164.026 74.7753 163.492 73.8978 162.742 73.2181C161.993 72.5384 161.023 72.1671 159.831 72.104C158.631 72.0406 157.619 72.3071 156.793 72.9036C155.977 73.5005 155.349 74.3165 154.91 75.3516C154.48 76.3786 154.232 77.5176 154.166 78.7687C154.099 80.0283 154.226 81.1915 154.545 82.2581C154.872 83.3252 155.411 84.1943 156.161 84.8655C156.919 85.5372 157.898 85.9047 159.098 85.9682Z" fill="white"/>
<path d="M188.889 63.3734L190.345 65.8699C189.729 66.3751 189.041 66.7227 188.28 66.9129C187.527 67.095 186.665 67.1902 185.691 67.1985C184.718 67.1983 183.605 67.1864 182.352 67.1628C180.937 67.1306 179.759 67.3756 178.818 67.8976C177.878 68.4112 177.132 69.2081 176.579 70.2884C176.036 71.3607 175.648 72.7228 175.416 74.3748L175.659 74.3876C176.361 73.2043 177.294 72.3404 178.458 71.796C179.631 71.2521 180.928 71.0176 182.349 71.0928C183.932 71.1765 185.321 71.6127 186.517 72.4014C187.713 73.19 188.627 74.301 189.26 75.7341C189.901 77.1592 190.169 78.876 190.063 80.8845C189.955 82.9186 189.488 84.6563 188.661 86.0976C187.842 87.5393 186.734 88.6287 185.339 89.3656C183.951 90.0946 182.343 90.4106 180.513 90.3139C178.683 90.2171 177.109 89.72 175.791 88.8224C174.482 87.9168 173.496 86.6271 172.834 84.9534C172.18 83.2802 171.916 81.2436 172.043 78.8435L172.146 76.903C172.383 72.4178 173.361 69.0856 175.081 66.9063C176.801 64.727 179.254 63.6918 182.44 63.8005C183.471 63.8294 184.391 63.8738 185.198 63.9336C186.006 63.9848 186.715 63.9839 187.324 63.9307C187.941 63.8695 188.463 63.6837 188.889 63.3734ZM180.695 87.1102C181.759 87.1665 182.688 86.9468 183.483 86.4511C184.286 85.9473 184.922 85.2086 185.392 84.2349C185.862 83.2612 186.132 82.0977 186.204 80.7445C186.274 79.4168 186.125 78.2781 185.757 77.3284C185.389 76.3786 184.831 75.6407 184.082 75.1146C183.334 74.5801 182.419 74.2842 181.338 74.227C180.538 74.1847 179.816 74.2874 179.171 74.5349C178.527 74.774 177.965 75.1497 177.486 75.662C177.015 76.1748 176.636 76.8119 176.348 77.5733C176.069 78.3267 175.895 79.2008 175.825 80.1957C175.718 82.2212 176.097 83.8586 176.961 85.1077C177.833 86.3572 179.078 87.0247 180.695 87.1102Z" fill="white"/>
<path d="M193.435 97.9742L194.861 71.0119L198.588 71.209L198.42 74.3878L198.74 74.4047C198.982 74.0079 199.327 73.5524 199.772 73.0382C200.217 72.5241 200.821 72.0866 201.582 71.7258C202.344 71.3564 203.334 71.2039 204.551 71.2683C206.134 71.352 207.526 71.8267 208.726 72.6924C209.926 73.5581 210.84 74.7629 211.467 76.3066C212.102 77.8509 212.363 79.6826 212.251 81.8018C212.139 83.921 211.69 85.7194 210.903 87.1969C210.117 88.666 209.086 89.7764 207.808 90.5282C206.532 91.2715 205.102 91.6013 203.519 91.5176C202.327 91.4546 201.363 91.203 200.627 90.763C199.899 90.3233 199.337 89.8242 198.939 89.2655C198.542 88.7068 198.24 88.2129 198.032 87.7837L197.802 87.7716L197.252 98.1761L193.435 97.9742ZM198.083 81.0142C198.01 82.3929 198.146 83.612 198.491 84.6715C198.836 85.731 199.372 86.5744 200.098 87.2017C200.825 87.8205 201.738 88.1589 202.835 88.2169C203.976 88.2772 204.945 88.0255 205.743 87.4617C206.541 86.8895 207.164 86.0903 207.611 85.0641C208.066 84.0384 208.329 82.8703 208.398 81.5596C208.466 80.266 208.332 79.0939 207.995 78.0434C207.666 76.9933 207.131 76.1499 206.388 75.5132C205.653 74.8769 204.711 74.5284 203.563 74.4677C202.456 74.4092 201.505 74.6448 200.709 75.1745C199.921 75.7047 199.305 76.4701 198.859 77.4707C198.414 78.4713 198.155 79.6524 198.083 81.0142Z" fill="white"/>
<path d="M221.695 92.5299C220.453 92.4642 219.341 92.175 218.361 91.6623C217.382 91.1411 216.622 90.4224 216.081 89.5062C215.549 88.5905 215.317 87.4901 215.385 86.2049C215.444 85.0985 215.705 84.1991 216.168 83.5067C216.632 82.8143 217.236 82.2787 217.981 81.8999C218.727 81.5212 219.552 81.249 220.457 81.0835C221.362 80.918 222.281 80.8044 223.215 80.7428C224.396 80.6688 225.355 80.6085 226.092 80.5621C226.829 80.5072 227.368 80.3864 227.711 80.1997C228.054 80.013 228.237 79.6898 228.262 79.2302L228.266 79.1409C228.325 78.026 228.056 77.1455 227.459 76.4994C226.87 75.8537 225.958 75.4983 224.724 75.433C223.439 75.3651 222.411 75.5966 221.641 76.1277C220.879 76.6507 220.34 77.2495 220.022 77.924L216.478 76.9173C216.967 75.7483 217.639 74.8194 218.495 74.1307C219.359 73.4339 220.337 72.9479 221.427 72.6727C222.517 72.3889 223.654 72.2784 224.837 72.3409C225.62 72.3823 226.444 72.5198 227.311 72.7534C228.187 72.9789 228.995 73.3545 229.735 73.8801C230.484 74.4062 231.081 75.1334 231.527 76.0616C231.974 76.9814 232.159 78.1561 232.083 79.586L231.395 92.6075L227.667 92.4104L227.809 89.7295L227.656 89.7214C227.383 90.202 226.987 90.6675 226.468 91.118C225.949 91.5685 225.294 91.9308 224.503 92.2047C223.712 92.4787 222.776 92.5871 221.695 92.5299ZM222.687 89.5099C223.742 89.5657 224.655 89.4049 225.426 89.0274C226.206 88.6505 226.809 88.1361 227.236 87.4845C227.672 86.8248 227.911 86.1077 227.952 85.3332L228.085 82.8055C227.942 82.9344 227.671 83.0482 227.274 83.1466C226.885 83.237 226.441 83.3117 225.943 83.3707C225.446 83.4212 224.961 83.4681 224.489 83.5114C224.018 83.5463 223.624 83.5766 223.307 83.6025C222.561 83.657 221.876 83.7787 221.252 83.9675C220.636 84.1569 220.134 84.4504 219.746 84.8481C219.367 85.2377 219.159 85.7729 219.123 86.4538C219.073 87.3985 219.384 88.1319 220.057 88.6539C220.729 89.1674 221.606 89.4527 222.687 89.5099Z" fill="white"/>
<path d="M234.91 76.4325L235.084 73.1388L251.629 74.0137L251.455 77.3074L245.059 76.9692L244.196 93.2844L240.469 93.0873L241.331 76.7721L234.91 76.4325Z" fill="white"/>
<path d="M258.182 81.1196L263.876 81.4207C266.276 81.5476 268.092 82.241 269.322 83.501C270.553 84.7609 271.118 86.3313 271.019 88.2122C270.954 89.4377 270.606 90.5246 269.976 91.4727C269.346 92.4209 268.458 93.1506 267.313 93.6619C266.168 94.1646 264.796 94.3737 263.196 94.2891L254.63 93.8361L255.666 74.2272L259.407 74.425L258.544 90.7402L263.37 90.9954C264.468 91.0535 265.385 90.816 266.122 90.2832C266.859 89.7418 267.251 89.0243 267.298 88.1306C267.348 87.1859 267.035 86.397 266.36 85.7639C265.686 85.1223 264.8 84.7725 263.702 84.7144L258.008 84.4133L258.182 81.1196Z" fill="white"/>
<path d="M284.471 95.4141L285.508 75.8051L301.504 76.6509L300.467 96.2599L296.726 96.0621L297.589 79.7468L289.048 79.2952L288.186 95.6105L284.471 95.4141Z" fill="white"/>
<path d="M305.181 103.883L306.607 76.9208L310.335 77.1179L310.167 80.2967L310.486 80.3136C310.729 79.9168 311.073 79.4613 311.518 78.9472C311.964 78.433 312.567 77.9955 313.329 77.6347C314.091 77.2653 315.08 77.1128 316.297 77.1772C317.88 77.2609 319.272 77.7356 320.472 78.6013C321.673 79.467 322.586 80.6718 323.213 82.2155C323.848 83.7598 324.11 85.5915 323.998 87.7107C323.885 89.8299 323.436 91.6283 322.65 93.1058C321.864 94.5749 320.832 95.6853 319.555 96.4371C318.278 97.1804 316.848 97.5102 315.265 97.4265C314.073 97.3635 313.109 97.1119 312.373 96.6719C311.645 96.2323 311.083 95.7331 310.686 95.1744C310.289 94.6157 309.986 94.1218 309.778 93.6926L309.549 93.6805L308.998 104.085L305.181 103.883ZM309.829 86.9231C309.756 88.3018 309.892 89.5209 310.237 90.5804C310.582 91.6399 311.118 92.4833 311.845 93.1106C312.571 93.7294 313.484 94.0678 314.582 94.1258C315.722 94.1862 316.691 93.9344 317.489 93.3707C318.288 92.7984 318.91 91.9992 319.357 90.973C319.813 89.9474 320.075 88.7792 320.144 87.4685C320.213 86.1749 320.078 85.0028 319.741 83.9523C319.413 82.9022 318.877 82.0588 318.134 81.4221C317.399 80.7858 316.458 80.4373 315.309 80.3766C314.202 80.3181 313.251 80.5537 312.455 81.0834C311.667 81.6136 311.051 82.379 310.605 83.3796C310.16 84.3802 309.901 85.5613 309.829 86.9231Z" fill="white"/>
<path d="M335.997 98.5355C334.158 98.4383 332.576 97.9322 331.251 97.0172C329.925 96.1021 328.923 94.8671 328.246 93.3121C327.569 91.7572 327.284 89.9669 327.391 87.9413C327.498 85.9072 327.971 84.1485 328.809 82.6651C329.647 81.1817 330.773 80.055 332.188 79.2848C333.603 78.5147 335.23 78.1783 337.068 78.2755C338.906 78.3727 340.488 78.8788 341.814 79.7938C343.14 80.7089 344.141 81.9481 344.818 83.5116C345.495 85.0751 345.78 86.8739 345.672 88.908C345.565 90.9336 345.092 92.6838 344.255 94.1587C343.417 95.6335 342.291 96.756 340.876 97.5262C339.462 98.2963 337.835 98.6327 335.997 98.5355ZM336.179 95.3319C337.37 95.3949 338.374 95.1322 339.191 94.5438C340.007 93.9554 340.63 93.1477 341.06 92.1206C341.498 91.0941 341.751 89.951 341.817 88.6914C341.883 87.4403 341.753 86.2812 341.425 85.2141C341.106 84.1389 340.572 83.2615 339.823 82.5818C339.074 81.9021 338.103 81.5307 336.912 81.4677C335.712 81.4043 334.699 81.6708 333.874 82.2672C333.057 82.8641 332.43 83.6801 331.991 84.7152C331.561 85.7423 331.313 86.8813 331.247 88.1324C331.18 89.392 331.306 90.5551 331.626 91.6218C331.953 92.6889 332.492 93.558 333.242 94.2292C334 94.9009 334.979 95.2684 336.179 95.3319Z" fill="white"/>
<path d="M360.673 94.7068L367.792 80.1562L371.086 80.3303L361.841 99.5052L359.006 99.3554L352.001 79.3211L355.256 79.4933L360.673 94.7068ZM354.196 79.4372L353.159 99.0462L349.419 98.8484L350.456 79.2394L354.196 79.4372ZM367.79 99.8198L368.826 80.2108L372.541 80.4073L371.505 100.016L367.79 99.8198Z" fill="white"/>
<path d="M375.023 83.8414L375.197 80.5477L391.742 81.4226L391.568 84.7163L385.172 84.3781L384.309 100.693L380.581 100.496L381.444 84.1809L375.023 83.8414Z" fill="white"/>
<path d="M322.749 184.56L323.671 167.13L329.765 167.452C330.979 167.516 331.969 167.779 332.736 168.24C333.503 168.696 334.06 169.286 334.409 170.01C334.758 170.729 334.91 171.513 334.865 172.364C334.825 173.113 334.659 173.725 334.367 174.198C334.08 174.673 333.713 175.04 333.267 175.301C332.827 175.562 332.353 175.748 331.847 175.857L331.838 176.028C332.369 176.09 332.896 176.306 333.417 176.674C333.938 177.043 334.363 177.555 334.692 178.21C335.022 178.865 335.162 179.652 335.114 180.571C335.068 181.444 334.827 182.22 334.393 182.897C333.959 183.574 333.303 184.094 332.425 184.457C331.546 184.82 330.421 184.965 329.047 184.893L322.749 184.56ZM324.959 182.799L329.146 183.02C330.525 183.093 331.518 182.878 332.125 182.376C332.738 181.867 333.065 181.23 333.105 180.464C333.136 179.874 333.015 179.322 332.741 178.807C332.466 178.286 332.059 177.86 331.519 177.53C330.979 177.194 330.329 177.006 329.569 176.966L325.28 176.739L324.959 182.799ZM325.377 174.901L329.292 175.108C329.927 175.142 330.507 175.047 331.031 174.824C331.56 174.602 331.987 174.272 332.312 173.834C332.643 173.396 332.824 172.871 332.856 172.258C332.897 171.492 332.665 170.828 332.159 170.267C331.655 169.7 330.823 169.385 329.666 169.324L325.683 169.114L325.377 174.901Z" fill="#1F2329" fill-opacity="0.3"/>
<path d="M340.23 182.514L347.063 172.736L349.378 172.859L348.686 185.931L346.678 185.825L347.212 175.714L340.414 185.494L338.065 185.37L338.756 172.297L340.765 172.403L340.23 182.514Z" fill="#1F2329" fill-opacity="0.3"/>
<path d="M350.771 189.797L351.068 184.18L352.158 184.237C352.439 183.973 352.685 183.685 352.895 183.371C353.105 183.058 353.292 182.684 353.458 182.249C353.629 181.809 353.783 181.271 353.919 180.635C354.055 179.993 354.187 179.218 354.315 178.309L355.031 173.157L363.337 173.597L362.745 184.797L364.754 184.903L364.457 190.52L362.448 190.414L362.646 186.669L352.978 186.158L352.78 189.903L350.771 189.797ZM354.439 184.358L360.737 184.691L361.23 175.363L356.804 175.129L356.289 178.413C356.075 179.773 355.836 180.958 355.572 181.968C355.308 182.978 354.93 183.775 354.439 184.358Z" fill="#1F2329" fill-opacity="0.3"/>
<path d="M372.787 187.479C371.528 187.412 370.456 187.077 369.572 186.472C368.694 185.863 368.034 185.043 367.594 184.012C367.159 182.976 366.977 181.789 367.048 180.45C367.119 179.111 367.425 177.944 367.967 176.948C368.515 175.947 369.244 175.184 370.154 174.657C371.07 174.125 372.118 173.89 373.298 173.953C373.979 173.989 374.645 174.138 375.297 174.4C375.949 174.662 376.533 175.063 377.051 175.602C377.569 176.136 377.968 176.828 378.247 177.679C378.526 178.531 378.634 179.566 378.569 180.786L378.524 181.637L368.447 181.104L368.539 179.368L376.573 179.793C376.612 179.055 376.5 178.389 376.235 177.795C375.977 177.201 375.586 176.722 375.065 176.359C374.55 175.996 373.929 175.795 373.202 175.757C372.402 175.715 371.7 175.877 371.094 176.243C370.495 176.604 370.022 177.091 369.677 177.704C369.332 178.318 369.14 178.985 369.102 179.705L369.041 180.863C368.988 181.85 369.114 182.696 369.418 183.4C369.729 184.099 370.181 184.644 370.774 185.034C371.369 185.418 372.071 185.632 372.883 185.674C373.41 185.702 373.891 185.654 374.324 185.529C374.764 185.398 375.147 185.191 375.475 184.907C375.803 184.617 376.065 184.25 376.259 183.805L378.171 184.452C377.931 185.099 377.558 185.66 377.049 186.134C376.541 186.602 375.924 186.956 375.2 187.197C374.477 187.432 373.672 187.526 372.787 187.479Z" fill="#1F2329" fill-opacity="0.3"/>
<path d="M386.566 188.207C385.386 188.145 384.366 187.809 383.504 187.2C382.649 186.592 381.998 185.77 381.552 184.733C381.112 183.697 380.928 182.504 380.999 181.154C381.071 179.792 381.381 178.616 381.928 177.627C382.481 176.637 383.215 175.885 384.13 175.37C385.051 174.856 386.101 174.63 387.281 174.692C388.461 174.755 389.479 175.09 390.334 175.699C391.195 176.307 391.846 177.133 392.286 178.174C392.732 179.216 392.918 180.418 392.846 181.78C392.775 183.13 392.463 184.297 391.91 185.281C391.363 186.265 390.629 187.014 389.709 187.529C388.794 188.043 387.747 188.27 386.566 188.207ZM386.662 186.403C387.558 186.45 388.308 186.26 388.911 185.831C389.514 185.402 389.974 184.82 390.292 184.086C390.61 183.352 390.792 182.548 390.838 181.674C390.884 180.8 390.788 179.978 390.55 179.209C390.312 178.44 389.916 177.807 389.362 177.311C388.807 176.815 388.082 176.544 387.186 176.496C386.289 176.449 385.539 176.643 384.936 177.077C384.333 177.512 383.872 178.099 383.554 178.839C383.236 179.579 383.054 180.386 383.008 181.26C382.962 182.134 383.058 182.952 383.296 183.716C383.535 184.48 383.931 185.106 384.485 185.597C385.04 186.087 385.765 186.356 386.662 186.403Z" fill="#1F2329" fill-opacity="0.3"/>
<path d="M25.3518 307.027C26.81 279.451 50.3466 258.279 77.9223 259.737L417.448 277.69C445.024 279.148 466.196 302.685 464.738 330.261L459.458 430.121C457.999 457.697 434.463 478.869 406.887 477.411L67.3614 459.458C39.7857 458 18.6133 434.463 20.0714 406.887L25.3518 307.027Z" fill="#2A2F36"/>
<path d="M165.685 303.25L168.851 303.417L167.623 326.652L176.814 327.138L178.043 303.903L181.209 304.071L179.98 327.305L189.172 327.791L190.401 304.557L193.567 304.724L192.184 330.869L164.303 329.395L165.685 303.25Z" fill="white" fill-opacity="0.3"/>
<path d="M203.87 331.948C202.627 331.883 201.512 331.589 200.524 331.067C199.536 330.537 198.768 329.809 198.22 328.884C197.671 327.951 197.431 326.845 197.499 325.569C197.558 324.445 197.828 323.546 198.307 322.872C198.787 322.189 199.408 321.667 200.169 321.306C200.931 320.945 201.764 320.691 202.668 320.542C203.581 320.386 204.496 320.272 205.413 320.201C206.612 320.111 207.584 320.047 208.329 320.009C209.082 319.964 209.634 319.852 209.985 319.674C210.344 319.497 210.537 319.166 210.562 318.681L210.568 318.579C210.634 317.319 210.342 316.322 209.689 315.588C209.045 314.854 208.029 314.45 206.642 314.377C205.204 314.301 204.06 314.556 203.209 315.143C202.359 315.729 201.749 316.371 201.379 317.069L198.573 315.896C199.147 314.732 199.877 313.84 200.763 313.221C201.658 312.594 202.619 312.176 203.646 311.965C204.682 311.747 205.693 311.664 206.681 311.716C207.31 311.749 208.03 311.864 208.839 312.061C209.657 312.249 210.436 312.593 211.178 313.093C211.928 313.594 212.534 314.322 212.996 315.276C213.457 316.231 213.647 317.487 213.565 319.044L212.881 331.964L209.869 331.805L210.009 329.149L209.856 329.141C209.629 329.556 209.264 329.993 208.762 330.453C208.26 330.913 207.604 331.292 206.795 331.591C205.985 331.889 205.01 332.009 203.87 331.948ZM204.472 329.266C205.664 329.329 206.68 329.148 207.522 328.723C208.373 328.299 209.026 327.727 209.482 327.009C209.947 326.291 210.201 325.524 210.244 324.707L210.39 321.949C210.254 322.095 209.966 322.221 209.525 322.326C209.093 322.422 208.594 322.503 208.027 322.567C207.469 322.622 206.925 322.67 206.394 322.711C205.871 322.743 205.447 322.772 205.122 322.797C204.333 322.858 203.593 322.985 202.9 323.179C202.215 323.365 201.653 323.672 201.212 324.101C200.78 324.522 200.544 325.115 200.503 325.881C200.448 326.928 200.793 327.74 201.54 328.317C202.295 328.886 203.272 329.203 204.472 329.266Z" fill="white" fill-opacity="0.3"/>
<path d="M234.36 306.062L235.794 307.981C235.168 308.528 234.457 308.896 233.662 309.085C232.867 309.273 231.974 309.367 230.984 309.366C229.995 309.364 228.894 309.357 227.683 309.345C226.318 309.324 225.173 309.596 224.247 310.161C223.321 310.727 222.585 311.576 222.038 312.707C221.492 313.839 221.106 315.244 220.881 316.922L221.136 316.936C221.865 315.745 222.832 314.892 224.037 314.375C225.242 313.858 226.517 313.636 227.862 313.707C229.394 313.788 230.754 314.218 231.941 314.998C233.129 315.778 234.043 316.888 234.684 318.33C235.325 319.773 235.59 321.523 235.481 323.583C235.373 325.634 234.913 327.385 234.103 328.836C233.301 330.287 232.223 331.382 230.869 332.121C229.525 332.852 227.976 333.172 226.223 333.079C224.47 332.986 222.955 332.492 221.68 331.597C220.405 330.693 219.444 329.405 218.799 327.732C218.154 326.051 217.895 324.002 218.023 321.585L218.134 319.491C218.364 315.125 219.28 311.853 220.88 309.676C222.489 307.5 224.789 306.452 227.78 306.533C228.837 306.555 229.778 306.596 230.603 306.657C231.427 306.718 232.149 306.717 232.766 306.656C233.384 306.595 233.915 306.397 234.36 306.062ZM226.366 330.373C227.549 330.435 228.582 330.191 229.464 329.64C230.355 329.09 231.059 328.287 231.576 327.23C232.093 326.165 232.391 324.896 232.469 323.424C232.544 321.994 232.375 320.765 231.96 319.735C231.553 318.707 230.934 317.906 230.102 317.333C229.271 316.76 228.255 316.441 227.055 316.378C226.178 316.332 225.383 316.439 224.669 316.7C223.956 316.961 223.337 317.368 222.813 317.92C222.288 318.473 221.868 319.159 221.552 319.979C221.244 320.799 221.053 321.745 220.979 322.816C220.863 325.012 221.285 326.797 222.245 328.17C223.205 329.544 224.579 330.278 226.366 330.373Z" fill="white" fill-opacity="0.3"/>
<path d="M237.849 333.284L237.997 330.476L238.712 330.513C239.3 330.544 239.795 330.455 240.199 330.246C240.603 330.029 240.94 329.633 241.209 329.058C241.487 328.475 241.718 327.66 241.902 326.611C242.094 325.554 242.263 324.206 242.41 322.567L243.226 313.905L256.299 314.596L255.262 334.205L252.249 334.046L253.138 317.245L245.938 316.864L245.261 323.844C245.108 325.449 244.888 326.859 244.602 328.072C244.325 329.278 243.944 330.282 243.457 331.084C242.98 331.887 242.368 332.478 241.623 332.856C240.877 333.235 239.96 333.396 238.87 333.338L237.849 333.284Z" fill="white" fill-opacity="0.3"/>
<path d="M268.734 335.327C266.964 335.233 265.433 334.73 264.142 333.817C262.858 332.904 261.882 331.67 261.214 330.116C260.553 328.562 260.277 326.772 260.384 324.746C260.492 322.704 260.956 320.94 261.777 319.456C262.607 317.972 263.708 316.844 265.08 316.072C266.461 315.3 268.036 314.96 269.806 315.054C271.577 315.148 273.103 315.651 274.387 316.564C275.678 317.477 276.654 318.715 277.314 320.277C277.982 321.84 278.262 323.643 278.154 325.686C278.047 327.711 277.579 329.462 276.75 330.937C275.93 332.413 274.829 333.537 273.448 334.309C272.076 335.081 270.505 335.421 268.734 335.327ZM268.878 332.62C270.222 332.692 271.347 332.405 272.251 331.762C273.156 331.118 273.847 330.246 274.323 329.145C274.799 328.043 275.072 326.837 275.142 325.527C275.211 324.216 275.067 322.984 274.71 321.83C274.353 320.676 273.758 319.727 272.927 318.983C272.096 318.239 271.008 317.832 269.663 317.761C268.319 317.689 267.194 317.98 266.289 318.632C265.384 319.284 264.693 320.165 264.216 321.275C263.739 322.385 263.466 323.595 263.397 324.906C263.327 326.216 263.471 327.444 263.829 328.59C264.187 329.735 264.781 330.676 265.613 331.411C266.445 332.146 267.533 332.549 268.878 332.62Z" fill="white" fill-opacity="0.3"/>
<path d="M295.955 325.142L295.807 327.951L284.981 327.378L285.13 324.57L295.955 325.142ZM286.29 316.182L285.253 335.791L282.24 335.631L283.277 316.022L286.29 316.182ZM298.699 316.838L297.662 336.447L294.649 336.288L295.686 316.679L298.699 316.838Z" fill="white" fill-opacity="0.3"/>
<path d="M306.43 324.365L312.047 324.662C314.345 324.783 316.072 325.459 317.227 326.689C318.383 327.92 318.913 329.429 318.819 331.216C318.757 332.39 318.428 333.444 317.832 334.377C317.237 335.301 316.397 336.021 315.311 336.535C314.226 337.041 312.918 337.254 311.386 337.173L303.164 336.738L304.201 317.129L307.214 317.288L306.326 334.089L311.534 334.364C312.726 334.427 313.721 334.164 314.52 333.575C315.32 332.985 315.746 332.197 315.798 331.21C315.853 330.171 315.514 329.304 314.783 328.608C314.052 327.913 313.09 327.533 311.899 327.47L306.282 327.173L306.43 324.365ZM321.599 337.713L322.636 318.104L325.649 318.263L324.612 337.872L321.599 337.713Z" fill="white" fill-opacity="0.3"/>
<path d="M39.5388 401.018C40.4721 383.37 55.5355 369.819 73.1839 370.752L200.311 377.475C217.959 378.408 231.51 393.471 230.576 411.12L230.436 413.783C229.502 431.431 214.439 444.982 196.79 444.048L69.6637 437.326C52.0152 436.393 38.4648 421.33 39.398 403.681L39.5388 401.018Z" fill="white"/>
<path d="M249.68 412.13C250.614 394.482 265.677 380.931 283.325 381.864L410.452 388.587C428.101 389.52 441.651 404.583 440.718 422.232L440.577 424.895C439.644 442.543 424.58 456.093 406.932 455.16L279.805 448.438C262.157 447.505 248.606 432.441 249.54 414.793L249.68 412.13Z" fill="white"/>
<path d="M114.858 398.506L117.615 398.651C118.909 398.72 120.042 399.07 121.016 399.702C121.99 400.334 122.736 401.181 123.254 402.244C123.773 403.307 123.996 404.519 123.924 405.881C123.852 407.243 123.502 408.428 122.874 409.436C122.246 410.444 121.414 411.213 120.379 411.745C119.344 412.276 118.18 412.507 116.886 412.439L114.128 412.293C112.835 412.225 111.701 411.875 110.727 411.243C109.754 410.611 109.008 409.764 108.489 408.701C107.971 407.638 107.748 406.425 107.82 405.064C107.892 403.702 108.242 402.517 108.87 401.509C109.498 400.501 110.329 399.731 111.364 399.2C112.399 398.669 113.564 398.437 114.858 398.506ZM114.759 400.378C113.771 400.326 112.926 400.489 112.223 400.867C111.526 401.245 110.982 401.803 110.59 402.539C110.204 403.275 109.984 404.154 109.93 405.175C109.877 406.185 110.003 407.074 110.31 407.841C110.622 408.609 111.105 409.217 111.758 409.667C112.417 410.117 113.24 410.369 114.227 410.421L116.985 410.567C117.972 410.619 118.814 410.456 119.512 410.077C120.214 409.699 120.759 409.142 121.145 408.405C121.536 407.669 121.759 406.791 121.813 405.769C121.867 404.759 121.737 403.871 121.425 403.103C121.119 402.336 120.636 401.727 119.977 401.277C119.324 400.827 118.503 400.576 117.516 400.524L114.759 400.378ZM117.435 396.252L116.459 414.704L114.348 414.592L115.324 396.141L117.435 396.252Z" fill="#1F2329" fill-opacity="0.3"/>
<path d="M132.036 415.084C130.856 415.021 129.835 414.686 128.974 414.077C128.119 413.468 127.468 412.646 127.022 411.609C126.582 410.573 126.397 409.38 126.469 408.03C126.541 406.668 126.85 405.492 127.398 404.503C127.951 403.514 128.685 402.762 129.6 402.247C130.52 401.732 131.57 401.506 132.751 401.568C133.931 401.631 134.949 401.966 135.804 402.575C136.665 403.184 137.316 404.009 137.756 405.051C138.201 406.093 138.388 407.295 138.316 408.656C138.244 410.007 137.932 411.174 137.38 412.157C136.833 413.141 136.099 413.89 135.178 414.405C134.264 414.92 133.216 415.146 132.036 415.084ZM132.131 413.279C133.028 413.327 133.778 413.136 134.381 412.707C134.984 412.278 135.444 411.696 135.762 410.962C136.079 410.228 136.261 409.424 136.307 408.55C136.354 407.676 136.258 406.855 136.019 406.085C135.781 405.316 135.385 404.683 134.831 404.188C134.277 403.692 133.552 403.42 132.655 403.373C131.759 403.325 131.009 403.519 130.405 403.954C129.802 404.388 129.341 404.975 129.024 405.715C128.706 406.455 128.524 407.262 128.477 408.136C128.431 409.01 128.527 409.828 128.766 410.592C129.004 411.356 129.401 411.983 129.955 412.473C130.509 412.963 131.235 413.232 132.131 413.279Z" fill="#1F2329" fill-opacity="0.3"/>
<path d="M139.924 403.996L140.023 402.124L150.644 402.685L150.545 404.558L146.256 404.331L145.663 415.531L143.655 415.425L144.247 404.225L139.924 403.996Z" fill="#1F2329" fill-opacity="0.3"/>
<path d="M157.5 416.43C156.32 416.368 155.3 416.032 154.438 415.423C153.583 414.815 152.932 413.992 152.486 412.956C152.046 411.92 151.862 410.727 151.933 409.376C152.005 408.015 152.315 406.839 152.862 405.849C153.415 404.86 154.149 404.108 155.064 403.593C155.985 403.079 157.035 402.852 158.215 402.915C159.395 402.977 160.413 403.313 161.268 403.921C162.13 404.53 162.78 405.355 163.22 406.397C163.666 407.439 163.852 408.641 163.78 410.003C163.709 411.353 163.397 412.52 162.844 413.504C162.297 414.487 161.563 415.237 160.643 415.751C159.728 416.266 158.681 416.493 157.5 416.43ZM157.596 414.626C158.492 414.673 159.242 414.482 159.845 414.053C160.448 413.624 160.908 413.043 161.226 412.309C161.544 411.574 161.726 410.77 161.772 409.897C161.818 409.023 161.722 408.201 161.484 407.432C161.246 406.663 160.85 406.03 160.296 405.534C159.741 405.038 159.016 404.767 158.12 404.719C157.223 404.672 156.473 404.865 155.87 405.3C155.267 405.735 154.806 406.322 154.488 407.062C154.17 407.802 153.988 408.609 153.942 409.483C153.896 410.356 153.992 411.175 154.23 411.939C154.469 412.702 154.865 413.329 155.419 413.819C155.974 414.31 156.699 414.578 157.596 414.626Z" fill="#1F2329" fill-opacity="0.3"/>
<path d="M310.076 424.225L310.998 406.795L317.092 407.117C318.306 407.181 319.296 407.444 320.063 407.906C320.83 408.362 321.387 408.951 321.736 409.675C322.085 410.394 322.237 411.178 322.192 412.029C322.152 412.778 321.986 413.39 321.694 413.864C321.407 414.338 321.04 414.705 320.594 414.966C320.154 415.227 319.68 415.413 319.174 415.523L319.165 415.693C319.696 415.755 320.223 415.971 320.744 416.34C321.265 416.709 321.69 417.22 322.019 417.875C322.349 418.53 322.489 419.317 322.441 420.236C322.395 421.11 322.154 421.885 321.72 422.562C321.286 423.239 320.63 423.759 319.752 424.122C318.873 424.485 317.748 424.631 316.374 424.558L310.076 424.225ZM312.286 422.464L316.473 422.686C317.852 422.758 318.845 422.544 319.452 422.041C320.065 421.533 320.392 420.896 320.432 420.13C320.463 419.54 320.342 418.987 320.067 418.472C319.793 417.951 319.386 417.525 318.846 417.195C318.306 416.859 317.656 416.671 316.896 416.631L312.607 416.404L312.286 422.464ZM312.704 414.566L316.619 414.773C317.254 414.807 317.834 414.712 318.358 414.49C318.887 414.267 319.314 413.937 319.639 413.499C319.97 413.061 320.151 412.536 320.183 411.923C320.224 411.157 319.992 410.493 319.486 409.932C318.982 409.365 318.15 409.051 316.993 408.989L313.01 408.779L312.704 414.566Z" fill="#1F2329" fill-opacity="0.3"/>
<path d="M327.557 422.179L334.39 412.401L336.704 412.524L336.013 425.596L334.005 425.49L334.539 415.379L327.741 425.159L325.392 425.035L326.083 411.962L328.092 412.068L327.557 422.179Z" fill="#1F2329" fill-opacity="0.3"/>
<path d="M338.098 429.462L338.395 423.845L339.485 423.902C339.766 423.638 340.012 423.35 340.222 423.037C340.432 422.723 340.619 422.349 340.785 421.914C340.956 421.474 341.109 420.936 341.246 420.3C341.382 419.659 341.514 418.883 341.642 417.974L342.358 412.823L350.664 413.262L350.072 424.462L352.081 424.568L351.784 430.186L349.775 430.079L349.973 426.335L340.305 425.823L340.107 429.568L338.098 429.462ZM341.766 424.023L348.064 424.356L348.557 415.028L344.131 414.794L343.616 418.078C343.402 419.438 343.163 420.623 342.899 421.633C342.635 422.644 342.257 423.44 341.766 424.023Z" fill="#1F2329" fill-opacity="0.3"/>
<path d="M360.114 427.144C358.855 427.077 357.783 426.742 356.899 426.137C356.021 425.528 355.361 424.708 354.921 423.677C354.486 422.642 354.304 421.454 354.375 420.115C354.446 418.776 354.752 417.609 355.294 416.613C355.842 415.612 356.571 414.849 357.481 414.322C358.397 413.79 359.445 413.555 360.625 413.618C361.306 413.654 361.972 413.803 362.624 414.065C363.276 414.327 363.86 414.728 364.378 415.267C364.896 415.801 365.295 416.493 365.574 417.345C365.853 418.196 365.961 419.231 365.896 420.451L365.851 421.302L355.774 420.769L355.866 419.033L363.9 419.458C363.939 418.721 363.827 418.055 363.562 417.46C363.304 416.866 362.913 416.388 362.392 416.024C361.877 415.661 361.256 415.461 360.529 415.422C359.729 415.38 359.027 415.542 358.421 415.908C357.822 416.269 357.349 416.756 357.004 417.369C356.659 417.983 356.467 418.65 356.429 419.37L356.368 420.528C356.315 421.515 356.441 422.361 356.745 423.065C357.056 423.765 357.508 424.309 358.101 424.699C358.696 425.083 359.398 425.297 360.21 425.34C360.737 425.368 361.218 425.319 361.651 425.194C362.091 425.064 362.474 424.856 362.802 424.572C363.13 424.282 363.392 423.915 363.586 423.47L365.498 424.117C365.258 424.764 364.885 425.325 364.376 425.799C363.868 426.267 363.251 426.621 362.527 426.862C361.804 427.097 360.999 427.191 360.114 427.144Z" fill="#1F2329" fill-opacity="0.3"/>
<path d="M373.893 427.873C372.713 427.81 371.693 427.475 370.831 426.866C369.976 426.257 369.325 425.435 368.879 424.398C368.439 423.362 368.255 422.169 368.326 420.819C368.398 419.457 368.708 418.281 369.255 417.292C369.808 416.303 370.542 415.551 371.457 415.036C372.378 414.521 373.428 414.295 374.608 414.357C375.788 414.42 376.806 414.755 377.661 415.364C378.522 415.973 379.173 416.798 379.613 417.839C380.059 418.882 380.245 420.083 380.173 421.445C380.102 422.796 379.79 423.963 379.237 424.946C378.69 425.93 377.956 426.679 377.036 427.194C376.121 427.709 375.074 427.935 373.893 427.873ZM373.989 426.068C374.885 426.116 375.635 425.925 376.238 425.496C376.841 425.067 377.301 424.485 377.619 423.751C377.937 423.017 378.119 422.213 378.165 421.339C378.211 420.465 378.115 419.644 377.877 418.874C377.639 418.105 377.243 417.472 376.689 416.977C376.134 416.481 375.409 416.209 374.513 416.162C373.616 416.114 372.866 416.308 372.263 416.742C371.66 417.177 371.199 417.764 370.881 418.504C370.563 419.244 370.381 420.051 370.335 420.925C370.289 421.799 370.385 422.617 370.623 423.381C370.862 424.145 371.258 424.772 371.812 425.262C372.367 425.752 373.092 426.021 373.989 426.068Z" fill="#1F2329" fill-opacity="0.3"/>
</svg>
