<svg width="512" height="512" viewBox="0 0 512 512" fill="none" xmlns="http://www.w3.org/2000/svg">
<rect width="512" height="512" fill="#1F2329"/>
<path d="M42.9129 77.4114C44.0077 49.8189 67.2634 28.3382 94.8559 29.433L434.589 42.9129C462.181 44.0077 483.662 67.2634 482.567 94.8559L478.602 194.777C477.507 222.37 454.252 243.85 426.659 242.756L86.9266 229.276C59.334 228.181 37.8534 204.925 38.9482 177.333L42.9129 77.4114Z" fill="#2A2F36"/>
<path d="M33.3977 317.223C34.4925 289.63 57.7482 268.15 85.3407 269.244L425.073 282.724C452.666 283.819 474.147 307.075 473.052 334.667L469.087 434.589C467.992 462.181 444.737 483.662 417.144 482.567L77.4114 469.087C49.8188 467.992 28.3382 444.737 29.433 417.144L33.3977 317.223Z" fill="#2A2F36"/>
<path d="M58.3367 171.208C59.0373 153.549 73.921 139.801 91.5802 140.502L218.784 145.549C236.444 146.249 250.191 161.133 249.491 178.792L249.385 181.457C248.684 199.116 233.801 212.864 216.141 212.163L88.9371 207.116C71.2779 206.415 57.5302 191.532 58.2309 173.872L58.3367 171.208Z" fill="white"/>
<path d="M48.8215 411.019C49.5221 393.36 64.4058 379.612 82.065 380.313L209.269 385.36C226.928 386.061 240.676 400.944 239.975 418.604L239.87 421.268C239.169 438.927 224.285 452.675 206.626 451.974L79.4219 446.927C61.7627 446.226 48.0151 431.343 48.7157 413.684L48.8215 411.019Z" fill="#10B981"/>
<path d="M268.606 179.551C269.307 161.892 284.191 148.144 301.85 148.845L429.054 153.892C446.713 154.593 460.461 169.476 459.76 187.135L459.654 189.8C458.954 207.459 444.07 221.207 426.411 220.506L299.207 215.459C281.547 214.758 267.8 199.875 268.501 182.215L268.606 179.551Z" fill="white"/>
<path d="M259.091 419.362C259.792 401.703 274.675 387.955 292.335 388.656L419.539 393.703C437.198 394.404 450.946 409.287 450.245 426.947L450.139 429.611C449.439 447.27 434.555 461.018 416.896 460.317L289.692 455.27C272.032 454.57 258.285 439.686 258.985 422.027L259.091 419.362Z" fill="white"/>
<path d="M133.616 167.703L136.375 167.813C137.669 167.864 138.807 168.199 139.789 168.818C140.771 169.437 141.528 170.275 142.061 171.331C142.593 172.387 142.832 173.596 142.778 174.959C142.724 176.321 142.39 177.511 141.775 178.527C141.161 179.543 140.339 180.324 139.311 180.869C138.283 181.413 137.122 181.66 135.827 181.609L133.068 181.499C131.774 181.448 130.636 181.113 129.654 180.494C128.672 179.875 127.915 179.037 127.382 177.981C126.85 176.925 126.611 175.716 126.665 174.354C126.719 172.991 127.053 171.802 127.668 170.785C128.282 169.769 129.104 168.989 130.132 168.444C131.16 167.899 132.321 167.652 133.616 167.703ZM133.541 169.577C132.554 169.538 131.711 169.712 131.013 170.099C130.321 170.487 129.784 171.051 129.402 171.792C129.026 172.534 128.817 173.415 128.777 174.437C128.737 175.448 128.875 176.335 129.191 177.098C129.514 177.861 130.004 178.464 130.664 178.905C131.328 179.346 132.155 179.587 133.143 179.626L135.902 179.735C136.89 179.775 137.73 179.6 138.422 179.213C139.119 178.825 139.656 178.261 140.033 177.52C140.415 176.778 140.626 175.897 140.666 174.875C140.707 173.864 140.565 172.977 140.243 172.214C139.927 171.451 139.436 170.849 138.771 170.407C138.112 169.966 137.288 169.726 136.301 169.686L133.541 169.577ZM136.163 165.416L135.43 183.879L133.318 183.795L134.051 165.332L136.163 165.416Z" fill="#1F2329" fill-opacity="0.3"/>
<path d="M151.011 184.054C149.83 184.007 148.805 183.685 147.936 183.087C147.073 182.49 146.411 181.676 145.952 180.646C145.498 179.616 145.298 178.425 145.351 177.074C145.405 175.711 145.7 174.532 146.234 173.535C146.774 172.539 147.498 171.777 148.406 171.25C149.319 170.723 150.367 170.483 151.548 170.53C152.728 170.577 153.751 170.899 154.614 171.496C155.483 172.094 156.144 172.91 156.598 173.946C157.057 174.982 157.26 176.182 157.206 177.544C157.152 178.895 156.855 180.066 156.316 181.057C155.782 182.048 155.058 182.807 154.144 183.334C153.236 183.861 152.192 184.101 151.011 184.054ZM151.083 182.248C151.98 182.284 152.727 182.083 153.324 181.646C153.921 181.209 154.374 180.622 154.682 179.883C154.99 179.145 155.161 178.339 155.196 177.464C155.231 176.59 155.124 175.77 154.876 175.004C154.627 174.238 154.223 173.61 153.662 173.122C153.102 172.633 152.373 172.371 151.476 172.336C150.579 172.3 149.832 172.504 149.234 172.946C148.636 173.389 148.184 173.982 147.875 174.726C147.567 175.47 147.396 176.279 147.361 177.154C147.327 178.028 147.433 178.845 147.682 179.606C147.93 180.366 148.335 180.988 148.896 181.471C149.457 181.953 150.186 182.213 151.083 182.248Z" fill="#1F2329" fill-opacity="0.3"/>
<path d="M158.752 172.863L158.826 170.99L169.454 171.411L169.38 173.285L165.088 173.115L164.643 184.322L162.633 184.242L163.078 173.035L158.752 172.863Z" fill="#1F2329" fill-opacity="0.3"/>
<path d="M176.491 185.065C175.31 185.018 174.285 184.696 173.416 184.098C172.553 183.501 171.891 182.687 171.432 181.657C170.978 180.627 170.778 179.436 170.831 178.085C170.885 176.722 171.18 175.543 171.714 174.546C172.254 173.55 172.978 172.788 173.886 172.261C174.799 171.734 175.847 171.494 177.027 171.541C178.208 171.588 179.231 171.91 180.094 172.507C180.963 173.105 181.624 173.921 182.078 174.957C182.537 175.993 182.74 177.193 182.686 178.555C182.632 179.906 182.335 181.077 181.796 182.068C181.262 183.059 180.538 183.818 179.624 184.345C178.716 184.872 177.672 185.112 176.491 185.065ZM176.563 183.259C177.46 183.295 178.207 183.094 178.804 182.657C179.401 182.22 179.854 181.633 180.162 180.894C180.47 180.156 180.641 179.35 180.676 178.475C180.711 177.601 180.604 176.781 180.356 176.015C180.107 175.249 179.703 174.621 179.142 174.133C178.582 173.644 177.853 173.382 176.956 173.347C176.059 173.311 175.312 173.515 174.714 173.957C174.116 174.4 173.664 174.993 173.355 175.737C173.047 176.481 172.876 177.29 172.841 178.165C172.806 179.039 172.913 179.856 173.162 180.617C173.41 181.377 173.815 181.999 174.376 182.482C174.937 182.964 175.666 183.224 176.563 183.259Z" fill="#1F2329" fill-opacity="0.3"/>
<path d="M123.585 407.426L126.727 407.551C128.056 407.603 129.222 407.943 130.227 408.568C131.237 409.188 132.014 410.035 132.557 411.109C133.106 412.177 133.353 413.403 133.298 414.789C133.243 416.162 132.9 417.357 132.268 418.373C131.642 419.388 130.801 420.168 129.745 420.712C128.694 421.25 127.505 421.493 126.176 421.44L123.034 421.316C121.705 421.263 120.536 420.929 119.525 420.315C118.515 419.695 117.735 418.857 117.186 417.8C116.642 416.743 116.397 415.525 116.452 414.146C116.507 412.755 116.851 411.546 117.483 410.519C118.115 409.492 118.957 408.707 120.007 408.163C121.064 407.619 122.256 407.373 123.585 407.426ZM123.495 409.7C122.586 409.664 121.804 409.823 121.147 410.178C120.491 410.527 119.978 411.047 119.61 411.738C119.241 412.428 119.037 413.265 118.998 414.247C118.96 415.206 119.098 416.039 119.411 416.745C119.73 417.446 120.203 417.996 120.83 418.396C121.456 418.791 122.221 419.006 123.124 419.042L126.275 419.167C127.178 419.203 127.954 419.049 128.605 418.705C129.261 418.356 129.77 417.841 130.133 417.162C130.501 416.477 130.705 415.652 130.743 414.687C130.781 413.716 130.644 412.875 130.331 412.163C130.024 411.446 129.557 410.887 128.931 410.487C128.31 410.081 127.548 409.861 126.645 409.825L123.495 409.7ZM126.547 405.224L125.814 423.686L123.234 423.584L123.966 405.121L126.547 405.224Z" fill="white"/>
<path d="M141.529 423.858C140.303 423.809 139.244 423.486 138.352 422.887C137.46 422.289 136.782 421.475 136.317 420.444C135.851 419.413 135.646 418.222 135.699 416.871C135.753 415.514 136.053 414.338 136.598 413.342C137.144 412.345 137.885 411.584 138.821 411.059C139.758 410.533 140.839 410.294 142.065 410.343C143.292 410.392 144.351 410.715 145.242 411.313C146.134 411.912 146.813 412.729 147.278 413.765C147.742 414.802 147.948 415.998 147.894 417.355C147.841 418.706 147.541 419.877 146.996 420.868C146.45 421.858 145.709 422.616 144.773 423.142C143.837 423.668 142.755 423.906 141.529 423.858ZM141.622 421.721C142.417 421.752 143.084 421.568 143.623 421.169C144.162 420.769 144.57 420.226 144.848 419.537C145.131 418.849 145.289 418.085 145.323 417.244C145.356 416.41 145.258 415.638 145.031 414.93C144.809 414.216 144.445 413.636 143.94 413.189C143.434 412.743 142.784 412.504 141.989 412.472C141.189 412.44 140.516 412.627 139.971 413.032C139.432 413.437 139.021 413.986 138.737 414.68C138.46 415.369 138.305 416.13 138.271 416.965C138.238 417.805 138.332 418.579 138.555 419.287C138.782 419.996 139.149 420.571 139.655 421.011C140.166 421.452 140.822 421.689 141.622 421.721Z" fill="white"/>
<path d="M149.336 413.002L149.423 410.805L160.46 411.243L160.372 413.44L156.106 413.271L155.674 424.155L153.187 424.056L153.619 413.172L149.336 413.002Z" fill="white"/>
<path d="M167.524 424.889C166.298 424.841 165.239 424.517 164.347 423.919C163.455 423.32 162.777 422.506 162.312 421.475C161.847 420.445 161.641 419.254 161.694 417.903C161.748 416.546 162.048 415.369 162.594 414.373C163.139 413.377 163.88 412.616 164.817 412.09C165.753 411.564 166.834 411.326 168.061 411.374C169.287 411.423 170.346 411.746 171.238 412.345C172.129 412.943 172.808 413.76 173.273 414.797C173.738 415.833 173.943 417.03 173.889 418.386C173.836 419.738 173.536 420.909 172.991 421.899C172.446 422.89 171.705 423.648 170.768 424.174C169.832 424.699 168.751 424.938 167.524 424.889ZM167.618 422.752C168.412 422.784 169.079 422.6 169.618 422.2C170.157 421.801 170.566 421.257 170.843 420.569C171.126 419.88 171.285 419.116 171.318 418.276C171.351 417.441 171.254 416.67 171.026 415.961C170.804 415.247 170.44 414.667 169.935 414.221C169.43 413.774 168.779 413.535 167.985 413.504C167.184 413.472 166.511 413.658 165.966 414.063C165.427 414.468 165.016 415.018 164.733 415.712C164.455 416.4 164.3 417.162 164.267 417.996C164.233 418.836 164.328 419.611 164.55 420.319C164.778 421.027 165.144 421.602 165.65 422.043C166.161 422.484 166.817 422.72 167.618 422.752Z" fill="white"/>
<path d="M329.156 190.849L329.848 173.408L335.946 173.65C337.161 173.699 338.155 173.948 338.927 174.4C339.7 174.846 340.265 175.428 340.623 176.147C340.982 176.861 341.144 177.644 341.11 178.495C341.08 179.245 340.922 179.858 340.636 180.336C340.356 180.814 339.994 181.186 339.551 181.453C339.114 181.72 338.643 181.911 338.138 182.028L338.132 182.198C338.664 182.253 339.193 182.462 339.719 182.824C340.245 183.186 340.677 183.692 341.015 184.343C341.353 184.993 341.504 185.778 341.467 186.698C341.432 187.572 341.203 188.35 340.777 189.033C340.352 189.715 339.703 190.244 338.829 190.619C337.956 190.994 336.832 191.154 335.458 191.099L329.156 190.849ZM331.343 189.059L335.533 189.226C336.912 189.28 337.902 189.052 338.502 188.542C339.109 188.026 339.427 187.384 339.457 186.618C339.481 186.027 339.352 185.476 339.071 184.965C338.79 184.448 338.377 184.028 337.833 183.705C337.289 183.376 336.636 183.197 335.875 183.166L331.583 182.996L331.343 189.059ZM331.656 181.157L335.574 181.312C336.21 181.337 336.788 181.235 337.309 181.006C337.835 180.776 338.258 180.44 338.577 179.998C338.902 179.556 339.076 179.029 339.1 178.415C339.131 177.649 338.89 176.988 338.377 176.434C337.865 175.873 337.03 175.57 335.872 175.524L331.886 175.366L331.656 181.157Z" fill="#1F2329" fill-opacity="0.3"/>
<path d="M346.608 188.573L353.312 178.706L355.628 178.798L355.109 191.879L353.099 191.799L353.501 181.682L346.831 191.55L344.481 191.457L345 178.377L347.01 178.456L346.608 188.573Z" fill="#1F2329" fill-opacity="0.3"/>
<path d="M357.245 195.717L357.468 190.096L358.558 190.139C358.836 189.872 359.078 189.58 359.283 189.264C359.489 188.948 359.672 188.571 359.832 188.134C359.997 187.692 360.143 187.152 360.271 186.514C360.399 185.871 360.521 185.094 360.637 184.183L361.285 179.023L369.596 179.353L369.152 190.56L371.162 190.639L370.939 196.26L368.929 196.18L369.077 192.433L359.403 192.049L359.255 195.796L357.245 195.717ZM360.84 190.23L367.142 190.48L367.512 181.146L363.084 180.971L362.612 184.261C362.416 185.624 362.193 186.812 361.942 187.826C361.691 188.839 361.324 189.641 360.84 190.23Z" fill="#1F2329" fill-opacity="0.3"/>
<path d="M379.228 193.109C377.968 193.059 376.892 192.738 376 192.145C375.114 191.547 374.444 190.735 373.99 189.711C373.542 188.681 373.344 187.496 373.397 186.156C373.45 184.816 373.741 183.645 374.27 182.643C374.805 181.635 375.524 180.861 376.426 180.323C377.335 179.779 378.38 179.53 379.561 179.577C380.242 179.604 380.91 179.745 381.565 179.998C382.221 180.251 382.811 180.645 383.335 181.177C383.86 181.704 384.268 182.391 384.559 183.239C384.849 184.086 384.97 185.12 384.922 186.341L384.888 187.192L374.805 186.792L374.874 185.055L382.913 185.374C382.942 184.636 382.821 183.971 382.549 183.381C382.282 182.79 381.886 182.317 381.36 181.96C380.839 181.604 380.216 181.412 379.489 181.383C378.688 181.351 377.988 181.522 377.387 181.896C376.793 182.265 376.327 182.758 375.99 183.376C375.652 183.994 375.469 184.663 375.441 185.384L375.395 186.543C375.356 187.53 375.493 188.375 375.806 189.075C376.125 189.77 376.585 190.309 377.183 190.691C377.783 191.067 378.488 191.271 379.3 191.303C379.828 191.324 380.308 191.27 380.74 191.139C381.177 191.003 381.558 190.79 381.882 190.502C382.207 190.208 382.463 189.837 382.651 189.389L384.571 190.011C384.341 190.662 383.974 191.227 383.472 191.708C382.97 192.183 382.358 192.545 381.638 192.795C380.917 193.039 380.114 193.144 379.228 193.109Z" fill="#1F2329" fill-opacity="0.3"/>
<path d="M393.016 193.656C391.835 193.609 390.81 193.287 389.941 192.69C389.078 192.092 388.416 191.279 387.957 190.248C387.503 189.218 387.303 188.027 387.356 186.676C387.41 185.313 387.705 184.134 388.239 183.137C388.779 182.141 389.503 181.379 390.411 180.852C391.324 180.326 392.372 180.086 393.552 180.132C394.733 180.179 395.755 180.501 396.619 181.099C397.488 181.696 398.149 182.513 398.603 183.548C399.062 184.585 399.265 185.784 399.211 187.146C399.157 188.498 398.86 189.669 398.321 190.659C397.787 191.65 397.063 192.409 396.149 192.936C395.241 193.463 394.197 193.703 393.016 193.656ZM393.087 191.851C393.985 191.886 394.732 191.685 395.329 191.249C395.926 190.812 396.379 190.224 396.687 189.486C396.995 188.747 397.166 187.941 397.201 187.067C397.236 186.192 397.129 185.372 396.881 184.606C396.632 183.84 396.228 183.213 395.667 182.724C395.107 182.236 394.378 181.973 393.481 181.938C392.584 181.902 391.836 182.106 391.239 182.548C390.641 182.991 390.189 183.584 389.88 184.328C389.572 185.072 389.401 185.881 389.366 186.756C389.331 187.63 389.438 188.447 389.687 189.208C389.935 189.968 390.34 190.59 390.901 191.073C391.462 191.556 392.19 191.815 393.087 191.851Z" fill="#1F2329" fill-opacity="0.3"/>
<path d="M319.641 430.66L320.333 413.22L326.431 413.462C327.646 413.51 328.639 413.76 329.412 414.211C330.185 414.657 330.75 415.239 331.108 415.959C331.467 416.672 331.629 417.455 331.595 418.307C331.565 419.056 331.407 419.669 331.121 420.147C330.841 420.625 330.479 420.997 330.036 421.264C329.599 421.531 329.128 421.723 328.623 421.839L328.616 422.01C329.149 422.065 329.678 422.273 330.204 422.635C330.729 422.997 331.161 423.504 331.499 424.154C331.838 424.804 331.988 425.589 331.952 426.509C331.917 427.383 331.687 428.162 331.262 428.844C330.837 429.527 330.188 430.055 329.314 430.43C328.441 430.805 327.317 430.965 325.943 430.911L319.641 430.66ZM321.828 428.871L326.017 429.037C327.397 429.092 328.387 428.864 328.987 428.353C329.593 427.837 329.912 427.196 329.942 426.429C329.966 425.839 329.837 425.288 329.556 424.776C329.275 424.259 328.862 423.839 328.318 423.516C327.774 423.187 327.121 423.008 326.36 422.978L322.068 422.807L321.828 428.871ZM322.141 420.968L326.059 421.123C326.694 421.149 327.273 421.046 327.794 420.817C328.32 420.588 328.743 420.252 329.062 419.81C329.386 419.368 329.561 418.84 329.585 418.227C329.616 417.46 329.375 416.8 328.862 416.245C328.35 415.684 327.515 415.381 326.356 415.335L322.371 415.177L322.141 420.968Z" fill="#1F2329" fill-opacity="0.3"/>
<path d="M337.093 428.385L343.797 418.518L346.113 418.61L345.594 431.69L343.584 431.61L343.986 421.493L337.316 431.362L334.966 431.269L335.485 418.188L337.495 418.268L337.093 428.385Z" fill="#1F2329" fill-opacity="0.3"/>
<path d="M347.73 435.528L347.953 429.907L349.043 429.951C349.321 429.683 349.562 429.391 349.768 429.075C349.974 428.759 350.157 428.383 350.316 427.946C350.482 427.503 350.628 426.963 350.756 426.325C350.884 425.682 351.006 424.905 351.121 423.994L351.77 418.834L360.081 419.164L359.637 430.371L361.646 430.451L361.423 436.071L359.414 435.992L359.562 432.244L349.888 431.861L349.739 435.608L347.73 435.528ZM351.325 430.041L357.627 430.291L357.997 420.958L353.569 420.782L353.097 424.073C352.901 425.435 352.677 426.623 352.427 427.637C352.176 428.651 351.809 429.452 351.325 430.041Z" fill="#1F2329" fill-opacity="0.3"/>
<path d="M369.713 432.92C368.453 432.87 367.377 432.549 366.485 431.956C365.599 431.358 364.929 430.547 364.474 429.522C364.026 428.492 363.829 427.307 363.882 425.968C363.935 424.628 364.226 423.457 364.755 422.454C365.29 421.446 366.008 420.673 366.911 420.134C367.82 419.59 368.865 419.342 370.045 419.389C370.727 419.416 371.395 419.556 372.05 419.809C372.705 420.063 373.295 420.456 373.82 420.988C374.345 421.515 374.753 422.202 375.043 423.05C375.334 423.897 375.455 424.931 375.406 426.152L375.373 427.004L365.29 426.603L365.359 424.866L373.398 425.185C373.427 424.447 373.306 423.783 373.033 423.192C372.767 422.601 372.37 422.128 371.844 421.771C371.324 421.415 370.7 421.223 369.974 421.194C369.173 421.162 368.473 421.333 367.872 421.708C367.278 422.076 366.812 422.57 366.474 423.188C366.137 423.805 365.954 424.475 365.926 425.196L365.88 426.354C365.84 427.342 365.978 428.186 366.291 428.886C366.61 429.581 367.069 430.12 367.668 430.502C368.267 430.878 368.973 431.083 369.785 431.115C370.313 431.136 370.793 431.081 371.224 430.95C371.662 430.814 372.043 430.602 372.367 430.313C372.691 430.019 372.948 429.648 373.136 429.201L375.056 429.823C374.826 430.473 374.459 431.039 373.957 431.519C373.455 431.994 372.843 432.356 372.122 432.606C371.402 432.851 370.599 432.955 369.713 432.92Z" fill="#1F2329" fill-opacity="0.3"/>
<path d="M383.501 433.467C382.32 433.42 381.295 433.098 380.426 432.501C379.562 431.904 378.901 431.09 378.441 430.059C377.988 429.029 377.787 427.839 377.841 426.487C377.895 425.125 378.189 423.945 378.724 422.949C379.264 421.952 379.987 421.19 380.895 420.664C381.809 420.137 382.856 419.897 384.037 419.944C385.218 419.991 386.24 420.313 387.104 420.91C387.973 421.507 388.634 422.324 389.088 423.36C389.547 424.396 389.749 425.595 389.695 426.958C389.642 428.309 389.345 429.48 388.805 430.471C388.271 431.462 387.548 432.22 386.634 432.747C385.726 433.274 384.682 433.514 383.501 433.467ZM383.572 431.662C384.469 431.697 385.216 431.497 385.814 431.06C386.411 430.623 386.864 430.035 387.172 429.297C387.48 428.559 387.651 427.752 387.686 426.878C387.72 426.004 387.614 425.183 387.365 424.417C387.117 423.651 386.713 423.024 386.152 422.535C385.591 422.047 384.863 421.785 383.966 421.749C383.069 421.714 382.321 421.917 381.724 422.36C381.126 422.802 380.673 423.396 380.365 424.14C380.057 424.884 379.886 425.693 379.851 426.567C379.816 427.441 379.923 428.259 380.172 429.019C380.42 429.78 380.825 430.401 381.385 430.884C381.946 431.367 382.675 431.626 383.572 431.662Z" fill="#1F2329" fill-opacity="0.3"/>
<path d="M172.227 311.541L176.136 311.696L175.234 334.433L183.869 334.776L184.771 312.038L188.68 312.193L187.778 334.931L196.388 335.273L197.29 312.535L201.186 312.69L200.148 338.851L171.189 337.702L172.227 311.541Z" fill="white"/>
<path d="M211.64 339.742C210.397 339.692 209.282 339.418 208.295 338.918C207.309 338.41 206.539 337.701 205.987 336.792C205.443 335.884 205.196 334.786 205.248 333.5C205.291 332.393 205.54 331.491 205.995 330.792C206.449 330.094 207.046 329.55 207.787 329.162C208.527 328.773 209.349 328.49 210.251 328.313C211.154 328.135 212.071 328.01 213.004 327.936C214.185 327.846 215.143 327.773 215.879 327.717C216.615 327.653 217.153 327.525 217.493 327.333C217.833 327.142 218.013 326.817 218.031 326.357L218.034 326.267C218.079 325.152 217.798 324.275 217.192 323.637C216.595 322.999 215.679 322.655 214.444 322.606C213.158 322.555 212.133 322.801 211.37 323.342C210.615 323.875 210.083 324.481 209.775 325.159L206.218 324.199C206.691 323.024 207.351 322.086 208.197 321.386C209.053 320.678 210.024 320.179 211.11 319.89C212.196 319.592 213.332 319.466 214.515 319.513C215.299 319.544 216.125 319.671 216.995 319.893C217.874 320.107 218.687 320.472 219.434 320.988C220.189 321.504 220.796 322.223 221.254 323.145C221.713 324.059 221.914 325.231 221.857 326.662L221.34 339.692L217.61 339.544L217.716 336.861L217.563 336.855C217.297 337.339 216.907 337.81 216.394 338.267C215.881 338.724 215.231 339.095 214.444 339.38C213.656 339.664 212.722 339.785 211.64 339.742ZM212.592 336.709C213.648 336.751 214.559 336.578 215.325 336.19C216.099 335.803 216.696 335.281 217.114 334.624C217.542 333.958 217.771 333.238 217.801 332.463L217.902 329.934C217.76 330.065 217.491 330.182 217.095 330.286C216.707 330.381 216.264 330.462 215.767 330.527C215.27 330.584 214.786 330.638 214.315 330.687C213.844 330.728 213.451 330.764 213.134 330.794C212.389 330.858 211.706 330.989 211.084 331.186C210.47 331.383 209.972 331.684 209.59 332.086C209.216 332.481 209.015 333.019 208.988 333.7C208.951 334.645 209.272 335.375 209.951 335.888C210.63 336.392 211.51 336.666 212.592 336.709Z" fill="white"/>
<path d="M242.633 313.566L244.121 316.044C243.512 316.557 242.828 316.913 242.07 317.114C241.32 317.306 240.459 317.412 239.486 317.433C238.513 317.446 237.4 317.449 236.146 317.442C234.731 317.428 233.556 317.689 232.622 318.223C231.689 318.749 230.953 319.556 230.415 320.643C229.886 321.722 229.516 323.089 229.306 324.744L229.548 324.754C230.235 323.561 231.157 322.685 232.314 322.126C233.479 321.566 234.773 321.315 236.195 321.371C237.779 321.434 239.174 321.852 240.38 322.625C241.586 323.398 242.515 324.496 243.166 325.921C243.827 327.338 244.117 329.051 244.037 331.061C243.956 333.096 243.512 334.84 242.704 336.292C241.904 337.744 240.811 338.848 239.425 339.603C238.048 340.35 236.443 340.688 234.612 340.615C232.782 340.542 231.201 340.066 229.871 339.186C228.55 338.297 227.548 337.021 226.863 335.356C226.187 333.692 225.897 331.659 225.992 329.257L226.069 327.315C226.247 322.827 227.182 319.483 228.873 317.281C230.563 315.079 233.003 314.012 236.19 314.078C237.221 314.094 238.141 314.126 238.95 314.175C239.758 314.216 240.467 314.205 241.075 314.144C241.692 314.075 242.211 313.882 242.633 313.566ZM234.752 337.409C235.817 337.451 236.743 337.219 237.531 336.713C238.327 336.199 238.954 335.452 239.411 334.472C239.868 333.492 240.123 332.325 240.177 330.971C240.229 329.643 240.066 328.506 239.685 327.561C239.305 326.617 238.737 325.886 237.981 325.37C237.226 324.845 236.307 324.562 235.226 324.519C234.425 324.487 233.704 324.599 233.063 324.855C232.422 325.102 231.865 325.486 231.392 326.004C230.928 326.523 230.557 327.165 230.28 327.93C230.011 328.687 229.848 329.564 229.791 330.559C229.711 332.586 230.111 334.218 230.992 335.456C231.881 336.694 233.134 337.345 234.752 337.409Z" fill="white"/>
<path d="M246.38 340.685L246.499 337.376L247.201 337.404C247.746 337.426 248.207 337.329 248.582 337.113C248.966 336.89 249.288 336.502 249.549 335.949C249.81 335.397 250.024 334.629 250.191 333.646C250.358 332.655 250.501 331.407 250.621 329.902L251.31 321.229L265.004 321.772L264.226 341.393L260.483 341.245L261.131 324.92L254.718 324.665L254.147 331.321C254.006 332.936 253.784 334.343 253.48 335.542C253.185 336.742 252.783 337.736 252.274 338.527C251.766 339.308 251.129 339.884 250.364 340.255C249.599 340.617 248.68 340.776 247.607 340.734L246.38 340.685Z" fill="white"/>
<path d="M277.568 342.319C275.729 342.246 274.14 341.761 272.803 340.864C271.465 339.966 270.447 338.744 269.75 337.198C269.052 335.653 268.743 333.866 268.824 331.839C268.904 329.804 269.354 328.039 270.172 326.545C270.991 325.051 272.102 323.909 273.507 323.12C274.911 322.332 276.533 321.974 278.373 322.047C280.212 322.12 281.801 322.605 283.138 323.503C284.476 324.4 285.494 325.626 286.191 327.18C286.888 328.735 287.197 330.53 287.116 332.565C287.036 334.592 286.586 336.348 285.768 337.834C284.95 339.32 283.839 340.457 282.434 341.246C281.03 342.034 279.408 342.392 277.568 342.319ZM277.708 339.114C278.901 339.161 279.901 338.885 280.709 338.286C281.518 337.687 282.13 336.871 282.547 335.838C282.971 334.806 283.209 333.66 283.259 332.399C283.308 331.147 283.162 329.99 282.821 328.928C282.488 327.857 281.943 326.986 281.184 326.317C280.426 325.647 279.451 325.288 278.259 325.241C277.058 325.193 276.049 325.473 275.232 326.08C274.423 326.688 273.806 327.512 273.381 328.553C272.964 329.586 272.732 330.728 272.682 331.98C272.632 333.24 272.773 334.401 273.107 335.464C273.448 336.526 273.998 337.388 274.757 338.05C275.524 338.711 276.508 339.066 277.708 339.114Z" fill="white"/>
<path d="M304.746 331.525L304.615 334.833L293.987 334.411L294.118 331.103L304.746 331.525ZM295.515 322.983L294.736 342.604L290.994 342.455L291.772 322.834L295.515 322.983ZM307.74 323.468L306.961 343.089L303.231 342.941L304.01 323.32L307.74 323.468Z" fill="white"/>
<path d="M315.456 330.529L321.153 330.756C323.555 330.851 325.379 331.52 326.626 332.764C327.873 334.007 328.459 335.57 328.385 337.452C328.336 338.679 328.003 339.77 327.385 340.726C326.767 341.683 325.889 342.424 324.751 342.95C323.613 343.468 322.243 343.695 320.642 343.632L312.071 343.292L312.849 323.671L316.592 323.819L315.944 340.144L320.773 340.336C321.872 340.38 322.786 340.13 323.515 339.588C324.245 339.037 324.627 338.314 324.663 337.42C324.7 336.475 324.378 335.69 323.694 335.066C323.012 334.433 322.121 334.095 321.022 334.051L315.325 333.825L315.456 330.529ZM330.913 344.039L331.691 324.418L335.51 324.57L334.732 344.191L330.913 344.039Z" fill="white"/>
<path d="M22.9286 76.6185C24.4613 37.9889 57.0193 7.91603 95.6488 9.44877L435.381 22.9286C474.011 24.4614 504.084 57.0193 502.551 95.6489L489.071 435.382C487.539 474.011 454.981 504.084 416.351 502.551L76.6184 489.071C37.9889 487.539 7.91599 454.981 9.44873 416.351L22.9286 76.6185Z" fill="#1F2329"/>
<path d="M42.9129 77.4114C44.0077 49.8189 67.2634 28.3382 94.8559 29.433L434.589 42.9129C462.181 44.0077 483.662 67.2634 482.567 94.8559L478.602 194.777C477.507 222.37 454.252 243.85 426.659 242.756L86.9266 229.276C59.334 228.181 37.8534 204.925 38.9482 177.333L42.9129 77.4114Z" fill="#2A2F36"/>
<path d="M58.3367 171.208C59.0373 153.549 73.921 139.801 91.5802 140.502L218.784 145.549C236.444 146.249 250.191 161.133 249.491 178.792L249.385 181.457C248.684 199.116 233.801 212.864 216.141 212.163L88.9371 207.116C71.2779 206.415 57.5302 191.532 58.2309 173.872L58.3367 171.208Z" fill="white"/>
<path d="M268.606 179.551C269.307 161.892 284.191 148.144 301.85 148.845L429.054 153.892C446.713 154.593 460.461 169.476 459.76 187.135L459.654 189.8C458.954 207.459 444.07 221.207 426.411 220.506L299.207 215.459C281.547 214.758 267.8 199.875 268.501 182.215L268.606 179.551Z" fill="white"/>
<path d="M133.616 167.703L136.375 167.813C137.669 167.864 138.807 168.199 139.789 168.818C140.771 169.437 141.528 170.275 142.061 171.331C142.593 172.387 142.832 173.596 142.778 174.959C142.724 176.321 142.39 177.511 141.775 178.527C141.161 179.543 140.339 180.324 139.311 180.869C138.283 181.413 137.122 181.66 135.827 181.609L133.068 181.499C131.774 181.448 130.636 181.113 129.654 180.494C128.672 179.875 127.915 179.037 127.382 177.981C126.85 176.925 126.611 175.716 126.665 174.354C126.719 172.991 127.053 171.802 127.668 170.785C128.282 169.769 129.104 168.989 130.132 168.444C131.16 167.899 132.321 167.652 133.616 167.703ZM133.541 169.577C132.554 169.538 131.711 169.712 131.013 170.099C130.321 170.487 129.784 171.051 129.402 171.792C129.026 172.534 128.817 173.415 128.777 174.437C128.737 175.448 128.875 176.335 129.191 177.098C129.514 177.861 130.004 178.464 130.664 178.905C131.328 179.346 132.155 179.587 133.143 179.626L135.902 179.735C136.89 179.775 137.73 179.6 138.422 179.213C139.119 178.825 139.656 178.261 140.033 177.52C140.415 176.778 140.626 175.897 140.666 174.875C140.707 173.864 140.565 172.977 140.243 172.214C139.927 171.451 139.436 170.849 138.771 170.407C138.112 169.966 137.288 169.726 136.301 169.686L133.541 169.577ZM136.163 165.416L135.43 183.879L133.318 183.795L134.051 165.332L136.163 165.416Z" fill="#1F2329" fill-opacity="0.3"/>
<path d="M151.011 184.054C149.83 184.007 148.805 183.685 147.936 183.087C147.073 182.49 146.411 181.676 145.952 180.646C145.498 179.616 145.298 178.425 145.351 177.074C145.405 175.711 145.7 174.532 146.234 173.535C146.774 172.539 147.498 171.777 148.406 171.25C149.319 170.723 150.367 170.483 151.548 170.53C152.728 170.577 153.751 170.899 154.614 171.496C155.483 172.094 156.144 172.91 156.598 173.946C157.057 174.982 157.26 176.182 157.206 177.544C157.152 178.895 156.855 180.066 156.316 181.057C155.782 182.048 155.058 182.807 154.144 183.334C153.236 183.861 152.192 184.101 151.011 184.054ZM151.083 182.248C151.98 182.284 152.727 182.083 153.324 181.646C153.921 181.209 154.374 180.622 154.682 179.883C154.99 179.145 155.161 178.339 155.196 177.464C155.231 176.59 155.124 175.77 154.876 175.004C154.627 174.238 154.223 173.61 153.662 173.122C153.102 172.633 152.373 172.371 151.476 172.336C150.579 172.3 149.832 172.504 149.234 172.946C148.636 173.389 148.184 173.982 147.875 174.726C147.567 175.47 147.396 176.279 147.361 177.154C147.327 178.028 147.433 178.845 147.682 179.606C147.93 180.366 148.335 180.988 148.896 181.471C149.457 181.953 150.186 182.213 151.083 182.248Z" fill="#1F2329" fill-opacity="0.3"/>
<path d="M158.752 172.863L158.826 170.99L169.454 171.411L169.38 173.285L165.088 173.115L164.643 184.322L162.633 184.242L163.078 173.035L158.752 172.863Z" fill="#1F2329" fill-opacity="0.3"/>
<path d="M176.491 185.065C175.31 185.018 174.285 184.696 173.416 184.098C172.553 183.501 171.891 182.687 171.432 181.657C170.978 180.627 170.778 179.436 170.831 178.085C170.885 176.722 171.18 175.543 171.714 174.546C172.254 173.55 172.978 172.788 173.886 172.261C174.799 171.734 175.847 171.494 177.027 171.541C178.208 171.588 179.231 171.91 180.094 172.507C180.963 173.105 181.624 173.921 182.078 174.957C182.537 175.993 182.74 177.193 182.686 178.555C182.632 179.906 182.335 181.077 181.796 182.068C181.262 183.059 180.538 183.818 179.624 184.345C178.716 184.872 177.672 185.112 176.491 185.065ZM176.563 183.259C177.46 183.295 178.207 183.094 178.804 182.657C179.401 182.22 179.854 181.633 180.162 180.894C180.47 180.156 180.641 179.35 180.676 178.475C180.711 177.601 180.604 176.781 180.356 176.015C180.107 175.249 179.703 174.621 179.142 174.133C178.582 173.644 177.853 173.382 176.956 173.347C176.059 173.311 175.312 173.515 174.714 173.957C174.116 174.4 173.664 174.993 173.355 175.737C173.047 176.481 172.876 177.29 172.841 178.165C172.806 179.039 172.913 179.856 173.162 180.617C173.41 181.377 173.815 181.999 174.376 182.482C174.937 182.964 175.666 183.224 176.563 183.259Z" fill="#1F2329" fill-opacity="0.3"/>
<path d="M329.156 190.849L329.848 173.408L335.946 173.65C337.161 173.699 338.155 173.948 338.927 174.4C339.7 174.846 340.265 175.428 340.623 176.147C340.982 176.861 341.144 177.644 341.11 178.495C341.08 179.245 340.922 179.858 340.636 180.336C340.356 180.814 339.994 181.186 339.551 181.453C339.114 181.72 338.643 181.911 338.138 182.028L338.132 182.198C338.664 182.253 339.193 182.462 339.719 182.824C340.245 183.186 340.677 183.692 341.015 184.343C341.353 184.993 341.504 185.778 341.467 186.698C341.432 187.572 341.203 188.35 340.777 189.033C340.352 189.715 339.703 190.244 338.829 190.619C337.956 190.994 336.832 191.154 335.458 191.099L329.156 190.849ZM331.343 189.059L335.533 189.226C336.912 189.28 337.902 189.052 338.502 188.542C339.109 188.026 339.427 187.384 339.457 186.618C339.481 186.027 339.352 185.476 339.071 184.965C338.79 184.448 338.377 184.028 337.833 183.705C337.289 183.376 336.636 183.197 335.875 183.166L331.583 182.996L331.343 189.059ZM331.656 181.157L335.574 181.312C336.21 181.337 336.788 181.235 337.309 181.006C337.835 180.776 338.258 180.44 338.577 179.998C338.902 179.556 339.076 179.029 339.1 178.415C339.131 177.649 338.89 176.988 338.377 176.434C337.865 175.873 337.03 175.57 335.872 175.524L331.886 175.366L331.656 181.157Z" fill="#1F2329" fill-opacity="0.3"/>
<path d="M346.608 188.573L353.312 178.706L355.628 178.798L355.109 191.879L353.099 191.799L353.501 181.682L346.831 191.55L344.481 191.457L345 178.377L347.01 178.456L346.608 188.573Z" fill="#1F2329" fill-opacity="0.3"/>
<path d="M357.245 195.717L357.468 190.096L358.558 190.139C358.836 189.872 359.078 189.58 359.283 189.264C359.489 188.948 359.672 188.571 359.832 188.134C359.997 187.692 360.143 187.152 360.271 186.514C360.399 185.871 360.521 185.094 360.637 184.183L361.285 179.023L369.596 179.353L369.152 190.56L371.162 190.639L370.939 196.26L368.929 196.18L369.077 192.433L359.403 192.049L359.255 195.796L357.245 195.717ZM360.84 190.23L367.142 190.48L367.512 181.146L363.084 180.971L362.612 184.261C362.416 185.624 362.193 186.812 361.942 187.826C361.691 188.839 361.324 189.641 360.84 190.23Z" fill="#1F2329" fill-opacity="0.3"/>
<path d="M379.228 193.109C377.968 193.059 376.892 192.738 376 192.145C375.114 191.547 374.444 190.735 373.99 189.711C373.542 188.681 373.344 187.496 373.397 186.156C373.45 184.816 373.741 183.645 374.27 182.643C374.805 181.635 375.524 180.861 376.426 180.323C377.335 179.779 378.38 179.53 379.561 179.577C380.242 179.604 380.91 179.745 381.565 179.998C382.221 180.251 382.811 180.645 383.335 181.177C383.86 181.704 384.268 182.391 384.559 183.239C384.849 184.086 384.97 185.12 384.922 186.341L384.888 187.192L374.805 186.792L374.874 185.055L382.913 185.374C382.942 184.636 382.821 183.971 382.549 183.381C382.282 182.79 381.886 182.317 381.36 181.96C380.839 181.604 380.216 181.412 379.489 181.383C378.688 181.351 377.988 181.522 377.387 181.896C376.793 182.265 376.327 182.758 375.99 183.376C375.652 183.994 375.469 184.663 375.441 185.384L375.395 186.543C375.356 187.53 375.493 188.375 375.806 189.075C376.125 189.77 376.585 190.309 377.183 190.691C377.783 191.067 378.488 191.271 379.3 191.303C379.828 191.324 380.308 191.27 380.74 191.139C381.177 191.003 381.558 190.79 381.882 190.502C382.207 190.208 382.463 189.837 382.651 189.389L384.571 190.011C384.341 190.662 383.974 191.227 383.472 191.708C382.97 192.183 382.358 192.545 381.638 192.795C380.917 193.039 380.114 193.144 379.228 193.109Z" fill="#1F2329" fill-opacity="0.3"/>
<path d="M393.016 193.656C391.835 193.609 390.81 193.287 389.941 192.69C389.078 192.092 388.416 191.279 387.957 190.248C387.503 189.218 387.303 188.027 387.356 186.676C387.41 185.313 387.705 184.134 388.239 183.137C388.779 182.141 389.503 181.379 390.411 180.852C391.324 180.326 392.372 180.086 393.552 180.132C394.733 180.179 395.755 180.501 396.619 181.099C397.488 181.696 398.149 182.513 398.603 183.548C399.062 184.585 399.265 185.784 399.211 187.146C399.157 188.498 398.86 189.669 398.321 190.659C397.787 191.65 397.063 192.409 396.149 192.936C395.241 193.463 394.197 193.703 393.016 193.656ZM393.087 191.851C393.985 191.886 394.732 191.685 395.329 191.249C395.926 190.812 396.379 190.224 396.687 189.486C396.995 188.747 397.166 187.941 397.201 187.067C397.236 186.192 397.129 185.372 396.881 184.606C396.632 183.84 396.228 183.213 395.667 182.724C395.107 182.236 394.378 181.973 393.481 181.938C392.584 181.902 391.836 182.106 391.239 182.548C390.641 182.991 390.189 183.584 389.88 184.328C389.572 185.072 389.401 185.881 389.366 186.756C389.331 187.63 389.438 188.447 389.687 189.208C389.935 189.968 390.34 190.59 390.901 191.073C391.462 191.556 392.19 191.815 393.087 191.851Z" fill="#1F2329" fill-opacity="0.3"/>
<path d="M33.3977 317.223C34.4925 289.63 57.7482 268.15 85.3407 269.244L425.073 282.724C452.666 283.819 474.147 307.075 473.052 334.667L469.087 434.589C467.992 462.181 444.737 483.662 417.144 482.567L77.4114 469.087C49.8188 467.992 28.3382 444.737 29.433 417.144L33.3977 317.223Z" fill="#2A2F36"/>
<path d="M172.227 311.541L176.136 311.696L175.234 334.433L183.869 334.776L184.771 312.038L188.68 312.193L187.778 334.931L196.388 335.273L197.29 312.535L201.186 312.69L200.148 338.851L171.189 337.702L172.227 311.541Z" fill="white"/>
<path d="M211.64 339.742C210.397 339.692 209.282 339.418 208.295 338.918C207.309 338.41 206.539 337.701 205.987 336.792C205.443 335.884 205.196 334.786 205.248 333.5C205.291 332.393 205.54 331.491 205.995 330.792C206.449 330.094 207.046 329.55 207.787 329.162C208.527 328.773 209.349 328.49 210.251 328.313C211.154 328.135 212.071 328.01 213.004 327.936C214.185 327.846 215.143 327.773 215.879 327.717C216.615 327.653 217.153 327.525 217.493 327.333C217.833 327.142 218.013 326.817 218.031 326.357L218.034 326.267C218.079 325.152 217.798 324.275 217.192 323.637C216.595 322.999 215.679 322.655 214.444 322.606C213.158 322.555 212.133 322.801 211.37 323.342C210.615 323.875 210.083 324.481 209.775 325.159L206.218 324.199C206.691 323.024 207.351 322.086 208.197 321.386C209.053 320.678 210.024 320.179 211.11 319.89C212.196 319.592 213.332 319.466 214.515 319.513C215.299 319.544 216.125 319.671 216.995 319.893C217.874 320.107 218.687 320.472 219.434 320.988C220.189 321.504 220.796 322.223 221.254 323.145C221.713 324.059 221.914 325.231 221.857 326.662L221.34 339.692L217.61 339.544L217.716 336.861L217.563 336.855C217.297 337.339 216.907 337.81 216.394 338.267C215.881 338.724 215.231 339.095 214.444 339.38C213.656 339.664 212.722 339.785 211.64 339.742ZM212.592 336.709C213.648 336.751 214.559 336.578 215.325 336.19C216.099 335.803 216.696 335.281 217.114 334.624C217.542 333.958 217.771 333.238 217.801 332.463L217.902 329.934C217.76 330.065 217.491 330.182 217.095 330.286C216.707 330.381 216.264 330.462 215.767 330.527C215.27 330.584 214.786 330.638 214.315 330.687C213.844 330.728 213.451 330.764 213.134 330.794C212.389 330.858 211.706 330.989 211.084 331.186C210.47 331.383 209.972 331.684 209.59 332.086C209.216 332.481 209.015 333.019 208.988 333.7C208.951 334.645 209.272 335.375 209.951 335.888C210.63 336.392 211.51 336.666 212.592 336.709Z" fill="white"/>
<path d="M242.633 313.566L244.121 316.044C243.512 316.557 242.828 316.913 242.07 317.114C241.32 317.306 240.459 317.412 239.486 317.433C238.513 317.446 237.4 317.449 236.146 317.442C234.731 317.428 233.556 317.689 232.622 318.223C231.689 318.749 230.953 319.556 230.415 320.643C229.886 321.722 229.516 323.089 229.306 324.744L229.548 324.754C230.235 323.561 231.157 322.685 232.314 322.126C233.479 321.566 234.773 321.315 236.195 321.371C237.779 321.434 239.174 321.852 240.38 322.625C241.586 323.398 242.515 324.496 243.166 325.921C243.827 327.338 244.117 329.051 244.037 331.061C243.956 333.096 243.512 334.84 242.704 336.292C241.904 337.744 240.811 338.848 239.425 339.603C238.048 340.35 236.443 340.688 234.612 340.615C232.782 340.542 231.201 340.066 229.871 339.186C228.55 338.297 227.548 337.021 226.863 335.356C226.187 333.692 225.897 331.659 225.992 329.257L226.069 327.315C226.247 322.827 227.182 319.483 228.873 317.281C230.563 315.079 233.003 314.012 236.19 314.078C237.221 314.094 238.141 314.126 238.95 314.175C239.758 314.216 240.467 314.205 241.075 314.144C241.692 314.075 242.211 313.882 242.633 313.566ZM234.752 337.409C235.817 337.451 236.743 337.219 237.531 336.713C238.327 336.199 238.954 335.452 239.411 334.472C239.868 333.492 240.123 332.325 240.177 330.971C240.229 329.643 240.066 328.506 239.685 327.561C239.305 326.617 238.737 325.886 237.981 325.37C237.226 324.845 236.307 324.562 235.226 324.519C234.425 324.487 233.704 324.599 233.063 324.855C232.422 325.102 231.865 325.486 231.392 326.004C230.928 326.523 230.557 327.165 230.28 327.93C230.011 328.687 229.848 329.564 229.791 330.559C229.711 332.586 230.111 334.218 230.992 335.456C231.881 336.694 233.134 337.345 234.752 337.409Z" fill="white"/>
<path d="M246.38 340.685L246.499 337.376L247.201 337.404C247.746 337.426 248.207 337.329 248.582 337.113C248.966 336.89 249.288 336.502 249.549 335.949C249.81 335.397 250.024 334.629 250.191 333.646C250.358 332.655 250.501 331.407 250.621 329.902L251.31 321.229L265.004 321.772L264.226 341.393L260.483 341.245L261.131 324.92L254.718 324.665L254.147 331.321C254.006 332.936 253.784 334.343 253.48 335.542C253.185 336.742 252.783 337.736 252.274 338.527C251.766 339.308 251.129 339.884 250.364 340.255C249.599 340.617 248.68 340.776 247.607 340.734L246.38 340.685Z" fill="white"/>
<path d="M277.568 342.319C275.729 342.246 274.14 341.761 272.803 340.864C271.465 339.966 270.447 338.744 269.75 337.198C269.052 335.653 268.743 333.866 268.824 331.839C268.904 329.804 269.354 328.039 270.172 326.545C270.991 325.051 272.102 323.909 273.507 323.12C274.911 322.332 276.533 321.974 278.373 322.047C280.212 322.12 281.801 322.605 283.138 323.503C284.476 324.4 285.494 325.626 286.191 327.18C286.888 328.735 287.197 330.53 287.116 332.565C287.036 334.592 286.586 336.348 285.768 337.834C284.95 339.32 283.839 340.457 282.434 341.246C281.03 342.034 279.408 342.392 277.568 342.319ZM277.708 339.114C278.901 339.161 279.901 338.885 280.709 338.286C281.518 337.687 282.13 336.871 282.547 335.838C282.971 334.806 283.209 333.66 283.259 332.399C283.308 331.147 283.162 329.99 282.821 328.928C282.488 327.857 281.943 326.986 281.184 326.317C280.426 325.647 279.451 325.288 278.259 325.241C277.058 325.193 276.049 325.473 275.232 326.08C274.423 326.688 273.806 327.512 273.381 328.553C272.964 329.586 272.732 330.728 272.682 331.98C272.632 333.24 272.773 334.401 273.107 335.464C273.448 336.526 273.998 337.388 274.757 338.05C275.524 338.711 276.508 339.066 277.708 339.114Z" fill="white"/>
<path d="M304.746 331.525L304.615 334.833L293.987 334.411L294.118 331.103L304.746 331.525ZM295.515 322.983L294.736 342.604L290.994 342.455L291.772 322.834L295.515 322.983ZM307.74 323.468L306.961 343.089L303.231 342.941L304.01 323.32L307.74 323.468Z" fill="white"/>
<path d="M315.456 330.529L321.153 330.756C323.555 330.851 325.379 331.52 326.626 332.764C327.873 334.007 328.459 335.57 328.385 337.452C328.336 338.679 328.003 339.77 327.385 340.726C326.767 341.683 325.889 342.424 324.751 342.95C323.613 343.468 322.243 343.695 320.642 343.632L312.071 343.292L312.849 323.671L316.592 323.819L315.944 340.144L320.773 340.336C321.872 340.38 322.786 340.13 323.515 339.588C324.245 339.037 324.627 338.314 324.663 337.42C324.7 336.475 324.378 335.69 323.694 335.066C323.012 334.433 322.121 334.095 321.022 334.051L315.325 333.825L315.456 330.529ZM330.913 344.039L331.691 324.418L335.51 324.57L334.732 344.191L330.913 344.039Z" fill="white"/>
<path d="M48.8215 411.019C49.5221 393.36 64.4058 379.612 82.065 380.313L209.269 385.36C226.928 386.061 240.676 400.944 239.975 418.604L239.87 421.268C239.169 438.927 224.285 452.675 206.626 451.974L79.4219 446.927C61.7627 446.226 48.0151 431.343 48.7157 413.684L48.8215 411.019Z" fill="#10B981"/>
<path d="M153.221 78.7858L150.053 78.6601C149.902 77.7415 149.606 76.928 149.165 76.2196C148.732 75.5115 148.193 74.9101 147.547 74.4154C146.911 73.9125 146.197 73.5259 145.406 73.2557C144.615 72.9855 143.785 72.8332 142.916 72.7987C141.332 72.7358 139.881 73.0792 138.564 73.8287C137.254 74.5785 136.19 75.7176 135.37 77.2459C134.559 78.7746 134.108 80.6716 134.018 82.9369C133.929 85.2021 134.227 87.1288 134.915 88.717C135.611 90.3055 136.582 91.5254 137.828 92.3766C139.082 93.2281 140.501 93.6853 142.085 93.7481C142.953 93.7826 143.793 93.6965 144.603 93.4898C145.413 93.2831 146.155 92.9586 146.829 92.5162C147.512 92.0657 148.098 91.5046 148.585 90.8331C149.081 90.1533 149.44 89.3659 149.664 88.4706L152.832 88.5963C152.54 89.9238 152.058 91.1031 151.386 92.1341C150.714 93.1651 149.895 94.0324 148.929 94.7362C147.963 95.4314 146.889 95.9474 145.707 96.2844C144.534 96.6216 143.287 96.7641 141.967 96.7117C139.736 96.6232 137.773 95.9994 136.079 94.8404C134.385 93.6814 133.08 92.0773 132.163 90.028C131.247 87.9787 130.843 85.5744 130.953 82.8152C131.062 80.056 131.655 77.6913 132.731 75.7211C133.807 73.7508 135.236 72.2551 137.016 71.234C138.797 70.2129 140.802 69.7466 143.034 69.8351C144.354 69.8875 145.585 70.1283 146.728 70.5574C147.88 70.987 148.909 71.5907 149.816 72.3688C150.724 73.1384 151.472 74.0636 152.06 75.1446C152.649 76.2171 153.036 77.4308 153.221 78.7858Z" fill="white" fill-opacity="0.3"/>
<path d="M165.172 97.6836C163.401 97.6133 161.864 97.1301 160.56 96.234C159.265 95.3382 158.273 94.1175 157.584 92.5719C156.903 91.0266 156.603 89.2406 156.683 87.2138C156.764 85.17 157.205 83.4006 158.007 81.9056C158.817 80.4109 159.903 79.2684 161.265 78.4781C162.635 77.688 164.206 77.3282 165.977 77.3984C167.749 77.4687 169.282 77.9518 170.577 78.8476C171.88 79.7437 172.872 80.9686 173.553 82.5224C174.242 84.0765 174.546 85.8755 174.465 87.9193C174.384 89.9461 173.939 91.7026 173.13 93.1887C172.329 94.6752 171.243 95.8134 169.872 96.6035C168.51 97.3938 166.944 97.7539 165.172 97.6836ZM165.28 94.9755C166.625 95.0289 167.746 94.7279 168.642 94.0726C169.538 93.4173 170.217 92.5358 170.679 91.4283C171.141 90.3207 171.398 89.1112 171.45 87.7997C171.502 86.4882 171.342 85.2579 170.969 84.1087C170.597 82.9595 169.99 82.0186 169.15 81.2858C168.309 80.553 167.215 80.1599 165.87 80.1065C164.524 80.0531 163.403 80.3584 162.507 81.0222C161.611 81.6861 160.931 82.576 160.469 83.6921C160.007 84.8082 159.75 86.0219 159.698 87.3334C159.646 88.6449 159.806 89.871 160.179 91.0116C160.551 92.1523 161.158 93.0848 162 93.809C162.841 94.5333 163.934 94.9221 165.28 94.9755Z" fill="white" fill-opacity="0.3"/>
<path d="M194.314 71.4092L195.774 73.3095C195.155 73.8649 194.449 74.2421 193.656 74.4409C192.864 74.6398 191.973 74.7452 190.983 74.7571C189.993 74.769 188.892 74.7765 187.681 74.7796C186.316 74.7766 185.175 75.064 184.256 75.6416C183.338 76.2193 182.613 77.0776 182.081 78.2165C181.55 79.3555 181.183 80.7653 180.98 82.4461L181.235 82.4562C181.948 81.2562 182.904 80.39 184.102 79.8576C185.3 79.3251 186.572 79.0856 187.917 79.139C189.45 79.1998 190.816 79.6122 192.014 80.3762C193.212 81.1402 194.14 82.239 194.8 83.6725C195.459 85.106 195.748 86.8532 195.667 88.9141C195.585 90.9665 195.149 92.7233 194.357 94.1845C193.574 95.6461 192.511 96.7554 191.167 97.5124C189.833 98.2612 188.288 98.6008 186.534 98.5312C184.78 98.4616 183.259 97.9876 181.972 97.1091C180.685 96.2222 179.707 94.9466 179.04 93.2825C178.373 91.6099 178.087 89.5642 178.183 87.1457L178.266 85.0508C178.44 80.682 179.312 77.3987 180.883 75.2007C182.463 73.0031 184.749 71.9253 187.741 71.9673C188.799 71.9751 189.74 72.0039 190.565 72.0537C191.391 72.1035 192.112 72.0938 192.729 72.0244C193.346 71.9551 193.874 71.75 194.314 71.4092ZM186.641 95.8231C187.825 95.87 188.854 95.6124 189.73 95.05C190.613 94.488 191.307 93.6754 191.81 92.6121C192.313 91.5403 192.593 90.2678 192.652 88.7945C192.709 87.3638 192.523 86.1367 192.094 85.1132C191.674 84.0901 191.045 83.2975 190.206 82.7354C189.366 82.1732 188.346 81.8684 187.146 81.8207C186.269 81.7859 185.475 81.9037 184.765 82.174C184.055 82.4444 183.441 82.8593 182.924 83.4188C182.407 83.9783 181.996 84.6699 181.69 85.4937C181.393 86.3178 181.215 87.266 181.155 88.3383C181.068 90.5355 181.514 92.3145 182.492 93.6753C183.47 95.0362 184.853 95.7521 186.641 95.8231Z" fill="white" fill-opacity="0.3"/>
<path d="M199.607 106.01L200.677 79.0311L203.59 79.1467L203.466 82.2636L203.824 82.2778C204.059 81.9459 204.383 81.5238 204.795 81.0113C205.217 80.4907 205.806 80.0364 206.564 79.6485C207.33 79.2525 208.352 79.0798 209.629 79.1305C211.281 79.196 212.721 79.6668 213.949 80.5429C215.177 81.4189 216.114 82.6289 216.76 84.1728C217.407 85.7167 217.689 87.5191 217.608 89.58C217.525 91.6579 217.1 93.445 216.333 94.9413C215.566 96.4291 214.54 97.5655 213.255 98.3504C211.971 99.1268 210.511 99.4825 208.876 99.4177C207.615 99.3676 206.614 99.119 205.873 98.6716C205.132 98.2157 204.568 97.7114 204.18 97.1587C203.793 96.5975 203.496 96.1336 203.289 95.7671L203.033 95.757L202.622 106.13L199.607 106.01ZM203.252 88.9592C203.193 90.441 203.358 91.7568 203.748 92.9067C204.137 94.048 204.737 94.9546 205.546 95.6264C206.356 96.2897 207.365 96.6454 208.574 96.6933C209.835 96.7433 210.9 96.453 211.769 95.8222C212.647 95.1832 213.322 94.3058 213.793 93.1901C214.272 92.0662 214.54 90.8059 214.595 89.4093C214.65 88.0297 214.486 86.7779 214.104 85.6539C213.731 84.5218 213.132 83.6152 212.306 82.9342C211.489 82.245 210.442 81.875 209.164 81.8244C207.938 81.7757 206.895 82.0456 206.036 82.6342C205.177 83.2142 204.513 84.0494 204.043 85.1396C203.574 86.2212 203.31 87.4944 203.252 88.9592Z" fill="white" fill-opacity="0.3"/>
<path d="M227.575 100.211C226.331 100.161 225.212 99.8825 224.218 99.3739C223.223 98.8568 222.445 98.1393 221.885 97.2215C221.325 96.2951 221.07 95.1932 221.12 93.9158C221.165 92.7917 221.423 91.8893 221.893 91.2086C222.364 90.5193 222.978 89.9892 223.735 89.6184C224.491 89.2475 225.321 88.9819 226.223 88.8215C227.133 88.6529 228.047 88.5271 228.963 88.4441C230.161 88.3381 231.132 88.2615 231.876 88.2142C232.629 88.1588 233.18 88.0399 233.528 87.8575C233.885 87.6755 234.073 87.3418 234.092 86.8564L234.096 86.7542C234.146 85.4938 233.84 84.5008 233.178 83.7751C232.525 83.0498 231.504 82.6596 230.116 82.6045C228.676 82.5474 227.536 82.8177 226.693 83.4155C225.851 84.0132 225.249 84.6632 224.888 85.3653L222.068 84.2299C222.626 83.0579 223.344 82.1567 224.222 81.5262C225.109 80.8876 226.064 80.4564 227.088 80.2326C228.121 80.0006 229.131 79.9042 230.119 79.9434C230.749 79.9684 231.47 80.0738 232.281 80.2595C233.102 80.4371 233.886 80.771 234.634 81.2613C235.391 81.7519 236.006 82.4714 236.48 83.42C236.955 84.3685 237.161 85.622 237.099 87.1804L236.586 100.108L233.571 99.9881L233.677 97.3311L233.523 97.325C233.302 97.7427 232.943 98.1848 232.447 98.6513C231.951 99.1178 231.3 99.5056 230.495 99.8149C229.689 100.124 228.716 100.256 227.575 100.211ZM228.142 97.5209C229.334 97.5682 230.349 97.3739 231.185 96.938C232.029 96.5024 232.675 95.9224 233.122 95.1981C233.577 94.4741 233.821 93.7033 233.853 92.8857L233.963 90.1266C233.829 90.2748 233.542 90.4041 233.103 90.5146C232.672 90.617 232.174 90.7038 231.608 90.7752C231.051 90.8384 230.508 90.8936 229.977 90.9408C229.455 90.9798 229.031 91.0141 228.706 91.0439C227.919 91.115 227.18 91.252 226.489 91.4549C225.808 91.6496 225.249 91.9644 224.814 92.3992C224.388 92.8258 224.159 93.4223 224.129 94.1887C224.087 95.2362 224.443 96.0436 225.197 96.6108C225.96 97.1699 226.941 97.4733 228.142 97.5209Z" fill="white" fill-opacity="0.3"/>
<path d="M240.086 83.4095L240.197 80.5992L256.139 81.2317L256.028 84.042L249.589 83.7866L248.922 100.597L245.908 100.478L246.575 83.667L240.086 83.4095Z" fill="white" fill-opacity="0.3"/>
<path d="M262.861 88.612L268.481 88.835C270.781 88.9262 272.516 89.5794 273.687 90.7944C274.859 92.0094 275.409 93.5111 275.338 95.2994C275.292 96.4747 274.977 97.5326 274.394 98.4733C273.811 99.4055 272.98 100.136 271.901 100.665C270.823 101.185 269.517 101.414 267.985 101.354L259.758 101.027L260.537 81.4062L263.551 81.5258L262.884 98.3365L268.096 98.5433C269.288 98.5906 270.28 98.3143 271.072 97.7146C271.863 97.1148 272.278 96.321 272.318 95.3331C272.359 94.2942 272.009 93.4316 271.269 92.7455C270.528 92.0593 269.562 91.6926 268.37 91.6453L262.749 91.4223L262.861 88.612Z" fill="white" fill-opacity="0.3"/>
<path d="M289.793 102.219L290.572 82.5979L306.003 83.2102L305.224 102.831L302.209 102.712L302.876 85.9009L293.475 85.5278L292.808 102.338L289.793 102.219Z" fill="white" fill-opacity="0.3"/>
<path d="M310.438 110.407L311.508 83.4287L314.421 83.5442L314.297 86.6611L314.655 86.6753C314.89 86.3434 315.213 85.9213 315.626 85.4088C316.048 84.8882 316.637 84.4339 317.395 84.0461C318.161 83.65 319.183 83.4773 320.46 83.528C322.112 83.5935 323.552 84.0643 324.78 84.9404C326.007 85.8165 326.944 87.0264 327.591 88.5703C328.238 90.1142 328.52 91.9166 328.438 93.9775C328.356 96.0554 327.931 97.8425 327.164 99.3389C326.397 100.827 325.371 101.963 324.086 102.748C322.801 103.524 321.341 103.88 319.706 103.815C318.446 103.765 317.445 103.516 316.704 103.069C315.963 102.613 315.398 102.109 315.011 101.556C314.624 100.995 314.327 100.531 314.119 100.165L313.864 100.155L313.452 110.527L310.438 110.407ZM314.082 93.3567C314.024 94.8385 314.189 96.1543 314.578 97.3042C314.968 98.4456 315.568 99.3521 316.377 100.024C317.186 100.687 318.196 101.043 319.405 101.091C320.665 101.141 321.73 100.85 322.6 100.22C323.478 99.5807 324.153 98.7034 324.623 97.5876C325.103 96.4637 325.37 95.2034 325.426 93.8068C325.481 92.4272 325.317 91.1754 324.935 90.0514C324.562 88.9193 323.963 88.0127 323.137 87.3317C322.32 86.6425 321.272 86.2726 319.995 86.2219C318.769 86.1732 317.726 86.4432 316.867 87.0317C316.008 87.6118 315.343 88.4469 314.874 89.5371C314.404 90.6188 314.141 91.892 314.082 93.3567Z" fill="white" fill-opacity="0.3"/>
<path d="M340.605 104.644C338.833 104.574 337.296 104.091 335.992 103.195C334.697 102.299 333.705 101.078 333.016 99.5327C332.335 97.9874 332.035 96.2014 332.115 94.1746C332.196 92.1307 332.638 90.3613 333.439 88.8664C334.249 87.3717 335.335 86.2292 336.697 85.4388C338.067 84.6488 339.638 84.2889 341.41 84.3592C343.181 84.4295 344.714 84.9125 346.009 85.8083C347.313 86.7045 348.305 87.9294 348.985 89.4832C349.674 91.0373 349.978 92.8363 349.897 94.8801C349.816 96.9069 349.371 98.6634 348.562 100.15C347.761 101.636 346.675 102.774 345.305 103.564C343.943 104.355 342.376 104.715 340.605 104.644ZM340.712 101.936C342.058 101.99 343.178 101.689 344.074 101.033C344.97 100.378 345.649 99.4966 346.111 98.389C346.573 97.2815 346.83 96.072 346.882 94.7605C346.934 93.449 346.774 92.2187 346.402 91.0695C346.029 89.9203 345.423 88.9793 344.582 88.2466C343.741 87.5138 342.648 87.1207 341.302 87.0673C339.957 87.0139 338.836 87.3191 337.939 87.983C337.043 88.6468 336.364 89.5368 335.901 90.6529C335.439 91.769 335.182 92.9827 335.13 94.2942C335.078 95.6057 335.238 96.8317 335.611 97.9724C335.984 99.1131 336.591 100.046 337.432 100.77C338.273 101.494 339.367 101.883 340.712 101.936Z" fill="white" fill-opacity="0.3"/>
<path d="M365.006 101.109L372.469 85.8475L375.33 85.961L366.07 105.245L363.617 105.148L356.067 85.1967L358.878 85.3082L365.006 101.109ZM357.907 85.2697L357.128 104.891L354.113 104.771L354.892 85.15L357.907 85.2697ZM372.559 105.503L373.338 85.8819L376.352 86.0015L375.574 105.622L372.559 105.503Z" fill="white" fill-opacity="0.3"/>
<path d="M379.089 88.9249L379.201 86.1146L395.143 86.7471L395.031 89.5574L388.593 89.302L387.926 106.113L384.912 105.993L385.579 89.1823L379.089 88.9249Z" fill="white" fill-opacity="0.3"/>
<path d="M259.091 419.362C259.792 401.703 274.675 387.955 292.335 388.656L419.539 393.703C437.198 394.404 450.946 409.287 450.245 426.947L450.139 429.611C449.439 447.27 434.555 461.018 416.896 460.317L289.692 455.27C272.032 454.57 258.285 439.686 258.985 422.027L259.091 419.362Z" fill="white"/>
<path d="M123.585 407.426L126.727 407.551C128.056 407.603 129.222 407.943 130.227 408.568C131.237 409.188 132.014 410.035 132.557 411.109C133.106 412.177 133.353 413.403 133.298 414.789C133.243 416.162 132.9 417.357 132.268 418.373C131.642 419.388 130.801 420.168 129.745 420.712C128.694 421.25 127.505 421.493 126.176 421.44L123.034 421.316C121.705 421.263 120.536 420.929 119.525 420.315C118.515 419.695 117.735 418.857 117.186 417.8C116.642 416.743 116.397 415.525 116.452 414.146C116.507 412.755 116.851 411.546 117.483 410.519C118.115 409.492 118.957 408.707 120.007 408.163C121.064 407.619 122.256 407.373 123.585 407.426ZM123.495 409.7C122.586 409.664 121.804 409.823 121.147 410.178C120.491 410.527 119.978 411.047 119.61 411.738C119.241 412.428 119.037 413.265 118.998 414.247C118.96 415.206 119.098 416.039 119.411 416.745C119.73 417.446 120.203 417.996 120.83 418.396C121.456 418.791 122.221 419.006 123.124 419.042L126.275 419.167C127.178 419.203 127.954 419.049 128.605 418.705C129.261 418.356 129.77 417.841 130.133 417.162C130.501 416.477 130.705 415.652 130.743 414.687C130.781 413.716 130.644 412.875 130.331 412.163C130.024 411.446 129.557 410.887 128.931 410.487C128.31 410.081 127.548 409.861 126.645 409.825L123.495 409.7ZM126.547 405.224L125.814 423.686L123.234 423.584L123.966 405.121L126.547 405.224Z" fill="white"/>
<path d="M141.529 423.858C140.303 423.809 139.244 423.486 138.352 422.887C137.46 422.289 136.782 421.475 136.317 420.444C135.851 419.413 135.646 418.222 135.699 416.871C135.753 415.514 136.053 414.338 136.598 413.342C137.144 412.345 137.885 411.584 138.821 411.059C139.758 410.533 140.839 410.294 142.065 410.343C143.292 410.392 144.351 410.715 145.242 411.313C146.134 411.912 146.813 412.729 147.278 413.765C147.742 414.802 147.948 415.998 147.894 417.355C147.841 418.706 147.541 419.877 146.996 420.868C146.45 421.858 145.709 422.616 144.773 423.142C143.837 423.668 142.755 423.906 141.529 423.858ZM141.622 421.721C142.417 421.752 143.084 421.568 143.623 421.169C144.162 420.769 144.57 420.226 144.848 419.537C145.131 418.849 145.289 418.085 145.323 417.244C145.356 416.41 145.258 415.638 145.031 414.93C144.809 414.216 144.445 413.636 143.94 413.189C143.434 412.743 142.784 412.504 141.989 412.472C141.189 412.44 140.516 412.627 139.971 413.032C139.432 413.437 139.021 413.986 138.737 414.68C138.46 415.369 138.305 416.13 138.271 416.965C138.238 417.805 138.332 418.579 138.555 419.287C138.782 419.996 139.149 420.571 139.655 421.011C140.166 421.452 140.822 421.689 141.622 421.721Z" fill="white"/>
<path d="M149.336 413.002L149.423 410.805L160.46 411.243L160.372 413.44L156.106 413.271L155.674 424.155L153.187 424.056L153.619 413.172L149.336 413.002Z" fill="white"/>
<path d="M167.524 424.889C166.298 424.841 165.239 424.517 164.347 423.919C163.455 423.32 162.777 422.506 162.312 421.475C161.847 420.445 161.641 419.254 161.694 417.903C161.748 416.546 162.048 415.369 162.594 414.373C163.139 413.377 163.88 412.616 164.817 412.09C165.753 411.564 166.834 411.326 168.061 411.374C169.287 411.423 170.346 411.746 171.238 412.345C172.129 412.943 172.808 413.76 173.273 414.797C173.738 415.833 173.943 417.03 173.889 418.386C173.836 419.738 173.536 420.909 172.991 421.899C172.446 422.89 171.705 423.648 170.768 424.174C169.832 424.699 168.751 424.938 167.524 424.889ZM167.618 422.752C168.412 422.784 169.079 422.6 169.618 422.2C170.157 421.801 170.566 421.257 170.843 420.569C171.126 419.88 171.285 419.116 171.318 418.276C171.351 417.441 171.254 416.67 171.026 415.961C170.804 415.247 170.44 414.667 169.935 414.221C169.43 413.774 168.779 413.535 167.985 413.504C167.184 413.472 166.511 413.658 165.966 414.063C165.427 414.468 165.016 415.018 164.733 415.712C164.455 416.4 164.3 417.162 164.267 417.996C164.233 418.836 164.328 419.611 164.55 420.319C164.778 421.027 165.144 421.602 165.65 422.043C166.161 422.484 166.817 422.72 167.618 422.752Z" fill="white"/>
<path d="M319.641 430.66L320.333 413.22L326.431 413.462C327.646 413.51 328.639 413.76 329.412 414.211C330.185 414.657 330.75 415.239 331.108 415.959C331.467 416.672 331.629 417.455 331.595 418.307C331.565 419.056 331.407 419.669 331.121 420.147C330.841 420.625 330.479 420.997 330.036 421.264C329.599 421.531 329.128 421.723 328.623 421.839L328.616 422.01C329.149 422.065 329.678 422.273 330.204 422.635C330.729 422.997 331.161 423.504 331.499 424.154C331.838 424.804 331.988 425.589 331.952 426.509C331.917 427.383 331.687 428.162 331.262 428.844C330.837 429.527 330.188 430.055 329.314 430.43C328.441 430.805 327.317 430.965 325.943 430.911L319.641 430.66ZM321.828 428.871L326.017 429.037C327.397 429.092 328.387 428.864 328.987 428.353C329.593 427.837 329.912 427.196 329.942 426.429C329.966 425.839 329.837 425.288 329.556 424.776C329.275 424.259 328.862 423.839 328.318 423.516C327.774 423.187 327.121 423.008 326.36 422.978L322.068 422.807L321.828 428.871ZM322.141 420.968L326.059 421.123C326.694 421.149 327.273 421.046 327.794 420.817C328.32 420.588 328.743 420.252 329.062 419.81C329.386 419.368 329.561 418.84 329.585 418.227C329.616 417.46 329.375 416.8 328.862 416.245C328.35 415.684 327.515 415.381 326.356 415.335L322.371 415.177L322.141 420.968Z" fill="#1F2329" fill-opacity="0.3"/>
<path d="M337.093 428.385L343.797 418.518L346.113 418.61L345.594 431.69L343.584 431.61L343.986 421.493L337.316 431.362L334.966 431.269L335.485 418.188L337.495 418.268L337.093 428.385Z" fill="#1F2329" fill-opacity="0.3"/>
<path d="M347.73 435.528L347.953 429.907L349.043 429.951C349.321 429.683 349.562 429.391 349.768 429.075C349.974 428.759 350.157 428.383 350.316 427.946C350.482 427.503 350.628 426.963 350.756 426.325C350.884 425.682 351.006 424.905 351.121 423.994L351.77 418.834L360.081 419.164L359.637 430.371L361.646 430.451L361.423 436.071L359.414 435.992L359.562 432.244L349.888 431.861L349.739 435.608L347.73 435.528ZM351.325 430.041L357.627 430.291L357.997 420.958L353.569 420.782L353.097 424.073C352.901 425.435 352.677 426.623 352.427 427.637C352.176 428.651 351.809 429.452 351.325 430.041Z" fill="#1F2329" fill-opacity="0.3"/>
<path d="M369.713 432.92C368.453 432.87 367.377 432.549 366.485 431.956C365.599 431.358 364.929 430.547 364.474 429.522C364.026 428.492 363.829 427.307 363.882 425.968C363.935 424.628 364.226 423.457 364.755 422.454C365.29 421.446 366.008 420.673 366.911 420.134C367.82 419.59 368.865 419.342 370.045 419.389C370.727 419.416 371.395 419.556 372.05 419.809C372.705 420.063 373.295 420.456 373.82 420.988C374.345 421.515 374.753 422.202 375.043 423.05C375.334 423.897 375.455 424.931 375.406 426.152L375.373 427.004L365.29 426.603L365.359 424.866L373.398 425.185C373.427 424.447 373.306 423.783 373.033 423.192C372.767 422.601 372.37 422.128 371.844 421.771C371.324 421.415 370.7 421.223 369.974 421.194C369.173 421.162 368.473 421.333 367.872 421.708C367.278 422.076 366.812 422.57 366.474 423.188C366.137 423.805 365.954 424.475 365.926 425.196L365.88 426.354C365.84 427.342 365.978 428.186 366.291 428.886C366.61 429.581 367.069 430.12 367.668 430.502C368.267 430.878 368.973 431.083 369.785 431.115C370.313 431.136 370.793 431.081 371.224 430.95C371.662 430.814 372.043 430.602 372.367 430.313C372.691 430.019 372.948 429.648 373.136 429.201L375.056 429.823C374.826 430.473 374.459 431.039 373.957 431.519C373.455 431.994 372.843 432.356 372.122 432.606C371.402 432.851 370.599 432.955 369.713 432.92Z" fill="#1F2329" fill-opacity="0.3"/>
<path d="M383.501 433.467C382.32 433.42 381.295 433.098 380.426 432.501C379.562 431.904 378.901 431.09 378.441 430.059C377.988 429.029 377.787 427.839 377.841 426.487C377.895 425.125 378.189 423.945 378.724 422.949C379.264 421.952 379.987 421.19 380.895 420.664C381.809 420.137 382.856 419.897 384.037 419.944C385.218 419.991 386.24 420.313 387.104 420.91C387.973 421.507 388.634 422.324 389.088 423.36C389.547 424.396 389.749 425.595 389.695 426.958C389.642 428.309 389.345 429.48 388.805 430.471C388.271 431.462 387.548 432.22 386.634 432.747C385.726 433.274 384.682 433.514 383.501 433.467ZM383.572 431.662C384.469 431.697 385.216 431.497 385.814 431.06C386.411 430.623 386.864 430.035 387.172 429.297C387.48 428.559 387.651 427.752 387.686 426.878C387.72 426.004 387.614 425.183 387.365 424.417C387.117 423.651 386.713 423.024 386.152 422.535C385.591 422.047 384.863 421.785 383.966 421.749C383.069 421.714 382.321 421.917 381.724 422.36C381.126 422.802 380.673 423.396 380.365 424.14C380.057 424.884 379.886 425.693 379.851 426.567C379.816 427.441 379.923 428.259 380.172 429.019C380.42 429.78 380.825 430.401 381.385 430.884C381.946 431.367 382.675 431.626 383.572 431.662Z" fill="#1F2329" fill-opacity="0.3"/>
</svg>
