<svg width="470" height="202" viewBox="0 0 470 202" fill="none" xmlns="http://www.w3.org/2000/svg">
<path d="M0 94C0 76.3269 14.3269 62 32 62H118C135.673 62 150 76.3269 150 94V108C150 125.673 135.673 140 118 140H32C14.3269 140 0 125.673 0 108V94Z" fill="#10B981"/>
<path d="M160 94C160 76.3269 174.327 62 192 62H278C295.673 62 310 76.3269 310 94V108C310 125.673 295.673 140 278 140H192C174.327 140 160 125.673 160 108V94Z" fill="#10B981"/>
<path d="M320 32C320 14.3269 334.327 0 352 0H438C455.673 0 470 14.3269 470 32V170C470 187.673 455.673 202 438 202H352C334.327 202 320 187.673 320 170V32Z" fill="#10B981"/>
<path d="M37.462 108.208V93.6621H46.5813V95.5513H39.6566V99.9831H46.1055V101.865H39.6566V106.318H46.6665V108.208H37.462Z" fill="white"/>
<path d="M55.7699 100.011V101.858H49.321V100.011H55.7699Z" fill="white"/>
<path d="M58.7706 108.208V93.6621H63.9552C65.0869 93.6621 66.0244 93.868 66.7677 94.28C67.5111 94.6919 68.0675 95.2553 68.4368 95.9703C68.8061 96.6805 68.9908 97.4807 68.9908 98.3709C68.9908 99.2658 68.8037 100.071 68.4297 100.786C68.0604 101.496 67.5016 102.059 66.7535 102.476C66.0102 102.888 65.075 103.094 63.9481 103.094H60.3828V101.233H63.7493C64.4642 101.233 65.0443 101.11 65.4893 100.864C65.9344 100.613 66.2611 100.272 66.4695 99.841C66.6778 99.4102 66.782 98.9201 66.782 98.3709C66.782 97.8216 66.6778 97.3339 66.4695 96.9078C66.2611 96.4817 65.932 96.1479 65.4822 95.9064C65.0372 95.6649 64.45 95.5442 63.7209 95.5442H60.9652V108.208H58.7706Z" fill="white"/>
<path d="M71.3931 108.208V97.2984H73.4457V99.0314H73.5593C73.7582 98.4443 74.1085 97.9826 74.6104 97.6464C75.1171 97.3055 75.69 97.1351 76.3292 97.1351C76.4618 97.1351 76.618 97.1398 76.7979 97.1493C76.9826 97.1588 77.127 97.1706 77.2312 97.1848V99.216C77.1459 99.1924 76.9944 99.1663 76.7766 99.1379C76.5588 99.1048 76.341 99.0882 76.1232 99.0882C75.6213 99.0882 75.1739 99.1947 74.7809 99.4078C74.3926 99.6161 74.0849 99.9073 73.8576 100.281C73.6303 100.651 73.5167 101.072 73.5167 101.546V108.208H71.3931Z" fill="white"/>
<path d="M83.2734 108.428C82.2507 108.428 81.3582 108.193 80.5959 107.725C79.8336 107.256 79.2417 106.6 78.8203 105.757C78.3989 104.914 78.1882 103.93 78.1882 102.803C78.1882 101.671 78.3989 100.681 78.8203 99.8339C79.2417 98.9864 79.8336 98.3283 80.5959 97.8595C81.3582 97.3908 82.2507 97.1564 83.2734 97.1564C84.2962 97.1564 85.1887 97.3908 85.951 97.8595C86.7133 98.3283 87.3052 98.9864 87.7266 99.8339C88.148 100.681 88.3587 101.671 88.3587 102.803C88.3587 103.93 88.148 104.914 87.7266 105.757C87.3052 106.6 86.7133 107.256 85.951 107.725C85.1887 108.193 84.2962 108.428 83.2734 108.428ZM83.2805 106.645C83.9434 106.645 84.4927 106.47 84.9283 106.119C85.3639 105.769 85.6858 105.303 85.8942 104.72C86.1072 104.138 86.2138 103.496 86.2138 102.796C86.2138 102.1 86.1072 101.46 85.8942 100.878C85.6858 100.291 85.3639 99.8197 84.9283 99.4646C84.4927 99.1095 83.9434 98.932 83.2805 98.932C82.6129 98.932 82.0589 99.1095 81.6186 99.4646C81.183 99.8197 80.8587 100.291 80.6456 100.878C80.4373 101.46 80.3331 102.1 80.3331 102.796C80.3331 103.496 80.4373 104.138 80.6456 104.72C80.8587 105.303 81.183 105.769 81.6186 106.119C82.0589 106.47 82.6129 106.645 83.2805 106.645Z" fill="white"/>
<path d="M90.729 108.208V97.2984H92.7674V99.074H92.9023C93.1296 98.4727 93.5013 98.0039 94.0174 97.6677C94.5335 97.3268 95.1514 97.1564 95.8711 97.1564C96.6003 97.1564 97.211 97.3268 97.7035 97.6677C98.2006 98.0087 98.5676 98.4774 98.8043 99.074H98.918C99.1784 98.4916 99.5927 98.0276 100.161 97.682C100.729 97.3316 101.406 97.1564 102.192 97.1564C103.182 97.1564 103.989 97.4665 104.614 98.0868C105.244 98.707 105.559 99.6422 105.559 100.892V108.208H103.435V101.091C103.435 100.352 103.234 99.8174 102.831 99.4859C102.429 99.1545 101.948 98.9888 101.39 98.9888C100.698 98.9888 100.161 99.2018 99.7773 99.628C99.3938 100.049 99.202 100.592 99.202 101.254V108.208H97.0856V100.956C97.0856 100.364 96.9009 99.8884 96.5316 99.5285C96.1623 99.1687 95.6817 98.9888 95.0898 98.9888C94.6874 98.9888 94.3157 99.0953 93.9748 99.3084C93.6386 99.5167 93.3664 99.8079 93.158 100.182C92.9544 100.556 92.8526 100.989 92.8526 101.482V108.208H90.729Z" fill="white"/>
<path d="M113.497 97.2984V99.003H107.538V97.2984H113.497ZM109.136 94.6848H111.26V105.004C111.26 105.416 111.321 105.726 111.445 105.935C111.568 106.138 111.726 106.278 111.92 106.354C112.119 106.425 112.335 106.46 112.567 106.46C112.737 106.46 112.886 106.449 113.014 106.425C113.142 106.401 113.241 106.382 113.312 106.368L113.696 108.122C113.573 108.17 113.398 108.217 113.17 108.264C112.943 108.316 112.659 108.345 112.318 108.35C111.759 108.359 111.239 108.26 110.756 108.051C110.273 107.843 109.882 107.521 109.584 107.085C109.286 106.65 109.136 106.103 109.136 105.445V94.6848Z" fill="white"/>
<path d="M160 101L149 114V88L160 101Z" fill="#10B981"/>
<path d="M320 101L309 114V88L320 101Z" fill="#10B981"/>
<path d="M203.779 98.2572C203.642 97.8264 203.458 97.4405 203.226 97.0996C202.998 96.7539 202.726 96.4604 202.409 96.2189C202.092 95.9727 201.729 95.7856 201.322 95.6578C200.92 95.53 200.477 95.466 199.994 95.466C199.175 95.466 198.436 95.6767 197.778 96.0981C197.12 96.5195 196.599 97.1374 196.216 97.9518C195.837 98.7615 195.647 99.7534 195.647 100.928C195.647 102.107 195.839 103.103 196.223 103.918C196.606 104.732 197.132 105.35 197.799 105.771C198.467 106.193 199.227 106.404 200.079 106.404C200.87 106.404 201.559 106.243 202.146 105.921C202.738 105.599 203.195 105.144 203.517 104.557C203.843 103.965 204.007 103.269 204.007 102.469L204.575 102.575H200.413V100.764H206.13V102.419C206.13 103.641 205.87 104.701 205.349 105.601C204.833 106.496 204.118 107.187 203.204 107.675C202.295 108.163 201.253 108.406 200.079 108.406C198.763 108.406 197.608 108.103 196.613 107.497C195.624 106.891 194.852 106.032 194.298 104.919C193.744 103.802 193.467 102.476 193.467 100.942C193.467 99.7819 193.628 98.7402 193.95 97.8169C194.272 96.8936 194.724 96.11 195.306 95.466C195.894 94.8174 196.583 94.3226 197.373 93.9817C198.169 93.636 199.038 93.4632 199.98 93.4632C200.766 93.4632 201.497 93.5792 202.174 93.8112C202.856 94.0432 203.462 94.3723 203.993 94.7984C204.528 95.2246 204.97 95.7312 205.321 96.3183C205.671 96.9007 205.908 97.547 206.031 98.2572H203.779Z" fill="white"/>
<path d="M213.447 108.428C212.373 108.428 211.447 108.198 210.67 107.739C209.899 107.275 209.302 106.624 208.881 105.786C208.464 104.943 208.256 103.956 208.256 102.824C208.256 101.707 208.464 100.722 208.881 99.8695C209.302 99.0172 209.889 98.3519 210.642 97.8737C211.4 97.3955 212.285 97.1564 213.298 97.1564C213.914 97.1564 214.51 97.2582 215.088 97.4618C215.666 97.6654 216.184 97.985 216.643 98.4206C217.103 98.8562 217.465 99.422 217.73 100.118C217.995 100.809 218.128 101.65 218.128 102.639V103.392H209.456V101.801H216.047C216.047 101.243 215.933 100.748 215.706 100.317C215.479 99.8813 215.159 99.538 214.747 99.2871C214.34 99.0361 213.862 98.9106 213.313 98.9106C212.716 98.9106 212.195 99.0574 211.75 99.351C211.31 99.6398 210.969 100.019 210.727 100.487C210.491 100.951 210.372 101.456 210.372 102V103.243C210.372 103.972 210.5 104.592 210.756 105.104C211.016 105.615 211.378 106.006 211.842 106.276C212.306 106.541 212.849 106.673 213.469 106.673C213.871 106.673 214.238 106.617 214.57 106.503C214.901 106.385 215.188 106.209 215.429 105.977C215.67 105.745 215.855 105.459 215.983 105.118L217.993 105.48C217.832 106.072 217.543 106.591 217.126 107.036C216.715 107.476 216.196 107.819 215.571 108.065C214.951 108.307 214.243 108.428 213.447 108.428Z" fill="white"/>
<path d="M222.608 101.73V108.208H220.484V97.2984H222.522V99.074H222.657C222.908 98.4963 223.301 98.0323 223.836 97.682C224.376 97.3316 225.056 97.1564 225.875 97.1564C226.618 97.1564 227.269 97.3126 227.828 97.6251C228.387 97.9329 228.82 98.3922 229.128 99.003C229.435 99.6138 229.589 100.369 229.589 101.269V108.208H227.466V101.524C227.466 100.734 227.26 100.116 226.848 99.6706C226.436 99.2208 225.87 98.9959 225.15 98.9959C224.658 98.9959 224.22 99.1024 223.836 99.3155C223.458 99.5285 223.157 99.841 222.934 100.253C222.717 100.66 222.608 101.153 222.608 101.73Z" fill="white"/>
<path d="M237.139 108.428C236.064 108.428 235.138 108.198 234.362 107.739C233.59 107.275 232.994 106.624 232.572 105.786C232.155 104.943 231.947 103.956 231.947 102.824C231.947 101.707 232.155 100.722 232.572 99.8695C232.994 99.0172 233.581 98.3519 234.333 97.8737C235.091 97.3955 235.976 97.1564 236.99 97.1564C237.605 97.1564 238.202 97.2582 238.779 97.4618C239.357 97.6654 239.876 97.985 240.335 98.4206C240.794 98.8562 241.156 99.422 241.422 100.118C241.687 100.809 241.819 101.65 241.819 102.639V103.392H233.147V101.801H239.738C239.738 101.243 239.625 100.748 239.397 100.317C239.17 99.8813 238.851 99.538 238.439 99.2871C238.031 99.0361 237.553 98.9106 237.004 98.9106C236.407 98.9106 235.886 99.0574 235.441 99.351C235.001 99.6398 234.66 100.019 234.419 100.487C234.182 100.951 234.064 101.456 234.064 102V103.243C234.064 103.972 234.191 104.592 234.447 105.104C234.708 105.615 235.07 106.006 235.534 106.276C235.998 106.541 236.54 106.673 237.16 106.673C237.563 106.673 237.93 106.617 238.261 106.503C238.592 106.385 238.879 106.209 239.12 105.977C239.362 105.745 239.547 105.459 239.674 105.118L241.684 105.48C241.523 106.072 241.235 106.591 240.818 107.036C240.406 107.476 239.887 107.819 239.262 108.065C238.642 108.307 237.934 108.428 237.139 108.428Z" fill="white"/>
<path d="M244.175 108.208V97.2984H246.228V99.0314H246.342C246.541 98.4443 246.891 97.9826 247.393 97.6464C247.899 97.3055 248.472 97.1351 249.112 97.1351C249.244 97.1351 249.4 97.1398 249.58 97.1493C249.765 97.1588 249.909 97.1706 250.014 97.1848V99.216C249.928 99.1924 249.777 99.1663 249.559 99.1379C249.341 99.1048 249.123 99.0882 248.906 99.0882C248.404 99.0882 247.956 99.1947 247.563 99.4078C247.175 99.6161 246.867 99.9073 246.64 100.281C246.413 100.651 246.299 101.072 246.299 101.546V108.208H244.175Z" fill="white"/>
<path d="M254.928 108.449C254.237 108.449 253.612 108.321 253.053 108.065C252.495 107.805 252.052 107.429 251.725 106.936C251.403 106.444 251.242 105.84 251.242 105.125C251.242 104.51 251.361 104.003 251.597 103.605C251.834 103.208 252.154 102.893 252.556 102.661C252.959 102.429 253.408 102.253 253.906 102.135C254.403 102.017 254.909 101.927 255.425 101.865C256.079 101.789 256.609 101.728 257.016 101.681C257.424 101.628 257.719 101.546 257.904 101.432C258.089 101.318 258.181 101.134 258.181 100.878V100.828C258.181 100.208 258.006 99.7274 257.656 99.3865C257.31 99.0456 256.794 98.8751 256.107 98.8751C255.392 98.8751 254.829 99.0337 254.417 99.351C254.01 99.6635 253.728 100.011 253.572 100.395L251.576 99.9405C251.813 99.2776 252.158 98.7426 252.613 98.3354C253.072 97.9234 253.6 97.6251 254.197 97.4405C254.793 97.2511 255.421 97.1564 256.079 97.1564C256.514 97.1564 256.976 97.2085 257.464 97.3126C257.956 97.4121 258.416 97.5967 258.842 97.8666C259.273 98.1365 259.625 98.5224 259.9 99.0243C260.174 99.5214 260.312 100.168 260.312 100.963V108.208H258.238V106.716H258.153C258.015 106.991 257.809 107.261 257.535 107.526C257.26 107.791 256.907 108.011 256.477 108.186C256.046 108.361 255.53 108.449 254.928 108.449ZM255.39 106.744C255.977 106.744 256.479 106.628 256.896 106.396C257.317 106.164 257.637 105.861 257.854 105.487C258.077 105.109 258.188 104.704 258.188 104.273V102.867C258.112 102.942 257.966 103.013 257.748 103.08C257.535 103.141 257.291 103.196 257.016 103.243C256.742 103.286 256.474 103.326 256.214 103.364C255.953 103.397 255.736 103.425 255.56 103.449C255.148 103.501 254.772 103.589 254.431 103.712C254.095 103.835 253.825 104.012 253.621 104.244C253.423 104.472 253.323 104.775 253.323 105.154C253.323 105.679 253.517 106.077 253.906 106.347C254.294 106.612 254.789 106.744 255.39 106.744Z" fill="white"/>
<path d="M268.233 97.2984V99.003H262.274V97.2984H268.233ZM263.872 94.6848H265.995V105.004C265.995 105.416 266.057 105.726 266.18 105.935C266.303 106.138 266.462 106.278 266.656 106.354C266.855 106.425 267.07 106.46 267.302 106.46C267.473 106.46 267.622 106.449 267.75 106.425C267.878 106.401 267.977 106.382 268.048 106.368L268.431 108.122C268.308 108.17 268.133 108.217 267.906 108.264C267.679 108.316 267.395 108.345 267.054 108.35C266.495 108.359 265.974 108.26 265.491 108.051C265.008 107.843 264.618 107.521 264.319 107.085C264.021 106.65 263.872 106.103 263.872 105.445V94.6848Z" fill="white"/>
<path d="M275.166 108.428C274.091 108.428 273.166 108.198 272.389 107.739C271.617 107.275 271.021 106.624 270.599 105.786C270.183 104.943 269.974 103.956 269.974 102.824C269.974 101.707 270.183 100.722 270.599 99.8695C271.021 99.0172 271.608 98.3519 272.361 97.8737C273.118 97.3955 274.004 97.1564 275.017 97.1564C275.633 97.1564 276.229 97.2582 276.807 97.4618C277.385 97.6654 277.903 97.985 278.362 98.4206C278.822 98.8562 279.184 99.422 279.449 100.118C279.714 100.809 279.847 101.65 279.847 102.639V103.392H271.175V101.801H277.766C277.766 101.243 277.652 100.748 277.425 100.317C277.197 99.8813 276.878 99.538 276.466 99.2871C276.059 99.0361 275.581 98.9106 275.031 98.9106C274.435 98.9106 273.914 99.0574 273.469 99.351C273.028 99.6398 272.688 100.019 272.446 100.487C272.209 100.951 272.091 101.456 272.091 102V103.243C272.091 103.972 272.219 104.592 272.474 105.104C272.735 105.615 273.097 106.006 273.561 106.276C274.025 106.541 274.567 106.673 275.188 106.673C275.59 106.673 275.957 106.617 276.288 106.503C276.62 106.385 276.906 106.209 277.148 105.977C277.389 105.745 277.574 105.459 277.702 105.118L279.712 105.48C279.551 106.072 279.262 106.591 278.845 107.036C278.433 107.476 277.915 107.819 277.29 108.065C276.67 108.307 275.962 108.428 275.166 108.428Z" fill="white"/>
<path d="M364.472 108.208V93.6621H369.657C370.788 93.6621 371.726 93.868 372.469 94.28C373.213 94.6919 373.769 95.2553 374.138 95.9703C374.508 96.6805 374.692 97.4807 374.692 98.3709C374.692 99.2658 374.505 100.071 374.131 100.786C373.762 101.496 373.203 102.059 372.455 102.476C371.712 102.888 370.777 103.094 369.65 103.094H366.084V101.233H369.451C370.166 101.233 370.746 101.11 371.191 100.864C371.636 100.613 371.963 100.272 372.171 99.841C372.379 99.4102 372.483 98.9201 372.483 98.3709C372.483 97.8216 372.379 97.3339 372.171 96.9078C371.963 96.4817 371.634 96.1479 371.184 95.9064C370.739 95.6649 370.152 95.5442 369.422 95.5442H366.667V108.208H364.472Z" fill="white"/>
<path d="M381.66 108.428C380.585 108.428 379.659 108.198 378.883 107.739C378.111 107.275 377.514 106.624 377.093 105.786C376.676 104.943 376.468 103.956 376.468 102.824C376.468 101.707 376.676 100.722 377.093 99.8695C377.514 99.0172 378.101 98.3519 378.854 97.8737C379.612 97.3955 380.497 97.1564 381.51 97.1564C382.126 97.1564 382.723 97.2582 383.3 97.4618C383.878 97.6654 384.396 97.985 384.856 98.4206C385.315 98.8562 385.677 99.422 385.942 100.118C386.207 100.809 386.34 101.65 386.34 102.639V103.392H377.668V101.801H384.259C384.259 101.243 384.145 100.748 383.918 100.317C383.691 99.8813 383.371 99.538 382.959 99.2871C382.552 99.0361 382.074 98.9106 381.525 98.9106C380.928 98.9106 380.407 99.0574 379.962 99.351C379.522 99.6398 379.181 100.019 378.939 100.487C378.703 100.951 378.584 101.456 378.584 102V103.243C378.584 103.972 378.712 104.592 378.968 105.104C379.228 105.615 379.59 106.006 380.055 106.276C380.519 106.541 381.061 106.673 381.681 106.673C382.083 106.673 382.45 106.617 382.782 106.503C383.113 106.385 383.4 106.209 383.641 105.977C383.883 105.745 384.067 105.459 384.195 105.118L386.205 105.48C386.044 106.072 385.755 106.591 385.339 107.036C384.927 107.476 384.408 107.819 383.783 108.065C383.163 108.307 382.455 108.428 381.66 108.428Z" fill="white"/>
<path d="M388.696 108.208V97.2984H390.749V99.0314H390.862C391.061 98.4443 391.412 97.9826 391.914 97.6464C392.42 97.3055 392.993 97.1351 393.632 97.1351C393.765 97.1351 393.921 97.1398 394.101 97.1493C394.286 97.1588 394.43 97.1706 394.534 97.1848V99.216C394.449 99.1924 394.298 99.1663 394.08 99.1379C393.862 99.1048 393.644 99.0882 393.426 99.0882C392.924 99.0882 392.477 99.1947 392.084 99.4078C391.696 99.6161 391.388 99.9073 391.161 100.281C390.933 100.651 390.82 101.072 390.82 101.546V108.208H388.696Z" fill="white"/>
<path d="M402.208 97.2984V99.003H396.044V97.2984H402.208ZM397.734 108.208V96.0342C397.734 95.3524 397.883 94.7866 398.181 94.3368C398.48 93.8822 398.875 93.5437 399.367 93.3212C399.86 93.0939 400.395 92.9802 400.972 92.9802C401.399 92.9802 401.763 93.0158 402.066 93.0868C402.369 93.1531 402.594 93.2146 402.741 93.2714L402.244 94.9902C402.144 94.9618 402.017 94.9286 401.86 94.8908C401.704 94.8481 401.515 94.8268 401.292 94.8268C400.776 94.8268 400.407 94.9547 400.184 95.2104C399.966 95.466 399.857 95.8354 399.857 96.3183V108.208H397.734Z" fill="white"/>
<path d="M408.671 108.428C407.597 108.428 406.671 108.198 405.894 107.739C405.123 107.275 404.526 106.624 404.105 105.786C403.688 104.943 403.48 103.956 403.48 102.824C403.48 101.707 403.688 100.722 404.105 99.8695C404.526 99.0172 405.113 98.3519 405.866 97.8737C406.624 97.3955 407.509 97.1564 408.522 97.1564C409.138 97.1564 409.734 97.2582 410.312 97.4618C410.89 97.6654 411.408 97.985 411.867 98.4206C412.327 98.8562 412.689 99.422 412.954 100.118C413.219 100.809 413.352 101.65 413.352 102.639V103.392H404.68V101.801H411.271C411.271 101.243 411.157 100.748 410.93 100.317C410.703 99.8813 410.383 99.538 409.971 99.2871C409.564 99.0361 409.086 98.9106 408.536 98.9106C407.94 98.9106 407.419 99.0574 406.974 99.351C406.534 99.6398 406.193 100.019 405.951 100.487C405.714 100.951 405.596 101.456 405.596 102V103.243C405.596 103.972 405.724 104.592 405.98 105.104C406.24 105.615 406.602 106.006 407.066 106.276C407.53 106.541 408.072 106.673 408.693 106.673C409.095 106.673 409.462 106.617 409.794 106.503C410.125 106.385 410.411 106.209 410.653 105.977C410.894 105.745 411.079 105.459 411.207 105.118L413.217 105.48C413.056 106.072 412.767 106.591 412.35 107.036C411.938 107.476 411.42 107.819 410.795 108.065C410.175 108.307 409.467 108.428 408.671 108.428Z" fill="white"/>
<path d="M420.303 108.428C419.247 108.428 418.338 108.189 417.576 107.71C416.818 107.227 416.236 106.562 415.829 105.715C415.421 104.867 415.218 103.896 415.218 102.803C415.218 101.695 415.426 100.717 415.843 99.8695C416.26 99.0172 416.847 98.3519 417.604 97.8737C418.362 97.3955 419.254 97.1564 420.282 97.1564C421.11 97.1564 421.849 97.3103 422.498 97.618C423.146 97.9211 423.67 98.3472 424.067 98.8964C424.47 99.4457 424.709 100.087 424.785 100.821H422.718C422.604 100.31 422.344 99.8694 421.937 99.5001C421.534 99.1308 420.994 98.9462 420.317 98.9462C419.725 98.9462 419.207 99.1024 418.762 99.4149C418.322 99.7227 417.978 100.163 417.732 100.736C417.486 101.304 417.363 101.976 417.363 102.753C417.363 103.548 417.483 104.235 417.725 104.813C417.966 105.39 418.307 105.838 418.748 106.155C419.193 106.472 419.716 106.631 420.317 106.631C420.72 106.631 421.084 106.557 421.411 106.411C421.742 106.259 422.019 106.044 422.242 105.764C422.469 105.485 422.628 105.149 422.718 104.756H424.785C424.709 105.461 424.479 106.091 424.096 106.645C423.712 107.199 423.198 107.635 422.555 107.952C421.915 108.269 421.165 108.428 420.303 108.428Z" fill="white"/>
<path d="M432.148 97.2984V99.003H426.189V97.2984H432.148ZM427.787 94.6848H429.911V105.004C429.911 105.416 429.972 105.726 430.095 105.935C430.218 106.138 430.377 106.278 430.571 106.354C430.77 106.425 430.985 106.46 431.217 106.46C431.388 106.46 431.537 106.449 431.665 106.425C431.793 106.401 431.892 106.382 431.963 106.368L432.347 108.122C432.224 108.17 432.048 108.217 431.821 108.264C431.594 108.316 431.31 108.345 430.969 108.35C430.41 108.359 429.889 108.26 429.406 108.051C428.923 107.843 428.533 107.521 428.235 107.085C427.936 106.65 427.787 106.103 427.787 105.445V94.6848Z" fill="white"/>
</svg>
