<svg width="490" height="490" viewBox="0 0 490 490" fill="none" xmlns="http://www.w3.org/2000/svg">
<path d="M20.0219 81.4237C19.2131 53.8213 40.9336 30.7895 68.536 29.9807L408.39 20.022C435.993 19.2132 459.024 40.9337 459.833 68.5361L462.762 168.493C463.571 196.096 441.851 219.127 414.248 219.936L74.394 229.895C46.7916 230.704 23.7598 208.983 22.951 181.381L20.0219 81.4237Z" fill="#2A2F36"/>
<path d="M27.0516 321.321C26.2427 293.718 47.9632 270.687 75.5656 269.878L415.42 259.919C443.022 259.11 466.054 280.831 466.863 308.433L469.792 408.39C470.601 435.993 448.88 459.024 421.278 459.833L81.4236 469.792C53.8212 470.601 30.7894 448.88 29.9806 421.278L27.0516 321.321Z" fill="#2A2F36"/>
<path d="M41.8713 173.935C41.3537 156.269 55.2548 141.529 72.9203 141.011L200.17 137.282C217.836 136.765 232.576 150.666 233.094 168.331L233.172 170.997C233.689 188.662 219.788 203.403 202.123 203.92L74.873 207.649C57.2075 208.167 42.4671 194.266 41.9494 176.6L41.8713 173.935Z" fill="white"/>
<path d="M48.901 413.832C48.3833 396.166 62.2844 381.426 79.9499 380.908L207.2 377.179C224.865 376.662 239.606 390.563 240.123 408.228L240.201 410.894C240.719 428.559 226.818 443.3 209.152 443.817L81.9026 447.546C64.2371 448.064 49.4967 434.163 48.9791 416.497L48.901 413.832Z" fill="white"/>
<path d="M252.216 167.771C251.698 150.105 265.6 135.365 283.265 134.847L410.515 131.119C428.18 130.601 442.921 144.502 443.438 162.168L443.516 164.833C444.034 182.499 430.133 197.239 412.468 197.757L285.218 201.485C267.552 202.003 252.812 188.102 252.294 170.436L252.216 167.771Z" fill="#10B981"/>
<path d="M259.246 407.668C258.728 390.002 272.629 375.262 290.295 374.744L417.544 371.016C435.21 370.498 449.95 384.399 450.468 402.065L450.546 404.73C451.064 422.396 437.163 437.136 419.497 437.654L292.247 441.382C274.582 441.9 259.841 427.999 259.324 410.333L259.246 407.668Z" fill="white"/>
<path d="M116.73 165.252L119.49 165.171C120.785 165.133 121.944 165.389 122.966 165.939C123.988 166.489 124.801 167.272 125.405 168.289C126.009 169.306 126.331 170.496 126.371 171.859C126.411 173.222 126.159 174.432 125.616 175.488C125.073 176.544 124.307 177.379 123.319 177.994C122.331 178.608 121.19 178.934 119.895 178.972L117.134 179.053C115.84 179.091 114.681 178.835 113.659 178.285C112.637 177.735 111.823 176.952 111.22 175.935C110.616 174.918 110.294 173.728 110.254 172.365C110.214 171.002 110.465 169.793 111.009 168.737C111.552 167.68 112.317 166.845 113.306 166.231C114.294 165.616 115.435 165.29 116.73 165.252ZM116.785 167.126C115.797 167.155 114.968 167.387 114.299 167.822C113.635 168.256 113.138 168.856 112.808 169.622C112.484 170.387 112.337 171.281 112.367 172.303C112.396 173.314 112.595 174.19 112.964 174.929C113.338 175.668 113.869 176.236 114.557 176.63C115.25 177.025 116.091 177.208 117.08 177.179L119.84 177.098C120.828 177.069 121.654 176.837 122.318 176.403C122.987 175.968 123.484 175.368 123.808 174.603C124.138 173.837 124.288 172.943 124.258 171.921C124.229 170.91 124.027 170.035 123.653 169.295C123.284 168.556 122.753 167.989 122.059 167.594C121.371 167.199 120.533 167.016 119.545 167.045L116.785 167.126ZM119.114 162.795L119.655 181.264L117.542 181.326L117.001 162.857L119.114 162.795Z" fill="#1F2329" fill-opacity="0.3"/>
<path d="M135.21 180.365C134.029 180.4 132.984 180.149 132.076 179.613C131.174 179.076 130.458 178.31 129.929 177.314C129.405 176.317 129.123 175.143 129.084 173.792C129.044 172.429 129.256 171.232 129.72 170.2C130.19 169.169 130.86 168.359 131.729 167.771C132.605 167.183 133.633 166.871 134.814 166.837C135.995 166.802 137.037 167.053 137.94 167.589C138.848 168.125 139.564 168.895 140.088 169.897C140.617 170.899 140.902 172.081 140.942 173.444C140.982 174.796 140.766 175.984 140.296 177.01C139.832 178.035 139.162 178.842 138.287 179.431C137.417 180.019 136.392 180.33 135.21 180.365ZM135.158 178.559C136.055 178.533 136.786 178.281 137.352 177.804C137.918 177.327 138.329 176.71 138.586 175.952C138.842 175.194 138.957 174.378 138.932 173.503C138.906 172.628 138.743 171.818 138.442 171.07C138.142 170.323 137.695 169.725 137.102 169.276C136.509 168.828 135.764 168.616 134.867 168.643C133.97 168.669 133.238 168.924 132.673 169.406C132.107 169.889 131.696 170.512 131.44 171.276C131.184 172.039 131.068 172.858 131.094 173.733C131.12 174.607 131.283 175.415 131.583 176.157C131.883 176.898 132.33 177.491 132.922 177.934C133.515 178.377 134.26 178.585 135.158 178.559Z" fill="#1F2329" fill-opacity="0.3"/>
<path d="M142.162 168.668L142.107 166.794L152.739 166.482L152.794 168.356L148.5 168.482L148.829 179.693L146.818 179.752L146.49 168.541L142.162 168.668Z" fill="#1F2329" fill-opacity="0.3"/>
<path d="M160.7 179.618C159.518 179.653 158.474 179.402 157.565 178.866C156.663 178.33 155.947 177.563 155.418 176.567C154.894 175.571 154.612 174.396 154.573 173.045C154.533 171.682 154.745 170.485 155.209 169.454C155.679 168.422 156.349 167.613 157.218 167.024C158.094 166.436 159.122 166.124 160.303 166.09C161.484 166.055 162.526 166.306 163.429 166.842C164.337 167.378 165.053 168.148 165.577 169.15C166.106 170.152 166.391 171.334 166.431 172.697C166.471 174.049 166.255 175.238 165.785 176.263C165.321 177.289 164.651 178.095 163.776 178.684C162.906 179.272 161.881 179.583 160.7 179.618ZM160.647 177.812C161.544 177.786 162.276 177.534 162.841 177.057C163.407 176.58 163.818 175.963 164.075 175.205C164.331 174.447 164.446 173.631 164.421 172.756C164.395 171.882 164.232 171.071 163.932 170.323C163.631 169.576 163.184 168.978 162.591 168.53C161.999 168.081 161.253 167.87 160.356 167.896C159.459 167.922 158.727 168.177 158.162 168.659C157.596 169.142 157.185 169.765 156.929 170.529C156.673 171.292 156.557 172.111 156.583 172.986C156.609 173.86 156.772 174.669 157.072 175.41C157.372 176.152 157.819 176.744 158.411 177.187C159.004 177.63 159.749 177.838 160.647 177.812Z" fill="#1F2329" fill-opacity="0.3"/>
<path d="M123.76 405.149L126.52 405.068C127.815 405.03 128.973 405.286 129.996 405.836C131.018 406.386 131.831 407.169 132.435 408.186C133.039 409.203 133.361 410.393 133.401 411.756C133.44 413.119 133.189 414.329 132.646 415.385C132.103 416.441 131.337 417.276 130.349 417.891C129.361 418.505 128.219 418.831 126.924 418.869L124.164 418.95C122.869 418.988 121.711 418.732 120.688 418.182C119.666 417.632 118.853 416.849 118.249 415.832C117.645 414.815 117.323 413.625 117.283 412.262C117.243 410.899 117.495 409.69 118.038 408.634C118.581 407.577 119.347 406.742 120.335 406.128C121.323 405.513 122.465 405.187 123.76 405.149ZM123.815 407.023C122.826 407.052 121.998 407.284 121.328 407.719C120.665 408.153 120.168 408.753 119.838 409.519C119.513 410.284 119.366 411.178 119.396 412.2C119.426 413.211 119.625 414.087 119.993 414.826C120.367 415.565 120.898 416.133 121.586 416.527C122.28 416.922 123.121 417.105 124.109 417.076L126.869 416.995C127.858 416.966 128.684 416.734 129.347 416.3C130.017 415.865 130.513 415.265 130.838 414.5C131.168 413.734 131.318 412.84 131.288 411.818C131.258 410.807 131.056 409.932 130.682 409.192C130.314 408.453 129.783 407.886 129.089 407.491C128.401 407.096 127.563 406.913 126.575 406.942L123.815 407.023ZM126.143 402.692L126.684 421.161L124.572 421.223L124.031 402.754L126.143 402.692Z" fill="#1F2329" fill-opacity="0.3"/>
<path d="M142.24 420.262C141.059 420.297 140.014 420.046 139.106 419.51C138.203 418.973 137.488 418.207 136.958 417.211C136.434 416.214 136.153 415.04 136.113 413.689C136.073 412.326 136.285 411.129 136.75 410.097C137.22 409.066 137.889 408.256 138.759 407.668C139.634 407.08 140.662 406.768 141.844 406.734C143.025 406.699 144.067 406.95 144.969 407.486C145.877 408.022 146.594 408.792 147.117 409.794C147.647 410.796 147.932 411.978 147.972 413.341C148.011 414.693 147.796 415.882 147.326 416.907C146.861 417.933 146.192 418.739 145.316 419.328C144.447 419.916 143.421 420.227 142.24 420.262ZM142.187 418.456C143.085 418.43 143.816 418.178 144.382 417.701C144.948 417.224 145.359 416.607 145.615 415.849C145.871 415.091 145.987 414.275 145.961 413.4C145.936 412.525 145.773 411.715 145.472 410.967C145.172 410.22 144.725 409.622 144.132 409.173C143.539 408.725 142.794 408.513 141.897 408.54C140.999 408.566 140.268 408.821 139.702 409.303C139.136 409.786 138.726 410.409 138.469 411.173C138.213 411.936 138.098 412.755 138.124 413.63C138.149 414.504 138.312 415.312 138.612 416.054C138.913 416.796 139.359 417.388 139.952 417.831C140.545 418.274 141.29 418.482 142.187 418.456Z" fill="#1F2329" fill-opacity="0.3"/>
<path d="M149.192 408.565L149.137 406.691L159.769 406.379L159.823 408.253L155.53 408.379L155.858 419.59L153.848 419.649L153.519 408.438L149.192 408.565Z" fill="#1F2329" fill-opacity="0.3"/>
<path d="M167.729 419.515C166.548 419.55 165.503 419.299 164.595 418.763C163.693 418.227 162.977 417.46 162.447 416.464C161.923 415.468 161.642 414.293 161.602 412.942C161.562 411.579 161.774 410.382 162.239 409.351C162.709 408.319 163.378 407.51 164.248 406.921C165.123 406.333 166.151 406.021 167.333 405.987C168.514 405.952 169.556 406.203 170.458 406.739C171.367 407.276 172.083 408.045 172.606 409.047C173.136 410.049 173.421 411.231 173.461 412.594C173.5 413.946 173.285 415.135 172.815 416.16C172.35 417.186 171.681 417.993 170.805 418.581C169.936 419.169 168.91 419.481 167.729 419.515ZM167.676 417.709C168.574 417.683 169.305 417.431 169.871 416.954C170.437 416.477 170.848 415.86 171.104 415.102C171.361 414.344 171.476 413.528 171.45 412.653C171.425 411.779 171.262 410.968 170.961 410.22C170.661 409.473 170.214 408.875 169.621 408.427C169.028 407.978 168.283 407.767 167.386 407.793C166.488 407.819 165.757 408.074 165.191 408.556C164.626 409.039 164.215 409.662 163.958 410.426C163.702 411.189 163.587 412.008 163.613 412.883C163.638 413.758 163.801 414.566 164.102 415.307C164.402 416.049 164.848 416.641 165.441 417.084C166.034 417.527 166.779 417.735 167.676 417.709Z" fill="#1F2329" fill-opacity="0.3"/>
<path d="M312.783 174.889L312.272 157.442L318.661 157.255C319.899 157.218 320.931 157.393 321.755 157.778C322.579 158.157 323.202 158.687 323.626 159.369C324.049 160.044 324.274 160.813 324.299 161.677C324.32 162.403 324.205 163.021 323.952 163.528C323.7 164.03 323.354 164.438 322.914 164.753C322.48 165.061 321.998 165.291 321.468 165.443L321.473 165.613C322.053 165.625 322.623 165.796 323.184 166.126C323.751 166.45 324.225 166.922 324.607 167.542C324.989 168.162 325.193 168.923 325.22 169.826C325.246 170.718 325.059 171.525 324.66 172.247C324.266 172.964 323.64 173.542 322.784 173.982C321.927 174.416 320.822 174.653 319.471 174.693L312.783 174.889ZM315.349 172.554L319.149 172.443C320.41 172.406 321.306 172.135 321.837 171.631C322.367 171.126 322.622 170.508 322.601 169.775C322.585 169.224 322.431 168.723 322.139 168.271C321.847 167.819 321.439 167.465 320.914 167.207C320.395 166.949 319.783 166.831 319.079 166.852L315.186 166.966L315.349 172.554ZM315.126 164.913L318.652 164.809C319.243 164.792 319.771 164.663 320.236 164.422C320.706 164.181 321.074 163.851 321.341 163.434C321.612 163.011 321.74 162.519 321.724 161.957C321.702 161.235 321.432 160.638 320.912 160.164C320.392 159.691 319.61 159.469 318.565 159.5L314.97 159.605L315.126 164.913Z" fill="white"/>
<path d="M330.667 170.792L336.155 161.107L338.898 161.027L339.282 174.112L336.786 174.185L336.507 164.661L331.044 174.354L328.275 174.435L327.892 161.35L330.388 161.276L330.667 170.792Z" fill="white"/>
<path d="M341.539 177.823L341.364 171.843L342.429 171.812C342.694 171.554 342.915 171.249 343.093 170.897C343.276 170.545 343.425 170.128 343.542 169.648C343.664 169.167 343.762 168.607 343.834 167.968C343.906 167.323 343.964 166.588 344.008 165.763L344.274 160.87L353.168 160.609L353.487 171.488L355.497 171.429L355.672 177.409L353.185 177.482L353.074 173.708L343.95 173.976L344.061 177.75L341.539 177.823ZM345.155 171.732L350.999 171.561L350.744 162.863L346.621 162.984L346.427 165.692C346.337 167.07 346.207 168.268 346.038 169.285C345.869 170.296 345.574 171.111 345.155 171.732Z" fill="white"/>
<path d="M363.699 173.661C362.41 173.699 361.291 173.456 360.344 172.932C359.402 172.403 358.663 171.643 358.128 170.653C357.599 169.656 357.314 168.479 357.274 167.122C357.235 165.782 357.45 164.593 357.92 163.556C358.396 162.519 359.077 161.701 359.963 161.1C360.855 160.5 361.908 160.182 363.124 160.147C363.862 160.125 364.581 160.226 365.281 160.45C365.981 160.674 366.614 161.039 367.181 161.545C367.747 162.052 368.201 162.718 368.544 163.543C368.886 164.363 369.075 165.367 369.109 166.554L369.136 167.457L358.734 167.761L358.678 165.853L366.584 165.622C366.564 164.951 366.411 164.362 366.123 163.853C365.835 163.339 365.439 162.938 364.937 162.651C364.439 162.365 363.861 162.231 363.202 162.25C362.487 162.271 361.867 162.466 361.344 162.833C360.826 163.195 360.43 163.662 360.157 164.232C359.889 164.797 359.765 165.406 359.784 166.06L359.828 167.55C359.853 168.425 360.029 169.164 360.353 169.769C360.684 170.373 361.132 170.829 361.698 171.136C362.264 171.438 362.919 171.578 363.663 171.556C364.145 171.542 364.584 171.461 364.977 171.313C365.371 171.159 365.708 170.939 365.99 170.652C366.271 170.366 366.482 170.016 366.624 169.602L369.047 169.966C368.875 170.682 368.547 171.314 368.063 171.862C367.584 172.405 366.974 172.835 366.233 173.152C365.498 173.464 364.653 173.633 363.699 173.661Z" fill="white"/>
<path d="M377.651 173.252C376.424 173.288 375.345 173.039 374.415 172.503C373.484 171.968 372.751 171.202 372.216 170.206C371.681 169.21 371.393 168.036 371.354 166.684C371.314 165.327 371.532 164.132 372.007 163.101C372.483 162.069 373.17 161.259 374.068 160.67C374.966 160.081 376.028 159.769 377.255 159.733C378.481 159.697 379.56 159.946 380.491 160.482C381.422 161.017 382.155 161.786 382.69 162.788C383.226 163.79 383.513 164.969 383.553 166.327C383.592 167.678 383.374 168.867 382.899 169.893C382.423 170.918 381.736 171.726 380.838 172.315C379.94 172.904 378.878 173.216 377.651 173.252ZM377.597 171.114C378.392 171.091 379.045 170.861 379.555 170.425C380.065 169.99 380.435 169.419 380.664 168.713C380.899 168.007 381.004 167.234 380.98 166.393C380.955 165.559 380.805 164.796 380.529 164.104C380.259 163.408 379.856 162.854 379.321 162.443C378.786 162.032 378.121 161.839 377.326 161.862C376.525 161.886 375.867 162.118 375.351 162.559C374.841 163.001 374.468 163.577 374.233 164.289C374.004 164.995 373.902 165.765 373.926 166.6C373.951 167.441 374.098 168.207 374.369 168.898C374.645 169.589 375.05 170.137 375.585 170.542C376.125 170.947 376.796 171.137 377.597 171.114Z" fill="white"/>
<path d="M320.43 414.768L319.919 397.321L326.019 397.142C327.234 397.106 328.243 397.287 329.045 397.684C329.846 398.076 330.45 398.618 330.857 399.311C331.264 399.998 331.48 400.768 331.505 401.62C331.527 402.369 331.411 402.992 331.159 403.488C330.912 403.985 330.577 404.381 330.153 404.677C329.736 404.974 329.279 405.198 328.783 405.349L328.788 405.519C329.323 405.537 329.865 405.709 330.415 406.034C330.964 406.359 331.43 406.834 331.812 407.46C332.194 408.085 332.399 408.858 332.426 409.778C332.451 410.653 332.276 411.445 331.899 412.155C331.522 412.865 330.91 413.437 330.065 413.872C329.219 414.306 328.109 414.543 326.735 414.583L320.43 414.768ZM322.488 412.832L326.68 412.709C328.06 412.668 329.032 412.373 329.595 411.822C330.164 411.265 330.438 410.604 330.415 409.837C330.398 409.246 330.232 408.705 329.916 408.214C329.6 407.718 329.159 407.327 328.594 407.042C328.029 406.752 327.365 406.618 326.604 406.64L322.311 406.766L322.488 412.832ZM322.257 404.926L326.175 404.811C326.812 404.792 327.381 404.651 327.885 404.386C328.395 404.121 328.793 403.757 329.081 403.294C329.374 402.83 329.512 402.292 329.494 401.678C329.472 400.912 329.186 400.269 328.636 399.751C328.087 399.227 327.232 398.982 326.074 399.016L322.087 399.133L322.257 404.926Z" fill="#1F2329" fill-opacity="0.3"/>
<path d="M337.684 411.295L343.692 400.99L346.009 400.922L346.392 414.007L344.382 414.066L344.085 403.945L338.112 414.25L335.761 414.319L335.377 401.233L337.388 401.174L337.684 411.295Z" fill="#1F2329" fill-opacity="0.3"/>
<path d="M348.787 417.688L348.623 412.066L349.713 412.034C349.972 411.748 350.193 411.44 350.377 411.111C350.56 410.781 350.717 410.393 350.846 409.946C350.98 409.493 351.089 408.944 351.173 408.299C351.256 407.649 351.324 406.865 351.376 405.948L351.668 400.756L359.982 400.512L360.311 411.723L362.321 411.664L362.486 417.287L360.476 417.346L360.366 413.598L350.688 413.881L350.798 417.63L348.787 417.688ZM351.996 411.967L358.3 411.782L358.027 402.445L353.597 402.575L353.353 405.891C353.251 407.263 353.11 408.464 352.93 409.493C352.75 410.521 352.438 411.346 351.996 411.967Z" fill="#1F2329" fill-opacity="0.3"/>
<path d="M370.539 413.572C369.278 413.609 368.183 413.363 367.252 412.833C366.327 412.297 365.602 411.534 365.079 410.543C364.561 409.547 364.282 408.378 364.243 407.038C364.203 405.698 364.413 404.509 364.872 403.473C365.336 402.43 365.999 401.609 366.863 401.01C367.732 400.405 368.757 400.085 369.938 400.05C370.62 400.03 371.296 400.124 371.967 400.332C372.638 400.539 373.254 400.891 373.814 401.386C374.374 401.875 374.828 402.533 375.177 403.358C375.525 404.184 375.717 405.207 375.753 406.428L375.778 407.28L365.691 407.575L365.64 405.837L373.682 405.602C373.66 404.863 373.493 404.209 373.181 403.638C372.874 403.068 372.447 402.623 371.897 402.303C371.353 401.984 370.718 401.835 369.991 401.856C369.19 401.879 368.503 402.099 367.93 402.513C367.362 402.922 366.931 403.446 366.637 404.086C366.344 404.725 366.207 405.406 366.228 406.127L366.262 407.286C366.291 408.274 366.486 409.107 366.847 409.784C367.213 410.455 367.709 410.961 368.332 411.301C368.956 411.635 369.674 411.79 370.486 411.766C371.014 411.751 371.489 411.663 371.911 411.503C372.338 411.337 372.703 411.099 373.007 410.789C373.31 410.473 373.541 410.085 373.698 409.626L375.656 410.114C375.471 410.779 375.144 411.368 374.676 411.882C374.208 412.39 373.623 412.794 372.921 413.093C372.219 413.387 371.425 413.546 370.539 413.572Z" fill="#1F2329" fill-opacity="0.3"/>
<path d="M384.332 413.168C383.15 413.203 382.105 412.952 381.197 412.416C380.295 411.88 379.579 411.113 379.05 410.117C378.526 409.121 378.244 407.946 378.205 406.595C378.165 405.232 378.377 404.035 378.841 403.004C379.311 401.972 379.981 401.163 380.85 400.574C381.726 399.986 382.754 399.674 383.935 399.64C385.116 399.605 386.158 399.856 387.061 400.392C387.969 400.929 388.685 401.698 389.209 402.7C389.738 403.702 390.023 404.884 390.063 406.247C390.103 407.599 389.887 408.788 389.417 409.813C388.953 410.839 388.283 411.646 387.408 412.234C386.538 412.822 385.513 413.134 384.332 413.168ZM384.279 411.362C385.176 411.336 385.908 411.084 386.473 410.607C387.039 410.13 387.45 409.513 387.707 408.755C387.963 407.997 388.078 407.181 388.053 406.306C388.027 405.432 387.864 404.621 387.563 403.873C387.263 403.126 386.816 402.528 386.223 402.08C385.63 401.631 384.885 401.42 383.988 401.446C383.091 401.472 382.359 401.727 381.794 402.209C381.228 402.692 380.817 403.315 380.561 404.079C380.305 404.842 380.189 405.661 380.215 406.536C380.241 407.41 380.404 408.219 380.704 408.96C381.004 409.702 381.451 410.294 382.043 410.737C382.636 411.18 383.381 411.388 384.279 411.362Z" fill="#1F2329" fill-opacity="0.3"/>
<path d="M166.602 306.045L169.771 305.952L170.453 329.209L179.653 328.94L178.972 305.682L182.141 305.59L182.822 328.847L192.023 328.577L191.341 305.32L194.511 305.227L195.277 331.398L167.369 332.216L166.602 306.045Z" fill="white" fill-opacity="0.3"/>
<path d="M207.012 331.514C205.768 331.551 204.633 331.35 203.605 330.911C202.577 330.463 201.752 329.801 201.13 328.924C200.507 328.039 200.177 326.957 200.139 325.679C200.106 324.554 200.301 323.636 200.724 322.925C201.146 322.205 201.722 321.634 202.451 321.212C203.181 320.79 203.99 320.467 204.878 320.245C205.776 320.014 206.678 319.826 207.586 319.68C208.774 319.492 209.738 319.348 210.477 319.25C211.224 319.143 211.765 318.986 212.1 318.78C212.444 318.574 212.608 318.228 212.594 317.743L212.591 317.64C212.554 316.38 212.18 315.41 211.47 314.732C210.768 314.053 209.723 313.734 208.334 313.775C206.894 313.817 205.775 314.165 204.975 314.82C204.176 315.474 203.621 316.164 203.309 316.889L200.417 315.951C200.893 314.743 201.548 313.795 202.38 313.105C203.221 312.407 204.144 311.911 205.15 311.617C206.164 311.315 207.166 311.149 208.154 311.12C208.784 311.101 209.511 311.157 210.333 311.286C211.164 311.407 211.969 311.686 212.749 312.123C213.538 312.561 214.201 313.236 214.74 314.15C215.278 315.063 215.57 316.3 215.616 317.859L215.995 330.791L212.979 330.879L212.901 328.221L212.748 328.226C212.556 328.658 212.228 329.123 211.765 329.623C211.303 330.122 210.68 330.554 209.898 330.918C209.116 331.282 208.154 331.481 207.012 331.514ZM207.393 328.792C208.585 328.757 209.584 328.493 210.388 328.001C211.2 327.508 211.805 326.885 212.2 326.131C212.605 325.378 212.795 324.592 212.771 323.774L212.69 321.014C212.567 321.171 212.29 321.32 211.859 321.46C211.436 321.592 210.945 321.713 210.386 321.823C209.835 321.925 209.296 322.017 208.77 322.101C208.252 322.176 207.832 322.239 207.509 322.291C206.728 322.416 206.001 322.604 205.326 322.854C204.659 323.095 204.124 323.448 203.72 323.911C203.324 324.366 203.137 324.977 203.16 325.744C203.19 326.792 203.601 327.573 204.392 328.087C205.191 328.592 206.191 328.827 207.393 328.792Z" fill="white" fill-opacity="0.3"/>
<path d="M235.276 303.214L236.863 305.009C236.284 305.606 235.606 306.031 234.829 306.284C234.052 306.537 233.17 306.703 232.183 306.783C231.196 306.864 230.099 306.947 228.891 307.033C227.529 307.124 226.41 307.49 225.534 308.129C224.657 308.769 223.993 309.675 223.541 310.848C223.09 312.021 222.82 313.453 222.734 315.143L222.989 315.136C223.618 313.89 224.511 312.96 225.67 312.346C226.829 311.732 228.081 311.406 229.427 311.366C230.96 311.321 232.351 311.639 233.599 312.318C234.846 312.998 235.849 314.03 236.605 315.415C237.362 316.799 237.771 318.523 237.831 320.584C237.891 322.637 237.577 324.42 236.888 325.932C236.208 327.444 235.223 328.624 233.935 329.472C232.655 330.311 231.138 330.756 229.383 330.808C227.628 330.859 226.078 330.491 224.733 329.703C223.388 328.907 222.326 327.702 221.545 326.088C220.764 324.465 220.338 322.444 220.267 320.025L220.206 317.929C220.078 313.559 220.722 310.223 222.138 307.922C223.563 305.621 225.769 304.388 228.757 304.224C229.813 304.159 230.754 304.122 231.58 304.115C232.407 304.108 233.126 304.049 233.737 303.937C234.347 303.825 234.86 303.584 235.276 303.214ZM229.303 328.099C230.487 328.064 231.497 327.736 232.331 327.115C233.174 326.493 233.81 325.635 234.238 324.539C234.666 323.435 234.859 322.146 234.815 320.673C234.773 319.241 234.504 318.03 234.006 317.038C233.516 316.047 232.833 315.299 231.957 314.796C231.082 314.293 230.043 314.06 228.842 314.095C227.964 314.12 227.181 314.293 226.491 314.611C225.801 314.93 225.218 315.386 224.74 315.98C224.263 316.574 223.901 317.292 223.653 318.135C223.413 318.977 223.3 319.936 223.315 321.01C223.379 323.207 223.946 324.952 225.016 326.242C226.085 327.532 227.514 328.151 229.303 328.099Z" fill="white" fill-opacity="0.3"/>
<path d="M240.986 330.058L240.904 327.247L241.62 327.226C242.207 327.209 242.694 327.079 243.079 326.838C243.464 326.588 243.767 326.166 243.988 325.571C244.218 324.967 244.381 324.135 244.478 323.075C244.583 322.006 244.641 320.649 244.653 319.003L244.756 310.303L257.841 309.92L258.416 329.548L255.401 329.636L254.908 312.819L247.701 313.031L247.599 320.042C247.578 321.654 247.475 323.077 247.29 324.31C247.112 325.535 246.814 326.567 246.395 327.406C245.985 328.245 245.424 328.884 244.712 329.322C244 329.761 243.099 329.996 242.009 330.028L240.986 330.058Z" fill="white" fill-opacity="0.3"/>
<path d="M271.935 329.561C270.163 329.613 268.596 329.236 267.234 328.432C265.881 327.628 264.807 326.478 264.012 324.984C263.227 323.489 262.804 321.728 262.745 319.701C262.685 317.656 263.003 315.86 263.7 314.314C264.405 312.767 265.409 311.552 266.714 310.67C268.026 309.787 269.569 309.32 271.341 309.268C273.113 309.216 274.676 309.593 276.029 310.397C277.392 311.201 278.466 312.355 279.251 313.858C280.046 315.361 280.473 317.135 280.533 319.179C280.592 321.207 280.269 322.99 279.564 324.528C278.867 326.066 277.863 327.277 276.55 328.159C275.246 329.042 273.707 329.509 271.935 329.561ZM271.856 326.852C273.202 326.812 274.299 326.435 275.148 325.719C275.997 325.004 276.613 324.078 276.998 322.941C277.382 321.804 277.555 320.58 277.517 319.268C277.479 317.956 277.234 316.739 276.783 315.619C276.333 314.498 275.663 313.601 274.773 312.928C273.884 312.255 272.766 311.938 271.42 311.977C270.074 312.017 268.977 312.399 268.128 313.123C267.28 313.847 266.664 314.781 266.279 315.926C265.895 317.072 265.722 318.3 265.761 319.612C265.799 320.924 266.044 322.136 266.494 323.249C266.944 324.361 267.614 325.249 268.503 325.914C269.392 326.579 270.51 326.891 271.856 326.852Z" fill="white" fill-opacity="0.3"/>
<path d="M298.229 317.177L298.312 319.989L287.475 320.306L287.393 317.495L298.229 317.177ZM287.861 309.04L288.437 328.668L285.421 328.756L284.846 309.128L287.861 309.04ZM300.282 308.676L300.857 328.304L297.842 328.392L297.267 308.764L300.282 308.676Z" fill="white" fill-opacity="0.3"/>
<path d="M308.605 315.543L314.227 315.378C316.528 315.311 318.304 315.843 319.556 316.974C320.809 318.106 321.461 319.566 321.514 321.355C321.548 322.531 321.307 323.608 320.79 324.586C320.272 325.557 319.494 326.342 318.454 326.944C317.415 327.537 316.128 327.856 314.594 327.901L306.365 328.143L305.79 308.515L308.806 308.426L309.298 325.243L314.512 325.09C315.705 325.055 316.675 324.711 317.423 324.058C318.172 323.406 318.531 322.585 318.502 321.597C318.472 320.557 318.064 319.721 317.278 319.088C316.492 318.454 315.503 318.155 314.31 318.19L308.687 318.354L308.605 315.543ZM324.817 327.602L324.242 307.974L327.258 307.886L327.833 327.513L324.817 327.602Z" fill="white" fill-opacity="0.3"/>
<path d="M0.0305286 82.0095C-1.10182 43.3662 29.3068 11.1216 67.9502 9.98925L407.804 0.0306264C446.448 -1.10173 478.692 29.3069 479.825 67.9503L489.783 407.804C490.916 446.448 460.507 478.692 421.864 479.825L82.0094 489.783C43.3661 490.916 11.1215 460.507 9.98915 421.864L0.0305286 82.0095Z" fill="#1F2329"/>
<path d="M20.0219 81.4237C19.2131 53.8213 40.9336 30.7895 68.536 29.9807L408.39 20.022C435.993 19.2132 459.024 40.9337 459.833 68.5361L462.762 168.493C463.571 196.096 441.851 219.127 414.248 219.936L74.394 229.895C46.7916 230.704 23.7598 208.983 22.951 181.381L20.0219 81.4237Z" fill="#2A2F36"/>
<path d="M129.08 75.5593L125.093 75.6761C124.914 74.8287 124.607 74.0874 124.171 73.4522C123.734 72.8169 123.207 72.2824 122.589 71.8487C121.971 71.4149 121.284 71.0939 120.527 70.8859C119.779 70.6776 118.988 70.5857 118.153 70.6102C116.645 70.6543 115.306 71.073 114.136 71.8661C112.974 72.659 112.069 73.7982 111.422 75.2837C110.783 76.769 110.495 78.568 110.557 80.6807C110.619 82.8105 111.013 84.598 111.737 86.0433C112.47 87.4884 113.444 88.5683 114.659 89.283C115.873 89.9977 117.226 90.3333 118.717 90.2896C119.543 90.2654 120.324 90.1317 121.058 89.8884C121.801 89.6365 122.469 89.2801 123.061 88.8194C123.653 88.3587 124.148 87.8027 124.547 87.1516C124.954 86.4916 125.226 85.7419 125.363 84.9023L129.35 84.7982C129.175 86.0908 128.797 87.2871 128.215 88.387C127.642 89.4781 126.889 90.4295 125.958 91.2412C125.035 92.0442 123.971 92.6765 122.765 93.1381C121.559 93.5998 120.237 93.8517 118.797 93.8939C116.531 93.9603 114.496 93.4828 112.693 92.4613C110.889 91.4313 109.447 89.926 108.365 87.9455C107.293 85.9647 106.716 83.5814 106.634 80.7957C106.552 78.0014 106.993 75.5883 107.957 73.5564C108.92 71.5159 110.272 69.933 112.012 68.8077C113.753 67.6739 115.752 67.0739 118.009 67.0077C119.398 66.967 120.698 67.1293 121.911 67.4945C123.133 67.8509 124.236 68.3984 125.221 69.1369C126.206 69.8669 127.029 70.7721 127.692 71.8526C128.354 72.9246 128.817 74.1601 129.08 75.5593Z" fill="white"/>
<path d="M142.295 93.2437C140.455 93.2976 138.836 92.923 137.44 92.1198C136.044 91.3166 134.944 90.1679 134.142 88.6737C133.339 87.1796 132.908 85.4187 132.849 83.3912C132.789 81.3551 133.116 79.5635 133.829 78.0164C134.543 76.4693 135.573 75.2539 136.92 74.3703C138.267 73.4867 139.86 73.018 141.7 72.9641C143.541 72.9102 145.159 73.2848 146.555 74.088C147.951 74.8912 149.051 76.0441 149.854 77.5468C150.657 79.0495 151.088 80.8189 151.148 82.855C151.207 84.8825 150.88 86.6656 150.166 88.2042C149.452 89.7428 148.422 90.9539 147.075 91.8375C145.728 92.7211 144.135 93.1898 142.295 93.2437ZM142.214 90.0359C143.406 90.001 144.385 89.6568 145.15 89.0034C145.916 88.35 146.47 87.4939 146.815 86.4351C147.167 85.376 147.325 84.2161 147.288 82.9553C147.251 81.703 147.026 80.5585 146.612 79.5219C146.206 78.4765 145.602 77.6458 144.8 77.0299C143.997 76.4139 143 76.1234 141.807 76.1583C140.606 76.1935 139.618 76.5422 138.845 77.2044C138.08 77.8663 137.521 78.731 137.169 79.7986C136.824 80.8574 136.671 82.013 136.707 83.2653C136.744 84.5261 136.966 85.675 137.371 86.7118C137.785 87.7484 138.393 88.5705 139.196 89.1779C140.006 89.7851 141.012 90.0711 142.214 90.0359Z" fill="white"/>
<path d="M170.051 65.0735L171.706 67.4422C171.134 67.9961 170.476 68.3991 169.734 68.6511C168.999 68.8943 168.147 69.0599 167.177 69.148C166.208 69.2276 165.097 69.307 163.846 69.3863C162.433 69.4704 161.28 69.8111 160.385 70.4086C159.49 70.9976 158.811 71.853 158.35 72.975C157.896 74.0882 157.621 75.4775 157.525 77.143L157.768 77.1359C158.371 75.8989 159.231 74.9614 160.346 74.3234C161.47 73.6851 162.743 73.3451 164.166 73.3034C165.75 73.2569 167.171 73.5777 168.427 74.2656C169.684 74.9535 170.686 75.9857 171.434 77.3621C172.19 78.7297 172.598 80.4188 172.657 82.4293C172.717 84.4654 172.393 86.2355 171.687 87.7398C170.989 89.2439 169.975 90.4204 168.644 91.2694C167.322 92.1096 165.745 92.5566 163.913 92.6103C162.081 92.6639 160.472 92.2975 159.085 91.5111C157.706 90.716 156.617 89.5115 155.82 87.8978C155.031 86.2839 154.601 84.2757 154.531 81.8734L154.474 79.931C154.342 75.4415 155.044 72.0402 156.579 69.7272C158.114 67.4142 160.474 66.1812 163.658 66.0282C164.688 65.9724 165.608 65.9412 166.418 65.9345C167.228 65.9193 167.934 65.8603 168.536 65.7573C169.147 65.6457 169.652 65.4177 170.051 65.0735ZM163.832 89.4024C164.897 89.3712 165.805 89.0761 166.556 88.5169C167.315 87.9489 167.889 87.1605 168.277 86.1515C168.665 85.1426 168.839 83.9608 168.8 82.6063C168.761 81.2773 168.519 80.1547 168.074 79.2383C167.63 78.322 167.012 77.6324 166.223 77.1695C165.433 76.6981 164.497 76.4783 163.416 76.51C162.615 76.5334 161.903 76.695 161.281 76.9946C160.659 77.2856 160.13 77.7061 159.694 78.2561C159.267 78.8058 158.941 79.4718 158.716 80.2543C158.5 81.028 158.398 81.9135 158.411 82.9107C158.47 84.9383 158.982 86.539 159.945 87.713C160.918 88.8867 162.213 89.4499 163.832 89.4024Z" fill="white"/>
<path d="M177.42 99.1848L176.629 72.1964L180.36 72.087L180.453 75.2689L180.773 75.2595C180.982 74.8441 181.288 74.362 181.69 73.813C182.091 73.2641 182.657 72.7786 183.386 72.3565C184.115 71.9258 185.089 71.6927 186.307 71.657C187.892 71.6105 189.318 71.9695 190.585 72.7338C191.852 73.4982 192.862 74.6239 193.613 76.1111C194.373 77.598 194.784 79.4021 194.846 81.5233C194.908 83.6446 194.608 85.4738 193.945 87.0109C193.282 88.5395 192.345 89.7308 191.134 90.5848C189.922 91.4303 188.524 91.8763 186.94 91.9227C185.747 91.9577 184.766 91.786 183.996 91.4079C183.234 91.0294 182.633 90.5781 182.191 90.0539C181.749 89.5297 181.407 89.0622 181.165 88.6515L180.935 88.6583L181.24 99.0728L177.42 99.1848ZM180.66 81.9006C180.701 83.2807 180.937 84.4846 181.367 85.5122C181.798 86.5397 182.401 87.3363 183.177 87.9019C183.952 88.459 184.889 88.7215 185.988 88.6893C187.13 88.6558 188.075 88.3254 188.824 87.6981C189.573 87.0623 190.127 86.2147 190.489 85.1554C190.858 84.0958 191.024 82.91 190.986 81.5981C190.948 80.3032 190.718 79.1461 190.295 78.1267C189.882 77.1072 189.279 76.3106 188.486 75.737C187.702 75.1631 186.735 74.893 185.585 74.9267C184.477 74.9591 183.548 75.272 182.798 75.8652C182.057 76.4582 181.505 77.2716 181.143 78.3054C180.781 79.3392 180.62 80.5376 180.66 81.9006Z" fill="white"/>
<path d="M205.138 91.4406C203.894 91.4771 202.763 91.28 201.744 90.8494C200.725 90.4103 199.909 89.7564 199.295 88.8877C198.69 88.0186 198.368 86.9409 198.331 85.6546C198.298 84.5471 198.484 83.6293 198.889 82.9012C199.294 82.1731 199.853 81.5898 200.565 81.1511C201.277 80.7125 202.077 80.3735 202.965 80.1344C203.853 79.8952 204.76 79.7066 205.685 79.5686C206.857 79.3979 207.808 79.2592 208.538 79.1525C209.268 79.0373 209.796 78.8727 210.122 78.6585C210.448 78.4443 210.605 78.1072 210.591 77.6471L210.589 77.5577C210.556 76.4417 210.215 75.5862 209.567 74.9913C208.927 74.3962 207.99 74.1167 206.754 74.1529C205.468 74.1906 204.463 74.5057 203.738 75.0982C203.022 75.6819 202.533 76.3229 202.273 77.0212L198.658 76.3086C199.049 75.1034 199.642 74.1226 200.439 73.3659C201.243 72.6006 202.178 72.036 203.241 71.6723C204.305 71.3001 205.428 71.0967 206.613 71.062C207.396 71.039 208.23 71.1084 209.113 71.2701C210.004 71.423 210.84 71.7311 211.621 72.1942C212.41 72.657 213.065 73.3328 213.586 74.2213C214.106 75.1013 214.387 76.2569 214.429 77.6881L214.811 90.7223L211.08 90.8317L211.001 88.1481L210.848 88.1526C210.615 88.654 210.259 89.1504 209.779 89.642C209.299 90.1335 208.676 90.5483 207.91 90.8862C207.144 91.2241 206.22 91.4089 205.138 91.4406ZM205.879 88.3494C206.935 88.3185 207.832 88.0833 208.569 87.6439C209.315 87.2042 209.874 86.6422 210.246 85.9577C210.627 85.2644 210.806 84.5302 210.783 83.7549L210.709 81.2248C210.577 81.3651 210.316 81.5006 209.928 81.6313C209.548 81.7533 209.112 81.8641 208.62 81.9638C208.128 82.055 207.649 82.1415 207.183 82.2234C206.716 82.2967 206.325 82.3593 206.012 82.4112C205.273 82.5266 204.6 82.704 203.994 82.9435C203.395 83.1827 202.919 83.5164 202.565 83.9446C202.219 84.364 202.056 84.9144 202.076 85.596C202.104 86.5416 202.474 87.247 203.187 87.7121C203.899 88.1687 204.797 88.3811 205.879 88.3494Z" fill="white"/>
<path d="M216.988 74.3135L216.891 71.0166L233.452 70.5313L233.549 73.8282L227.147 74.0158L227.625 90.3468L223.894 90.4562L223.415 74.1251L216.988 74.3135Z" fill="white"/>
<path d="M240.566 77.0757L246.265 76.9087C248.668 76.8383 250.534 77.3805 251.864 78.5352C253.194 79.69 253.886 81.2087 253.941 83.0914C253.977 84.3181 253.72 85.4298 253.169 86.4265C252.619 87.4232 251.794 88.2233 250.694 88.8267C249.595 89.4217 248.244 89.7426 246.643 89.7896L238.068 90.0408L237.493 70.4129L241.237 70.3032L241.716 86.6342L246.546 86.4927C247.645 86.4605 248.54 86.1486 249.23 85.5571C249.92 84.9571 250.252 84.2099 250.226 83.3154C250.198 82.3697 249.822 81.6091 249.098 81.0335C248.373 80.4494 247.461 80.1734 246.362 80.2056L240.663 80.3726L240.566 77.0757Z" fill="white"/>
<path d="M267.938 89.1656L267.363 69.5376L283.375 69.0684L283.95 88.6964L280.206 88.8061L279.727 72.475L271.178 72.7255L271.657 89.0566L267.938 89.1656Z" fill="white"/>
<path d="M289.274 95.9072L288.483 68.9187L292.214 68.8094L292.308 71.9913L292.627 71.9819C292.837 71.5665 293.142 71.0843 293.544 70.5354C293.946 69.9865 294.511 69.501 295.241 69.0788C295.97 68.6482 296.944 68.415 298.162 68.3793C299.746 68.3329 301.172 68.6919 302.439 69.4562C303.707 70.2206 304.716 71.3463 305.467 72.8335C306.227 74.3204 306.638 76.1245 306.7 78.2457C306.762 80.367 306.462 82.1961 305.799 83.7332C305.136 85.2618 304.199 86.4532 302.988 87.3072C301.777 88.1527 300.379 88.5987 298.794 88.6451C297.601 88.68 296.62 88.5084 295.85 88.1302C295.089 87.7518 294.487 87.3005 294.045 86.7763C293.604 86.252 293.262 85.7846 293.02 85.3739L292.79 85.3806L293.095 95.7952L289.274 95.9072ZM292.515 78.623C292.555 80.0031 292.791 81.2069 293.222 82.2345C293.653 83.2621 294.256 84.0587 295.031 84.6243C295.806 85.1814 296.743 85.4438 297.842 85.4116C298.984 85.3782 299.929 85.0478 300.678 84.4205C301.427 83.7846 301.982 82.9371 302.343 81.8777C302.713 80.8181 302.878 79.6324 302.84 78.3204C302.802 77.0255 302.572 75.8684 302.15 74.8491C301.736 73.8295 301.133 73.0329 300.34 72.4593C299.556 71.8855 298.589 71.6154 297.439 71.6491C296.332 71.6815 295.403 71.9944 294.653 72.5876C293.911 73.1806 293.36 73.994 292.998 75.0278C292.636 76.0615 292.475 77.26 292.515 78.623Z" fill="white"/>
<path d="M319.547 88.0498C317.707 88.1037 316.088 87.7291 314.692 86.9259C313.296 86.1227 312.196 84.974 311.394 83.4798C310.591 81.9856 310.16 80.2248 310.101 78.1972C310.041 76.1612 310.368 74.3696 311.082 72.8224C311.795 71.2753 312.825 70.0599 314.172 69.1764C315.519 68.2928 317.112 67.824 318.953 67.7701C320.793 67.7162 322.411 68.0908 323.807 68.894C325.203 69.6972 326.303 70.8502 327.106 72.3529C327.909 73.8556 328.34 75.625 328.4 77.661C328.459 79.6885 328.132 81.4716 327.418 83.0102C326.704 84.5488 325.674 85.7599 324.327 86.6435C322.98 87.5271 321.387 87.9958 319.547 88.0498ZM319.466 84.842C320.658 84.807 321.637 84.4629 322.403 83.8095C323.168 83.1561 323.722 82.3 324.067 81.2412C324.419 80.1821 324.577 79.0221 324.54 77.7613C324.503 76.509 324.278 75.3645 323.864 74.3279C323.458 73.2826 322.854 72.4519 322.052 71.8359C321.249 71.22 320.252 70.9294 319.059 70.9644C317.858 70.9996 316.87 71.3483 316.097 72.0104C315.332 72.6723 314.773 73.5371 314.421 74.6047C314.077 75.6635 313.923 76.819 313.96 78.0714C313.996 79.3322 314.218 80.481 314.623 81.5179C315.037 82.5545 315.645 83.3765 316.448 83.984C317.258 84.5912 318.264 84.8772 319.466 84.842Z" fill="white"/>
<path d="M343.826 82.2097L349.728 67.1241L353.025 67.0275L345.383 86.8962L342.546 86.9793L333.921 67.5873L337.179 67.4918L343.826 82.2097ZM336.118 67.5229L336.694 87.1508L332.95 87.2606L332.374 67.6326L336.118 67.5229ZM351.338 86.7217L350.763 67.0938L354.481 66.9848L355.056 86.6128L351.338 86.7217Z" fill="white"/>
<path d="M357.236 70.2038L357.139 66.9069L373.7 66.4217L373.797 69.7185L367.395 69.9061L367.873 86.2372L364.142 86.3465L363.664 70.0155L357.236 70.2038Z" fill="white"/>
<path d="M41.8713 173.935C41.3537 156.269 55.2548 141.529 72.9203 141.011L200.17 137.282C217.836 136.765 232.576 150.666 233.094 168.331L233.172 170.997C233.689 188.662 219.788 203.403 202.123 203.92L74.873 207.649C57.2075 208.167 42.4671 194.266 41.9494 176.6L41.8713 173.935Z" fill="white"/>
<path d="M252.216 167.771C251.698 150.105 265.6 135.365 283.265 134.847L410.515 131.119C428.18 130.601 442.921 144.502 443.438 162.168L443.516 164.833C444.034 182.499 430.133 197.239 412.468 197.757L285.218 201.485C267.552 202.003 252.812 188.102 252.294 170.436L252.216 167.771Z" fill="#10B981"/>
<path d="M116.73 165.252L119.49 165.171C120.785 165.133 121.944 165.389 122.966 165.939C123.988 166.489 124.801 167.272 125.405 168.289C126.009 169.306 126.331 170.496 126.371 171.859C126.411 173.222 126.159 174.432 125.616 175.488C125.073 176.544 124.307 177.379 123.319 177.994C122.331 178.608 121.19 178.934 119.895 178.972L117.134 179.053C115.84 179.091 114.681 178.835 113.659 178.285C112.637 177.735 111.823 176.952 111.22 175.935C110.616 174.918 110.294 173.728 110.254 172.365C110.214 171.002 110.465 169.793 111.009 168.737C111.552 167.68 112.317 166.845 113.306 166.231C114.294 165.616 115.435 165.29 116.73 165.252ZM116.785 167.126C115.797 167.155 114.968 167.387 114.299 167.822C113.635 168.256 113.138 168.856 112.808 169.622C112.484 170.387 112.337 171.281 112.367 172.303C112.396 173.314 112.595 174.19 112.964 174.929C113.338 175.668 113.869 176.236 114.557 176.63C115.25 177.025 116.091 177.208 117.08 177.179L119.84 177.098C120.828 177.069 121.654 176.837 122.318 176.403C122.987 175.968 123.484 175.368 123.808 174.603C124.138 173.837 124.288 172.943 124.258 171.921C124.229 170.91 124.027 170.035 123.653 169.295C123.284 168.556 122.753 167.989 122.059 167.594C121.371 167.199 120.533 167.016 119.545 167.045L116.785 167.126ZM119.114 162.795L119.655 181.264L117.542 181.326L117.001 162.857L119.114 162.795Z" fill="#1F2329" fill-opacity="0.3"/>
<path d="M135.21 180.365C134.029 180.4 132.984 180.149 132.076 179.613C131.174 179.076 130.458 178.31 129.929 177.314C129.405 176.317 129.123 175.143 129.084 173.792C129.044 172.429 129.256 171.232 129.72 170.2C130.19 169.169 130.86 168.359 131.729 167.771C132.605 167.183 133.633 166.871 134.814 166.837C135.995 166.802 137.037 167.053 137.94 167.589C138.848 168.125 139.564 168.895 140.088 169.897C140.617 170.899 140.902 172.081 140.942 173.444C140.982 174.796 140.766 175.984 140.296 177.01C139.832 178.035 139.162 178.842 138.287 179.431C137.417 180.019 136.392 180.33 135.21 180.365ZM135.158 178.559C136.055 178.533 136.786 178.281 137.352 177.804C137.918 177.327 138.329 176.71 138.586 175.952C138.842 175.194 138.957 174.378 138.932 173.503C138.906 172.628 138.743 171.818 138.442 171.07C138.142 170.323 137.695 169.725 137.102 169.276C136.509 168.828 135.764 168.616 134.867 168.643C133.97 168.669 133.238 168.924 132.673 169.406C132.107 169.889 131.696 170.512 131.44 171.276C131.184 172.039 131.068 172.858 131.094 173.733C131.12 174.607 131.283 175.415 131.583 176.157C131.883 176.898 132.33 177.491 132.922 177.934C133.515 178.377 134.26 178.585 135.158 178.559Z" fill="#1F2329" fill-opacity="0.3"/>
<path d="M142.162 168.668L142.107 166.794L152.739 166.482L152.794 168.356L148.5 168.482L148.829 179.693L146.818 179.752L146.49 168.541L142.162 168.668Z" fill="#1F2329" fill-opacity="0.3"/>
<path d="M160.7 179.618C159.518 179.653 158.474 179.402 157.565 178.866C156.663 178.33 155.947 177.563 155.418 176.567C154.894 175.571 154.612 174.396 154.573 173.045C154.533 171.682 154.745 170.485 155.209 169.454C155.679 168.422 156.349 167.613 157.218 167.024C158.094 166.436 159.122 166.124 160.303 166.09C161.484 166.055 162.526 166.306 163.429 166.842C164.337 167.378 165.053 168.148 165.577 169.15C166.106 170.152 166.391 171.334 166.431 172.697C166.471 174.049 166.255 175.238 165.785 176.263C165.321 177.289 164.651 178.095 163.776 178.684C162.906 179.272 161.881 179.583 160.7 179.618ZM160.647 177.812C161.544 177.786 162.276 177.534 162.841 177.057C163.407 176.58 163.818 175.963 164.075 175.205C164.331 174.447 164.446 173.631 164.421 172.756C164.395 171.882 164.232 171.071 163.932 170.323C163.631 169.576 163.184 168.978 162.591 168.53C161.999 168.081 161.253 167.87 160.356 167.896C159.459 167.922 158.727 168.177 158.162 168.659C157.596 169.142 157.185 169.765 156.929 170.529C156.673 171.292 156.557 172.111 156.583 172.986C156.609 173.86 156.772 174.669 157.072 175.41C157.372 176.152 157.819 176.744 158.411 177.187C159.004 177.63 159.749 177.838 160.647 177.812Z" fill="#1F2329" fill-opacity="0.3"/>
<path d="M312.783 174.889L312.272 157.442L318.661 157.255C319.899 157.218 320.931 157.393 321.755 157.778C322.579 158.157 323.202 158.687 323.626 159.369C324.049 160.044 324.274 160.813 324.299 161.677C324.32 162.403 324.205 163.021 323.952 163.528C323.7 164.03 323.354 164.438 322.914 164.753C322.48 165.061 321.998 165.291 321.468 165.443L321.473 165.613C322.053 165.625 322.623 165.796 323.184 166.126C323.751 166.45 324.225 166.922 324.607 167.542C324.989 168.162 325.193 168.923 325.22 169.826C325.246 170.718 325.059 171.525 324.66 172.247C324.266 172.964 323.64 173.542 322.784 173.982C321.927 174.416 320.822 174.653 319.471 174.693L312.783 174.889ZM315.349 172.554L319.149 172.443C320.41 172.406 321.306 172.135 321.837 171.631C322.367 171.126 322.622 170.508 322.601 169.775C322.585 169.224 322.431 168.723 322.139 168.271C321.847 167.819 321.439 167.465 320.914 167.207C320.395 166.949 319.783 166.831 319.079 166.852L315.186 166.966L315.349 172.554ZM315.126 164.913L318.652 164.809C319.243 164.792 319.771 164.663 320.236 164.422C320.706 164.181 321.074 163.851 321.341 163.434C321.612 163.011 321.74 162.519 321.724 161.957C321.702 161.235 321.432 160.638 320.912 160.164C320.392 159.691 319.61 159.469 318.565 159.5L314.97 159.605L315.126 164.913Z" fill="white"/>
<path d="M330.667 170.792L336.155 161.107L338.898 161.027L339.282 174.112L336.786 174.185L336.507 164.661L331.044 174.354L328.275 174.435L327.892 161.35L330.388 161.276L330.667 170.792Z" fill="white"/>
<path d="M341.539 177.823L341.364 171.843L342.429 171.812C342.694 171.554 342.915 171.249 343.093 170.897C343.276 170.545 343.425 170.128 343.542 169.648C343.664 169.167 343.762 168.607 343.834 167.968C343.906 167.323 343.964 166.588 344.008 165.763L344.274 160.87L353.168 160.609L353.487 171.488L355.497 171.429L355.672 177.409L353.185 177.482L353.074 173.708L343.95 173.976L344.061 177.75L341.539 177.823ZM345.155 171.732L350.999 171.561L350.744 162.863L346.621 162.984L346.427 165.692C346.337 167.07 346.207 168.268 346.038 169.285C345.869 170.296 345.574 171.111 345.155 171.732Z" fill="white"/>
<path d="M363.699 173.661C362.41 173.699 361.291 173.456 360.344 172.932C359.402 172.403 358.663 171.643 358.128 170.653C357.599 169.656 357.314 168.479 357.274 167.122C357.235 165.782 357.45 164.593 357.92 163.556C358.396 162.519 359.077 161.701 359.963 161.1C360.855 160.5 361.908 160.182 363.124 160.147C363.862 160.125 364.581 160.226 365.281 160.45C365.981 160.674 366.614 161.039 367.181 161.545C367.747 162.052 368.201 162.718 368.544 163.543C368.886 164.363 369.075 165.367 369.109 166.554L369.136 167.457L358.734 167.761L358.678 165.853L366.584 165.622C366.564 164.951 366.411 164.362 366.123 163.853C365.835 163.339 365.439 162.938 364.937 162.651C364.439 162.365 363.861 162.231 363.202 162.25C362.487 162.271 361.867 162.466 361.344 162.833C360.826 163.195 360.43 163.662 360.157 164.232C359.889 164.797 359.765 165.406 359.784 166.06L359.828 167.55C359.853 168.425 360.029 169.164 360.353 169.769C360.684 170.373 361.132 170.829 361.698 171.136C362.264 171.438 362.919 171.578 363.663 171.556C364.145 171.542 364.584 171.461 364.977 171.313C365.371 171.159 365.708 170.939 365.99 170.652C366.271 170.366 366.482 170.016 366.624 169.602L369.047 169.966C368.875 170.682 368.547 171.314 368.063 171.862C367.584 172.405 366.974 172.835 366.233 173.152C365.498 173.464 364.653 173.633 363.699 173.661Z" fill="white"/>
<path d="M377.651 173.252C376.424 173.288 375.345 173.039 374.415 172.503C373.484 171.968 372.751 171.202 372.216 170.206C371.681 169.21 371.393 168.036 371.354 166.684C371.314 165.327 371.532 164.132 372.007 163.101C372.483 162.069 373.17 161.259 374.068 160.67C374.966 160.081 376.028 159.769 377.255 159.733C378.481 159.697 379.56 159.946 380.491 160.482C381.422 161.017 382.155 161.786 382.69 162.788C383.226 163.79 383.513 164.969 383.553 166.327C383.592 167.678 383.374 168.867 382.899 169.893C382.423 170.918 381.736 171.726 380.838 172.315C379.94 172.904 378.878 173.216 377.651 173.252ZM377.597 171.114C378.392 171.091 379.045 170.861 379.555 170.425C380.065 169.99 380.435 169.419 380.664 168.713C380.899 168.007 381.004 167.234 380.98 166.393C380.955 165.559 380.805 164.796 380.529 164.104C380.259 163.408 379.856 162.854 379.321 162.443C378.786 162.032 378.121 161.839 377.326 161.862C376.525 161.886 375.867 162.118 375.351 162.559C374.841 163.001 374.468 163.577 374.233 164.289C374.004 164.995 373.902 165.765 373.926 166.6C373.951 167.441 374.098 168.207 374.369 168.898C374.645 169.589 375.05 170.137 375.585 170.542C376.125 170.947 376.796 171.137 377.597 171.114Z" fill="white"/>
<path d="M27.0516 321.321C26.2427 293.718 47.9632 270.687 75.5656 269.878L415.42 259.919C443.022 259.11 466.054 280.831 466.863 308.433L469.792 408.39C470.601 435.993 448.88 459.024 421.278 459.833L81.4236 469.792C53.8212 470.601 30.7894 448.88 29.9806 421.278L27.0516 321.321Z" fill="#2A2F36"/>
<path d="M166.602 306.045L169.771 305.952L170.453 329.209L179.653 328.94L178.972 305.682L182.141 305.59L182.822 328.847L192.023 328.577L191.341 305.32L194.511 305.227L195.277 331.398L167.369 332.216L166.602 306.045Z" fill="white" fill-opacity="0.3"/>
<path d="M207.012 331.514C205.768 331.551 204.633 331.35 203.605 330.911C202.577 330.463 201.752 329.801 201.13 328.924C200.507 328.039 200.177 326.957 200.139 325.679C200.106 324.554 200.301 323.636 200.724 322.925C201.146 322.205 201.722 321.634 202.451 321.212C203.181 320.79 203.99 320.467 204.878 320.245C205.776 320.014 206.678 319.826 207.586 319.68C208.774 319.492 209.738 319.348 210.477 319.25C211.224 319.143 211.765 318.986 212.1 318.78C212.444 318.574 212.608 318.228 212.594 317.743L212.591 317.64C212.554 316.38 212.18 315.41 211.47 314.732C210.768 314.053 209.723 313.734 208.334 313.775C206.894 313.817 205.775 314.165 204.975 314.82C204.176 315.474 203.621 316.164 203.309 316.889L200.417 315.951C200.893 314.743 201.548 313.795 202.38 313.105C203.221 312.407 204.144 311.911 205.15 311.617C206.164 311.315 207.166 311.149 208.154 311.12C208.784 311.101 209.511 311.157 210.333 311.286C211.164 311.407 211.969 311.686 212.749 312.123C213.538 312.561 214.201 313.236 214.74 314.15C215.278 315.063 215.57 316.3 215.616 317.859L215.995 330.791L212.979 330.879L212.901 328.221L212.748 328.226C212.556 328.658 212.228 329.123 211.765 329.623C211.303 330.122 210.68 330.554 209.898 330.918C209.116 331.282 208.154 331.481 207.012 331.514ZM207.393 328.792C208.585 328.757 209.584 328.493 210.388 328.001C211.2 327.508 211.805 326.885 212.2 326.131C212.605 325.378 212.795 324.592 212.771 323.774L212.69 321.014C212.567 321.171 212.29 321.32 211.859 321.46C211.436 321.592 210.945 321.713 210.386 321.823C209.835 321.925 209.296 322.017 208.77 322.101C208.252 322.176 207.832 322.239 207.509 322.291C206.728 322.416 206.001 322.604 205.326 322.854C204.659 323.095 204.124 323.448 203.72 323.911C203.324 324.366 203.137 324.977 203.16 325.744C203.19 326.792 203.601 327.573 204.392 328.087C205.191 328.592 206.191 328.827 207.393 328.792Z" fill="white" fill-opacity="0.3"/>
<path d="M235.276 303.214L236.863 305.009C236.284 305.606 235.606 306.031 234.829 306.284C234.052 306.537 233.17 306.703 232.183 306.783C231.196 306.864 230.099 306.947 228.891 307.033C227.529 307.124 226.41 307.49 225.534 308.129C224.657 308.769 223.993 309.675 223.541 310.848C223.09 312.021 222.82 313.453 222.734 315.143L222.989 315.136C223.618 313.89 224.511 312.96 225.67 312.346C226.829 311.732 228.081 311.406 229.427 311.366C230.96 311.321 232.351 311.639 233.599 312.318C234.846 312.998 235.849 314.03 236.605 315.415C237.362 316.799 237.771 318.523 237.831 320.584C237.891 322.637 237.577 324.42 236.888 325.932C236.208 327.444 235.223 328.624 233.935 329.472C232.655 330.311 231.138 330.756 229.383 330.808C227.628 330.859 226.078 330.491 224.733 329.703C223.388 328.907 222.326 327.702 221.545 326.088C220.764 324.465 220.338 322.444 220.267 320.025L220.206 317.929C220.078 313.559 220.722 310.223 222.138 307.922C223.563 305.621 225.769 304.388 228.757 304.224C229.813 304.159 230.754 304.122 231.58 304.115C232.407 304.108 233.126 304.049 233.737 303.937C234.347 303.825 234.86 303.584 235.276 303.214ZM229.303 328.099C230.487 328.064 231.497 327.736 232.331 327.115C233.174 326.493 233.81 325.635 234.238 324.539C234.666 323.435 234.859 322.146 234.815 320.673C234.773 319.241 234.504 318.03 234.006 317.038C233.516 316.047 232.833 315.299 231.957 314.796C231.082 314.293 230.043 314.06 228.842 314.095C227.964 314.12 227.181 314.293 226.491 314.611C225.801 314.93 225.218 315.386 224.74 315.98C224.263 316.574 223.901 317.292 223.653 318.135C223.413 318.977 223.3 319.936 223.315 321.01C223.379 323.207 223.946 324.952 225.016 326.242C226.085 327.532 227.514 328.151 229.303 328.099Z" fill="white" fill-opacity="0.3"/>
<path d="M240.986 330.058L240.904 327.247L241.62 327.226C242.207 327.209 242.694 327.079 243.079 326.838C243.464 326.588 243.767 326.166 243.988 325.571C244.218 324.967 244.381 324.135 244.478 323.075C244.583 322.006 244.641 320.649 244.653 319.003L244.756 310.303L257.841 309.92L258.416 329.548L255.401 329.636L254.908 312.819L247.701 313.031L247.599 320.042C247.578 321.654 247.475 323.077 247.29 324.31C247.112 325.535 246.814 326.567 246.395 327.406C245.985 328.245 245.424 328.884 244.712 329.322C244 329.761 243.099 329.996 242.009 330.028L240.986 330.058Z" fill="white" fill-opacity="0.3"/>
<path d="M271.935 329.561C270.163 329.613 268.596 329.236 267.234 328.432C265.881 327.628 264.807 326.478 264.012 324.984C263.227 323.489 262.804 321.728 262.745 319.701C262.685 317.656 263.003 315.86 263.7 314.314C264.405 312.767 265.409 311.552 266.714 310.67C268.026 309.787 269.569 309.32 271.341 309.268C273.113 309.216 274.676 309.593 276.029 310.397C277.392 311.201 278.466 312.355 279.251 313.858C280.046 315.361 280.473 317.135 280.533 319.179C280.592 321.207 280.269 322.99 279.564 324.528C278.867 326.066 277.863 327.277 276.55 328.159C275.246 329.042 273.707 329.509 271.935 329.561ZM271.856 326.852C273.202 326.812 274.299 326.435 275.148 325.719C275.997 325.004 276.613 324.078 276.998 322.941C277.382 321.804 277.555 320.58 277.517 319.268C277.479 317.956 277.234 316.739 276.783 315.619C276.333 314.498 275.663 313.601 274.773 312.928C273.884 312.255 272.766 311.938 271.42 311.977C270.074 312.017 268.977 312.399 268.128 313.123C267.28 313.847 266.664 314.781 266.279 315.926C265.895 317.072 265.722 318.3 265.761 319.612C265.799 320.924 266.044 322.136 266.494 323.249C266.944 324.361 267.614 325.249 268.503 325.914C269.392 326.579 270.51 326.891 271.856 326.852Z" fill="white" fill-opacity="0.3"/>
<path d="M298.229 317.177L298.312 319.989L287.475 320.306L287.393 317.495L298.229 317.177ZM287.861 309.04L288.437 328.668L285.421 328.756L284.846 309.128L287.861 309.04ZM300.282 308.676L300.857 328.304L297.842 328.392L297.267 308.764L300.282 308.676Z" fill="white" fill-opacity="0.3"/>
<path d="M308.605 315.543L314.227 315.378C316.528 315.311 318.304 315.843 319.556 316.974C320.809 318.106 321.461 319.566 321.514 321.355C321.548 322.531 321.307 323.608 320.79 324.586C320.272 325.557 319.494 326.342 318.454 326.944C317.415 327.537 316.128 327.856 314.594 327.901L306.365 328.143L305.79 308.515L308.806 308.426L309.298 325.243L314.512 325.09C315.705 325.055 316.675 324.711 317.423 324.058C318.172 323.406 318.531 322.585 318.502 321.597C318.472 320.557 318.064 319.721 317.278 319.088C316.492 318.454 315.503 318.155 314.31 318.19L308.687 318.354L308.605 315.543ZM324.817 327.602L324.242 307.974L327.258 307.886L327.833 327.513L324.817 327.602Z" fill="white" fill-opacity="0.3"/>
<path d="M48.901 413.832C48.3833 396.166 62.2844 381.426 79.9499 380.908L207.2 377.179C224.865 376.662 239.606 390.563 240.123 408.228L240.201 410.894C240.719 428.559 226.818 443.3 209.152 443.817L81.9026 447.546C64.2371 448.064 49.4967 434.163 48.9791 416.497L48.901 413.832Z" fill="white"/>
<path d="M259.246 407.668C258.728 390.002 272.629 375.262 290.295 374.744L417.544 371.016C435.21 370.498 449.95 384.399 450.468 402.065L450.546 404.73C451.064 422.396 437.163 437.136 419.497 437.654L292.247 441.382C274.582 441.9 259.841 427.999 259.324 410.333L259.246 407.668Z" fill="white"/>
<path d="M123.76 405.149L126.52 405.068C127.815 405.03 128.973 405.286 129.996 405.836C131.018 406.386 131.831 407.169 132.435 408.186C133.039 409.203 133.361 410.393 133.401 411.756C133.44 413.119 133.189 414.329 132.646 415.385C132.103 416.441 131.337 417.276 130.349 417.891C129.361 418.505 128.219 418.831 126.924 418.869L124.164 418.95C122.869 418.988 121.711 418.732 120.688 418.182C119.666 417.632 118.853 416.849 118.249 415.832C117.645 414.815 117.323 413.625 117.283 412.262C117.243 410.899 117.495 409.69 118.038 408.634C118.581 407.577 119.347 406.742 120.335 406.128C121.323 405.513 122.465 405.187 123.76 405.149ZM123.815 407.023C122.826 407.052 121.998 407.284 121.328 407.719C120.665 408.153 120.168 408.753 119.838 409.519C119.513 410.284 119.366 411.178 119.396 412.2C119.426 413.211 119.625 414.087 119.993 414.826C120.367 415.565 120.898 416.133 121.586 416.527C122.28 416.922 123.121 417.105 124.109 417.076L126.869 416.995C127.858 416.966 128.684 416.734 129.347 416.3C130.017 415.865 130.513 415.265 130.838 414.5C131.168 413.734 131.318 412.84 131.288 411.818C131.258 410.807 131.056 409.932 130.682 409.192C130.314 408.453 129.783 407.886 129.089 407.491C128.401 407.096 127.563 406.913 126.575 406.942L123.815 407.023ZM126.143 402.692L126.684 421.161L124.572 421.223L124.031 402.754L126.143 402.692Z" fill="#1F2329" fill-opacity="0.3"/>
<path d="M142.24 420.262C141.059 420.297 140.014 420.046 139.106 419.51C138.203 418.973 137.488 418.207 136.958 417.211C136.434 416.214 136.153 415.04 136.113 413.689C136.073 412.326 136.285 411.129 136.75 410.097C137.22 409.066 137.889 408.256 138.759 407.668C139.634 407.08 140.662 406.768 141.844 406.734C143.025 406.699 144.067 406.95 144.969 407.486C145.877 408.022 146.594 408.792 147.117 409.794C147.647 410.796 147.932 411.978 147.972 413.341C148.011 414.693 147.796 415.882 147.326 416.907C146.861 417.933 146.192 418.739 145.316 419.328C144.447 419.916 143.421 420.227 142.24 420.262ZM142.187 418.456C143.085 418.43 143.816 418.178 144.382 417.701C144.948 417.224 145.359 416.607 145.615 415.849C145.871 415.091 145.987 414.275 145.961 413.4C145.936 412.525 145.773 411.715 145.472 410.967C145.172 410.22 144.725 409.622 144.132 409.173C143.539 408.725 142.794 408.513 141.897 408.54C140.999 408.566 140.268 408.821 139.702 409.303C139.136 409.786 138.726 410.409 138.469 411.173C138.213 411.936 138.098 412.755 138.124 413.63C138.149 414.504 138.312 415.312 138.612 416.054C138.913 416.796 139.359 417.388 139.952 417.831C140.545 418.274 141.29 418.482 142.187 418.456Z" fill="#1F2329" fill-opacity="0.3"/>
<path d="M149.192 408.565L149.137 406.691L159.769 406.379L159.823 408.253L155.53 408.379L155.858 419.59L153.848 419.649L153.519 408.438L149.192 408.565Z" fill="#1F2329" fill-opacity="0.3"/>
<path d="M167.729 419.515C166.548 419.55 165.503 419.299 164.595 418.763C163.693 418.227 162.977 417.46 162.447 416.464C161.923 415.468 161.642 414.293 161.602 412.942C161.562 411.579 161.774 410.382 162.239 409.351C162.709 408.319 163.378 407.51 164.248 406.921C165.123 406.333 166.151 406.021 167.333 405.987C168.514 405.952 169.556 406.203 170.458 406.739C171.367 407.276 172.083 408.045 172.606 409.047C173.136 410.049 173.421 411.231 173.461 412.594C173.5 413.946 173.285 415.135 172.815 416.16C172.35 417.186 171.681 417.993 170.805 418.581C169.936 419.169 168.91 419.481 167.729 419.515ZM167.676 417.709C168.574 417.683 169.305 417.431 169.871 416.954C170.437 416.477 170.848 415.86 171.104 415.102C171.361 414.344 171.476 413.528 171.45 412.653C171.425 411.779 171.262 410.968 170.961 410.22C170.661 409.473 170.214 408.875 169.621 408.427C169.028 407.978 168.283 407.767 167.386 407.793C166.488 407.819 165.757 408.074 165.191 408.556C164.626 409.039 164.215 409.662 163.958 410.426C163.702 411.189 163.587 412.008 163.613 412.883C163.638 413.758 163.801 414.566 164.102 415.307C164.402 416.049 164.848 416.641 165.441 417.084C166.034 417.527 166.779 417.735 167.676 417.709Z" fill="#1F2329" fill-opacity="0.3"/>
<path d="M320.43 414.768L319.919 397.321L326.019 397.142C327.234 397.106 328.243 397.287 329.045 397.684C329.846 398.076 330.45 398.618 330.857 399.311C331.264 399.998 331.48 400.768 331.505 401.62C331.527 402.369 331.411 402.992 331.159 403.488C330.912 403.985 330.577 404.381 330.153 404.677C329.736 404.974 329.279 405.198 328.783 405.349L328.788 405.519C329.323 405.537 329.865 405.709 330.415 406.034C330.964 406.359 331.43 406.834 331.812 407.46C332.194 408.085 332.399 408.858 332.426 409.778C332.451 410.653 332.276 411.445 331.899 412.155C331.522 412.865 330.91 413.437 330.065 413.872C329.219 414.306 328.109 414.543 326.735 414.583L320.43 414.768ZM322.488 412.832L326.68 412.709C328.06 412.668 329.032 412.373 329.595 411.822C330.164 411.265 330.438 410.604 330.415 409.837C330.398 409.246 330.232 408.705 329.916 408.214C329.6 407.718 329.159 407.327 328.594 407.042C328.029 406.752 327.365 406.618 326.604 406.64L322.311 406.766L322.488 412.832ZM322.257 404.926L326.175 404.811C326.812 404.792 327.381 404.651 327.885 404.386C328.395 404.121 328.793 403.757 329.081 403.294C329.374 402.83 329.512 402.292 329.494 401.678C329.472 400.912 329.186 400.269 328.636 399.751C328.087 399.227 327.232 398.982 326.074 399.016L322.087 399.133L322.257 404.926Z" fill="#1F2329" fill-opacity="0.3"/>
<path d="M337.684 411.295L343.692 400.99L346.009 400.922L346.392 414.007L344.382 414.066L344.085 403.945L338.112 414.25L335.761 414.319L335.377 401.233L337.388 401.174L337.684 411.295Z" fill="#1F2329" fill-opacity="0.3"/>
<path d="M348.787 417.688L348.623 412.066L349.713 412.034C349.972 411.748 350.193 411.44 350.377 411.111C350.56 410.781 350.717 410.393 350.846 409.946C350.98 409.493 351.089 408.944 351.173 408.299C351.256 407.649 351.324 406.865 351.376 405.948L351.668 400.756L359.982 400.512L360.311 411.723L362.321 411.664L362.486 417.287L360.476 417.346L360.366 413.598L350.688 413.881L350.798 417.63L348.787 417.688ZM351.996 411.967L358.3 411.782L358.027 402.445L353.597 402.575L353.353 405.891C353.251 407.263 353.11 408.464 352.93 409.493C352.75 410.521 352.438 411.346 351.996 411.967Z" fill="#1F2329" fill-opacity="0.3"/>
<path d="M370.539 413.572C369.278 413.609 368.183 413.363 367.252 412.833C366.327 412.297 365.602 411.534 365.079 410.543C364.561 409.547 364.282 408.378 364.243 407.038C364.203 405.698 364.413 404.509 364.872 403.473C365.336 402.43 365.999 401.609 366.863 401.01C367.732 400.405 368.757 400.085 369.938 400.05C370.62 400.03 371.296 400.124 371.967 400.332C372.638 400.539 373.254 400.891 373.814 401.386C374.374 401.875 374.828 402.533 375.177 403.358C375.525 404.184 375.717 405.207 375.753 406.428L375.778 407.28L365.691 407.575L365.64 405.837L373.682 405.602C373.66 404.863 373.493 404.209 373.181 403.638C372.874 403.068 372.447 402.623 371.897 402.303C371.353 401.984 370.718 401.835 369.991 401.856C369.19 401.879 368.503 402.099 367.93 402.513C367.362 402.922 366.931 403.446 366.637 404.086C366.344 404.725 366.207 405.406 366.228 406.127L366.262 407.286C366.291 408.274 366.486 409.107 366.847 409.784C367.213 410.455 367.709 410.961 368.332 411.301C368.956 411.635 369.674 411.79 370.486 411.766C371.014 411.751 371.489 411.663 371.911 411.503C372.338 411.337 372.703 411.099 373.007 410.789C373.31 410.473 373.541 410.085 373.698 409.626L375.656 410.114C375.471 410.779 375.144 411.368 374.676 411.882C374.208 412.39 373.623 412.794 372.921 413.093C372.219 413.387 371.425 413.546 370.539 413.572Z" fill="#1F2329" fill-opacity="0.3"/>
<path d="M384.332 413.168C383.15 413.203 382.105 412.952 381.197 412.416C380.295 411.88 379.579 411.113 379.05 410.117C378.526 409.121 378.244 407.946 378.205 406.595C378.165 405.232 378.377 404.035 378.841 403.004C379.311 401.972 379.981 401.163 380.85 400.574C381.726 399.986 382.754 399.674 383.935 399.64C385.116 399.605 386.158 399.856 387.061 400.392C387.969 400.929 388.685 401.698 389.209 402.7C389.738 403.702 390.023 404.884 390.063 406.247C390.103 407.599 389.887 408.788 389.417 409.813C388.953 410.839 388.283 411.646 387.408 412.234C386.538 412.822 385.513 413.134 384.332 413.168ZM384.279 411.362C385.176 411.336 385.908 411.084 386.473 410.607C387.039 410.13 387.45 409.513 387.707 408.755C387.963 407.997 388.078 407.181 388.053 406.306C388.027 405.432 387.864 404.621 387.563 403.873C387.263 403.126 386.816 402.528 386.223 402.08C385.63 401.631 384.885 401.42 383.988 401.446C383.091 401.472 382.359 401.727 381.794 402.209C381.228 402.692 380.817 403.315 380.561 404.079C380.305 404.842 380.189 405.661 380.215 406.536C380.241 407.41 380.404 408.219 380.704 408.96C381.004 409.702 381.451 410.294 382.043 410.737C382.636 411.18 383.381 411.388 384.279 411.362Z" fill="#1F2329" fill-opacity="0.3"/>
</svg>
