<svg width="494" height="494" viewBox="0 0 494 494" fill="none" xmlns="http://www.w3.org/2000/svg">
<path d="M33.5203 68.0187C34.6151 40.4262 57.8708 18.9456 85.4633 20.0404L425.196 33.5202C452.789 34.615 474.269 57.8707 473.174 85.4632L469.21 185.385C468.115 212.977 444.859 234.458 417.267 233.363L77.534 219.883C49.9415 218.788 28.4608 195.533 29.5556 167.94L33.5203 68.0187Z" fill="#2A2F36"/>
<path d="M24.0051 307.83C25.0999 280.237 48.3556 258.757 75.9481 259.852L415.681 273.332C443.273 274.426 464.754 297.682 463.659 325.275L459.694 425.196C458.6 452.788 435.344 474.269 407.751 473.174L68.0188 459.694C40.4263 458.6 18.9456 435.344 20.0404 407.751L24.0051 307.83Z" fill="#2A2F36"/>
<path d="M48.9441 161.815C49.6448 144.156 64.5284 130.408 82.1876 131.109L209.392 136.156C227.051 136.857 240.799 151.74 240.098 169.4L239.992 172.064C239.292 189.723 224.408 203.471 206.749 202.77L79.5445 197.723C61.8853 197.022 48.1377 182.139 48.8383 164.48L48.9441 161.815Z" fill="white"/>
<path d="M39.4289 401.626C40.1296 383.967 55.0132 370.22 72.6724 370.92L199.877 375.967C217.536 376.668 231.283 391.552 230.583 409.211L230.477 411.876C229.776 429.535 214.893 443.282 197.234 442.582L70.0293 437.534C52.3701 436.834 38.6225 421.95 39.3232 404.291L39.4289 401.626Z" fill="#10B981"/>
<path d="M259.214 170.158C259.914 152.499 274.798 138.751 292.457 139.452L419.661 144.499C437.321 145.2 451.068 160.083 450.368 177.743L450.262 180.407C449.561 198.066 434.678 211.814 417.018 211.113L289.814 206.066C272.155 205.366 258.407 190.482 259.108 172.823L259.214 170.158Z" fill="white"/>
<path d="M249.698 409.969C250.399 392.31 265.283 378.563 282.942 379.263L410.146 384.31C427.805 385.011 441.553 399.895 440.852 417.554L440.747 420.219C440.046 437.878 425.162 451.625 407.503 450.925L280.299 445.878C262.64 445.177 248.892 430.293 249.593 412.634L249.698 409.969Z" fill="white"/>
<path d="M124.223 158.311L126.982 158.42C128.277 158.472 129.415 158.807 130.397 159.426C131.379 160.045 132.136 160.882 132.668 161.938C133.201 162.994 133.44 164.204 133.386 165.566C133.332 166.929 132.997 168.118 132.383 169.134C131.768 170.15 130.947 170.931 129.919 171.476C128.891 172.021 127.729 172.268 126.435 172.216L123.676 172.107C122.381 172.055 121.243 171.72 120.261 171.101C119.279 170.482 118.522 169.645 117.99 168.589C117.457 167.533 117.218 166.323 117.272 164.961C117.326 163.598 117.661 162.409 118.275 161.393C118.89 160.377 119.711 159.596 120.739 159.051C121.767 158.506 122.929 158.259 124.223 158.311ZM124.149 160.184C123.161 160.145 122.318 160.319 121.62 160.707C120.928 161.094 120.391 161.659 120.009 162.4C119.633 163.141 119.425 164.023 119.384 165.045C119.344 166.055 119.482 166.942 119.799 167.705C120.121 168.469 120.612 169.071 121.271 169.512C121.936 169.954 122.762 170.194 123.75 170.233L126.509 170.343C127.497 170.382 128.337 170.208 129.029 169.82C129.727 169.433 130.264 168.868 130.64 168.127C131.022 167.386 131.233 166.504 131.274 165.482C131.314 164.472 131.173 163.585 130.851 162.821C130.534 162.058 130.043 161.456 129.379 161.014C128.719 160.573 127.896 160.333 126.908 160.294L124.149 160.184ZM126.77 156.024L126.038 174.486L123.926 174.403L124.658 155.94L126.77 156.024Z" fill="#1F2329" fill-opacity="0.3"/>
<path d="M141.618 174.661C140.437 174.614 139.413 174.292 138.543 173.695C137.68 173.097 137.019 172.284 136.559 171.253C136.105 170.223 135.905 169.032 135.959 167.681C136.013 166.319 136.307 165.139 136.841 164.142C137.381 163.146 138.105 162.384 139.013 161.857C139.927 161.331 140.974 161.091 142.155 161.138C143.336 161.184 144.358 161.506 145.221 162.104C146.09 162.701 146.752 163.518 147.205 164.554C147.665 165.59 147.867 166.789 147.813 168.151C147.76 169.503 147.463 170.674 146.923 171.664C146.389 172.655 145.665 173.414 144.752 173.941C143.844 174.468 142.799 174.708 141.618 174.661ZM141.69 172.856C142.587 172.891 143.334 172.691 143.932 172.254C144.529 171.817 144.982 171.229 145.289 170.491C145.597 169.752 145.769 168.946 145.803 168.072C145.838 167.197 145.731 166.377 145.483 165.611C145.235 164.845 144.83 164.218 144.27 163.729C143.709 163.241 142.98 162.979 142.083 162.943C141.186 162.907 140.439 163.111 139.841 163.553C139.244 163.996 138.791 164.589 138.483 165.333C138.175 166.077 138.003 166.887 137.969 167.761C137.934 168.635 138.041 169.453 138.289 170.213C138.538 170.973 138.942 171.595 139.503 172.078C140.064 172.561 140.793 172.82 141.69 172.856Z" fill="#1F2329" fill-opacity="0.3"/>
<path d="M149.359 163.47L149.434 161.597L160.062 162.019L159.987 163.892L155.695 163.722L155.251 174.929L153.241 174.849L153.685 163.642L149.359 163.47Z" fill="#1F2329" fill-opacity="0.3"/>
<path d="M167.098 175.672C165.917 175.625 164.892 175.303 164.023 174.706C163.16 174.108 162.499 173.295 162.039 172.264C161.585 171.234 161.385 170.043 161.439 168.692C161.493 167.33 161.787 166.15 162.321 165.153C162.861 164.157 163.585 163.395 164.493 162.868C165.407 162.342 166.454 162.102 167.635 162.149C168.816 162.195 169.838 162.517 170.701 163.115C171.57 163.712 172.232 164.529 172.685 165.565C173.145 166.601 173.347 167.8 173.293 169.162C173.24 170.514 172.943 171.685 172.403 172.675C171.869 173.666 171.145 174.425 170.232 174.952C169.324 175.479 168.279 175.719 167.098 175.672ZM167.17 173.867C168.067 173.902 168.814 173.702 169.412 173.265C170.009 172.828 170.461 172.24 170.769 171.502C171.077 170.763 171.249 169.957 171.283 169.083C171.318 168.208 171.211 167.388 170.963 166.622C170.715 165.856 170.31 165.229 169.75 164.74C169.189 164.252 168.46 163.99 167.563 163.954C166.666 163.918 165.919 164.122 165.321 164.564C164.724 165.007 164.271 165.6 163.963 166.344C163.655 167.088 163.483 167.898 163.449 168.772C163.414 169.646 163.521 170.464 163.769 171.224C164.018 171.984 164.422 172.606 164.983 173.089C165.544 173.572 166.273 173.831 167.17 173.867Z" fill="#1F2329" fill-opacity="0.3"/>
<path d="M114.192 398.033L117.335 398.158C118.663 398.211 119.83 398.55 120.834 399.175C121.844 399.796 122.621 400.642 123.164 401.716C123.713 402.784 123.96 404.011 123.905 405.396C123.851 406.77 123.508 407.964 122.876 408.98C122.25 409.996 121.409 410.776 120.352 411.319C119.302 411.858 118.112 412.1 116.784 412.048L113.641 411.923C112.313 411.87 111.143 411.537 110.133 410.922C109.122 410.302 108.342 409.464 107.793 408.407C107.249 407.351 107.005 406.133 107.059 404.753C107.115 403.362 107.458 402.153 108.09 401.126C108.722 400.099 109.564 399.314 110.615 398.77C111.671 398.226 112.864 397.981 114.192 398.033ZM114.102 400.307C113.194 400.271 112.411 400.431 111.754 400.785C111.098 401.135 110.586 401.655 110.217 402.345C109.848 403.036 109.645 403.872 109.606 404.854C109.568 405.814 109.705 406.646 110.018 407.352C110.337 408.053 110.81 408.604 111.437 409.004C112.064 409.398 112.829 409.613 113.731 409.649L116.882 409.774C117.785 409.81 118.562 409.656 119.212 409.312C119.868 408.963 120.378 408.449 120.74 407.769C121.109 407.085 121.312 406.26 121.35 405.294C121.389 404.324 121.252 403.482 120.939 402.77C120.632 402.053 120.165 401.494 119.538 401.094C118.917 400.689 118.156 400.468 117.253 400.432L114.102 400.307ZM117.154 395.831L116.421 414.294L113.841 414.191L114.574 395.729L117.154 395.831Z" fill="white"/>
<path d="M132.137 414.465C130.91 414.416 129.851 414.093 128.959 413.495C128.068 412.896 127.389 412.082 126.924 411.051C126.459 410.021 126.253 408.83 126.307 407.478C126.361 406.122 126.66 404.945 127.206 403.949C127.751 402.953 128.492 402.192 129.429 401.666C130.365 401.14 131.446 400.902 132.673 400.95C133.899 400.999 134.958 401.322 135.85 401.921C136.742 402.519 137.42 403.336 137.885 404.373C138.35 405.409 138.555 406.605 138.502 407.962C138.448 409.314 138.149 410.484 137.603 411.475C137.058 412.465 136.317 413.224 135.381 413.749C134.444 414.275 133.363 414.514 132.137 414.465ZM132.23 412.328C133.025 412.359 133.692 412.176 134.231 411.776C134.77 411.377 135.178 410.833 135.455 410.144C135.739 409.456 135.897 408.692 135.93 407.852C135.963 407.017 135.866 406.246 135.638 405.537C135.416 404.823 135.053 404.243 134.547 403.797C134.042 403.35 133.392 403.111 132.597 403.08C131.796 403.048 131.124 403.234 130.579 403.639C130.04 404.044 129.628 404.594 129.345 405.288C129.067 405.976 128.912 406.737 128.879 407.572C128.846 408.412 128.94 409.186 129.162 409.895C129.39 410.603 129.756 411.178 130.262 411.619C130.773 412.06 131.429 412.296 132.23 412.328Z" fill="white"/>
<path d="M139.943 403.61L140.03 401.413L151.067 401.851L150.98 404.048L146.713 403.878L146.281 414.762L143.795 414.663L144.227 403.78L139.943 403.61Z" fill="white"/>
<path d="M158.132 415.497C156.905 415.448 155.846 415.124 154.955 414.526C154.063 413.928 153.384 413.113 152.919 412.083C152.454 411.052 152.248 409.861 152.302 408.51C152.356 407.153 152.655 405.976 153.201 404.98C153.747 403.984 154.488 403.223 155.424 402.697C156.36 402.172 157.442 401.933 158.668 401.982C159.894 402.03 160.953 402.354 161.845 402.952C162.737 403.55 163.415 404.368 163.88 405.404C164.345 406.44 164.551 407.637 164.497 408.994C164.443 410.345 164.144 411.516 163.598 412.506C163.053 413.497 162.312 414.255 161.376 414.781C160.439 415.307 159.358 415.545 158.132 415.497ZM158.225 413.359C159.02 413.391 159.687 413.207 160.226 412.808C160.765 412.408 161.173 411.864 161.45 411.176C161.734 410.488 161.892 409.723 161.925 408.883C161.958 408.049 161.861 407.277 161.633 406.569C161.411 405.855 161.048 405.275 160.542 404.828C160.037 404.382 159.387 404.143 158.592 404.111C157.791 404.079 157.119 404.266 156.574 404.671C156.035 405.076 155.623 405.625 155.34 406.319C155.062 407.007 154.907 407.769 154.874 408.603C154.841 409.444 154.935 410.218 155.157 410.926C155.385 411.635 155.752 412.209 156.257 412.65C156.769 413.091 157.425 413.328 158.225 413.359Z" fill="white"/>
<path d="M319.764 181.457L320.456 164.016L326.553 164.258C327.768 164.306 328.762 164.556 329.535 165.007C330.307 165.453 330.873 166.035 331.231 166.755C331.589 167.468 331.751 168.251 331.718 169.103C331.688 169.852 331.53 170.465 331.244 170.943C330.963 171.421 330.602 171.793 330.159 172.06C329.722 172.327 329.251 172.519 328.746 172.635L328.739 172.806C329.271 172.861 329.8 173.069 330.326 173.431C330.852 173.793 331.284 174.3 331.622 174.95C331.96 175.6 332.111 176.385 332.075 177.305C332.04 178.179 331.81 178.958 331.385 179.64C330.96 180.323 330.31 180.851 329.437 181.226C328.563 181.601 327.44 181.761 326.066 181.707L319.764 181.457ZM321.95 179.667L326.14 179.833C327.52 179.888 328.51 179.66 329.11 179.149C329.716 178.633 330.034 177.992 330.065 177.225C330.088 176.635 329.959 176.084 329.678 175.572C329.397 175.055 328.985 174.635 328.44 174.312C327.896 173.983 327.244 173.804 326.483 173.774L322.191 173.603L321.95 179.667ZM322.264 171.764L326.181 171.919C326.817 171.945 327.395 171.842 327.916 171.613C328.443 171.384 328.866 171.048 329.184 170.606C329.509 170.164 329.684 169.636 329.708 169.023C329.738 168.256 329.497 167.596 328.985 167.041C328.472 166.48 327.637 166.177 326.479 166.131L322.494 165.973L322.264 171.764Z" fill="#1F2329" fill-opacity="0.3"/>
<path d="M337.216 179.181L343.919 169.314L346.235 169.406L345.716 182.486L343.707 182.407L344.108 172.289L337.439 182.158L335.088 182.065L335.607 168.984L337.617 169.064L337.216 179.181Z" fill="#1F2329" fill-opacity="0.3"/>
<path d="M347.852 186.324L348.075 180.703L349.165 180.747C349.443 180.479 349.685 180.187 349.891 179.871C350.097 179.555 350.279 179.179 350.439 178.742C350.604 178.299 350.751 177.759 350.879 177.121C351.006 176.478 351.128 175.701 351.244 174.79L351.892 169.63L360.204 169.96L359.759 181.167L361.769 181.247L361.546 186.867L359.536 186.788L359.685 183.04L350.011 182.657L349.862 186.404L347.852 186.324ZM351.448 180.837L357.749 181.087L358.12 171.754L353.691 171.578L353.22 174.869C353.023 176.231 352.8 177.419 352.549 178.433C352.299 179.447 351.932 180.248 351.448 180.837Z" fill="#1F2329" fill-opacity="0.3"/>
<path d="M369.836 183.716C368.575 183.666 367.499 183.345 366.607 182.752C365.721 182.154 365.051 181.343 364.597 180.318C364.149 179.288 363.951 178.103 364.005 176.764C364.058 175.424 364.349 174.253 364.878 173.25C365.412 172.242 366.131 171.469 367.034 170.93C367.942 170.386 368.987 170.138 370.168 170.185C370.849 170.212 371.518 170.352 372.173 170.605C372.828 170.859 373.418 171.252 373.943 171.784C374.468 172.311 374.875 172.998 375.166 173.846C375.456 174.693 375.578 175.727 375.529 176.948L375.495 177.8L365.412 177.399L365.481 175.662L373.52 175.981C373.55 175.243 373.428 174.579 373.156 173.988C372.889 173.397 372.493 172.924 371.967 172.567C371.447 172.211 370.823 172.019 370.096 171.99C369.296 171.958 368.595 172.129 367.995 172.504C367.4 172.872 366.934 173.366 366.597 173.984C366.26 174.601 366.077 175.271 366.048 175.992L366.002 177.15C365.963 178.138 366.1 178.982 366.414 179.682C366.733 180.377 367.192 180.916 367.791 181.298C368.39 181.674 369.096 181.879 369.907 181.911C370.435 181.932 370.915 181.877 371.347 181.746C371.784 181.61 372.165 181.398 372.49 181.109C372.814 180.815 373.07 180.444 373.259 179.997L375.179 180.619C374.948 181.269 374.582 181.835 374.079 182.315C373.577 182.79 372.966 183.152 372.245 183.402C371.525 183.647 370.722 183.751 369.836 183.716Z" fill="#1F2329" fill-opacity="0.3"/>
<path d="M383.623 184.263C382.442 184.216 381.417 183.894 380.548 183.297C379.685 182.7 379.024 181.886 378.564 180.855C378.11 179.825 377.91 178.635 377.964 177.283C378.018 175.921 378.312 174.741 378.846 173.745C379.386 172.748 380.11 171.986 381.018 171.46C381.932 170.933 382.979 170.693 384.16 170.74C385.341 170.787 386.363 171.109 387.226 171.706C388.095 172.303 388.757 173.12 389.21 174.156C389.67 175.192 389.872 176.391 389.818 177.754C389.764 179.105 389.468 180.276 388.928 181.267C388.394 182.258 387.67 183.016 386.757 183.543C385.849 184.07 384.804 184.31 383.623 184.263ZM383.695 182.458C384.592 182.493 385.339 182.293 385.936 181.856C386.534 181.419 386.986 180.831 387.294 180.093C387.602 179.355 387.774 178.548 387.808 177.674C387.843 176.8 387.736 175.979 387.488 175.213C387.24 174.447 386.835 173.82 386.275 173.331C385.714 172.843 384.985 172.581 384.088 172.545C383.191 172.51 382.444 172.713 381.846 173.156C381.249 173.598 380.796 174.192 380.488 174.936C380.18 175.68 380.008 176.489 379.974 177.363C379.939 178.237 380.046 179.055 380.294 179.815C380.543 180.576 380.947 181.197 381.508 181.68C382.069 182.163 382.798 182.422 383.695 182.458Z" fill="#1F2329" fill-opacity="0.3"/>
<path d="M310.249 421.268L310.941 403.827L317.038 404.069C318.253 404.117 319.247 404.367 320.019 404.818C320.792 405.264 321.357 405.847 321.716 406.566C322.074 407.28 322.236 408.062 322.202 408.914C322.173 409.663 322.015 410.277 321.729 410.754C321.448 411.232 321.086 411.605 320.644 411.871C320.207 412.138 319.736 412.33 319.231 412.447L319.224 412.617C319.756 412.672 320.285 412.881 320.811 413.243C321.337 413.605 321.769 414.111 322.107 414.761C322.445 415.412 322.596 416.197 322.559 417.116C322.525 417.991 322.295 418.769 321.87 419.452C321.444 420.134 320.795 420.663 319.922 421.037C319.048 421.412 317.924 421.572 316.551 421.518L310.249 421.268ZM312.435 419.478L316.625 419.644C318.004 419.699 318.994 419.471 319.595 418.96C320.201 418.444 320.519 417.803 320.55 417.037C320.573 416.446 320.444 415.895 320.163 415.384C319.882 414.866 319.47 414.446 318.925 414.123C318.381 413.795 317.728 413.615 316.968 413.585L312.676 413.415L312.435 419.478ZM312.749 411.575L316.666 411.731C317.302 411.756 317.88 411.654 318.401 411.424C318.928 411.195 319.35 410.859 319.669 410.417C319.994 409.975 320.168 409.447 320.193 408.834C320.223 408.068 319.982 407.407 319.47 406.852C318.957 406.292 318.122 405.988 316.964 405.942L312.978 405.784L312.749 411.575Z" fill="#1F2329" fill-opacity="0.3"/>
<path d="M327.701 418.992L334.404 409.125L336.72 409.217L336.201 422.298L334.192 422.218L334.593 412.101L327.924 421.969L325.573 421.876L326.092 408.795L328.102 408.875L327.701 418.992Z" fill="#1F2329" fill-opacity="0.3"/>
<path d="M338.337 426.135L338.56 420.515L339.65 420.558C339.928 420.29 340.17 419.999 340.376 419.683C340.582 419.367 340.764 418.99 340.924 418.553C341.089 418.11 341.236 417.57 341.363 416.933C341.491 416.289 341.613 415.512 341.729 414.602L342.377 409.441L350.689 409.771L350.244 420.978L352.254 421.058L352.031 426.679L350.021 426.599L350.17 422.852L340.496 422.468L340.347 426.215L338.337 426.135ZM341.932 420.648L348.234 420.899L348.605 411.565L344.176 411.389L343.705 414.68C343.508 416.043 343.285 417.231 343.034 418.244C342.784 419.258 342.416 420.059 341.932 420.648Z" fill="#1F2329" fill-opacity="0.3"/>
<path d="M360.321 423.528C359.06 423.477 357.984 423.156 357.092 422.564C356.206 421.965 355.536 421.154 355.082 420.13C354.634 419.1 354.436 417.915 354.489 416.575C354.543 415.235 354.834 414.064 355.362 413.061C355.897 412.053 356.616 411.28 357.519 410.742C358.427 410.198 359.472 409.949 360.653 409.996C361.334 410.023 362.002 410.163 362.658 410.417C363.313 410.67 363.903 411.063 364.428 411.596C364.953 412.123 365.36 412.81 365.651 413.657C365.941 414.505 366.062 415.539 366.014 416.759L365.98 417.611L355.897 417.211L355.966 415.474L364.005 415.793C364.034 415.054 363.913 414.39 363.641 413.799C363.374 413.209 362.978 412.735 362.452 412.379C361.931 412.023 361.308 411.83 360.581 411.801C359.781 411.77 359.08 411.941 358.48 412.315C357.885 412.684 357.419 413.177 357.082 413.795C356.745 414.413 356.562 415.082 356.533 415.803L356.487 416.961C356.448 417.949 356.585 418.793 356.898 419.494C357.218 420.189 357.677 420.727 358.276 421.109C358.875 421.486 359.58 421.69 360.392 421.722C360.92 421.743 361.4 421.688 361.832 421.557C362.269 421.421 362.65 421.209 362.974 420.92C363.299 420.626 363.555 420.255 363.744 419.808L365.664 420.43C365.433 421.081 365.067 421.646 364.564 422.126C364.062 422.601 363.451 422.964 362.73 423.214C362.009 423.458 361.206 423.563 360.321 423.528Z" fill="#1F2329" fill-opacity="0.3"/>
<path d="M374.108 424.075C372.927 424.028 371.902 423.706 371.033 423.108C370.17 422.511 369.508 421.697 369.049 420.667C368.595 419.637 368.395 418.446 368.449 417.095C368.503 415.732 368.797 414.553 369.331 413.556C369.871 412.559 370.595 411.798 371.503 411.271C372.417 410.744 373.464 410.504 374.645 410.551C375.826 410.598 376.848 410.92 377.711 411.517C378.58 412.115 379.241 412.931 379.695 413.967C380.154 415.003 380.357 416.202 380.303 417.565C380.249 418.916 379.953 420.087 379.413 421.078C378.879 422.069 378.155 422.828 377.241 423.354C376.333 423.881 375.289 424.121 374.108 424.075ZM374.18 422.269C375.077 422.305 375.824 422.104 376.421 421.667C377.019 421.23 377.471 420.643 377.779 419.904C378.087 419.166 378.258 418.36 378.293 417.485C378.328 416.611 378.221 415.791 377.973 415.025C377.725 414.258 377.32 413.631 376.759 413.143C376.199 412.654 375.47 412.392 374.573 412.356C373.676 412.321 372.929 412.524 372.331 412.967C371.734 413.41 371.281 414.003 370.973 414.747C370.664 415.491 370.493 416.3 370.458 417.174C370.424 418.049 370.531 418.866 370.779 419.627C371.027 420.387 371.432 421.009 371.993 421.492C372.554 421.974 373.283 422.234 374.18 422.269Z" fill="#1F2329" fill-opacity="0.3"/>
<path d="M162.835 302.148L166.743 302.303L165.841 325.041L174.476 325.383L175.379 302.646L179.288 302.801L178.385 325.538L186.995 325.88L187.897 303.142L191.793 303.297L190.755 329.458L161.797 328.309L162.835 302.148Z" fill="white"/>
<path d="M202.247 330.349C201.004 330.3 199.889 330.025 198.902 329.525C197.916 329.017 197.147 328.309 196.594 327.4C196.05 326.491 195.804 325.394 195.855 324.108C195.899 323.001 196.148 322.098 196.602 321.399C197.056 320.701 197.654 320.158 198.394 319.769C199.134 319.38 199.956 319.097 200.859 318.92C201.761 318.743 202.679 318.617 203.611 318.543C204.792 318.453 205.75 318.381 206.486 318.324C207.222 318.26 207.76 318.132 208.101 317.941C208.441 317.75 208.62 317.424 208.638 316.964L208.642 316.875C208.686 315.759 208.405 314.882 207.799 314.244C207.202 313.606 206.286 313.263 205.051 313.214C203.765 313.163 202.741 313.408 201.977 313.949C201.222 314.482 200.691 315.088 200.382 315.767L196.825 314.807C197.298 313.631 197.958 312.694 198.805 311.994C199.66 311.286 200.631 310.787 201.717 310.497C202.804 310.199 203.939 310.074 205.123 310.12C205.906 310.152 206.733 310.278 207.603 310.5C208.481 310.714 209.294 311.079 210.041 311.595C210.797 312.111 211.404 312.83 211.862 313.753C212.32 314.667 212.521 315.839 212.464 317.269L211.947 330.299L208.217 330.151L208.324 327.468L208.171 327.462C207.904 327.946 207.514 328.417 207.001 328.874C206.489 329.332 205.838 329.703 205.051 329.987C204.263 330.271 203.329 330.392 202.247 330.349ZM203.199 327.316C204.255 327.358 205.166 327.185 205.932 326.798C206.707 326.411 207.303 325.888 207.722 325.231C208.149 324.566 208.378 323.846 208.409 323.071L208.509 320.541C208.367 320.672 208.098 320.789 207.702 320.893C207.314 320.989 206.872 321.069 206.375 321.135C205.878 321.192 205.394 321.245 204.922 321.295C204.452 321.336 204.058 321.371 203.741 321.401C202.997 321.466 202.313 321.596 201.691 321.793C201.078 321.991 200.58 322.291 200.197 322.694C199.823 323.088 199.623 323.626 199.596 324.307C199.558 325.253 199.879 325.982 200.558 326.495C201.237 327 202.118 327.273 203.199 327.316Z" fill="white"/>
<path d="M233.24 304.174L234.729 306.651C234.12 307.164 233.436 307.521 232.677 307.721C231.928 307.913 231.066 308.02 230.093 308.041C229.12 308.053 228.007 308.056 226.753 308.049C225.338 308.035 224.164 308.296 223.23 308.83C222.296 309.356 221.56 310.163 221.023 311.25C220.494 312.33 220.124 313.697 219.913 315.352L220.156 315.361C220.843 314.169 221.765 313.293 222.921 312.733C224.086 312.174 225.38 311.922 226.802 311.979C228.386 312.041 229.781 312.459 230.987 313.232C232.193 314.005 233.122 315.104 233.774 316.528C234.434 317.945 234.724 319.658 234.644 321.668C234.564 323.703 234.119 325.447 233.311 326.899C232.511 328.351 231.418 329.455 230.032 330.211C228.655 330.958 227.051 331.295 225.22 331.222C223.389 331.15 221.809 330.673 220.479 329.793C219.158 328.905 218.155 327.628 217.471 325.963C216.795 324.299 216.504 322.266 216.599 319.864L216.677 317.923C216.855 313.435 217.789 310.09 219.48 307.888C221.171 305.686 223.61 304.619 226.797 304.686C227.829 304.701 228.749 304.733 229.557 304.782C230.366 304.823 231.074 304.813 231.682 304.752C232.299 304.682 232.818 304.49 233.24 304.174ZM225.36 328.016C226.424 328.059 227.35 327.827 228.138 327.321C228.935 326.806 229.562 326.059 230.018 325.079C230.475 324.1 230.73 322.933 230.784 321.579C230.837 320.25 230.673 319.114 230.293 318.169C229.912 317.224 229.344 316.493 228.588 315.977C227.833 315.453 226.915 315.169 225.833 315.126C225.032 315.094 224.312 315.206 223.67 315.462C223.029 315.71 222.472 316.093 222 316.611C221.536 317.13 221.165 317.772 220.887 318.538C220.618 319.295 220.455 320.171 220.399 321.167C220.318 323.193 220.719 324.826 221.599 326.063C222.488 327.301 223.742 327.952 225.36 328.016Z" fill="white"/>
<path d="M236.988 331.293L237.106 327.984L237.809 328.011C238.354 328.033 238.814 327.936 239.189 327.721C239.573 327.497 239.896 327.109 240.157 326.556C240.417 326.004 240.631 325.236 240.798 324.253C240.965 323.262 241.109 322.014 241.228 320.509L241.918 311.836L255.612 312.38L254.833 332.001L251.09 331.852L251.738 315.527L245.325 315.272L244.754 321.928C244.613 323.543 244.391 324.95 244.088 326.15C243.793 327.349 243.391 328.344 242.882 329.134C242.373 329.915 241.736 330.492 240.971 330.862C240.206 331.224 239.287 331.384 238.214 331.341L236.988 331.293Z" fill="white"/>
<path d="M268.176 332.927C266.336 332.854 264.748 332.368 263.41 331.471C262.073 330.573 261.055 329.352 260.357 327.806C259.659 326.26 259.351 324.473 259.431 322.447C259.512 320.411 259.961 318.647 260.78 317.152C261.598 315.658 262.71 314.516 264.114 313.728C265.519 312.939 267.141 312.581 268.98 312.654C270.82 312.727 272.408 313.212 273.746 314.11C275.083 315.007 276.101 316.233 276.798 317.788C277.496 319.342 277.804 321.137 277.723 323.172C277.643 325.199 277.194 326.956 276.376 328.441C275.558 329.927 274.446 331.064 273.042 331.853C271.637 332.642 270.015 333 268.176 332.927ZM268.316 329.721C269.508 329.768 270.508 329.492 271.317 328.893C272.125 328.294 272.738 327.478 273.154 326.446C273.579 325.413 273.816 324.267 273.866 323.007C273.916 321.755 273.77 320.598 273.428 319.535C273.095 318.464 272.55 317.594 271.792 316.924C271.034 316.254 270.058 315.896 268.866 315.848C267.665 315.801 266.656 316.08 265.839 316.688C265.03 317.295 264.413 318.119 263.988 319.16C263.572 320.193 263.339 321.335 263.289 322.587C263.239 323.847 263.381 325.009 263.714 326.071C264.056 327.134 264.606 327.996 265.364 328.657C266.131 329.319 267.115 329.673 268.316 329.721Z" fill="white"/>
<path d="M295.353 322.132L295.222 325.44L284.594 325.019L284.725 321.71L295.353 322.132ZM286.122 313.59L285.344 333.211L281.601 333.063L282.38 313.442L286.122 313.59ZM298.347 314.075L297.569 333.696L293.839 333.548L294.617 313.927L298.347 314.075Z" fill="white"/>
<path d="M306.063 321.137L311.761 321.363C314.162 321.458 315.986 322.128 317.233 323.371C318.481 324.615 319.067 326.178 318.992 328.06C318.943 329.286 318.61 330.377 317.992 331.334C317.374 332.29 316.496 333.031 315.358 333.558C314.22 334.075 312.851 334.303 311.25 334.239L302.678 333.899L303.457 314.278L307.2 314.427L306.552 330.752L311.38 330.943C312.479 330.987 313.393 330.737 314.122 330.195C314.852 329.644 315.235 328.921 315.27 328.027C315.308 327.082 314.985 326.297 314.302 325.673C313.619 325.04 312.728 324.702 311.63 324.659L305.933 324.432L306.063 321.137ZM321.52 334.647L322.298 315.026L326.118 315.177L325.339 334.798L321.52 334.647Z" fill="white"/>
<path d="M13.536 67.2258C15.0688 28.5962 47.6267 -1.47665 86.2562 0.0560886L425.989 13.536C464.618 15.0687 494.691 47.6266 493.159 86.2562L479.679 425.989C478.146 464.618 445.588 494.691 406.959 493.159L67.2258 479.679C28.5963 478.146 -1.47659 445.588 0.0561506 406.958L13.536 67.2258Z" fill="#1F2329"/>
<path d="M33.5203 68.0187C34.6151 40.4262 57.8708 18.9456 85.4633 20.0404L425.196 33.5202C452.789 34.615 474.269 57.8707 473.174 85.4632L469.21 185.385C468.115 212.977 444.859 234.458 417.267 233.363L77.534 219.883C49.9415 218.788 28.4608 195.533 29.5556 167.94L33.5203 68.0187Z" fill="#2A2F36"/>
<path d="M48.9441 161.815C49.6448 144.156 64.5284 130.408 82.1876 131.109L209.392 136.156C227.051 136.857 240.799 151.74 240.098 169.4L239.992 172.064C239.292 189.723 224.408 203.471 206.749 202.77L79.5445 197.723C61.8853 197.022 48.1377 182.139 48.8383 164.48L48.9441 161.815Z" fill="white"/>
<path d="M259.214 170.158C259.914 152.499 274.798 138.751 292.457 139.452L419.661 144.499C437.321 145.2 451.068 160.083 450.368 177.743L450.262 180.407C449.561 198.066 434.678 211.814 417.018 211.113L289.814 206.066C272.155 205.366 258.407 190.482 259.108 172.823L259.214 170.158Z" fill="white"/>
<path d="M124.223 158.311L126.982 158.42C128.277 158.472 129.415 158.807 130.397 159.426C131.379 160.045 132.136 160.882 132.668 161.938C133.201 162.994 133.44 164.204 133.386 165.566C133.332 166.929 132.997 168.118 132.383 169.134C131.768 170.15 130.947 170.931 129.919 171.476C128.891 172.021 127.729 172.268 126.435 172.216L123.676 172.107C122.381 172.055 121.243 171.72 120.261 171.101C119.279 170.482 118.522 169.645 117.99 168.589C117.457 167.533 117.218 166.323 117.272 164.961C117.326 163.598 117.661 162.409 118.275 161.393C118.89 160.377 119.711 159.596 120.739 159.051C121.767 158.506 122.929 158.259 124.223 158.311ZM124.149 160.184C123.161 160.145 122.318 160.319 121.62 160.707C120.928 161.094 120.391 161.659 120.009 162.4C119.633 163.141 119.425 164.023 119.384 165.045C119.344 166.055 119.482 166.942 119.799 167.705C120.121 168.469 120.612 169.071 121.271 169.512C121.936 169.954 122.762 170.194 123.75 170.233L126.509 170.343C127.497 170.382 128.337 170.208 129.029 169.82C129.727 169.433 130.264 168.868 130.64 168.127C131.022 167.386 131.233 166.504 131.274 165.482C131.314 164.472 131.173 163.585 130.851 162.821C130.534 162.058 130.043 161.456 129.379 161.014C128.719 160.573 127.896 160.333 126.908 160.294L124.149 160.184ZM126.77 156.024L126.038 174.486L123.926 174.403L124.658 155.94L126.77 156.024Z" fill="#1F2329" fill-opacity="0.3"/>
<path d="M141.618 174.661C140.437 174.614 139.413 174.292 138.543 173.695C137.68 173.097 137.019 172.284 136.559 171.253C136.105 170.223 135.905 169.032 135.959 167.681C136.013 166.319 136.307 165.139 136.841 164.142C137.381 163.146 138.105 162.384 139.013 161.857C139.927 161.331 140.974 161.091 142.155 161.138C143.336 161.184 144.358 161.506 145.221 162.104C146.09 162.701 146.752 163.518 147.205 164.554C147.665 165.59 147.867 166.789 147.813 168.151C147.76 169.503 147.463 170.674 146.923 171.664C146.389 172.655 145.665 173.414 144.752 173.941C143.844 174.468 142.799 174.708 141.618 174.661ZM141.69 172.856C142.587 172.891 143.334 172.691 143.932 172.254C144.529 171.817 144.982 171.229 145.289 170.491C145.597 169.752 145.769 168.946 145.803 168.072C145.838 167.197 145.731 166.377 145.483 165.611C145.235 164.845 144.83 164.218 144.27 163.729C143.709 163.241 142.98 162.979 142.083 162.943C141.186 162.907 140.439 163.111 139.841 163.553C139.244 163.996 138.791 164.589 138.483 165.333C138.175 166.077 138.003 166.887 137.969 167.761C137.934 168.635 138.041 169.453 138.289 170.213C138.538 170.973 138.942 171.595 139.503 172.078C140.064 172.561 140.793 172.82 141.69 172.856Z" fill="#1F2329" fill-opacity="0.3"/>
<path d="M149.359 163.47L149.434 161.597L160.062 162.019L159.987 163.892L155.695 163.722L155.251 174.929L153.241 174.849L153.685 163.642L149.359 163.47Z" fill="#1F2329" fill-opacity="0.3"/>
<path d="M167.098 175.672C165.917 175.625 164.892 175.303 164.023 174.706C163.16 174.108 162.499 173.295 162.039 172.264C161.585 171.234 161.385 170.043 161.439 168.692C161.493 167.33 161.787 166.15 162.321 165.153C162.861 164.157 163.585 163.395 164.493 162.868C165.407 162.342 166.454 162.102 167.635 162.149C168.816 162.195 169.838 162.517 170.701 163.115C171.57 163.712 172.232 164.529 172.685 165.565C173.145 166.601 173.347 167.8 173.293 169.162C173.24 170.514 172.943 171.685 172.403 172.675C171.869 173.666 171.145 174.425 170.232 174.952C169.324 175.479 168.279 175.719 167.098 175.672ZM167.17 173.867C168.067 173.902 168.814 173.702 169.412 173.265C170.009 172.828 170.461 172.24 170.769 171.502C171.077 170.763 171.249 169.957 171.283 169.083C171.318 168.208 171.211 167.388 170.963 166.622C170.715 165.856 170.31 165.229 169.75 164.74C169.189 164.252 168.46 163.99 167.563 163.954C166.666 163.918 165.919 164.122 165.321 164.564C164.724 165.007 164.271 165.6 163.963 166.344C163.655 167.088 163.483 167.898 163.449 168.772C163.414 169.646 163.521 170.464 163.769 171.224C164.018 171.984 164.422 172.606 164.983 173.089C165.544 173.572 166.273 173.831 167.17 173.867Z" fill="#1F2329" fill-opacity="0.3"/>
<path d="M319.764 181.457L320.456 164.016L326.553 164.258C327.768 164.306 328.762 164.556 329.535 165.007C330.307 165.453 330.873 166.035 331.231 166.755C331.589 167.468 331.751 168.251 331.718 169.103C331.688 169.852 331.53 170.465 331.244 170.943C330.963 171.421 330.602 171.793 330.159 172.06C329.722 172.327 329.251 172.519 328.746 172.635L328.739 172.806C329.271 172.861 329.8 173.069 330.326 173.431C330.852 173.793 331.284 174.3 331.622 174.95C331.96 175.6 332.111 176.385 332.075 177.305C332.04 178.179 331.81 178.958 331.385 179.64C330.96 180.323 330.31 180.851 329.437 181.226C328.563 181.601 327.44 181.761 326.066 181.707L319.764 181.457ZM321.95 179.667L326.14 179.833C327.52 179.888 328.51 179.66 329.11 179.149C329.716 178.633 330.034 177.992 330.065 177.225C330.088 176.635 329.959 176.084 329.678 175.572C329.397 175.055 328.985 174.635 328.44 174.312C327.896 173.983 327.244 173.804 326.483 173.774L322.191 173.603L321.95 179.667ZM322.264 171.764L326.181 171.919C326.817 171.945 327.395 171.842 327.916 171.613C328.443 171.384 328.866 171.048 329.184 170.606C329.509 170.164 329.684 169.636 329.708 169.023C329.738 168.256 329.497 167.596 328.985 167.041C328.472 166.48 327.637 166.177 326.479 166.131L322.494 165.973L322.264 171.764Z" fill="#1F2329" fill-opacity="0.3"/>
<path d="M337.216 179.181L343.919 169.314L346.235 169.406L345.716 182.486L343.707 182.407L344.108 172.289L337.439 182.158L335.088 182.065L335.607 168.984L337.617 169.064L337.216 179.181Z" fill="#1F2329" fill-opacity="0.3"/>
<path d="M347.852 186.324L348.075 180.703L349.165 180.747C349.443 180.479 349.685 180.187 349.891 179.871C350.097 179.555 350.279 179.179 350.439 178.742C350.604 178.299 350.751 177.759 350.879 177.121C351.006 176.478 351.128 175.701 351.244 174.79L351.892 169.63L360.204 169.96L359.759 181.167L361.769 181.247L361.546 186.867L359.536 186.788L359.685 183.04L350.011 182.657L349.862 186.404L347.852 186.324ZM351.448 180.837L357.749 181.087L358.12 171.754L353.691 171.578L353.22 174.869C353.023 176.231 352.8 177.419 352.549 178.433C352.299 179.447 351.932 180.248 351.448 180.837Z" fill="#1F2329" fill-opacity="0.3"/>
<path d="M369.836 183.716C368.575 183.666 367.499 183.345 366.607 182.752C365.721 182.154 365.051 181.343 364.597 180.318C364.149 179.288 363.951 178.103 364.005 176.764C364.058 175.424 364.349 174.253 364.878 173.25C365.412 172.242 366.131 171.469 367.034 170.93C367.942 170.386 368.987 170.138 370.168 170.185C370.849 170.212 371.518 170.352 372.173 170.605C372.828 170.859 373.418 171.252 373.943 171.784C374.468 172.311 374.875 172.998 375.166 173.846C375.456 174.693 375.578 175.727 375.529 176.948L375.495 177.8L365.412 177.399L365.481 175.662L373.52 175.981C373.55 175.243 373.428 174.579 373.156 173.988C372.889 173.397 372.493 172.924 371.967 172.567C371.447 172.211 370.823 172.019 370.096 171.99C369.296 171.958 368.595 172.129 367.995 172.504C367.4 172.872 366.934 173.366 366.597 173.984C366.26 174.601 366.077 175.271 366.048 175.992L366.002 177.15C365.963 178.138 366.1 178.982 366.414 179.682C366.733 180.377 367.192 180.916 367.791 181.298C368.39 181.674 369.096 181.879 369.907 181.911C370.435 181.932 370.915 181.877 371.347 181.746C371.784 181.61 372.165 181.398 372.49 181.109C372.814 180.815 373.07 180.444 373.259 179.997L375.179 180.619C374.948 181.269 374.582 181.835 374.079 182.315C373.577 182.79 372.966 183.152 372.245 183.402C371.525 183.647 370.722 183.751 369.836 183.716Z" fill="#1F2329" fill-opacity="0.3"/>
<path d="M383.623 184.263C382.442 184.216 381.417 183.894 380.548 183.297C379.685 182.7 379.024 181.886 378.564 180.855C378.11 179.825 377.91 178.635 377.964 177.283C378.018 175.921 378.312 174.741 378.846 173.745C379.386 172.748 380.11 171.986 381.018 171.46C381.932 170.933 382.979 170.693 384.16 170.74C385.341 170.787 386.363 171.109 387.226 171.706C388.095 172.303 388.757 173.12 389.21 174.156C389.67 175.192 389.872 176.391 389.818 177.754C389.764 179.105 389.468 180.276 388.928 181.267C388.394 182.258 387.67 183.016 386.757 183.543C385.849 184.07 384.804 184.31 383.623 184.263ZM383.695 182.458C384.592 182.493 385.339 182.293 385.936 181.856C386.534 181.419 386.986 180.831 387.294 180.093C387.602 179.355 387.774 178.548 387.808 177.674C387.843 176.8 387.736 175.979 387.488 175.213C387.24 174.447 386.835 173.82 386.275 173.331C385.714 172.843 384.985 172.581 384.088 172.545C383.191 172.51 382.444 172.713 381.846 173.156C381.249 173.598 380.796 174.192 380.488 174.936C380.18 175.68 380.008 176.489 379.974 177.363C379.939 178.237 380.046 179.055 380.294 179.815C380.543 180.576 380.947 181.197 381.508 181.68C382.069 182.163 382.798 182.422 383.695 182.458Z" fill="#1F2329" fill-opacity="0.3"/>
<path d="M24.0051 307.83C25.0999 280.237 48.3556 258.757 75.9481 259.852L415.681 273.332C443.273 274.426 464.754 297.682 463.659 325.275L459.694 425.196C458.6 452.788 435.344 474.269 407.751 473.174L68.0188 459.694C40.4263 458.6 18.9456 435.344 20.0404 407.751L24.0051 307.83Z" fill="#2A2F36"/>
<path d="M162.835 302.148L166.743 302.303L165.841 325.041L174.476 325.383L175.379 302.646L179.288 302.801L178.385 325.538L186.995 325.88L187.897 303.142L191.793 303.297L190.755 329.458L161.797 328.309L162.835 302.148Z" fill="white"/>
<path d="M202.247 330.349C201.004 330.3 199.889 330.025 198.902 329.525C197.916 329.017 197.147 328.309 196.594 327.4C196.05 326.491 195.804 325.394 195.855 324.108C195.899 323.001 196.148 322.098 196.602 321.399C197.056 320.701 197.654 320.158 198.394 319.769C199.134 319.38 199.956 319.097 200.859 318.92C201.761 318.743 202.679 318.617 203.611 318.543C204.792 318.453 205.75 318.381 206.486 318.324C207.222 318.26 207.76 318.132 208.101 317.941C208.441 317.75 208.62 317.424 208.638 316.964L208.642 316.875C208.686 315.759 208.405 314.882 207.799 314.244C207.202 313.606 206.286 313.263 205.051 313.214C203.765 313.163 202.741 313.408 201.977 313.949C201.222 314.482 200.691 315.088 200.382 315.767L196.825 314.807C197.298 313.631 197.958 312.694 198.805 311.994C199.66 311.286 200.631 310.787 201.717 310.497C202.804 310.199 203.939 310.074 205.123 310.12C205.906 310.152 206.733 310.278 207.603 310.5C208.481 310.714 209.294 311.079 210.041 311.595C210.797 312.111 211.404 312.83 211.862 313.753C212.32 314.667 212.521 315.839 212.464 317.269L211.947 330.299L208.217 330.151L208.324 327.468L208.171 327.462C207.904 327.946 207.514 328.417 207.001 328.874C206.489 329.332 205.838 329.703 205.051 329.987C204.263 330.271 203.329 330.392 202.247 330.349ZM203.199 327.316C204.255 327.358 205.166 327.185 205.932 326.798C206.707 326.411 207.303 325.888 207.722 325.231C208.149 324.566 208.378 323.846 208.409 323.071L208.509 320.541C208.367 320.672 208.098 320.789 207.702 320.893C207.314 320.989 206.872 321.069 206.375 321.135C205.878 321.192 205.394 321.245 204.922 321.295C204.452 321.336 204.058 321.371 203.741 321.401C202.997 321.466 202.313 321.596 201.691 321.793C201.078 321.991 200.58 322.291 200.197 322.694C199.823 323.088 199.623 323.626 199.596 324.307C199.558 325.253 199.879 325.982 200.558 326.495C201.237 327 202.118 327.273 203.199 327.316Z" fill="white"/>
<path d="M233.24 304.174L234.729 306.651C234.12 307.164 233.436 307.521 232.677 307.721C231.928 307.913 231.066 308.02 230.093 308.041C229.12 308.053 228.007 308.056 226.753 308.049C225.338 308.035 224.164 308.296 223.23 308.83C222.296 309.356 221.56 310.163 221.023 311.25C220.494 312.33 220.124 313.697 219.913 315.352L220.156 315.361C220.843 314.169 221.765 313.293 222.921 312.733C224.086 312.174 225.38 311.922 226.802 311.979C228.386 312.041 229.781 312.459 230.987 313.232C232.193 314.005 233.122 315.104 233.774 316.528C234.434 317.945 234.724 319.658 234.644 321.668C234.564 323.703 234.119 325.447 233.311 326.899C232.511 328.351 231.418 329.455 230.032 330.211C228.655 330.958 227.051 331.295 225.22 331.222C223.389 331.15 221.809 330.673 220.479 329.793C219.158 328.905 218.155 327.628 217.471 325.963C216.795 324.299 216.504 322.266 216.599 319.864L216.677 317.923C216.855 313.435 217.789 310.09 219.48 307.888C221.171 305.686 223.61 304.619 226.797 304.686C227.829 304.701 228.749 304.733 229.557 304.782C230.366 304.823 231.074 304.813 231.682 304.752C232.299 304.682 232.818 304.49 233.24 304.174ZM225.36 328.016C226.424 328.059 227.35 327.827 228.138 327.321C228.935 326.806 229.562 326.059 230.018 325.079C230.475 324.1 230.73 322.933 230.784 321.579C230.837 320.25 230.673 319.114 230.293 318.169C229.912 317.224 229.344 316.493 228.588 315.977C227.833 315.453 226.915 315.169 225.833 315.126C225.032 315.094 224.312 315.206 223.67 315.462C223.029 315.71 222.472 316.093 222 316.611C221.536 317.13 221.165 317.772 220.887 318.538C220.618 319.295 220.455 320.171 220.399 321.167C220.318 323.193 220.719 324.826 221.599 326.063C222.488 327.301 223.742 327.952 225.36 328.016Z" fill="white"/>
<path d="M236.988 331.293L237.106 327.984L237.809 328.011C238.354 328.033 238.814 327.936 239.189 327.721C239.573 327.497 239.896 327.109 240.157 326.556C240.417 326.004 240.631 325.236 240.798 324.253C240.965 323.262 241.109 322.014 241.228 320.509L241.918 311.836L255.612 312.38L254.833 332.001L251.09 331.852L251.738 315.527L245.325 315.272L244.754 321.928C244.613 323.543 244.391 324.95 244.088 326.15C243.793 327.349 243.391 328.344 242.882 329.134C242.373 329.915 241.736 330.492 240.971 330.862C240.206 331.224 239.287 331.384 238.214 331.341L236.988 331.293Z" fill="white"/>
<path d="M268.176 332.927C266.336 332.854 264.748 332.368 263.41 331.471C262.073 330.573 261.055 329.352 260.357 327.806C259.659 326.26 259.351 324.473 259.431 322.447C259.512 320.411 259.961 318.647 260.78 317.152C261.598 315.658 262.71 314.516 264.114 313.728C265.519 312.939 267.141 312.581 268.98 312.654C270.82 312.727 272.408 313.212 273.746 314.11C275.083 315.007 276.101 316.233 276.798 317.788C277.496 319.342 277.804 321.137 277.723 323.172C277.643 325.199 277.194 326.956 276.376 328.441C275.558 329.927 274.446 331.064 273.042 331.853C271.637 332.642 270.015 333 268.176 332.927ZM268.316 329.721C269.508 329.768 270.508 329.492 271.317 328.893C272.125 328.294 272.738 327.478 273.154 326.446C273.579 325.413 273.816 324.267 273.866 323.007C273.916 321.755 273.77 320.598 273.428 319.535C273.095 318.464 272.55 317.594 271.792 316.924C271.034 316.254 270.058 315.896 268.866 315.848C267.665 315.801 266.656 316.08 265.839 316.688C265.03 317.295 264.413 318.119 263.988 319.16C263.572 320.193 263.339 321.335 263.289 322.587C263.239 323.847 263.381 325.009 263.714 326.071C264.056 327.134 264.606 327.996 265.364 328.657C266.131 329.319 267.115 329.673 268.316 329.721Z" fill="white"/>
<path d="M295.353 322.132L295.222 325.44L284.594 325.019L284.725 321.71L295.353 322.132ZM286.122 313.59L285.344 333.211L281.601 333.063L282.38 313.442L286.122 313.59ZM298.347 314.075L297.569 333.696L293.839 333.548L294.617 313.927L298.347 314.075Z" fill="white"/>
<path d="M306.063 321.137L311.761 321.363C314.162 321.458 315.986 322.128 317.233 323.371C318.481 324.615 319.067 326.178 318.992 328.06C318.943 329.286 318.61 330.377 317.992 331.334C317.374 332.29 316.496 333.031 315.358 333.558C314.22 334.075 312.851 334.303 311.25 334.239L302.678 333.899L303.457 314.278L307.2 314.427L306.552 330.752L311.38 330.943C312.479 330.987 313.393 330.737 314.122 330.195C314.852 329.644 315.235 328.921 315.27 328.027C315.308 327.082 314.985 326.297 314.302 325.673C313.619 325.04 312.728 324.702 311.63 324.659L305.933 324.432L306.063 321.137ZM321.52 334.647L322.298 315.026L326.118 315.177L325.339 334.798L321.52 334.647Z" fill="white"/>
<path d="M39.4289 401.626C40.1296 383.967 55.0132 370.22 72.6724 370.92L199.877 375.967C217.536 376.668 231.283 391.552 230.583 409.211L230.477 411.876C229.776 429.535 214.893 443.282 197.234 442.582L70.0293 437.534C52.3701 436.834 38.6225 421.95 39.3232 404.291L39.4289 401.626Z" fill="#10B981"/>
<path d="M143.828 69.3931L140.66 69.2674C140.509 68.3488 140.213 67.5353 139.772 66.8269C139.34 66.1189 138.8 65.5175 138.155 65.0227C137.518 64.5198 136.804 64.1332 136.013 63.863C135.222 63.5928 134.392 63.4405 133.523 63.406C131.939 63.3432 130.489 63.6865 129.171 64.436C127.862 65.1858 126.797 66.3249 125.978 67.8532C125.166 69.3819 124.716 71.2789 124.626 73.5442C124.536 75.8094 124.835 77.7362 125.522 79.3243C126.219 80.9128 127.189 82.1327 128.435 82.9839C129.689 83.8354 131.108 84.2926 132.692 84.3554C133.561 84.3899 134.4 84.3038 135.21 84.0971C136.02 83.8904 136.762 83.5659 137.437 83.1235C138.12 82.673 138.705 82.1119 139.192 81.4404C139.688 80.7607 140.048 79.9732 140.271 79.0779L143.439 79.2036C143.148 80.5312 142.666 81.7104 141.994 82.7414C141.322 83.7724 140.502 84.6397 139.536 85.3435C138.57 86.0387 137.497 86.5548 136.315 86.8917C135.141 87.2289 133.895 87.3714 132.575 87.319C130.343 87.2305 128.381 86.6067 126.687 85.4478C124.993 84.2888 123.687 82.6846 122.771 80.6353C121.854 78.586 121.451 76.1817 121.56 73.4225C121.67 70.6633 122.262 68.2986 123.338 66.3284C124.415 64.3581 125.843 62.8625 127.623 61.8413C129.404 60.8202 131.41 60.3539 133.641 60.4424C134.961 60.4948 136.192 60.7356 137.335 61.1648C138.487 61.5943 139.516 62.1981 140.424 62.9761C141.331 63.7457 142.079 64.6709 142.668 65.7519C143.256 66.8244 143.643 68.0381 143.828 69.3931Z" fill="white" fill-opacity="0.3"/>
<path d="M155.78 88.2909C154.009 88.2206 152.471 87.7374 151.167 86.8413C149.872 85.9455 148.88 84.7248 148.191 83.1792C147.51 81.634 147.21 79.8479 147.291 77.8211C147.372 75.7773 147.813 74.0079 148.614 72.5129C149.424 71.0183 150.51 69.8758 151.872 69.0854C153.242 68.2954 154.813 67.9355 156.585 68.0058C158.356 68.076 159.889 68.5591 161.184 69.4549C162.488 70.351 163.48 71.576 164.16 73.1297C164.849 74.6838 165.153 76.4828 165.072 78.5267C164.992 80.5535 164.547 82.3099 163.737 83.7961C162.936 85.2825 161.85 86.4208 160.48 87.2108C159.118 88.0012 157.551 88.3612 155.78 88.2909ZM155.887 85.5828C157.233 85.6362 158.354 85.3353 159.25 84.6799C160.146 84.0246 160.825 83.1431 161.286 82.0356C161.748 80.928 162.005 79.7185 162.057 78.407C162.109 77.0956 161.949 75.8652 161.577 74.7161C161.205 73.5669 160.598 72.6259 159.757 71.8931C158.916 71.1603 157.823 70.7672 156.477 70.7139C155.132 70.6605 154.011 70.9657 153.114 71.6295C152.218 72.2934 151.539 73.1834 151.077 74.2994C150.614 75.4155 150.357 76.6293 150.305 77.9407C150.253 79.2522 150.413 80.4783 150.786 81.6189C151.159 82.7596 151.766 83.6921 152.607 84.4164C153.448 85.1406 154.542 85.5294 155.887 85.5828Z" fill="white" fill-opacity="0.3"/>
<path d="M184.921 62.0166L186.381 63.9168C185.762 64.4723 185.056 64.8494 184.264 65.0483C183.471 65.2471 182.58 65.3525 181.59 65.3644C180.6 65.3763 179.5 65.3838 178.288 65.3869C176.924 65.3839 175.782 65.6713 174.864 66.249C173.945 66.8266 173.22 67.6849 172.689 68.8239C172.157 69.9628 171.79 71.3726 171.587 73.0534L171.843 73.0635C172.555 71.8636 173.511 70.9974 174.709 70.4649C175.907 69.9324 177.179 69.6929 178.525 69.7463C180.058 69.8071 181.423 70.2195 182.621 70.9835C183.819 71.7475 184.748 72.8463 185.407 74.2798C186.067 75.7134 186.356 77.4606 186.274 79.5214C186.193 81.5738 185.756 83.3306 184.965 84.7919C184.182 86.2534 183.118 87.3627 181.775 88.1197C180.44 88.8685 178.896 89.2081 177.141 89.1385C175.387 89.0689 173.866 88.5949 172.579 87.7165C171.292 86.8295 170.315 85.554 169.647 83.8898C168.98 82.2172 168.695 80.1716 168.791 77.753L168.874 75.6581C169.047 71.2894 169.919 68.006 171.491 65.8081C173.071 63.6105 175.357 62.5326 178.349 62.5746C179.406 62.5824 180.347 62.6112 181.173 62.661C181.998 62.7109 182.719 62.7011 183.336 62.6317C183.953 62.5624 184.482 62.3573 184.921 62.0166ZM177.249 86.4304C178.432 86.4774 179.462 86.2197 180.337 85.6574C181.221 85.0954 181.914 84.2827 182.417 83.2194C182.92 82.1476 183.201 80.8751 183.259 79.4018C183.316 77.9711 183.13 76.744 182.702 75.7206C182.282 74.6974 181.652 73.9048 180.813 73.3427C179.974 72.7806 178.954 72.4757 177.753 72.428C176.876 72.3932 176.082 72.511 175.372 72.7814C174.662 73.0517 174.048 73.4666 173.532 74.0261C173.015 74.5856 172.603 75.2772 172.298 76.101C172.001 76.9251 171.822 77.8733 171.763 78.9457C171.676 81.1428 172.121 82.9218 173.099 84.2827C174.077 85.6435 175.46 86.3594 177.249 86.4304Z" fill="white" fill-opacity="0.3"/>
<path d="M190.214 96.6172L191.285 69.6385L194.197 69.754L194.074 72.8709L194.431 72.8851C194.666 72.5532 194.99 72.1311 195.403 71.6186C195.824 71.098 196.414 70.6437 197.171 70.2559C197.938 69.8598 198.959 69.6871 200.237 69.7378C201.889 69.8033 203.329 70.2741 204.556 71.1502C205.784 72.0263 206.721 73.2362 207.368 74.7801C208.014 76.324 208.297 78.1264 208.215 80.1873C208.133 82.2652 207.708 84.0523 206.94 85.5487C206.174 87.0365 205.148 88.1728 203.863 88.9577C202.578 89.7341 201.118 90.0899 199.483 90.025C198.223 89.975 197.222 89.7263 196.48 89.2789C195.739 88.8231 195.175 88.3188 194.788 87.766C194.401 87.2048 194.103 86.7409 193.896 86.3745L193.641 86.3643L193.229 96.7369L190.214 96.6172ZM193.859 79.5665C193.8 81.0483 193.966 82.3641 194.355 83.514C194.745 84.6553 195.344 85.5619 196.153 86.2337C196.963 86.897 197.972 87.2527 199.182 87.3007C200.442 87.3507 201.507 87.0603 202.376 86.4295C203.255 85.7905 203.929 84.9131 204.4 83.7974C204.88 82.6735 205.147 81.4132 205.202 80.0166C205.257 78.637 205.094 77.3852 204.712 76.2612C204.339 75.1291 203.739 74.2225 202.913 73.5415C202.096 72.8523 201.049 72.4824 199.772 72.4317C198.545 72.383 197.503 72.653 196.643 73.2415C195.784 73.8216 195.12 74.6567 194.65 75.7469C194.181 76.8285 193.917 78.1018 193.859 79.5665Z" fill="white" fill-opacity="0.3"/>
<path d="M218.182 90.8181C216.939 90.7688 215.82 90.4898 214.825 89.9812C213.83 89.4641 213.053 88.7466 212.492 87.8288C211.932 86.9024 211.677 85.8006 211.728 84.5232C211.772 83.3991 212.03 82.4966 212.501 81.8159C212.971 81.1266 213.585 80.5966 214.342 80.2257C215.099 79.8548 215.928 79.5892 216.83 79.4288C217.741 79.2603 218.654 79.1344 219.57 79.0514C220.769 78.9454 221.74 78.8688 222.484 78.8215C223.236 78.7661 223.787 78.6472 224.135 78.4649C224.492 78.2829 224.68 77.9491 224.7 77.4637L224.704 77.3615C224.754 76.1012 224.448 75.1081 223.786 74.3824C223.132 73.6571 222.111 73.2669 220.723 73.2118C219.284 73.1547 218.143 73.425 217.301 74.0228C216.458 74.6205 215.856 75.2705 215.496 75.9727L212.675 74.8372C213.233 73.6652 213.951 72.764 214.829 72.1335C215.716 71.4949 216.672 71.0637 217.695 70.8399C218.728 70.6079 219.739 70.5116 220.726 70.5508C221.357 70.5758 222.077 70.6811 222.889 70.8669C223.709 71.0444 224.493 71.3783 225.242 71.8686C225.998 72.3592 226.614 73.0788 227.088 74.0273C227.562 74.9758 227.768 76.2293 227.706 77.7877L227.193 90.7151L224.179 90.5954L224.284 87.9384L224.131 87.9324C223.91 88.35 223.551 88.7921 223.055 89.2586C222.559 89.7251 221.908 90.113 221.102 90.4222C220.297 90.7314 219.323 90.8634 218.182 90.8181ZM218.75 88.1282C219.942 88.1756 220.956 87.9812 221.792 87.5453C222.637 87.1097 223.282 86.5297 223.729 85.8054C224.184 85.0814 224.428 84.3106 224.46 83.4931L224.57 80.7339C224.436 80.8821 224.15 81.0115 223.71 81.122C223.28 81.2243 222.781 81.3112 222.216 81.3825C221.659 81.4457 221.115 81.5009 220.584 81.5481C220.062 81.5871 219.639 81.6215 219.314 81.6512C218.526 81.7223 217.787 81.8593 217.097 82.0622C216.415 82.2569 215.857 82.5717 215.422 83.0065C214.995 83.4331 214.767 84.0296 214.736 84.7961C214.695 85.8435 215.051 86.6509 215.805 87.2182C216.567 87.7772 217.549 88.0806 218.75 88.1282Z" fill="white" fill-opacity="0.3"/>
<path d="M230.693 74.0168L230.805 71.2065L246.747 71.8391L246.635 74.6494L240.197 74.3939L239.53 91.2045L236.515 91.0849L237.182 74.2743L230.693 74.0168Z" fill="white" fill-opacity="0.3"/>
<path d="M253.468 79.2193L259.089 79.4423C261.388 79.5336 263.123 80.1867 264.295 81.4017C265.466 82.6167 266.017 84.1184 265.946 85.9068C265.899 87.082 265.584 88.1399 265.001 89.0806C264.418 90.0128 263.587 90.7432 262.509 91.2719C261.43 91.792 260.125 92.0217 258.592 91.9609L250.365 91.6345L251.144 72.0135L254.159 72.1332L253.492 88.9438L258.703 89.1506C259.896 89.1979 260.888 88.9217 261.679 88.3219C262.47 87.7221 262.886 86.9283 262.925 85.9404C262.966 84.9015 262.617 84.0389 261.876 83.3528C261.136 82.6666 260.169 82.2999 258.977 82.2526L253.357 82.0296L253.468 79.2193Z" fill="white" fill-opacity="0.3"/>
<path d="M280.4 92.8262L281.179 73.2053L296.61 73.8175L295.831 93.4385L292.817 93.3188L293.484 76.5082L284.082 76.1352L283.415 92.9458L280.4 92.8262Z" fill="white" fill-opacity="0.3"/>
<path d="M301.045 101.015L302.116 74.036L305.028 74.1515L304.904 77.2684L305.262 77.2826C305.497 76.9508 305.821 76.5286 306.234 76.0162C306.655 75.4955 307.245 75.0413 308.002 74.6534C308.768 74.2573 309.79 74.0846 311.068 74.1353C312.72 74.2009 314.16 74.6717 315.387 75.5477C316.615 76.4238 317.552 77.6338 318.199 79.1777C318.845 80.7216 319.128 82.524 319.046 84.5848C318.963 86.6627 318.539 88.4499 317.771 89.9462C317.004 91.434 315.978 92.5703 314.693 93.3552C313.409 94.1316 311.949 94.4874 310.314 94.4225C309.053 94.3725 308.053 94.1238 307.311 93.6765C306.57 93.2206 306.006 92.7163 305.618 92.1635C305.231 91.6023 304.934 91.1385 304.727 90.772L304.471 90.7619L304.06 101.134L301.045 101.015ZM304.69 83.964C304.631 85.4458 304.796 86.7617 305.186 87.9115C305.576 89.0529 306.175 89.9594 306.984 90.6313C307.794 91.2946 308.803 91.6502 310.012 91.6982C311.273 91.7482 312.338 91.4578 313.207 90.827C314.085 90.188 314.76 89.3107 315.231 88.1949C315.71 87.071 315.978 85.8107 316.033 84.4141C316.088 83.0345 315.924 81.7827 315.543 80.6588C315.17 79.5266 314.57 78.62 313.744 77.939C312.927 77.2498 311.88 76.8799 310.602 76.8292C309.376 76.7806 308.333 77.0505 307.474 77.6391C306.615 78.2191 305.951 79.0542 305.481 80.1444C305.012 81.2261 304.748 82.4993 304.69 83.964Z" fill="white" fill-opacity="0.3"/>
<path d="M331.212 95.2517C329.441 95.1814 327.903 94.6982 326.6 93.8021C325.305 92.9063 324.313 91.6856 323.623 90.14C322.943 88.5947 322.642 86.8087 322.723 84.7819C322.804 82.7381 323.245 80.9686 324.047 79.4737C324.856 77.979 325.942 76.8365 327.304 76.0462C328.675 75.2561 330.246 74.8963 332.017 74.9665C333.788 75.0368 335.322 75.5199 336.617 76.4157C337.92 77.3118 338.912 78.5367 339.593 80.0905C340.281 81.6446 340.585 83.4436 340.504 85.4874C340.424 87.5142 339.979 89.2707 339.169 90.7568C338.368 92.2433 337.283 93.3815 335.912 94.1716C334.55 94.9619 332.983 95.322 331.212 95.2517ZM331.32 92.5436C332.665 92.597 333.786 92.296 334.682 91.6407C335.578 90.9854 336.257 90.1039 336.719 88.9964C337.181 87.8888 337.438 86.6793 337.49 85.3678C337.542 84.0563 337.381 82.826 337.009 81.6768C336.637 80.5276 336.03 79.5867 335.189 78.8539C334.348 78.1211 333.255 77.728 331.91 77.6746C330.564 77.6212 329.443 77.9265 328.547 78.5903C327.65 79.2542 326.971 80.1441 326.509 81.2602C326.047 82.3763 325.789 83.59 325.737 84.9015C325.685 86.213 325.846 87.4391 326.218 88.5797C326.591 89.7204 327.198 90.6529 328.039 91.3771C328.881 92.1014 329.974 92.4902 331.32 92.5436Z" fill="white" fill-opacity="0.3"/>
<path d="M355.613 91.7163L363.076 76.4548L365.938 76.5683L356.677 95.8527L354.225 95.7554L346.675 75.804L349.485 75.9155L355.613 91.7163ZM348.514 75.877L347.736 95.4979L344.721 95.3783L345.499 75.7574L348.514 75.877ZM363.167 96.1102L363.945 76.4893L366.96 76.6089L366.181 96.2298L363.167 96.1102Z" fill="white" fill-opacity="0.3"/>
<path d="M369.697 79.5322L369.808 76.7219L385.75 77.3544L385.639 80.1647L379.201 79.9093L378.534 96.7199L375.519 96.6003L376.186 79.7897L369.697 79.5322Z" fill="white" fill-opacity="0.3"/>
<path d="M249.698 409.969C250.399 392.31 265.283 378.563 282.942 379.263L410.146 384.31C427.805 385.011 441.553 399.895 440.852 417.554L440.747 420.219C440.046 437.878 425.162 451.625 407.503 450.925L280.299 445.878C262.64 445.177 248.892 430.293 249.593 412.634L249.698 409.969Z" fill="white"/>
<path d="M114.192 398.033L117.335 398.158C118.663 398.211 119.83 398.55 120.834 399.175C121.844 399.796 122.621 400.642 123.164 401.716C123.713 402.784 123.96 404.011 123.905 405.396C123.851 406.77 123.508 407.964 122.876 408.98C122.25 409.996 121.409 410.776 120.352 411.319C119.302 411.858 118.112 412.1 116.784 412.048L113.641 411.923C112.313 411.87 111.143 411.537 110.133 410.922C109.122 410.302 108.342 409.464 107.793 408.407C107.249 407.351 107.005 406.133 107.059 404.753C107.115 403.362 107.458 402.153 108.09 401.126C108.722 400.099 109.564 399.314 110.615 398.77C111.671 398.226 112.864 397.981 114.192 398.033ZM114.102 400.307C113.194 400.271 112.411 400.431 111.754 400.785C111.098 401.135 110.586 401.655 110.217 402.345C109.848 403.036 109.645 403.872 109.606 404.854C109.568 405.814 109.705 406.646 110.018 407.352C110.337 408.053 110.81 408.604 111.437 409.004C112.064 409.398 112.829 409.613 113.731 409.649L116.882 409.774C117.785 409.81 118.562 409.656 119.212 409.312C119.868 408.963 120.378 408.449 120.74 407.769C121.109 407.085 121.312 406.26 121.35 405.294C121.389 404.324 121.252 403.482 120.939 402.77C120.632 402.053 120.165 401.494 119.538 401.094C118.917 400.689 118.156 400.468 117.253 400.432L114.102 400.307ZM117.154 395.831L116.421 414.294L113.841 414.191L114.574 395.729L117.154 395.831Z" fill="white"/>
<path d="M132.137 414.465C130.91 414.416 129.851 414.093 128.959 413.495C128.068 412.896 127.389 412.082 126.924 411.051C126.459 410.021 126.253 408.83 126.307 407.478C126.361 406.122 126.66 404.945 127.206 403.949C127.751 402.953 128.492 402.192 129.429 401.666C130.365 401.14 131.446 400.902 132.673 400.95C133.899 400.999 134.958 401.322 135.85 401.921C136.742 402.519 137.42 403.336 137.885 404.373C138.35 405.409 138.555 406.605 138.502 407.962C138.448 409.314 138.149 410.484 137.603 411.475C137.058 412.465 136.317 413.224 135.381 413.749C134.444 414.275 133.363 414.514 132.137 414.465ZM132.23 412.328C133.025 412.359 133.692 412.176 134.231 411.776C134.77 411.377 135.178 410.833 135.455 410.144C135.739 409.456 135.897 408.692 135.93 407.852C135.963 407.017 135.866 406.246 135.638 405.537C135.416 404.823 135.053 404.243 134.547 403.797C134.042 403.35 133.392 403.111 132.597 403.08C131.796 403.048 131.124 403.234 130.579 403.639C130.04 404.044 129.628 404.594 129.345 405.288C129.067 405.976 128.912 406.737 128.879 407.572C128.846 408.412 128.94 409.186 129.162 409.895C129.39 410.603 129.756 411.178 130.262 411.619C130.773 412.06 131.429 412.296 132.23 412.328Z" fill="white"/>
<path d="M139.943 403.61L140.03 401.413L151.067 401.851L150.98 404.048L146.713 403.878L146.281 414.762L143.795 414.663L144.227 403.78L139.943 403.61Z" fill="white"/>
<path d="M158.132 415.497C156.905 415.448 155.846 415.124 154.955 414.526C154.063 413.928 153.384 413.113 152.919 412.083C152.454 411.052 152.248 409.861 152.302 408.51C152.356 407.153 152.655 405.976 153.201 404.98C153.747 403.984 154.488 403.223 155.424 402.697C156.36 402.172 157.442 401.933 158.668 401.982C159.894 402.03 160.953 402.354 161.845 402.952C162.737 403.55 163.415 404.368 163.88 405.404C164.345 406.44 164.551 407.637 164.497 408.994C164.443 410.345 164.144 411.516 163.598 412.506C163.053 413.497 162.312 414.255 161.376 414.781C160.439 415.307 159.358 415.545 158.132 415.497ZM158.225 413.359C159.02 413.391 159.687 413.207 160.226 412.808C160.765 412.408 161.173 411.864 161.45 411.176C161.734 410.488 161.892 409.723 161.925 408.883C161.958 408.049 161.861 407.277 161.633 406.569C161.411 405.855 161.048 405.275 160.542 404.828C160.037 404.382 159.387 404.143 158.592 404.111C157.791 404.079 157.119 404.266 156.574 404.671C156.035 405.076 155.623 405.625 155.34 406.319C155.062 407.007 154.907 407.769 154.874 408.603C154.841 409.444 154.935 410.218 155.157 410.926C155.385 411.635 155.752 412.209 156.257 412.65C156.769 413.091 157.425 413.328 158.225 413.359Z" fill="white"/>
<path d="M310.249 421.268L310.941 403.827L317.038 404.069C318.253 404.117 319.247 404.367 320.019 404.818C320.792 405.264 321.357 405.847 321.716 406.566C322.074 407.28 322.236 408.062 322.202 408.914C322.173 409.663 322.015 410.277 321.729 410.754C321.448 411.232 321.086 411.605 320.644 411.871C320.207 412.138 319.736 412.33 319.231 412.447L319.224 412.617C319.756 412.672 320.285 412.881 320.811 413.243C321.337 413.605 321.769 414.111 322.107 414.761C322.445 415.412 322.596 416.197 322.559 417.116C322.525 417.991 322.295 418.769 321.87 419.452C321.444 420.134 320.795 420.663 319.922 421.037C319.048 421.412 317.924 421.572 316.551 421.518L310.249 421.268ZM312.435 419.478L316.625 419.644C318.004 419.699 318.994 419.471 319.595 418.96C320.201 418.444 320.519 417.803 320.55 417.037C320.573 416.446 320.444 415.895 320.163 415.384C319.882 414.866 319.47 414.446 318.925 414.123C318.381 413.795 317.728 413.615 316.968 413.585L312.676 413.415L312.435 419.478ZM312.749 411.575L316.666 411.731C317.302 411.756 317.88 411.654 318.401 411.424C318.928 411.195 319.35 410.859 319.669 410.417C319.994 409.975 320.168 409.447 320.193 408.834C320.223 408.068 319.982 407.407 319.47 406.852C318.957 406.292 318.122 405.988 316.964 405.942L312.978 405.784L312.749 411.575Z" fill="#1F2329" fill-opacity="0.3"/>
<path d="M327.701 418.992L334.404 409.125L336.72 409.217L336.201 422.298L334.192 422.218L334.593 412.101L327.924 421.969L325.573 421.876L326.092 408.795L328.102 408.875L327.701 418.992Z" fill="#1F2329" fill-opacity="0.3"/>
<path d="M338.337 426.135L338.56 420.515L339.65 420.558C339.928 420.29 340.17 419.999 340.376 419.683C340.582 419.367 340.764 418.99 340.924 418.553C341.089 418.11 341.236 417.57 341.363 416.933C341.491 416.289 341.613 415.512 341.729 414.602L342.377 409.441L350.689 409.771L350.244 420.978L352.254 421.058L352.031 426.679L350.021 426.599L350.17 422.852L340.496 422.468L340.347 426.215L338.337 426.135ZM341.932 420.648L348.234 420.899L348.605 411.565L344.176 411.389L343.705 414.68C343.508 416.043 343.285 417.231 343.034 418.244C342.784 419.258 342.416 420.059 341.932 420.648Z" fill="#1F2329" fill-opacity="0.3"/>
<path d="M360.321 423.528C359.06 423.477 357.984 423.156 357.092 422.564C356.206 421.965 355.536 421.154 355.082 420.13C354.634 419.1 354.436 417.915 354.489 416.575C354.543 415.235 354.834 414.064 355.362 413.061C355.897 412.053 356.616 411.28 357.519 410.742C358.427 410.198 359.472 409.949 360.653 409.996C361.334 410.023 362.002 410.163 362.658 410.417C363.313 410.67 363.903 411.063 364.428 411.596C364.953 412.123 365.36 412.81 365.651 413.657C365.941 414.505 366.062 415.539 366.014 416.759L365.98 417.611L355.897 417.211L355.966 415.474L364.005 415.793C364.034 415.054 363.913 414.39 363.641 413.799C363.374 413.209 362.978 412.735 362.452 412.379C361.931 412.023 361.308 411.83 360.581 411.801C359.781 411.77 359.08 411.941 358.48 412.315C357.885 412.684 357.419 413.177 357.082 413.795C356.745 414.413 356.562 415.082 356.533 415.803L356.487 416.961C356.448 417.949 356.585 418.793 356.898 419.494C357.218 420.189 357.677 420.727 358.276 421.109C358.875 421.486 359.58 421.69 360.392 421.722C360.92 421.743 361.4 421.688 361.832 421.557C362.269 421.421 362.65 421.209 362.974 420.92C363.299 420.626 363.555 420.255 363.744 419.808L365.664 420.43C365.433 421.081 365.067 421.646 364.564 422.126C364.062 422.601 363.451 422.964 362.73 423.214C362.009 423.458 361.206 423.563 360.321 423.528Z" fill="#1F2329" fill-opacity="0.3"/>
<path d="M374.108 424.075C372.927 424.028 371.902 423.706 371.033 423.108C370.17 422.511 369.508 421.697 369.049 420.667C368.595 419.637 368.395 418.446 368.449 417.095C368.503 415.732 368.797 414.553 369.331 413.556C369.871 412.559 370.595 411.798 371.503 411.271C372.417 410.744 373.464 410.504 374.645 410.551C375.826 410.598 376.848 410.92 377.711 411.517C378.58 412.115 379.241 412.931 379.695 413.967C380.154 415.003 380.357 416.202 380.303 417.565C380.249 418.916 379.953 420.087 379.413 421.078C378.879 422.069 378.155 422.828 377.241 423.354C376.333 423.881 375.289 424.121 374.108 424.075ZM374.18 422.269C375.077 422.305 375.824 422.104 376.421 421.667C377.019 421.23 377.471 420.643 377.779 419.904C378.087 419.166 378.258 418.36 378.293 417.485C378.328 416.611 378.221 415.791 377.973 415.025C377.725 414.258 377.32 413.631 376.759 413.143C376.199 412.654 375.47 412.392 374.573 412.356C373.676 412.321 372.929 412.524 372.331 412.967C371.734 413.41 371.281 414.003 370.973 414.747C370.664 415.491 370.493 416.3 370.458 417.174C370.424 418.049 370.531 418.866 370.779 419.627C371.027 420.387 371.432 421.009 371.993 421.492C372.554 421.974 373.283 422.234 374.18 422.269Z" fill="#1F2329" fill-opacity="0.3"/>
</svg>
