<svg width="512" height="512" viewBox="0 0 512 512" fill="none" xmlns="http://www.w3.org/2000/svg">
<rect width="512" height="512" fill="#1F2329"/>
<path d="M31.6137 91.8331C30.8888 64.2283 52.6793 41.2627 80.284 40.5379L420.167 31.6137C447.772 30.8889 470.737 52.6793 471.462 80.2841L474.087 180.25C474.812 207.854 453.021 230.82 425.416 231.545L85.5336 240.469C57.9289 241.194 34.9632 219.403 34.2384 191.799L31.6137 91.8331Z" fill="#2A2F36"/>
<path d="M37.9131 331.75C37.1883 304.146 58.9788 281.18 86.5835 280.455L426.466 271.531C454.071 270.806 477.037 292.597 477.762 320.201L480.386 420.167C481.111 447.772 459.321 470.737 431.716 471.462L91.8331 480.386C64.2283 481.111 41.2627 459.321 40.5379 431.716L37.9131 331.75Z" fill="#2A2F36"/>
<path d="M53.1814 184.41C52.7175 166.743 66.6634 152.045 84.3304 151.581L211.591 148.24C229.258 147.776 243.956 161.722 244.42 179.389L244.49 182.054C244.954 199.721 231.008 214.419 213.341 214.883L86.0803 218.225C68.4133 218.689 53.7153 204.743 53.2514 187.076L53.1814 184.41Z" fill="white"/>
<path d="M59.4808 424.327C59.017 406.66 72.9629 391.962 90.6299 391.498L217.89 388.157C235.557 387.693 250.255 401.639 250.719 419.306L250.789 421.972C251.253 439.639 237.307 454.337 219.64 454.801L92.3798 458.142C74.7128 458.606 60.0147 444.66 59.5508 426.993L59.4808 424.327Z" fill="white"/>
<path d="M263.544 178.887C263.08 161.22 277.026 146.522 294.693 146.058L421.953 142.716C439.62 142.252 454.319 156.198 454.782 173.865L454.852 176.531C455.316 194.198 441.37 208.896 423.703 209.36L296.443 212.701C278.776 213.165 264.078 199.219 263.614 181.552L263.544 178.887Z" fill="white"/>
<path d="M269.843 418.804C269.38 401.137 283.325 386.439 300.992 385.975L428.253 382.633C445.92 382.17 460.618 396.116 461.082 413.783L461.152 416.448C461.616 434.115 447.67 448.813 430.003 449.277L302.742 452.619C285.075 453.083 270.377 439.137 269.913 421.47L269.843 418.804Z" fill="#10B981"/>
<path d="M128.066 175.955L130.827 175.883C132.122 175.849 133.279 176.108 134.3 176.661C135.32 177.214 136.131 178 136.732 179.019C137.333 180.037 137.651 181.228 137.687 182.592C137.723 183.955 137.467 185.164 136.921 186.218C136.375 187.272 135.606 188.105 134.616 188.717C133.627 189.328 132.484 189.651 131.189 189.685L128.429 189.757C127.134 189.791 125.976 189.532 124.955 188.979C123.935 188.426 123.124 187.64 122.523 186.622C121.922 185.603 121.604 184.412 121.568 183.049C121.533 181.686 121.788 180.477 122.334 179.422C122.881 178.368 123.649 177.535 124.639 176.924C125.629 176.312 126.771 175.989 128.066 175.955ZM128.115 177.83C127.127 177.856 126.298 178.085 125.627 178.517C124.962 178.95 124.463 179.548 124.131 180.313C123.804 181.078 123.654 181.971 123.681 182.993C123.708 184.004 123.904 184.88 124.27 185.621C124.642 186.361 125.171 186.93 125.858 187.327C126.551 187.724 127.391 187.909 128.379 187.883L131.14 187.811C132.128 187.785 132.955 187.556 133.62 187.123C134.29 186.691 134.789 186.092 135.116 185.328C135.448 184.563 135.601 183.669 135.574 182.647C135.547 181.636 135.348 180.76 134.976 180.02C134.61 179.279 134.081 178.71 133.388 178.314C132.702 177.917 131.864 177.731 130.876 177.757L128.115 177.83ZM130.457 173.505L130.942 191.976L128.829 192.032L128.344 173.561L130.457 173.505Z" fill="#1F2329" fill-opacity="0.3"/>
<path d="M146.501 191.124C145.319 191.156 144.275 190.902 143.369 190.363C142.468 189.824 141.754 189.055 141.228 188.057C140.707 187.059 140.429 185.884 140.394 184.533C140.358 183.169 140.574 181.973 141.041 180.943C141.514 179.913 142.186 179.106 143.058 178.52C143.935 177.934 144.964 177.626 146.145 177.595C147.327 177.564 148.368 177.818 149.269 178.357C150.175 178.896 150.889 179.667 151.41 180.671C151.936 181.675 152.217 182.858 152.253 184.221C152.289 185.573 152.07 186.761 151.596 187.785C151.129 188.809 150.457 189.614 149.58 190.2C148.708 190.785 147.682 191.093 146.501 191.124ZM146.453 189.318C147.351 189.295 148.083 189.045 148.65 188.57C149.217 188.095 149.63 187.479 149.889 186.722C150.148 185.964 150.265 185.149 150.242 184.274C150.219 183.399 150.059 182.588 149.761 181.84C149.463 181.092 149.018 180.492 148.426 180.042C147.835 179.591 147.09 179.378 146.193 179.401C145.295 179.425 144.563 179.677 143.996 180.158C143.429 180.639 143.016 181.261 142.758 182.024C142.499 182.786 142.381 183.605 142.404 184.48C142.427 185.354 142.588 186.163 142.886 186.905C143.184 187.648 143.628 188.242 144.22 188.686C144.811 189.131 145.556 189.342 146.453 189.318Z" fill="#1F2329" fill-opacity="0.3"/>
<path d="M153.488 179.448L153.438 177.574L164.071 177.295L164.12 179.169L159.826 179.282L160.121 190.494L158.11 190.547L157.816 179.335L153.488 179.448Z" fill="#1F2329" fill-opacity="0.3"/>
<path d="M171.992 190.455C170.81 190.486 169.766 190.232 168.86 189.693C167.959 189.154 167.245 188.386 166.719 187.388C166.198 186.39 165.92 185.215 165.885 183.863C165.849 182.5 166.065 181.304 166.532 180.274C167.005 179.244 167.678 178.436 168.549 177.851C169.426 177.265 170.455 176.957 171.637 176.926C172.818 176.895 173.859 177.149 174.76 177.688C175.666 178.227 176.38 178.998 176.901 180.002C177.427 181.005 177.709 182.189 177.744 183.552C177.78 184.904 177.561 186.092 177.088 187.116C176.62 188.14 175.948 188.945 175.071 189.53C174.2 190.116 173.173 190.424 171.992 190.455ZM171.944 188.649C172.842 188.625 173.574 188.376 174.141 187.901C174.709 187.425 175.122 186.809 175.38 186.052C175.639 185.295 175.757 184.479 175.734 183.605C175.711 182.73 175.55 181.918 175.252 181.17C174.954 180.422 174.509 179.823 173.917 179.372C173.326 178.922 172.581 178.708 171.684 178.732C170.787 178.756 170.054 179.008 169.487 179.489C168.92 179.97 168.507 180.592 168.249 181.354C167.99 182.117 167.873 182.936 167.895 183.81C167.918 184.685 168.079 185.494 168.377 186.236C168.675 186.979 169.12 187.572 169.711 188.017C170.302 188.462 171.047 188.673 171.944 188.649Z" fill="#1F2329" fill-opacity="0.3"/>
<path d="M134.366 415.873L137.126 415.8C138.421 415.766 139.579 416.026 140.599 416.579C141.62 417.132 142.431 417.917 143.031 418.936C143.632 419.955 143.951 421.146 143.986 422.509C144.022 423.872 143.767 425.081 143.22 426.135C142.674 427.19 141.906 428.023 140.916 428.634C139.926 429.246 138.783 429.568 137.488 429.602L134.728 429.675C133.433 429.709 132.275 429.449 131.255 428.896C130.234 428.343 129.423 427.558 128.823 426.539C128.222 425.52 127.904 424.329 127.868 422.966C127.832 421.603 128.087 420.394 128.634 419.34C129.18 418.285 129.948 417.452 130.938 416.841C131.928 416.229 133.071 415.907 134.366 415.873ZM134.415 417.747C133.427 417.773 132.597 418.002 131.926 418.435C131.261 418.867 130.763 419.466 130.43 420.23C130.104 420.995 129.954 421.888 129.981 422.911C130.007 423.922 130.204 424.798 130.57 425.538C130.942 426.279 131.471 426.847 132.158 427.244C132.85 427.641 133.691 427.826 134.679 427.8L137.439 427.728C138.428 427.702 139.254 427.473 139.919 427.04C140.59 426.608 141.089 426.009 141.415 425.245C141.748 424.48 141.9 423.587 141.873 422.564C141.847 421.553 141.648 420.678 141.276 419.937C140.91 419.196 140.38 418.628 139.688 418.231C139.001 417.834 138.164 417.649 137.175 417.675L134.415 417.747ZM136.757 413.423L137.242 431.894L135.129 431.949L134.644 413.478L136.757 413.423Z" fill="#1F2329" fill-opacity="0.3"/>
<path d="M152.8 431.042C151.619 431.073 150.575 430.819 149.668 430.28C148.767 429.741 148.054 428.972 147.527 427.975C147.007 426.977 146.729 425.802 146.693 424.45C146.657 423.087 146.873 421.89 147.341 420.861C147.814 419.831 148.486 419.023 149.357 418.437C150.234 417.852 151.263 417.543 152.445 417.512C153.626 417.481 154.667 417.735 155.568 418.274C156.475 418.813 157.188 419.585 157.709 420.588C158.236 421.592 158.517 422.775 158.553 424.138C158.588 425.49 158.369 426.678 157.896 427.702C157.428 428.726 156.756 429.531 155.879 430.117C155.008 430.702 153.981 431.011 152.8 431.042ZM152.753 429.236C153.65 429.212 154.382 428.963 154.95 428.487C155.517 428.012 155.93 427.396 156.188 426.639C156.447 425.882 156.565 425.066 156.542 424.191C156.519 423.317 156.358 422.505 156.06 421.757C155.762 421.009 155.317 420.41 154.726 419.959C154.134 419.509 153.39 419.295 152.492 419.319C151.595 419.342 150.862 419.594 150.295 420.075C149.728 420.556 149.315 421.178 149.057 421.941C148.799 422.704 148.681 423.522 148.704 424.397C148.727 425.272 148.887 426.08 149.185 426.823C149.483 427.565 149.928 428.159 150.519 428.604C151.111 429.049 151.855 429.259 152.753 429.236Z" fill="#1F2329" fill-opacity="0.3"/>
<path d="M159.787 419.366L159.738 417.491L170.371 417.212L170.42 419.087L166.126 419.199L166.42 430.411L164.41 430.464L164.115 419.252L159.787 419.366Z" fill="#1F2329" fill-opacity="0.3"/>
<path d="M178.291 430.372C177.11 430.404 176.066 430.15 175.159 429.611C174.259 429.072 173.545 428.303 173.019 427.305C172.498 426.307 172.22 425.132 172.184 423.781C172.148 422.417 172.364 421.221 172.832 420.191C173.305 419.161 173.977 418.354 174.848 417.768C175.725 417.182 176.755 416.874 177.936 416.843C179.117 416.812 180.158 417.066 181.059 417.605C181.966 418.144 182.679 418.915 183.2 419.919C183.727 420.923 184.008 422.106 184.044 423.469C184.079 424.821 183.86 426.009 183.387 427.033C182.92 428.057 182.247 428.862 181.37 429.448C180.499 430.033 179.473 430.341 178.291 430.372ZM178.244 428.566C179.141 428.543 179.874 428.293 180.441 427.818C181.008 427.343 181.421 426.727 181.68 425.97C181.938 425.212 182.056 424.397 182.033 423.522C182.01 422.647 181.85 421.836 181.551 421.088C181.253 420.34 180.808 419.74 180.217 419.29C179.625 418.839 178.881 418.626 177.983 418.649C177.086 418.673 176.354 418.925 175.787 419.406C175.219 419.887 174.807 420.509 174.548 421.272C174.29 422.034 174.172 422.853 174.195 423.728C174.218 424.602 174.378 425.411 174.676 426.153C174.974 426.896 175.419 427.489 176.011 427.934C176.602 428.379 177.346 428.59 178.244 428.566Z" fill="#1F2329" fill-opacity="0.3"/>
<path d="M324.707 186.173L324.249 168.724L330.349 168.564C331.564 168.532 332.572 168.716 333.373 169.115C334.173 169.509 334.776 170.053 335.181 170.747C335.585 171.436 335.799 172.206 335.821 173.058C335.841 173.808 335.723 174.43 335.469 174.926C335.221 175.421 334.885 175.817 334.46 176.112C334.042 176.407 333.584 176.629 333.088 176.779L333.093 176.949C333.627 176.969 334.169 177.143 334.718 177.469C335.266 177.796 335.731 178.273 336.111 178.899C336.491 179.526 336.693 180.299 336.717 181.219C336.74 182.094 336.562 182.886 336.183 183.595C335.804 184.304 335.191 184.874 334.344 185.306C333.497 185.737 332.386 185.971 331.011 186.007L324.707 186.173ZM326.771 184.243L330.962 184.133C332.342 184.096 333.315 183.804 333.881 183.255C334.451 182.7 334.727 182.039 334.707 181.272C334.691 180.681 334.526 180.14 334.212 179.648C333.898 179.15 333.458 178.758 332.894 178.472C332.329 178.18 331.666 178.044 330.905 178.064L326.611 178.177L326.771 184.243ZM326.563 176.336L330.482 176.233C331.118 176.217 331.689 176.077 332.193 175.813C332.703 175.55 333.103 175.187 333.392 174.725C333.687 174.262 333.826 173.724 333.81 173.111C333.79 172.344 333.506 171.701 332.958 171.181C332.41 170.655 331.557 170.408 330.398 170.438L326.411 170.543L326.563 176.336Z" fill="#1F2329" fill-opacity="0.3"/>
<path d="M341.971 182.752L348.01 172.465L350.327 172.404L350.671 185.491L348.66 185.544L348.394 175.422L342.39 185.708L340.038 185.77L339.695 172.684L341.705 172.631L341.971 182.752Z" fill="#1F2329" fill-opacity="0.3"/>
<path d="M353.055 189.18L352.907 183.556L353.998 183.528C354.257 183.242 354.479 182.935 354.664 182.607C354.849 182.278 355.006 181.89 355.136 181.443C355.272 180.991 355.383 180.442 355.468 179.798C355.554 179.147 355.624 178.364 355.68 177.447L355.987 172.256L364.302 172.037L364.596 183.25L366.607 183.197L366.755 188.82L364.744 188.873L364.645 185.124L354.967 185.378L355.065 189.127L353.055 189.18ZM356.281 183.468L362.586 183.302L362.34 173.965L357.91 174.081L357.656 177.396C357.55 178.768 357.405 179.968 357.222 180.996C357.039 182.024 356.725 182.848 356.281 183.468Z" fill="#1F2329" fill-opacity="0.3"/>
<path d="M374.819 185.13C373.558 185.163 372.463 184.913 371.534 184.38C370.61 183.842 369.888 183.076 369.368 182.084C368.853 181.086 368.578 179.917 368.542 178.576C368.507 177.236 368.72 176.048 369.182 175.013C369.649 173.972 370.315 173.153 371.181 172.556C372.052 171.953 373.078 171.637 374.259 171.606C374.941 171.588 375.617 171.684 376.287 171.893C376.958 172.103 377.572 172.456 378.131 172.953C378.69 173.444 379.142 174.103 379.487 174.93C379.833 175.756 380.022 176.78 380.054 178.001L380.076 178.853L369.989 179.118L369.943 177.38L377.986 177.169C377.967 176.43 377.802 175.775 377.491 175.204C377.186 174.632 376.76 174.186 376.211 173.865C375.668 173.544 375.034 173.393 374.307 173.412C373.506 173.433 372.818 173.65 372.243 174.063C371.674 174.47 371.242 174.993 370.946 175.631C370.65 176.27 370.512 176.95 370.531 177.671L370.561 178.83C370.587 179.818 370.779 180.652 371.138 181.33C371.503 182.002 371.996 182.51 372.619 182.851C373.242 183.187 373.959 183.345 374.771 183.323C375.3 183.31 375.775 183.223 376.197 183.064C376.625 182.9 376.991 182.663 377.295 182.353C377.599 182.038 377.831 181.652 377.989 181.193L379.946 181.687C379.759 182.351 379.431 182.94 378.961 183.452C378.491 183.959 377.905 184.361 377.202 184.658C376.499 184.949 375.705 185.106 374.819 185.13Z" fill="#1F2329" fill-opacity="0.3"/>
<path d="M388.612 184.767C387.431 184.798 386.387 184.544 385.481 184.006C384.58 183.467 383.866 182.698 383.34 181.7C382.819 180.702 382.541 179.527 382.505 178.175C382.47 176.812 382.685 175.616 383.153 174.586C383.626 173.556 384.298 172.749 385.17 172.163C386.047 171.577 387.076 171.269 388.257 171.238C389.439 171.207 390.48 171.461 391.381 172C392.287 172.539 393.001 173.31 393.522 174.314C394.048 175.318 394.329 176.501 394.365 177.864C394.401 179.216 394.182 180.404 393.708 181.428C393.241 182.452 392.568 183.257 391.691 183.843C390.82 184.428 389.794 184.736 388.612 184.767ZM388.565 182.961C389.462 182.938 390.195 182.688 390.762 182.213C391.329 181.738 391.742 181.121 392.001 180.364C392.259 179.607 392.377 178.792 392.354 177.917C392.331 177.042 392.171 176.231 391.873 175.483C391.575 174.735 391.13 174.135 390.538 173.685C389.947 173.234 389.202 173.021 388.305 173.044C387.407 173.068 386.675 173.32 386.108 173.801C385.541 174.282 385.128 174.904 384.869 175.666C384.611 176.429 384.493 177.248 384.516 178.123C384.539 178.997 384.7 179.806 384.998 180.548C385.296 181.291 385.74 181.884 386.332 182.329C386.923 182.774 387.668 182.985 388.565 182.961Z" fill="#1F2329" fill-opacity="0.3"/>
<path d="M330.389 426.106L329.93 408.658L336.32 408.49C337.559 408.457 338.589 408.635 339.412 409.022C340.235 409.404 340.857 409.937 341.278 410.619C341.7 411.296 341.922 412.066 341.944 412.929C341.964 413.656 341.846 414.273 341.592 414.78C341.338 415.281 340.991 415.688 340.55 416.001C340.115 416.308 339.632 416.536 339.102 416.687L339.106 416.857C339.686 416.87 340.256 417.043 340.816 417.375C341.382 417.701 341.855 418.175 342.235 418.795C342.615 419.416 342.817 420.178 342.841 421.081C342.864 421.973 342.675 422.78 342.273 423.501C341.877 424.216 341.25 424.792 340.392 425.23C339.533 425.661 338.428 425.895 337.077 425.93L330.389 426.106ZM332.962 423.779L336.762 423.679C338.023 423.646 338.919 423.378 339.452 422.876C339.984 422.373 340.241 421.755 340.222 421.022C340.207 420.471 340.055 419.97 339.764 419.517C339.474 419.064 339.067 418.708 338.543 418.449C338.024 418.19 337.413 418.07 336.709 418.088L332.815 418.19L332.962 423.779ZM332.761 416.137L336.288 416.044C336.879 416.029 337.407 415.901 337.873 415.662C338.344 415.422 338.713 415.094 338.981 414.678C339.254 414.256 339.383 413.763 339.368 413.201C339.349 412.48 339.081 411.882 338.562 411.406C338.044 410.931 337.262 410.707 336.217 410.735L332.622 410.829L332.761 416.137Z" fill="white"/>
<path d="M348.284 422.064L353.802 412.396L356.546 412.324L356.889 425.41L354.393 425.476L354.143 415.951L348.651 425.627L345.882 425.699L345.538 412.613L348.035 412.547L348.284 422.064Z" fill="white"/>
<path d="M359.135 429.128L358.978 423.147L360.043 423.119C360.309 422.862 360.532 422.558 360.71 422.207C360.894 421.855 361.045 421.439 361.163 420.958C361.287 420.478 361.386 419.918 361.46 419.28C361.534 418.635 361.594 417.901 361.641 417.075L361.922 412.183L370.816 411.949L371.102 422.829L373.113 422.776L373.27 428.757L370.782 428.822L370.683 425.048L361.558 425.288L361.657 429.062L359.135 429.128ZM362.77 423.048L368.614 422.894L368.386 414.196L364.262 414.304L364.061 417.012C363.966 418.39 363.833 419.587 363.66 420.603C363.488 421.614 363.191 422.428 362.77 423.048Z" fill="white"/>
<path d="M381.308 425.033C380.018 425.067 378.901 424.821 377.955 424.294C377.014 423.762 376.278 423 375.746 422.008C375.22 421.01 374.939 419.832 374.903 418.475C374.868 417.134 375.087 415.946 375.56 414.911C376.039 413.875 376.722 413.059 377.61 412.461C378.504 411.864 379.558 411.549 380.774 411.517C381.512 411.498 382.231 411.601 382.93 411.827C383.63 412.053 384.262 412.42 384.826 412.928C385.391 413.436 385.843 414.104 386.183 414.93C386.523 415.751 386.709 416.755 386.74 417.942L386.764 418.845L376.361 419.119L376.311 417.21L384.217 417.003C384.2 416.332 384.048 415.742 383.761 415.233C383.475 414.717 383.081 414.316 382.579 414.027C382.082 413.739 381.505 413.604 380.846 413.621C380.13 413.64 379.51 413.832 378.986 414.199C378.466 414.559 378.069 415.024 377.794 415.594C377.525 416.158 377.399 416.767 377.416 417.42L377.455 418.911C377.478 419.786 377.651 420.526 377.974 421.131C378.302 421.736 378.749 422.193 379.314 422.502C379.879 422.806 380.534 422.948 381.278 422.928C381.761 422.916 382.199 422.836 382.593 422.689C382.987 422.537 383.325 422.318 383.607 422.032C383.89 421.746 384.102 421.396 384.245 420.983L386.667 421.355C386.493 422.07 386.163 422.701 385.677 423.248C385.197 423.789 384.586 424.217 383.844 424.532C383.107 424.841 382.262 425.008 381.308 425.033Z" fill="white"/>
<path d="M395.261 424.667C394.034 424.699 392.956 424.446 392.027 423.908C391.098 423.37 390.367 422.602 389.835 421.604C389.303 420.606 389.019 419.431 388.984 418.08C388.948 416.722 389.17 415.528 389.648 414.498C390.127 413.468 390.816 412.66 391.716 412.074C392.616 411.488 393.679 411.178 394.906 411.146C396.133 411.114 397.211 411.367 398.14 411.905C399.069 412.444 399.8 413.214 400.332 414.218C400.864 415.221 401.148 416.402 401.184 417.759C401.219 419.111 400.998 420.299 400.519 421.323C400.04 422.348 399.35 423.153 398.451 423.739C397.551 424.326 396.488 424.635 395.261 424.667ZM395.213 422.528C396.009 422.507 396.662 422.28 397.173 421.846C397.685 421.412 398.056 420.842 398.288 420.137C398.525 419.432 398.633 418.659 398.611 417.818C398.589 416.983 398.441 416.22 398.167 415.528C397.899 414.83 397.497 414.275 396.964 413.863C396.43 413.451 395.766 413.255 394.97 413.276C394.17 413.297 393.511 413.527 392.994 413.967C392.482 414.407 392.108 414.982 391.871 415.693C391.639 416.398 391.534 417.169 391.556 418.003C391.578 418.844 391.724 419.61 391.992 420.302C392.266 420.994 392.67 421.544 393.203 421.95C393.742 422.357 394.412 422.549 395.213 422.528Z" fill="white"/>
<path d="M176.067 316.937L179.978 316.835L180.575 339.582L189.214 339.356L188.617 316.608L192.527 316.505L193.124 339.253L201.738 339.027L201.141 316.279L205.038 316.177L205.726 342.349L176.754 343.11L176.067 316.937Z" fill="white"/>
<path d="M217.252 342.482C216.008 342.514 214.877 342.314 213.86 341.88C212.842 341.438 212.028 340.781 211.416 339.911C210.814 339.04 210.496 337.961 210.462 336.675C210.433 335.567 210.622 334.65 211.029 333.923C211.436 333.196 211.996 332.615 212.71 332.178C213.423 331.742 214.224 331.405 215.113 331.169C216.002 330.932 216.909 330.746 217.835 330.611C219.007 330.444 219.959 330.308 220.689 330.204C221.419 330.091 221.948 329.928 222.275 329.715C222.602 329.501 222.759 329.165 222.747 328.705L222.745 328.615C222.715 327.499 222.377 326.643 221.731 326.046C221.093 325.449 220.156 325.166 218.921 325.199C217.634 325.233 216.628 325.545 215.902 326.135C215.184 326.716 214.693 327.356 214.43 328.053L210.818 327.33C211.212 326.126 211.809 325.147 212.608 324.393C213.415 323.63 214.35 323.068 215.415 322.708C216.48 322.339 217.604 322.139 218.788 322.107C219.572 322.087 220.405 322.159 221.288 322.323C222.179 322.479 223.014 322.789 223.793 323.255C224.581 323.72 225.234 324.398 225.752 325.288C226.27 326.17 226.547 327.326 226.585 328.757L226.927 341.793L223.196 341.891L223.125 339.207L222.972 339.211C222.738 339.712 222.38 340.207 221.898 340.697C221.416 341.187 220.792 341.6 220.025 341.936C219.258 342.271 218.334 342.453 217.252 342.482ZM218.002 339.393C219.058 339.365 219.956 339.132 220.695 338.695C221.442 338.258 222.003 337.697 222.377 337.014C222.759 336.322 222.941 335.588 222.92 334.813L222.854 332.283C222.721 332.423 222.46 332.557 222.071 332.687C221.691 332.808 221.255 332.917 220.763 333.015C220.271 333.105 219.791 333.19 219.324 333.271C218.857 333.342 218.467 333.404 218.153 333.455C217.414 333.568 216.741 333.743 216.133 333.981C215.534 334.218 215.057 334.551 214.701 334.978C214.354 335.396 214.19 335.946 214.208 336.628C214.233 337.573 214.601 338.28 215.312 338.747C216.023 339.206 216.92 339.421 218.002 339.393Z" fill="white"/>
<path d="M246.453 314.322L248.101 316.696C247.528 317.248 246.869 317.649 246.125 317.898C245.39 318.139 244.537 318.302 243.568 318.388C242.598 318.464 241.487 318.54 240.236 318.616C238.823 318.695 237.668 319.033 236.771 319.628C235.874 320.214 235.193 321.067 234.728 322.188C234.271 323.299 233.992 324.688 233.891 326.353L234.134 326.347C234.741 325.112 235.603 324.177 236.72 323.542C237.846 322.907 239.12 322.571 240.543 322.534C242.128 322.492 243.547 322.817 244.802 323.509C246.056 324.201 247.055 325.236 247.799 326.615C248.551 327.985 248.954 329.675 249.007 331.686C249.06 333.722 248.731 335.491 248.02 336.993C247.318 338.495 246.3 339.668 244.967 340.513C243.642 341.35 242.063 341.792 240.232 341.84C238.4 341.888 236.792 341.517 235.407 340.726C234.03 339.927 232.946 338.719 232.153 337.103C231.369 335.486 230.945 333.477 230.882 331.074L230.831 329.132C230.713 324.642 231.425 321.243 232.967 318.934C234.51 316.626 236.873 315.4 240.058 315.257C241.088 315.204 242.008 315.176 242.818 315.172C243.628 315.159 244.334 315.102 244.937 315.001C245.547 314.891 246.053 314.665 246.453 314.322ZM240.16 338.632C241.225 338.604 242.134 338.311 242.887 337.754C243.648 337.189 244.224 336.402 244.615 335.394C245.006 334.387 245.184 333.205 245.149 331.851C245.114 330.522 244.875 329.398 244.434 328.481C243.992 327.563 243.377 326.871 242.589 326.406C241.8 325.932 240.865 325.71 239.783 325.738C238.982 325.759 238.27 325.918 237.647 326.216C237.024 326.505 236.494 326.924 236.056 327.473C235.627 328.021 235.299 328.686 235.073 329.468C234.854 330.241 234.75 331.126 234.759 332.124C234.812 334.151 235.319 335.754 236.279 336.93C237.248 338.107 238.541 338.674 240.16 338.632Z" fill="white"/>
<path d="M251.979 341.135L251.879 337.825L252.582 337.807C253.127 337.793 253.58 337.666 253.94 337.426C254.309 337.177 254.605 336.769 254.829 336.2C255.053 335.632 255.215 334.852 255.317 333.86C255.419 332.86 255.48 331.605 255.5 330.095L255.617 321.396L269.316 321.037L269.832 340.666L266.087 340.764L265.659 324.432L259.243 324.6L259.112 331.28C259.077 332.9 258.948 334.319 258.725 335.535C258.509 336.752 258.174 337.771 257.718 338.593C257.262 339.406 256.664 340.023 255.925 340.443C255.185 340.855 254.279 341.074 253.205 341.103L251.979 341.135Z" fill="white"/>
<path d="M283.207 340.711C281.366 340.76 279.749 340.38 278.355 339.573C276.962 338.765 275.866 337.613 275.068 336.117C274.269 334.62 273.844 332.858 273.791 330.83C273.737 328.794 274.069 327.003 274.788 325.458C275.506 323.913 276.54 322.701 277.889 321.822C279.239 320.942 280.834 320.478 282.674 320.43C284.514 320.382 286.131 320.761 287.525 321.569C288.919 322.376 290.015 323.532 290.813 325.038C291.612 326.543 292.038 328.313 292.091 330.35C292.144 332.377 291.812 334.159 291.093 335.696C290.375 337.232 289.341 338.44 287.991 339.32C286.642 340.199 285.047 340.663 283.207 340.711ZM283.135 337.503C284.328 337.472 285.308 337.131 286.075 336.48C286.842 335.829 287.4 334.974 287.747 333.917C288.103 332.859 288.264 331.699 288.231 330.438C288.198 329.186 287.976 328.041 287.566 327.003C287.163 325.956 286.561 325.124 285.761 324.505C284.96 323.887 283.963 323.593 282.771 323.625C281.569 323.656 280.581 324.002 279.805 324.662C279.038 325.321 278.477 326.184 278.121 327.251C277.774 328.309 277.617 329.464 277.65 330.716C277.683 331.977 277.901 333.126 278.303 334.165C278.714 335.202 279.319 336.026 280.12 336.636C280.929 337.246 281.934 337.535 283.135 337.503Z" fill="white"/>
<path d="M309.614 328.15L309.701 331.46L299.069 331.739L298.982 328.429L309.614 328.15ZM299.841 320.235L300.356 339.865L296.612 339.963L296.096 320.333L299.841 320.235ZM312.071 319.914L312.586 339.544L308.855 339.642L308.339 320.012L312.071 319.914Z" fill="white"/>
<path d="M320.235 326.452L325.935 326.302C328.338 326.239 330.202 326.787 331.528 327.946C332.855 329.105 333.543 330.625 333.592 332.508C333.624 333.735 333.364 334.846 332.81 335.841C332.256 336.836 331.429 337.634 330.328 338.234C329.227 338.825 327.875 339.142 326.273 339.184L317.698 339.409L317.183 319.78L320.927 319.681L321.356 336.014L326.187 335.887C327.286 335.858 328.181 335.549 328.874 334.96C329.565 334.362 329.9 333.615 329.876 332.721C329.851 331.775 329.478 331.013 328.755 330.436C328.032 329.849 327.121 329.571 326.022 329.599L320.322 329.749L320.235 326.452ZM336.548 338.914L336.033 319.285L339.854 319.184L340.369 338.814L336.548 338.914Z" fill="white"/>
<path d="M11.6205 92.358C10.6058 53.7114 41.1125 21.5595 79.7591 20.5448L419.642 11.6206C458.289 10.6058 490.44 41.1125 491.455 79.7591L500.379 419.642C501.394 458.289 470.887 490.44 432.241 491.455L92.358 500.379C53.7114 501.394 21.5595 470.888 20.5448 432.241L11.6205 92.358Z" fill="#1F2329"/>
<path d="M31.6137 91.8331C30.8888 64.2283 52.6793 41.2627 80.284 40.5379L420.167 31.6137C447.772 30.8889 470.737 52.6793 471.462 80.2841L474.087 180.25C474.812 207.854 453.021 230.82 425.416 231.545L85.5336 240.469C57.9289 241.194 34.9632 219.403 34.2384 191.799L31.6137 91.8331Z" fill="#2A2F36"/>
<path d="M53.1814 184.41C52.7175 166.743 66.6634 152.045 84.3304 151.581L211.591 148.24C229.258 147.776 243.956 161.722 244.42 179.389L244.49 182.054C244.954 199.721 231.008 214.419 213.341 214.883L86.0803 218.225C68.4133 218.689 53.7153 204.743 53.2514 187.076L53.1814 184.41Z" fill="white"/>
<path d="M263.544 178.887C263.08 161.22 277.026 146.522 294.693 146.058L421.953 142.716C439.62 142.252 454.319 156.198 454.782 173.865L454.852 176.531C455.316 194.198 441.37 208.896 423.703 209.36L296.443 212.701C278.776 213.165 264.078 199.219 263.614 181.552L263.544 178.887Z" fill="white"/>
<path d="M128.066 175.955L130.827 175.883C132.122 175.849 133.279 176.108 134.3 176.661C135.32 177.214 136.131 178 136.732 179.019C137.333 180.037 137.651 181.228 137.687 182.592C137.723 183.955 137.467 185.164 136.921 186.218C136.375 187.272 135.606 188.105 134.616 188.717C133.627 189.328 132.484 189.651 131.189 189.685L128.429 189.757C127.134 189.791 125.976 189.532 124.955 188.979C123.935 188.426 123.124 187.64 122.523 186.622C121.922 185.603 121.604 184.412 121.568 183.049C121.533 181.686 121.788 180.477 122.334 179.422C122.881 178.368 123.649 177.535 124.639 176.924C125.629 176.312 126.771 175.989 128.066 175.955ZM128.115 177.83C127.127 177.856 126.298 178.085 125.627 178.517C124.962 178.95 124.463 179.548 124.131 180.313C123.804 181.078 123.654 181.971 123.681 182.993C123.708 184.004 123.904 184.88 124.27 185.621C124.642 186.361 125.171 186.93 125.858 187.327C126.551 187.724 127.391 187.909 128.379 187.883L131.14 187.811C132.128 187.785 132.955 187.556 133.62 187.123C134.29 186.691 134.789 186.092 135.116 185.328C135.448 184.563 135.601 183.669 135.574 182.647C135.547 181.636 135.348 180.76 134.976 180.02C134.61 179.279 134.081 178.71 133.388 178.314C132.702 177.917 131.864 177.731 130.876 177.757L128.115 177.83ZM130.457 173.505L130.942 191.976L128.829 192.032L128.344 173.561L130.457 173.505Z" fill="#1F2329" fill-opacity="0.3"/>
<path d="M146.501 191.124C145.319 191.156 144.275 190.902 143.369 190.363C142.468 189.824 141.754 189.055 141.228 188.057C140.707 187.059 140.429 185.884 140.394 184.533C140.358 183.169 140.574 181.973 141.041 180.943C141.514 179.913 142.186 179.106 143.058 178.52C143.935 177.934 144.964 177.626 146.145 177.595C147.327 177.564 148.368 177.818 149.269 178.357C150.175 178.896 150.889 179.667 151.41 180.671C151.936 181.675 152.217 182.858 152.253 184.221C152.289 185.573 152.07 186.761 151.596 187.785C151.129 188.809 150.457 189.614 149.58 190.2C148.708 190.785 147.682 191.093 146.501 191.124ZM146.453 189.318C147.351 189.295 148.083 189.045 148.65 188.57C149.217 188.095 149.63 187.479 149.889 186.722C150.148 185.964 150.265 185.149 150.242 184.274C150.219 183.399 150.059 182.588 149.761 181.84C149.463 181.092 149.018 180.492 148.426 180.042C147.835 179.591 147.09 179.378 146.193 179.401C145.295 179.425 144.563 179.677 143.996 180.158C143.429 180.639 143.016 181.261 142.758 182.024C142.499 182.786 142.381 183.605 142.404 184.48C142.427 185.354 142.588 186.163 142.886 186.905C143.184 187.648 143.628 188.242 144.22 188.686C144.811 189.131 145.556 189.342 146.453 189.318Z" fill="#1F2329" fill-opacity="0.3"/>
<path d="M153.488 179.448L153.438 177.574L164.071 177.295L164.12 179.169L159.826 179.282L160.121 190.494L158.11 190.547L157.816 179.335L153.488 179.448Z" fill="#1F2329" fill-opacity="0.3"/>
<path d="M171.992 190.455C170.81 190.486 169.766 190.232 168.86 189.693C167.959 189.154 167.245 188.386 166.719 187.388C166.198 186.39 165.92 185.215 165.885 183.863C165.849 182.5 166.065 181.304 166.532 180.274C167.005 179.244 167.678 178.436 168.549 177.851C169.426 177.265 170.455 176.957 171.637 176.926C172.818 176.895 173.859 177.149 174.76 177.688C175.666 178.227 176.38 178.998 176.901 180.002C177.427 181.005 177.709 182.189 177.744 183.552C177.78 184.904 177.561 186.092 177.088 187.116C176.62 188.14 175.948 188.945 175.071 189.53C174.2 190.116 173.173 190.424 171.992 190.455ZM171.944 188.649C172.842 188.625 173.574 188.376 174.141 187.901C174.709 187.425 175.122 186.809 175.38 186.052C175.639 185.295 175.757 184.479 175.734 183.605C175.711 182.73 175.55 181.918 175.252 181.17C174.954 180.422 174.509 179.823 173.917 179.372C173.326 178.922 172.581 178.708 171.684 178.732C170.787 178.756 170.054 179.008 169.487 179.489C168.92 179.97 168.507 180.592 168.249 181.354C167.99 182.117 167.873 182.936 167.895 183.81C167.918 184.685 168.079 185.494 168.377 186.236C168.675 186.979 169.12 187.572 169.711 188.017C170.302 188.462 171.047 188.673 171.944 188.649Z" fill="#1F2329" fill-opacity="0.3"/>
<path d="M324.707 186.173L324.249 168.724L330.349 168.564C331.564 168.532 332.572 168.716 333.373 169.115C334.173 169.509 334.776 170.053 335.181 170.747C335.585 171.436 335.799 172.206 335.821 173.058C335.841 173.808 335.723 174.43 335.469 174.926C335.221 175.421 334.885 175.817 334.46 176.112C334.042 176.407 333.584 176.629 333.088 176.779L333.093 176.949C333.627 176.969 334.169 177.143 334.718 177.469C335.266 177.796 335.731 178.273 336.111 178.899C336.491 179.526 336.693 180.299 336.717 181.219C336.74 182.094 336.562 182.886 336.183 183.595C335.804 184.304 335.191 184.874 334.344 185.306C333.497 185.737 332.386 185.971 331.011 186.007L324.707 186.173ZM326.771 184.243L330.962 184.133C332.342 184.096 333.315 183.804 333.881 183.255C334.451 182.7 334.727 182.039 334.707 181.272C334.691 180.681 334.526 180.14 334.212 179.648C333.898 179.15 333.458 178.758 332.894 178.472C332.329 178.18 331.666 178.044 330.905 178.064L326.611 178.177L326.771 184.243ZM326.563 176.336L330.482 176.233C331.118 176.217 331.689 176.077 332.193 175.813C332.703 175.55 333.103 175.187 333.392 174.725C333.687 174.262 333.826 173.724 333.81 173.111C333.79 172.344 333.506 171.701 332.958 171.181C332.41 170.655 331.557 170.408 330.398 170.438L326.411 170.543L326.563 176.336Z" fill="#1F2329" fill-opacity="0.3"/>
<path d="M341.971 182.752L348.01 172.465L350.327 172.404L350.671 185.491L348.66 185.544L348.394 175.422L342.39 185.708L340.038 185.77L339.695 172.684L341.705 172.631L341.971 182.752Z" fill="#1F2329" fill-opacity="0.3"/>
<path d="M353.055 189.18L352.907 183.556L353.998 183.528C354.257 183.242 354.479 182.935 354.664 182.607C354.849 182.278 355.006 181.89 355.136 181.443C355.272 180.991 355.383 180.442 355.468 179.798C355.554 179.147 355.624 178.364 355.68 177.447L355.987 172.256L364.302 172.037L364.596 183.25L366.607 183.197L366.755 188.82L364.744 188.873L364.645 185.124L354.967 185.378L355.065 189.127L353.055 189.18ZM356.281 183.468L362.586 183.302L362.34 173.965L357.91 174.081L357.656 177.396C357.55 178.768 357.405 179.968 357.222 180.996C357.039 182.024 356.725 182.848 356.281 183.468Z" fill="#1F2329" fill-opacity="0.3"/>
<path d="M374.819 185.13C373.558 185.163 372.463 184.913 371.534 184.38C370.61 183.842 369.888 183.076 369.368 182.084C368.853 181.086 368.578 179.917 368.542 178.576C368.507 177.236 368.72 176.048 369.182 175.013C369.649 173.972 370.315 173.153 371.181 172.556C372.052 171.953 373.078 171.637 374.259 171.606C374.941 171.588 375.617 171.684 376.287 171.893C376.958 172.103 377.572 172.456 378.131 172.953C378.69 173.444 379.142 174.103 379.487 174.93C379.833 175.756 380.022 176.78 380.054 178.001L380.076 178.853L369.989 179.118L369.943 177.38L377.986 177.169C377.967 176.43 377.802 175.775 377.491 175.204C377.186 174.632 376.76 174.186 376.211 173.865C375.668 173.544 375.034 173.393 374.307 173.412C373.506 173.433 372.818 173.65 372.243 174.063C371.674 174.47 371.242 174.993 370.946 175.631C370.65 176.27 370.512 176.95 370.531 177.671L370.561 178.83C370.587 179.818 370.779 180.652 371.138 181.33C371.503 182.002 371.996 182.51 372.619 182.851C373.242 183.187 373.959 183.345 374.771 183.323C375.3 183.31 375.775 183.223 376.197 183.064C376.625 182.9 376.991 182.663 377.295 182.353C377.599 182.038 377.831 181.652 377.989 181.193L379.946 181.687C379.759 182.351 379.431 182.94 378.961 183.452C378.491 183.959 377.905 184.361 377.202 184.658C376.499 184.949 375.705 185.106 374.819 185.13Z" fill="#1F2329" fill-opacity="0.3"/>
<path d="M388.612 184.767C387.431 184.798 386.387 184.544 385.481 184.006C384.58 183.467 383.866 182.698 383.34 181.7C382.819 180.702 382.541 179.527 382.505 178.175C382.47 176.812 382.685 175.616 383.153 174.586C383.626 173.556 384.298 172.749 385.17 172.163C386.047 171.577 387.076 171.269 388.257 171.238C389.439 171.207 390.48 171.461 391.381 172C392.287 172.539 393.001 173.31 393.522 174.314C394.048 175.318 394.329 176.501 394.365 177.864C394.401 179.216 394.182 180.404 393.708 181.428C393.241 182.452 392.568 183.257 391.691 183.843C390.82 184.428 389.794 184.736 388.612 184.767ZM388.565 182.961C389.462 182.938 390.195 182.688 390.762 182.213C391.329 181.738 391.742 181.121 392.001 180.364C392.259 179.607 392.377 178.792 392.354 177.917C392.331 177.042 392.171 176.231 391.873 175.483C391.575 174.735 391.13 174.135 390.538 173.685C389.947 173.234 389.202 173.021 388.305 173.044C387.407 173.068 386.675 173.32 386.108 173.801C385.541 174.282 385.128 174.904 384.869 175.666C384.611 176.429 384.493 177.248 384.516 178.123C384.539 178.997 384.7 179.806 384.998 180.548C385.296 181.291 385.74 181.884 386.332 182.329C386.923 182.774 387.668 182.985 388.565 182.961Z" fill="#1F2329" fill-opacity="0.3"/>
<path d="M37.9131 331.75C37.1883 304.146 58.9788 281.18 86.5835 280.455L426.466 271.531C454.071 270.806 477.037 292.597 477.762 320.201L480.386 420.167C481.111 447.772 459.321 470.737 431.716 471.462L91.8331 480.386C64.2283 481.111 41.2627 459.321 40.5379 431.716L37.9131 331.75Z" fill="#2A2F36"/>
<path d="M176.067 316.937L179.978 316.835L180.575 339.582L189.214 339.356L188.617 316.608L192.527 316.505L193.124 339.253L201.738 339.027L201.141 316.279L205.038 316.177L205.726 342.349L176.754 343.11L176.067 316.937Z" fill="white"/>
<path d="M217.252 342.482C216.008 342.514 214.877 342.314 213.86 341.88C212.842 341.438 212.028 340.781 211.416 339.911C210.814 339.04 210.496 337.961 210.462 336.675C210.433 335.567 210.622 334.65 211.029 333.923C211.436 333.196 211.996 332.615 212.71 332.178C213.423 331.742 214.224 331.405 215.113 331.169C216.002 330.932 216.909 330.746 217.835 330.611C219.007 330.444 219.959 330.308 220.689 330.204C221.419 330.091 221.948 329.928 222.275 329.715C222.602 329.501 222.759 329.165 222.747 328.705L222.745 328.615C222.715 327.499 222.377 326.643 221.731 326.046C221.093 325.449 220.156 325.166 218.921 325.199C217.634 325.233 216.628 325.545 215.902 326.135C215.184 326.716 214.693 327.356 214.43 328.053L210.818 327.33C211.212 326.126 211.809 325.147 212.608 324.393C213.415 323.63 214.35 323.068 215.415 322.708C216.48 322.339 217.604 322.139 218.788 322.107C219.572 322.087 220.405 322.159 221.288 322.323C222.179 322.479 223.014 322.789 223.793 323.255C224.581 323.72 225.234 324.398 225.752 325.288C226.27 326.17 226.547 327.326 226.585 328.757L226.927 341.793L223.196 341.891L223.125 339.207L222.972 339.211C222.738 339.712 222.38 340.207 221.898 340.697C221.416 341.187 220.792 341.6 220.025 341.936C219.258 342.271 218.334 342.453 217.252 342.482ZM218.002 339.393C219.058 339.365 219.956 339.132 220.695 338.695C221.442 338.258 222.003 337.697 222.377 337.014C222.759 336.322 222.941 335.588 222.92 334.813L222.854 332.283C222.721 332.423 222.46 332.557 222.071 332.687C221.691 332.808 221.255 332.917 220.763 333.015C220.271 333.105 219.791 333.19 219.324 333.271C218.857 333.342 218.467 333.404 218.153 333.455C217.414 333.568 216.741 333.743 216.133 333.981C215.534 334.218 215.057 334.551 214.701 334.978C214.354 335.396 214.19 335.946 214.208 336.628C214.233 337.573 214.601 338.28 215.312 338.747C216.023 339.206 216.92 339.421 218.002 339.393Z" fill="white"/>
<path d="M246.453 314.322L248.101 316.696C247.528 317.248 246.869 317.649 246.125 317.898C245.39 318.139 244.537 318.302 243.568 318.388C242.598 318.464 241.487 318.54 240.236 318.616C238.823 318.695 237.668 319.033 236.771 319.628C235.874 320.214 235.193 321.067 234.728 322.188C234.271 323.299 233.992 324.688 233.891 326.353L234.134 326.347C234.741 325.112 235.603 324.177 236.72 323.542C237.846 322.907 239.12 322.571 240.543 322.534C242.128 322.492 243.547 322.817 244.802 323.509C246.056 324.201 247.055 325.236 247.799 326.615C248.551 327.985 248.954 329.675 249.007 331.686C249.06 333.722 248.731 335.491 248.02 336.993C247.318 338.495 246.3 339.668 244.967 340.513C243.642 341.35 242.063 341.792 240.232 341.84C238.4 341.888 236.792 341.517 235.407 340.726C234.03 339.927 232.946 338.719 232.153 337.103C231.369 335.486 230.945 333.477 230.882 331.074L230.831 329.132C230.713 324.642 231.425 321.243 232.967 318.934C234.51 316.626 236.873 315.4 240.058 315.257C241.088 315.204 242.008 315.176 242.818 315.172C243.628 315.159 244.334 315.102 244.937 315.001C245.547 314.891 246.053 314.665 246.453 314.322ZM240.16 338.632C241.225 338.604 242.134 338.311 242.887 337.754C243.648 337.189 244.224 336.402 244.615 335.394C245.006 334.387 245.184 333.205 245.149 331.851C245.114 330.522 244.875 329.398 244.434 328.481C243.992 327.563 243.377 326.871 242.589 326.406C241.8 325.932 240.865 325.71 239.783 325.738C238.982 325.759 238.27 325.918 237.647 326.216C237.024 326.505 236.494 326.924 236.056 327.473C235.627 328.021 235.299 328.686 235.073 329.468C234.854 330.241 234.75 331.126 234.759 332.124C234.812 334.151 235.319 335.754 236.279 336.93C237.248 338.107 238.541 338.674 240.16 338.632Z" fill="white"/>
<path d="M251.979 341.135L251.879 337.825L252.582 337.807C253.127 337.793 253.58 337.666 253.94 337.426C254.309 337.177 254.605 336.769 254.829 336.2C255.053 335.632 255.215 334.852 255.317 333.86C255.419 332.86 255.48 331.605 255.5 330.095L255.617 321.396L269.316 321.037L269.832 340.666L266.087 340.764L265.659 324.432L259.243 324.6L259.112 331.28C259.077 332.9 258.948 334.319 258.725 335.535C258.509 336.752 258.174 337.771 257.718 338.593C257.262 339.406 256.664 340.023 255.925 340.443C255.185 340.855 254.279 341.074 253.205 341.103L251.979 341.135Z" fill="white"/>
<path d="M283.207 340.711C281.366 340.76 279.749 340.38 278.355 339.573C276.962 338.765 275.866 337.613 275.068 336.117C274.269 334.62 273.844 332.858 273.791 330.83C273.737 328.794 274.069 327.003 274.788 325.458C275.506 323.913 276.54 322.701 277.889 321.822C279.239 320.942 280.834 320.478 282.674 320.43C284.514 320.382 286.131 320.761 287.525 321.569C288.919 322.376 290.015 323.532 290.813 325.038C291.612 326.543 292.038 328.313 292.091 330.35C292.144 332.377 291.812 334.159 291.093 335.696C290.375 337.232 289.341 338.44 287.991 339.32C286.642 340.199 285.047 340.663 283.207 340.711ZM283.135 337.503C284.328 337.472 285.308 337.131 286.075 336.48C286.842 335.829 287.4 334.974 287.747 333.917C288.103 332.859 288.264 331.699 288.231 330.438C288.198 329.186 287.976 328.041 287.566 327.003C287.163 325.956 286.561 325.124 285.761 324.505C284.96 323.887 283.963 323.593 282.771 323.625C281.569 323.656 280.581 324.002 279.805 324.662C279.038 325.321 278.477 326.184 278.121 327.251C277.774 328.309 277.617 329.464 277.65 330.716C277.683 331.977 277.901 333.126 278.303 334.165C278.714 335.202 279.319 336.026 280.12 336.636C280.929 337.246 281.934 337.535 283.135 337.503Z" fill="white"/>
<path d="M309.614 328.15L309.701 331.46L299.069 331.739L298.982 328.429L309.614 328.15ZM299.841 320.235L300.356 339.865L296.612 339.963L296.096 320.333L299.841 320.235ZM312.071 319.914L312.586 339.544L308.855 339.642L308.339 320.012L312.071 319.914Z" fill="white"/>
<path d="M320.235 326.452L325.935 326.302C328.338 326.239 330.202 326.787 331.528 327.946C332.855 329.105 333.543 330.625 333.592 332.508C333.624 333.735 333.364 334.846 332.81 335.841C332.256 336.836 331.429 337.634 330.328 338.234C329.227 338.825 327.875 339.142 326.273 339.184L317.698 339.409L317.183 319.78L320.927 319.681L321.356 336.014L326.187 335.887C327.286 335.858 328.181 335.549 328.874 334.96C329.565 334.362 329.9 333.615 329.876 332.721C329.851 331.775 329.478 331.013 328.755 330.436C328.032 329.849 327.121 329.571 326.022 329.599L320.322 329.749L320.235 326.452ZM336.548 338.914L336.033 319.285L339.854 319.184L340.369 338.814L336.548 338.914Z" fill="white"/>
<path d="M59.4808 424.327C59.017 406.66 72.9629 391.962 90.6299 391.498L217.89 388.157C235.557 387.693 250.255 401.639 250.719 419.306L250.789 421.972C251.253 439.639 237.307 454.337 219.64 454.801L92.3798 458.142C74.7128 458.606 60.0147 444.66 59.5508 426.993L59.4808 424.327Z" fill="white"/>
<path d="M269.843 418.804C269.38 401.137 283.325 386.439 300.992 385.975L428.253 382.633C445.92 382.17 460.618 396.116 461.082 413.783L461.152 416.448C461.616 434.115 447.67 448.813 430.003 449.277L302.742 452.619C285.075 453.083 270.377 439.137 269.913 421.47L269.843 418.804Z" fill="#10B981"/>
<path d="M134.366 415.873L137.126 415.8C138.421 415.766 139.579 416.026 140.599 416.579C141.62 417.132 142.431 417.917 143.031 418.936C143.632 419.955 143.951 421.146 143.986 422.509C144.022 423.872 143.767 425.081 143.22 426.135C142.674 427.19 141.906 428.023 140.916 428.634C139.926 429.246 138.783 429.568 137.488 429.602L134.728 429.675C133.433 429.709 132.275 429.449 131.255 428.896C130.234 428.343 129.423 427.558 128.823 426.539C128.222 425.52 127.904 424.329 127.868 422.966C127.832 421.603 128.087 420.394 128.634 419.34C129.18 418.285 129.948 417.452 130.938 416.841C131.928 416.229 133.071 415.907 134.366 415.873ZM134.415 417.747C133.427 417.773 132.597 418.002 131.926 418.435C131.261 418.867 130.763 419.466 130.43 420.23C130.104 420.995 129.954 421.888 129.981 422.911C130.007 423.922 130.204 424.798 130.57 425.538C130.942 426.279 131.471 426.847 132.158 427.244C132.85 427.641 133.691 427.826 134.679 427.8L137.439 427.728C138.428 427.702 139.254 427.473 139.919 427.04C140.59 426.608 141.089 426.009 141.415 425.245C141.748 424.48 141.9 423.587 141.873 422.564C141.847 421.553 141.648 420.678 141.276 419.937C140.91 419.196 140.38 418.628 139.688 418.231C139.001 417.834 138.164 417.649 137.175 417.675L134.415 417.747ZM136.757 413.423L137.242 431.894L135.129 431.949L134.644 413.478L136.757 413.423Z" fill="#1F2329" fill-opacity="0.3"/>
<path d="M152.8 431.042C151.619 431.073 150.575 430.819 149.668 430.28C148.767 429.741 148.054 428.972 147.527 427.975C147.007 426.977 146.729 425.802 146.693 424.45C146.657 423.087 146.873 421.89 147.341 420.861C147.814 419.831 148.486 419.023 149.357 418.437C150.234 417.852 151.263 417.543 152.445 417.512C153.626 417.481 154.667 417.735 155.568 418.274C156.475 418.813 157.188 419.585 157.709 420.588C158.236 421.592 158.517 422.775 158.553 424.138C158.588 425.49 158.369 426.678 157.896 427.702C157.428 428.726 156.756 429.531 155.879 430.117C155.008 430.702 153.981 431.011 152.8 431.042ZM152.753 429.236C153.65 429.212 154.382 428.963 154.95 428.487C155.517 428.012 155.93 427.396 156.188 426.639C156.447 425.882 156.565 425.066 156.542 424.191C156.519 423.317 156.358 422.505 156.06 421.757C155.762 421.009 155.317 420.41 154.726 419.959C154.134 419.509 153.39 419.295 152.492 419.319C151.595 419.342 150.862 419.594 150.295 420.075C149.728 420.556 149.315 421.178 149.057 421.941C148.799 422.704 148.681 423.522 148.704 424.397C148.727 425.272 148.887 426.08 149.185 426.823C149.483 427.565 149.928 428.159 150.519 428.604C151.111 429.049 151.855 429.259 152.753 429.236Z" fill="#1F2329" fill-opacity="0.3"/>
<path d="M159.787 419.366L159.738 417.491L170.371 417.212L170.42 419.087L166.126 419.199L166.42 430.411L164.41 430.464L164.115 419.252L159.787 419.366Z" fill="#1F2329" fill-opacity="0.3"/>
<path d="M178.291 430.372C177.11 430.404 176.066 430.15 175.159 429.611C174.259 429.072 173.545 428.303 173.019 427.305C172.498 426.307 172.22 425.132 172.184 423.781C172.148 422.417 172.364 421.221 172.832 420.191C173.305 419.161 173.977 418.354 174.848 417.768C175.725 417.182 176.755 416.874 177.936 416.843C179.117 416.812 180.158 417.066 181.059 417.605C181.966 418.144 182.679 418.915 183.2 419.919C183.727 420.923 184.008 422.106 184.044 423.469C184.079 424.821 183.86 426.009 183.387 427.033C182.92 428.057 182.247 428.862 181.37 429.448C180.499 430.033 179.473 430.341 178.291 430.372ZM178.244 428.566C179.141 428.543 179.874 428.293 180.441 427.818C181.008 427.343 181.421 426.727 181.68 425.97C181.938 425.212 182.056 424.397 182.033 423.522C182.01 422.647 181.85 421.836 181.551 421.088C181.253 420.34 180.808 419.74 180.217 419.29C179.625 418.839 178.881 418.626 177.983 418.649C177.086 418.673 176.354 418.925 175.787 419.406C175.219 419.887 174.807 420.509 174.548 421.272C174.29 422.034 174.172 422.853 174.195 423.728C174.218 424.602 174.378 425.411 174.676 426.153C174.974 426.896 175.419 427.489 176.011 427.934C176.602 428.379 177.346 428.59 178.244 428.566Z" fill="#1F2329" fill-opacity="0.3"/>
<path d="M330.389 426.106L329.93 408.658L336.32 408.49C337.559 408.457 338.589 408.635 339.412 409.022C340.235 409.404 340.857 409.937 341.278 410.619C341.7 411.296 341.922 412.066 341.944 412.929C341.964 413.656 341.846 414.273 341.592 414.78C341.338 415.281 340.991 415.688 340.55 416.001C340.115 416.308 339.632 416.536 339.102 416.687L339.106 416.857C339.686 416.87 340.256 417.043 340.816 417.375C341.382 417.701 341.855 418.175 342.235 418.795C342.615 419.416 342.817 420.178 342.841 421.081C342.864 421.973 342.675 422.78 342.273 423.501C341.877 424.216 341.25 424.792 340.392 425.23C339.533 425.661 338.428 425.895 337.077 425.93L330.389 426.106ZM332.962 423.779L336.762 423.679C338.023 423.646 338.919 423.378 339.452 422.876C339.984 422.373 340.241 421.755 340.222 421.022C340.207 420.471 340.055 419.97 339.764 419.517C339.474 419.064 339.067 418.708 338.543 418.449C338.024 418.19 337.413 418.07 336.709 418.088L332.815 418.19L332.962 423.779ZM332.761 416.137L336.288 416.044C336.879 416.029 337.407 415.901 337.873 415.662C338.344 415.422 338.713 415.094 338.981 414.678C339.254 414.256 339.383 413.763 339.368 413.201C339.349 412.48 339.081 411.882 338.562 411.406C338.044 410.931 337.262 410.707 336.217 410.735L332.622 410.829L332.761 416.137Z" fill="white"/>
<path d="M348.284 422.064L353.802 412.396L356.546 412.324L356.889 425.41L354.393 425.476L354.143 415.951L348.651 425.627L345.882 425.699L345.538 412.613L348.035 412.547L348.284 422.064Z" fill="white"/>
<path d="M359.135 429.128L358.978 423.147L360.043 423.119C360.309 422.862 360.532 422.558 360.71 422.207C360.894 421.855 361.045 421.439 361.163 420.958C361.287 420.478 361.386 419.918 361.46 419.28C361.534 418.635 361.594 417.901 361.641 417.075L361.922 412.183L370.816 411.949L371.102 422.829L373.113 422.776L373.27 428.757L370.782 428.822L370.683 425.048L361.558 425.288L361.657 429.062L359.135 429.128ZM362.77 423.048L368.614 422.894L368.386 414.196L364.262 414.304L364.061 417.012C363.966 418.39 363.833 419.587 363.66 420.603C363.488 421.614 363.191 422.428 362.77 423.048Z" fill="white"/>
<path d="M381.308 425.033C380.018 425.067 378.901 424.821 377.955 424.294C377.014 423.762 376.278 423 375.746 422.008C375.22 421.01 374.939 419.832 374.903 418.475C374.868 417.134 375.087 415.946 375.56 414.911C376.039 413.875 376.722 413.059 377.61 412.461C378.504 411.864 379.558 411.549 380.774 411.517C381.512 411.498 382.231 411.601 382.93 411.827C383.63 412.053 384.262 412.42 384.826 412.928C385.391 413.436 385.843 414.104 386.183 414.93C386.523 415.751 386.709 416.755 386.74 417.942L386.764 418.845L376.361 419.119L376.311 417.21L384.217 417.003C384.2 416.332 384.048 415.742 383.761 415.233C383.475 414.717 383.081 414.316 382.579 414.027C382.082 413.739 381.505 413.604 380.846 413.621C380.13 413.64 379.51 413.832 378.986 414.199C378.466 414.559 378.069 415.024 377.794 415.594C377.525 416.158 377.399 416.767 377.416 417.42L377.455 418.911C377.478 419.786 377.651 420.526 377.974 421.131C378.302 421.736 378.749 422.193 379.314 422.502C379.879 422.806 380.534 422.948 381.278 422.928C381.761 422.916 382.199 422.836 382.593 422.689C382.987 422.537 383.325 422.318 383.607 422.032C383.89 421.746 384.102 421.396 384.245 420.983L386.667 421.355C386.493 422.07 386.163 422.701 385.677 423.248C385.197 423.789 384.586 424.217 383.844 424.532C383.107 424.841 382.262 425.008 381.308 425.033Z" fill="white"/>
<path d="M395.261 424.667C394.034 424.699 392.956 424.446 392.027 423.908C391.098 423.37 390.367 422.602 389.835 421.604C389.303 420.606 389.019 419.431 388.984 418.08C388.948 416.722 389.17 415.528 389.648 414.498C390.127 413.468 390.816 412.66 391.716 412.074C392.616 411.488 393.679 411.178 394.906 411.146C396.133 411.114 397.211 411.367 398.14 411.905C399.069 412.444 399.8 413.214 400.332 414.218C400.864 415.221 401.148 416.402 401.184 417.759C401.219 419.111 400.998 420.299 400.519 421.323C400.04 422.348 399.35 423.153 398.451 423.739C397.551 424.326 396.488 424.635 395.261 424.667ZM395.213 422.528C396.009 422.507 396.662 422.28 397.173 421.846C397.685 421.412 398.056 420.842 398.288 420.137C398.525 419.432 398.633 418.659 398.611 417.818C398.589 416.983 398.441 416.22 398.167 415.528C397.899 414.83 397.497 414.275 396.964 413.863C396.43 413.451 395.766 413.255 394.97 413.276C394.17 413.297 393.511 413.527 392.994 413.967C392.482 414.407 392.108 414.982 391.871 415.693C391.639 416.398 391.534 417.169 391.556 418.003C391.578 418.844 391.724 419.61 391.992 420.302C392.266 420.994 392.67 421.544 393.203 421.95C393.742 422.357 394.412 422.549 395.213 422.528Z" fill="white"/>
<path d="M141.773 85.9396L138.603 86.0228C138.392 85.1161 138.043 84.3239 137.556 83.6461C137.078 82.9681 136.5 82.4035 135.824 81.9523C135.155 81.4925 134.417 81.1538 133.61 80.9362C132.803 80.7187 131.965 80.6214 131.096 80.6442C129.511 80.6858 128.086 81.1239 126.821 81.9585C125.564 82.793 124.577 83.9997 123.859 85.5787C123.15 87.1575 122.826 89.0801 122.885 91.3463C122.945 93.6126 123.37 95.5154 124.161 97.0549C124.96 98.5941 126.009 99.7473 127.308 100.515C128.615 101.282 130.062 101.644 131.646 101.603C132.515 101.58 133.347 101.439 134.142 101.179C134.936 100.92 135.655 100.547 136.299 100.061C136.951 99.5666 137.498 98.9682 137.94 98.266C138.39 97.5551 138.697 96.7457 138.861 95.8376L142.03 95.7544C141.827 97.0983 141.424 98.3067 140.821 99.3797C140.218 100.453 139.458 101.372 138.54 102.138C137.623 102.895 136.585 103.481 135.428 103.895C134.279 104.309 133.045 104.533 131.724 104.568C129.492 104.626 127.492 104.133 125.726 103.088C123.959 102.043 122.551 100.529 121.501 98.5442C120.452 96.5597 119.891 94.1873 119.818 91.4268C119.746 88.6664 120.182 86.2678 121.126 84.231C122.07 82.1941 123.396 80.6076 125.106 79.4714C126.815 78.3353 128.786 77.7379 131.018 77.6793C132.339 77.6446 133.583 77.8038 134.752 78.1567C135.929 78.5095 136.996 79.0441 137.953 79.7608C138.909 80.4689 139.717 81.3428 140.375 82.3827C141.033 83.4141 141.499 84.5998 141.773 85.9396Z" fill="white" fill-opacity="0.3"/>
<path d="M154.943 104.009C153.171 104.056 151.605 103.675 150.245 102.867C148.894 102.058 147.823 100.905 147.034 99.4084C146.253 97.9114 145.836 96.149 145.782 94.1213C145.729 92.0765 146.053 90.2819 146.754 88.7374C147.463 87.1927 148.472 85.9811 149.779 85.1028C151.094 84.2242 152.638 83.7616 154.41 83.7151C156.182 83.6686 157.744 84.0496 159.095 84.8582C160.455 85.6665 161.525 86.8234 162.307 88.329C163.096 89.8344 163.518 91.6094 163.572 93.6542C163.625 95.6819 163.297 97.4639 162.587 99.0001C161.885 100.536 160.877 101.743 159.561 102.622C158.255 103.5 156.715 103.963 154.943 104.009ZM154.872 101.3C156.218 101.265 157.316 100.89 158.167 100.178C159.018 99.4646 159.638 98.5404 160.026 97.4048C160.414 96.2692 160.59 95.0454 160.556 93.7334C160.521 92.4213 160.281 91.2042 159.833 90.0821C159.386 88.9599 158.719 88.0609 157.831 87.3851C156.944 86.7093 155.827 86.3891 154.481 86.4244C153.135 86.4597 152.037 86.8381 151.186 87.5596C150.335 88.281 149.716 89.2138 149.328 90.3579C148.941 91.502 148.764 92.73 148.798 94.0421C148.833 95.3541 149.074 96.567 149.521 97.6806C149.968 98.7943 150.635 99.6848 151.522 100.352C152.409 101.019 153.526 101.335 154.872 101.3Z" fill="white" fill-opacity="0.3"/>
<path d="M182.291 75.8726L183.873 77.6726C183.292 78.2676 182.612 78.6905 181.834 78.9411C181.057 79.1917 180.174 79.3555 179.187 79.4326C178.2 79.5097 177.103 79.5896 175.894 79.6725C174.532 79.7594 173.412 80.1214 172.534 80.7583C171.655 81.3952 170.988 82.2994 170.533 83.4708C170.078 84.6422 169.804 86.0732 169.712 87.7637L169.968 87.757C170.6 86.5127 171.497 85.5854 172.657 84.9752C173.818 84.365 175.071 84.0422 176.417 84.0069C177.951 83.9666 179.34 84.2882 180.586 84.9717C181.832 85.6551 182.831 86.6903 183.583 88.0773C184.336 89.4643 184.739 91.1887 184.793 93.2504C184.847 95.3037 184.527 97.0854 183.834 98.5956C183.149 100.106 182.161 101.283 180.87 102.126C179.588 102.961 178.069 103.402 176.314 103.448C174.559 103.494 173.01 103.121 171.668 102.33C170.325 101.529 169.266 100.321 168.49 98.7044C167.715 97.0793 167.295 95.0569 167.231 92.6373L167.176 90.5415C167.062 86.1708 167.716 82.8371 169.139 80.5405C170.571 78.2436 172.781 77.0175 175.769 76.8623C176.825 76.8005 177.766 76.7673 178.593 76.7626C179.42 76.758 180.139 76.7007 180.75 76.5909C181.36 76.4811 181.874 76.2417 182.291 75.8726ZM176.243 100.739C177.427 100.708 178.437 100.383 179.273 99.764C180.118 99.1451 180.757 98.2885 181.188 97.1944C181.62 96.0918 181.816 94.8036 181.777 93.3296C181.74 91.8983 181.473 90.6861 180.978 89.6931C180.492 88.6998 179.812 87.9504 178.937 87.4448C178.063 86.9391 177.025 86.7021 175.824 86.7336C174.946 86.7567 174.162 86.9265 173.471 87.243C172.78 87.5595 172.196 88.014 171.717 88.6063C171.238 89.1986 170.873 89.9158 170.622 90.7579C170.38 91.5998 170.264 92.5577 170.276 93.6316C170.333 95.8297 170.895 97.5755 171.961 98.869C173.026 100.163 174.453 100.786 176.243 100.739Z" fill="white" fill-opacity="0.3"/>
<path d="M189.851 110.05L189.142 83.0589L192.056 82.9824L192.138 86.1007L192.496 86.0913C192.708 85.7446 193.004 85.3021 193.382 84.7636C193.768 84.2163 194.326 83.7242 195.057 83.2873C195.795 82.8416 196.803 82.602 198.081 82.5684C199.734 82.525 201.202 82.9 202.485 83.6933C203.767 84.4866 204.782 85.6322 205.529 87.1302C206.276 88.6282 206.677 90.408 206.731 92.4698C206.785 94.5487 206.479 96.3599 205.812 97.9035C205.145 99.4386 204.196 100.64 202.965 101.508C201.734 102.367 200.301 102.818 198.665 102.861C197.404 102.894 196.389 102.712 195.62 102.315C194.851 101.908 194.254 101.442 193.831 100.916C193.408 100.382 193.081 99.9386 192.85 99.5866L192.595 99.5933L192.867 109.97L189.851 110.05ZM192.365 92.7959C192.404 94.2783 192.655 95.5804 193.12 96.7021C193.584 97.8153 194.242 98.6804 195.093 99.2975C195.945 99.9061 196.976 100.194 198.185 100.163C199.446 100.13 200.49 99.7697 201.316 99.083C202.15 98.3875 202.765 97.4677 203.162 96.3234C203.566 95.1703 203.75 93.8951 203.713 92.4979C203.677 91.1177 203.431 89.8794 202.976 88.783C202.53 87.6779 201.872 86.8127 201.003 86.1876C200.142 85.5537 199.073 85.2536 197.795 85.2871C196.568 85.3193 195.545 85.6574 194.727 86.3012C193.908 86.9366 193.3 87.8136 192.903 88.9324C192.506 90.0426 192.326 91.3305 192.365 92.7959Z" fill="white" fill-opacity="0.3"/>
<path d="M217.376 102.421C216.132 102.454 214.997 102.249 213.971 101.807C212.945 101.357 212.122 100.692 211.502 99.813C210.882 98.9256 210.555 97.8429 210.521 96.5649C210.492 95.4403 210.689 94.5229 211.114 93.8126C211.538 93.0938 212.116 92.5245 212.847 92.1046C213.577 91.6847 214.388 91.3651 215.277 91.1456C216.175 90.9174 217.078 90.7317 217.986 90.5885C219.175 90.4038 220.139 90.2634 220.878 90.1673C221.626 90.0624 222.167 89.9075 222.503 89.7026C222.847 89.4975 223.013 89.1521 223 88.6665L222.997 88.5642C222.964 87.3033 222.593 86.3326 221.885 85.6521C221.185 84.9714 220.141 84.6492 218.752 84.6857C217.312 84.7235 216.192 85.0684 215.39 85.7203C214.589 86.3723 214.032 87.0604 213.718 87.7848L210.829 86.8376C211.308 85.6314 211.966 84.6848 212.8 83.9979C213.643 83.3023 214.568 82.8091 215.575 82.5183C216.59 82.2189 217.592 82.0562 218.58 82.0302C219.211 82.0137 219.937 82.0713 220.759 82.2032C221.589 82.3263 222.393 82.6079 223.172 83.0478C223.96 83.4875 224.621 84.165 225.157 85.0802C225.692 85.9955 225.981 87.2326 226.021 88.7918L226.361 101.725L223.345 101.804L223.275 99.1458L223.122 99.1498C222.929 99.5812 222.6 100.046 222.135 100.544C221.671 101.042 221.047 101.472 220.264 101.834C219.48 102.195 218.518 102.391 217.376 102.421ZM217.765 99.6997C218.958 99.6684 219.957 99.4077 220.763 98.9177C221.577 98.4274 222.183 97.8061 222.581 97.0539C222.987 96.3015 223.18 95.5164 223.158 94.6985L223.086 91.9381C222.962 92.0948 222.685 92.2427 222.254 92.382C221.831 92.5124 221.339 92.6319 220.78 92.7404C220.228 92.8401 219.689 92.931 219.163 93.013C218.644 93.0863 218.224 93.1485 217.901 93.1996C217.12 93.3224 216.392 93.5078 215.716 93.7557C215.049 93.9949 214.513 94.3458 214.107 94.8083C213.71 95.262 213.521 95.8723 213.541 96.6391C213.569 97.687 213.977 98.4692 214.767 98.9856C215.564 99.4932 216.564 99.7313 217.765 99.6997Z" fill="white" fill-opacity="0.3"/>
<path d="M228.753 84.8323L228.68 82.0208L244.629 81.602L244.702 84.4136L238.261 84.5827L238.703 101.401L235.687 101.48L235.245 84.6619L228.753 84.8323Z" fill="white" fill-opacity="0.3"/>
<path d="M251.822 88.5236L257.445 88.3759C259.745 88.3155 261.52 88.8529 262.769 89.9881C264.018 91.1234 264.666 92.5856 264.713 94.3747C264.743 95.5504 264.499 96.6268 263.979 97.6039C263.459 98.5724 262.678 99.356 261.636 99.9545C260.595 100.545 259.307 100.86 257.773 100.9L249.543 101.116L249.028 81.4865L252.044 81.4073L252.486 98.2254L257.7 98.0885C258.892 98.0572 259.864 97.7162 260.614 97.0656C261.364 96.415 261.727 95.5956 261.701 94.6073C261.673 93.5679 261.268 92.7302 260.484 92.0943C259.7 91.4584 258.711 91.1561 257.518 91.1874L251.895 91.3351L251.822 88.5236Z" fill="white" fill-opacity="0.3"/>
<path d="M279.592 100.327L279.076 80.6975L294.514 80.2922L295.029 99.9218L292.013 100.001L291.572 83.1829L282.166 83.4299L282.608 100.248L279.592 100.327Z" fill="white" fill-opacity="0.3"/>
<path d="M300.731 107.138L300.022 80.1476L302.936 80.0711L303.018 83.1893L303.376 83.1799C303.588 82.8333 303.883 82.3907 304.262 81.8522C304.648 81.305 305.206 80.8129 305.936 80.3759C306.675 79.9303 307.683 79.6906 308.961 79.6571C310.614 79.6137 312.082 79.9886 313.364 80.782C314.647 81.5753 315.662 82.7209 316.409 84.2189C317.156 85.7168 317.556 87.4967 317.61 89.5585C317.665 91.6373 317.359 93.4485 316.692 94.9921C316.024 96.5272 315.075 97.7287 313.845 98.5965C312.614 99.4558 311.181 99.9069 309.545 99.9499C308.284 99.983 307.269 99.8008 306.5 99.4032C305.73 98.9971 305.134 98.5311 304.711 98.0051C304.288 97.4705 303.961 97.0273 303.73 96.6753L303.474 96.682L303.747 107.059L300.731 107.138ZM303.245 89.8845C303.284 91.367 303.535 92.669 303.999 93.7908C304.464 94.904 305.121 95.7691 305.973 96.3862C306.825 96.9947 307.855 97.2831 309.065 97.2513C310.326 97.2182 311.369 96.8583 312.195 96.1716C313.03 95.4762 313.645 94.5563 314.041 93.412C314.446 92.2589 314.63 90.9838 314.593 89.5865C314.557 88.2063 314.311 86.968 313.856 85.8717C313.409 84.7665 312.751 83.9014 311.882 83.2763C311.022 82.6424 309.952 82.3422 308.674 82.3758C307.448 82.408 306.425 82.746 305.606 83.3899C304.787 84.0252 304.18 84.9023 303.783 86.0211C303.386 87.1313 303.206 88.4191 303.245 89.8845Z" fill="white" fill-opacity="0.3"/>
<path d="M330.453 99.4009C328.681 99.4474 327.115 99.0665 325.755 98.2582C324.404 97.4496 323.333 96.2969 322.544 94.8001C321.763 93.303 321.346 91.5407 321.292 89.513C321.239 87.4682 321.562 85.6736 322.264 84.1291C322.973 82.5843 323.982 81.3728 325.289 80.4944C326.604 79.6159 328.148 79.1533 329.92 79.1068C331.692 79.0602 333.254 79.4413 334.605 80.2498C335.965 81.0582 337.035 82.2151 337.816 83.7207C338.606 85.2261 339.028 87.0011 339.082 89.0459C339.135 91.0736 338.807 92.8555 338.097 94.3917C337.395 95.9277 336.387 97.135 335.071 98.0136C333.764 98.8919 332.225 99.3544 330.453 99.4009ZM330.382 96.6916C331.728 96.6563 332.826 96.2822 333.677 95.5692C334.528 94.8563 335.147 93.9321 335.535 92.7965C335.923 91.6609 336.1 90.4371 336.066 89.1251C336.031 87.813 335.79 86.5959 335.343 85.4737C334.896 84.3516 334.229 83.4526 333.341 82.7768C332.454 82.101 331.337 81.7807 329.991 81.8161C328.645 81.8514 327.546 82.2298 326.696 82.9513C325.845 83.6727 325.226 84.6055 324.838 85.7496C324.45 86.8936 324.274 88.1217 324.308 89.4338C324.343 90.7458 324.583 91.9587 325.03 93.0723C325.477 94.186 326.145 95.0764 327.032 95.7437C327.919 96.411 329.035 96.727 330.382 96.6916Z" fill="white" fill-opacity="0.3"/>
<path d="M354.568 94.2662L361.01 78.5462L363.873 78.4711L355.902 98.3235L353.449 98.3879L344.601 78.9771L347.412 78.9032L354.568 94.2662ZM346.441 78.9287L346.957 98.5584L343.941 98.6375L343.425 79.0079L346.441 78.9287ZM362.394 98.153L361.879 78.5234L364.895 78.4442L365.41 98.0738L362.394 98.153Z" fill="white" fill-opacity="0.3"/>
<path d="M367.819 81.1809L367.745 78.3694L383.694 77.9506L383.768 80.7621L377.327 80.9313L377.768 97.7493L374.752 97.8285L374.311 81.0105L367.819 81.1809Z" fill="white" fill-opacity="0.3"/>
</svg>
