<svg width="472" height="150" viewBox="0 0 472 150" fill="none" xmlns="http://www.w3.org/2000/svg">
<path d="M0 32C0 14.3269 14.3269 0 32 0H117.17C134.843 0 149.17 14.3269 149.17 32V117.17C149.17 134.843 134.843 149.17 117.17 149.17H32C14.3269 149.17 0 134.843 0 117.17V32Z" fill="#10B981"/>
<path d="M161.415 32C161.415 14.3269 175.742 0 193.415 0H278.585C296.258 0 310.585 14.3269 310.585 32V117.17C310.585 134.843 296.258 149.17 278.585 149.17H193.415C175.742 149.17 161.415 134.843 161.415 117.17V32Z" fill="#10B981"/>
<path d="M322.83 32C322.83 14.3269 337.157 0 354.83 0H440C457.673 0 472 14.3269 472 32V117.17C472 134.843 457.673 149.17 440 149.17H354.83C337.157 149.17 322.83 134.843 322.83 117.17V32Z" fill="#10B981"/>
<path d="M29.9263 83.7925V66.3379H40.8695V68.605H32.5598V73.9231H40.2985V76.1817H32.5598V81.5254H40.9718V83.7925H29.9263Z" fill="white"/>
<path d="M51.8958 73.9572V76.1731H44.1571V73.9572H51.8958Z" fill="white"/>
<path d="M55.4966 83.7925V66.3379H61.7182C63.0762 66.3379 64.2012 66.5851 65.0932 67.0794C65.9853 67.5737 66.6529 68.2498 67.0961 69.1078C67.5392 69.9601 67.7608 70.9203 67.7608 71.9885C67.7608 73.0623 67.5364 74.0283 67.0875 74.8862C66.6444 75.7385 65.9739 76.4146 65.0762 76.9146C64.1841 77.4089 63.062 77.6561 61.7097 77.6561H57.4313V75.4231H61.4711C62.329 75.4231 63.025 75.2754 63.5591 74.98C64.0932 74.6788 64.4853 74.2697 64.7353 73.7527C64.9853 73.2356 65.1103 72.6476 65.1103 71.9885C65.1103 71.3294 64.9853 70.7442 64.7353 70.2328C64.4853 69.7214 64.0904 69.3209 63.5506 69.0311C63.0165 68.7413 62.312 68.5964 61.437 68.5964H58.1301V83.7925H55.4966Z" fill="white"/>
<path d="M70.6436 83.7925V70.7015H73.1067V72.7811H73.2431C73.4817 72.0765 73.9022 71.5226 74.5044 71.1192C75.1124 70.7101 75.7999 70.5055 76.5669 70.5055C76.726 70.5055 76.9135 70.5112 77.1294 70.5226C77.351 70.5339 77.5243 70.5481 77.6493 70.5652V73.0027C77.547 72.9743 77.3652 72.943 77.1039 72.9089C76.8425 72.8692 76.5811 72.8493 76.3198 72.8493C75.7175 72.8493 75.1806 72.9771 74.709 73.2328C74.2431 73.4828 73.8738 73.8322 73.601 74.2811C73.3283 74.7243 73.1919 75.23 73.1919 75.7981V83.7925H70.6436Z" fill="white"/>
<path d="M84.9 84.0567C83.6728 84.0567 82.6017 83.7754 81.687 83.2129C80.7722 82.6504 80.062 81.8635 79.5563 80.8521C79.0506 79.8407 78.7978 78.6589 78.7978 77.3067C78.7978 75.9487 79.0506 74.7612 79.5563 73.7442C80.062 72.7271 80.7722 71.9373 81.687 71.3748C82.6017 70.8123 83.6728 70.5311 84.9 70.5311C86.1273 70.5311 87.1983 70.8123 88.1131 71.3748C89.0279 71.9373 89.7381 72.7271 90.2438 73.7442C90.7495 74.7612 91.0023 75.9487 91.0023 77.3067C91.0023 78.6589 90.7495 79.8407 90.2438 80.8521C89.7381 81.8635 89.0279 82.6504 88.1131 83.2129C87.1983 83.7754 86.1273 84.0567 84.9 84.0567ZM84.9086 81.9175C85.704 81.9175 86.3631 81.7072 86.8858 81.2868C87.4086 80.8663 87.7949 80.3067 88.0449 79.6078C88.3006 78.9089 88.4284 78.139 88.4284 77.2981C88.4284 76.4629 88.3006 75.6959 88.0449 74.997C87.7949 74.2925 87.4086 73.7271 86.8858 73.301C86.3631 72.8748 85.704 72.6618 84.9086 72.6618C84.1074 72.6618 83.4426 72.8748 82.9142 73.301C82.3915 73.7271 82.0023 74.2925 81.7466 74.997C81.4966 75.6959 81.3716 76.4629 81.3716 77.2981C81.3716 78.139 81.4966 78.9089 81.7466 79.6078C82.0023 80.3067 82.3915 80.8663 82.9142 81.2868C83.4426 81.7072 84.1074 81.9175 84.9086 81.9175Z" fill="white"/>
<path d="M93.8468 83.7925V70.7015H96.2928V72.8322H96.4547C96.7274 72.1106 97.1735 71.5481 97.7928 71.1447C98.4121 70.7356 99.1536 70.5311 100.017 70.5311C100.892 70.5311 101.625 70.7356 102.216 71.1447C102.813 71.5538 103.253 72.1163 103.537 72.8322H103.673C103.986 72.1334 104.483 71.5765 105.165 71.1618C105.847 70.7413 106.659 70.5311 107.602 70.5311C108.79 70.5311 109.759 70.9032 110.509 71.6476C111.264 72.3919 111.642 73.514 111.642 75.014V83.7925H109.094V75.2527C109.094 74.3663 108.852 73.7243 108.369 73.3265C107.887 72.9288 107.31 72.73 106.639 72.73C105.81 72.73 105.165 72.9856 104.705 73.497C104.244 74.0027 104.014 74.6533 104.014 75.4487V83.7925H101.475V75.0908C101.475 74.3805 101.253 73.8095 100.81 73.3777C100.367 72.9459 99.7899 72.73 99.0797 72.73C98.5968 72.73 98.1507 72.8578 97.7417 73.1135C97.3382 73.3635 97.0115 73.7129 96.7615 74.1618C96.5172 74.6106 96.3951 75.1305 96.3951 75.7214V83.7925H93.8468Z" fill="white"/>
<path d="M121.169 70.7015V72.747H114.018V70.7015H121.169ZM115.936 67.5652H118.484V79.9487C118.484 80.443 118.558 80.8152 118.705 81.0652C118.853 81.3095 119.044 81.4771 119.276 81.568C119.515 81.6533 119.774 81.6959 120.052 81.6959C120.257 81.6959 120.436 81.6817 120.589 81.6533C120.742 81.6248 120.862 81.6021 120.947 81.5851L121.407 83.6902C121.259 83.747 121.049 83.8038 120.776 83.8606C120.504 83.9231 120.163 83.9572 119.754 83.9629C119.083 83.9743 118.458 83.855 117.879 83.605C117.299 83.355 116.83 82.9686 116.472 82.4459C116.115 81.9231 115.936 81.2669 115.936 80.4771V67.5652Z" fill="white"/>
<path d="M151.47 87.979V62.7517H159.106V87.979H151.47ZM142.675 79.1835V71.5472H167.902V79.1835H142.675Z" fill="#10B981"/>
<path d="M304.09 73.1153V65.479H329.317V73.1153H304.09ZM304.09 85.2517V77.6153H329.317V85.2517H304.09Z" fill="#10B981"/>
<path d="M197.224 71.8521C197.059 71.3351 196.838 70.872 196.559 70.4629C196.287 70.0481 195.96 69.6959 195.579 69.4061C195.199 69.1106 194.764 68.8862 194.275 68.7328C193.792 68.5794 193.261 68.5027 192.682 68.5027C191.699 68.5027 190.812 68.7555 190.023 69.2612C189.233 69.7669 188.608 70.5084 188.148 71.4856C187.693 72.4572 187.466 73.6476 187.466 75.0567C187.466 76.4714 187.696 77.6675 188.156 78.6447C188.616 79.622 189.247 80.3635 190.048 80.8692C190.849 81.3748 191.761 81.6277 192.784 81.6277C193.733 81.6277 194.559 81.4345 195.264 81.0481C195.974 80.6618 196.523 80.1163 196.909 79.4118C197.301 78.7015 197.497 77.8663 197.497 76.9061L198.179 77.0339H193.184V74.8606H200.045V76.8464C200.045 78.3123 199.733 79.5851 199.108 80.6646C198.488 81.7385 197.63 82.568 196.534 83.1533C195.443 83.7385 194.193 84.0311 192.784 84.0311C191.204 84.0311 189.818 83.6675 188.625 82.9402C187.437 82.2129 186.511 81.1817 185.846 79.8464C185.182 78.5055 184.849 76.9146 184.849 75.0737C184.849 73.6817 185.042 72.4317 185.429 71.3237C185.815 70.2158 186.358 69.2754 187.057 68.5027C187.761 67.7243 188.588 67.1305 189.537 66.7214C190.491 66.3067 191.534 66.0993 192.665 66.0993C193.608 66.0993 194.486 66.2385 195.298 66.5169C196.116 66.7953 196.844 67.1902 197.48 67.7015C198.122 68.2129 198.653 68.8209 199.074 69.5254C199.494 70.2243 199.778 70.9998 199.926 71.8521H197.224Z" fill="white"/>
<path d="M208.826 84.0567C207.536 84.0567 206.425 83.7811 205.493 83.23C204.567 82.6731 203.851 81.8919 203.346 80.8862C202.846 79.8748 202.596 78.6902 202.596 77.3322C202.596 75.9913 202.846 74.8095 203.346 73.7868C203.851 72.764 204.556 71.9657 205.459 71.3919C206.368 70.818 207.431 70.5311 208.647 70.5311C209.385 70.5311 210.101 70.6532 210.795 70.8976C211.488 71.1419 212.11 71.5254 212.661 72.0481C213.212 72.5709 213.647 73.2498 213.965 74.0851C214.283 74.9146 214.442 75.9231 214.442 77.1106V78.014H204.036V76.105H211.945C211.945 75.4345 211.809 74.8408 211.536 74.3237C211.263 73.801 210.88 73.3891 210.385 73.0879C209.897 72.7868 209.323 72.6362 208.664 72.6362C207.948 72.6362 207.323 72.8123 206.789 73.1646C206.26 73.5112 205.851 73.9658 205.562 74.5283C205.277 75.0851 205.135 75.6902 205.135 76.3436V77.8351C205.135 78.7101 205.289 79.4544 205.596 80.068C205.908 80.6817 206.343 81.1504 206.9 81.4743C207.456 81.7925 208.107 81.9515 208.851 81.9515C209.334 81.9515 209.775 81.8834 210.172 81.747C210.57 81.605 210.914 81.3947 211.204 81.1163C211.493 80.8379 211.715 80.4942 211.868 80.0851L214.28 80.5197C214.087 81.23 213.741 81.8521 213.241 82.3862C212.746 82.9146 212.124 83.3265 211.374 83.622C210.63 83.9118 209.78 84.0567 208.826 84.0567Z" fill="white"/>
<path d="M219.818 76.0197V83.7925H217.27V70.7015H219.716V72.8322H219.878C220.179 72.139 220.65 71.5822 221.292 71.1618C221.94 70.7413 222.755 70.5311 223.738 70.5311C224.63 70.5311 225.412 70.7186 226.082 71.0936C226.753 71.4629 227.273 72.014 227.642 72.747C228.011 73.48 228.196 74.3862 228.196 75.4658V83.7925H225.648V75.7726C225.648 74.8237 225.4 74.0822 224.906 73.5481C224.412 73.0084 223.733 72.7385 222.869 72.7385C222.278 72.7385 221.753 72.8663 221.292 73.122C220.838 73.3777 220.477 73.7527 220.21 74.247C219.949 74.7356 219.818 75.3265 219.818 76.0197Z" fill="white"/>
<path d="M237.255 84.0567C235.966 84.0567 234.855 83.7811 233.923 83.23C232.997 82.6731 232.281 81.8919 231.775 80.8862C231.275 79.8748 231.025 78.6902 231.025 77.3322C231.025 75.9913 231.275 74.8095 231.775 73.7868C232.281 72.764 232.986 71.9657 233.889 71.3919C234.798 70.818 235.861 70.5311 237.076 70.5311C237.815 70.5311 238.531 70.6532 239.224 70.8976C239.917 71.1419 240.54 71.5254 241.091 72.0481C241.642 72.5709 242.076 73.2498 242.395 74.0851C242.713 74.9146 242.872 75.9231 242.872 77.1106V78.014H232.466V76.105H240.375C240.375 75.4345 240.238 74.8408 239.966 74.3237C239.693 73.801 239.309 73.3891 238.815 73.0879C238.326 72.7868 237.753 72.6362 237.094 72.6362C236.378 72.6362 235.753 72.8123 235.219 73.1646C234.69 73.5112 234.281 73.9658 233.991 74.5283C233.707 75.0851 233.565 75.6902 233.565 76.3436V77.8351C233.565 78.7101 233.719 79.4544 234.025 80.068C234.338 80.6817 234.773 81.1504 235.329 81.4743C235.886 81.7925 236.537 81.9515 237.281 81.9515C237.764 81.9515 238.204 81.8834 238.602 81.747C239 81.605 239.344 81.3947 239.633 81.1163C239.923 80.8379 240.145 80.4942 240.298 80.0851L242.71 80.5197C242.517 81.23 242.17 81.8521 241.67 82.3862C241.176 82.9146 240.554 83.3265 239.804 83.622C239.059 83.9118 238.21 84.0567 237.255 84.0567Z" fill="white"/>
<path d="M245.699 83.7925V70.7015H248.162V72.7811H248.299C248.537 72.0765 248.958 71.5226 249.56 71.1192C250.168 70.7101 250.856 70.5055 251.623 70.5055C251.782 70.5055 251.969 70.5112 252.185 70.5226C252.407 70.5339 252.58 70.5481 252.705 70.5652V73.0027C252.603 72.9743 252.421 72.943 252.16 72.9089C251.898 72.8692 251.637 72.8493 251.376 72.8493C250.773 72.8493 250.236 72.9771 249.765 73.2328C249.299 73.4828 248.929 73.8322 248.657 74.2811C248.384 74.7243 248.248 75.23 248.248 75.7981V83.7925H245.699Z" fill="white"/>
<path d="M258.603 84.0822C257.773 84.0822 257.023 83.9288 256.353 83.622C255.682 83.3095 255.151 82.8578 254.759 82.2669C254.373 81.676 254.179 80.9515 254.179 80.0936C254.179 79.355 254.322 78.747 254.606 78.2697C254.89 77.7925 255.273 77.4146 255.756 77.1362C256.239 76.8578 256.779 76.6476 257.375 76.5055C257.972 76.3635 258.58 76.2555 259.199 76.1817C259.983 76.0908 260.62 76.0169 261.108 75.9601C261.597 75.8976 261.952 75.7981 262.174 75.6618C262.395 75.5254 262.506 75.3038 262.506 74.997V74.9373C262.506 74.193 262.296 73.6163 261.875 73.2072C261.461 72.7981 260.841 72.5936 260.018 72.5936C259.16 72.5936 258.483 72.7839 257.989 73.1646C257.5 73.5396 257.162 73.9572 256.975 74.4175L254.58 73.872C254.864 73.0765 255.279 72.4345 255.824 71.9459C256.376 71.4515 257.009 71.0936 257.725 70.872C258.441 70.6447 259.194 70.5311 259.983 70.5311C260.506 70.5311 261.06 70.5936 261.645 70.7186C262.236 70.8379 262.787 71.0595 263.299 71.3834C263.816 71.7072 264.239 72.1703 264.569 72.7726C264.898 73.3692 265.063 74.1447 265.063 75.0993V83.7925H262.574V82.0027H262.472C262.307 82.3322 262.06 82.6561 261.731 82.9743C261.401 83.2925 260.978 83.5567 260.461 83.7669C259.944 83.9771 259.324 84.0822 258.603 84.0822ZM259.157 82.0368C259.861 82.0368 260.464 81.8976 260.964 81.6192C261.469 81.3408 261.853 80.9771 262.114 80.5283C262.381 80.0737 262.515 79.5879 262.515 79.0709V77.3834C262.424 77.4743 262.248 77.5595 261.986 77.639C261.731 77.7129 261.438 77.7782 261.108 77.8351C260.779 77.8862 260.458 77.9345 260.145 77.98C259.833 78.0197 259.572 78.0538 259.361 78.0822C258.867 78.1447 258.415 78.2498 258.006 78.3976C257.603 78.5453 257.279 78.7584 257.035 79.0368C256.796 79.3095 256.677 79.6731 256.677 80.1277C256.677 80.7584 256.91 81.2356 257.375 81.5595C257.841 81.8777 258.435 82.0368 259.157 82.0368Z" fill="white"/>
<path d="M274.568 70.7015V72.747H267.417V70.7015H274.568ZM269.335 67.5652H271.883V79.9487C271.883 80.443 271.957 80.8152 272.105 81.0652C272.253 81.3095 272.443 81.4771 272.676 81.568C272.915 81.6533 273.173 81.6959 273.452 81.6959C273.656 81.6959 273.835 81.6817 273.988 81.6533C274.142 81.6248 274.261 81.6021 274.346 81.5851L274.807 83.6902C274.659 83.747 274.449 83.8038 274.176 83.8606C273.903 83.9231 273.562 83.9572 273.153 83.9629C272.483 83.9743 271.858 83.855 271.278 83.605C270.699 83.355 270.23 82.9686 269.872 82.4459C269.514 81.9231 269.335 81.2669 269.335 80.4771V67.5652Z" fill="white"/>
<path d="M282.888 84.0567C281.599 84.0567 280.488 83.7811 279.556 83.23C278.63 82.6731 277.914 81.8919 277.408 80.8862C276.908 79.8748 276.658 78.6902 276.658 77.3322C276.658 75.9913 276.908 74.8095 277.408 73.7868C277.914 72.764 278.618 71.9657 279.522 71.3919C280.431 70.818 281.493 70.5311 282.709 70.5311C283.448 70.5311 284.164 70.6532 284.857 70.8976C285.55 71.1419 286.172 71.5254 286.724 72.0481C287.275 72.5709 287.709 73.2498 288.027 74.0851C288.346 74.9146 288.505 75.9231 288.505 77.1106V78.014H278.099V76.105H286.008C286.008 75.4345 285.871 74.8408 285.599 74.3237C285.326 73.801 284.942 73.3891 284.448 73.0879C283.959 72.7868 283.385 72.6362 282.726 72.6362C282.01 72.6362 281.385 72.8123 280.851 73.1646C280.323 73.5112 279.914 73.9658 279.624 74.5283C279.34 75.0851 279.198 75.6902 279.198 76.3436V77.8351C279.198 78.7101 279.351 79.4544 279.658 80.068C279.971 80.6817 280.405 81.1504 280.962 81.4743C281.519 81.7925 282.17 81.9515 282.914 81.9515C283.397 81.9515 283.837 81.8834 284.235 81.747C284.633 81.605 284.976 81.3947 285.266 81.1163C285.556 80.8379 285.777 80.4942 285.931 80.0851L288.343 80.5197C288.15 81.23 287.803 81.8521 287.303 82.3862C286.809 82.9146 286.187 83.3265 285.437 83.622C284.692 83.9118 283.843 84.0567 282.888 84.0567Z" fill="white"/>
<path d="M357.772 83.7925V66.3379H363.994C365.352 66.3379 366.477 66.5851 367.369 67.0794C368.261 67.5737 368.928 68.2498 369.372 69.1078C369.815 69.9601 370.036 70.9203 370.036 71.9885C370.036 73.0623 369.812 74.0283 369.363 74.8862C368.92 75.7385 368.249 76.4146 367.352 76.9146C366.46 77.4089 365.337 77.6561 363.985 77.6561H359.707V75.4231H363.747C364.605 75.4231 365.301 75.2754 365.835 74.98C366.369 74.6788 366.761 74.2697 367.011 73.7527C367.261 73.2356 367.386 72.6476 367.386 71.9885C367.386 71.3294 367.261 70.7442 367.011 70.2328C366.761 69.7214 366.366 69.3209 365.826 69.0311C365.292 68.7413 364.587 68.5964 363.712 68.5964H360.406V83.7925H357.772Z" fill="white"/>
<path d="M378.397 84.0567C377.107 84.0567 375.997 83.7811 375.065 83.23C374.139 82.6731 373.423 81.8919 372.917 80.8862C372.417 79.8748 372.167 78.6902 372.167 77.3322C372.167 75.9913 372.417 74.8095 372.917 73.7868C373.423 72.764 374.127 71.9657 375.031 71.3919C375.94 70.818 377.002 70.5311 378.218 70.5311C378.957 70.5311 379.673 70.6532 380.366 70.8976C381.059 71.1419 381.681 71.5254 382.232 72.0481C382.783 72.5709 383.218 73.2498 383.536 74.0851C383.855 74.9146 384.014 75.9231 384.014 77.1106V78.014H373.607V76.105H381.516C381.516 75.4345 381.38 74.8408 381.107 74.3237C380.835 73.801 380.451 73.3891 379.957 73.0879C379.468 72.7868 378.894 72.6362 378.235 72.6362C377.519 72.6362 376.894 72.8123 376.36 73.1646C375.832 73.5112 375.423 73.9658 375.133 74.5283C374.849 75.0851 374.707 75.6902 374.707 76.3436V77.8351C374.707 78.7101 374.86 79.4544 375.167 80.068C375.48 80.6817 375.914 81.1504 376.471 81.4743C377.028 81.7925 377.678 81.9515 378.423 81.9515C378.906 81.9515 379.346 81.8834 379.744 81.747C380.141 81.605 380.485 81.3947 380.775 81.1163C381.065 80.8379 381.286 80.4942 381.44 80.0851L383.852 80.5197C383.659 81.23 383.312 81.8521 382.812 82.3862C382.318 82.9146 381.695 83.3265 380.945 83.622C380.201 83.9118 379.352 84.0567 378.397 84.0567Z" fill="white"/>
<path d="M386.841 83.7925V70.7015H389.304V72.7811H389.44C389.679 72.0765 390.1 71.5226 390.702 71.1192C391.31 70.7101 391.997 70.5055 392.764 70.5055C392.923 70.5055 393.111 70.5112 393.327 70.5226C393.548 70.5339 393.722 70.5481 393.847 70.5652V73.0027C393.744 72.9743 393.563 72.943 393.301 72.9089C393.04 72.8692 392.779 72.8493 392.517 72.8493C391.915 72.8493 391.378 72.9771 390.906 73.2328C390.44 73.4828 390.071 73.8322 389.798 74.2811C389.526 74.7243 389.389 75.23 389.389 75.7981V83.7925H386.841Z" fill="white"/>
<path d="M403.056 70.7015V72.747H395.658V70.7015H403.056ZM397.686 83.7925V69.1845C397.686 68.3663 397.865 67.6873 398.223 67.1476C398.581 66.6021 399.056 66.1959 399.646 65.9288C400.237 65.6561 400.879 65.5197 401.573 65.5197C402.084 65.5197 402.521 65.5623 402.885 65.6476C403.249 65.7271 403.519 65.801 403.695 65.8692L403.098 67.9317C402.979 67.8976 402.825 67.8578 402.638 67.8123C402.45 67.7612 402.223 67.7356 401.956 67.7356C401.337 67.7356 400.894 67.889 400.627 68.1959C400.365 68.5027 400.234 68.9459 400.234 69.5254V83.7925H397.686Z" fill="white"/>
<path d="M410.811 84.0567C409.521 84.0567 408.411 83.7811 407.479 83.23C406.553 82.6731 405.837 81.8919 405.331 80.8862C404.831 79.8748 404.581 78.6902 404.581 77.3322C404.581 75.9913 404.831 74.8095 405.331 73.7868C405.837 72.764 406.541 71.9657 407.445 71.3919C408.354 70.818 409.416 70.5311 410.632 70.5311C411.371 70.5311 412.087 70.6532 412.78 70.8976C413.473 71.1419 414.095 71.5254 414.646 72.0481C415.198 72.5709 415.632 73.2498 415.95 74.0851C416.269 74.9146 416.428 75.9231 416.428 77.1106V78.014H406.021V76.105H413.931C413.931 75.4345 413.794 74.8408 413.521 74.3237C413.249 73.801 412.865 73.3891 412.371 73.0879C411.882 72.7868 411.308 72.6362 410.649 72.6362C409.933 72.6362 409.308 72.8123 408.774 73.1646C408.246 73.5112 407.837 73.9658 407.547 74.5283C407.263 75.0851 407.121 75.6902 407.121 76.3436V77.8351C407.121 78.7101 407.274 79.4544 407.581 80.068C407.894 80.6817 408.328 81.1504 408.885 81.4743C409.442 81.7925 410.092 81.9515 410.837 81.9515C411.32 81.9515 411.76 81.8834 412.158 81.747C412.556 81.605 412.899 81.3947 413.189 81.1163C413.479 80.8379 413.7 80.4942 413.854 80.0851L416.266 80.5197C416.073 81.23 415.726 81.8521 415.226 82.3862C414.732 82.9146 414.109 83.3265 413.359 83.622C412.615 83.9118 411.766 84.0567 410.811 84.0567Z" fill="white"/>
<path d="M424.769 84.0567C423.502 84.0567 422.411 83.7697 421.497 83.1959C420.587 82.6163 419.889 81.818 419.4 80.801C418.911 79.7839 418.667 78.6192 418.667 77.3067C418.667 75.9771 418.917 74.8038 419.417 73.7868C419.917 72.764 420.622 71.9657 421.531 71.3919C422.44 70.818 423.511 70.5311 424.744 70.5311C425.738 70.5311 426.624 70.7157 427.403 71.0851C428.181 71.4487 428.809 71.9601 429.286 72.6192C429.769 73.2783 430.056 74.0481 430.147 74.9288H427.667C427.531 74.3152 427.218 73.7868 426.73 73.3436C426.247 72.9004 425.599 72.6788 424.786 72.6788C424.076 72.6788 423.454 72.8663 422.92 73.2413C422.391 73.6106 421.98 74.139 421.684 74.8265C421.389 75.5084 421.241 76.3152 421.241 77.247C421.241 78.2015 421.386 79.0254 421.676 79.7186C421.965 80.4118 422.374 80.9487 422.903 81.3294C423.437 81.7101 424.065 81.9004 424.786 81.9004C425.269 81.9004 425.707 81.8123 426.099 81.6362C426.497 81.4544 426.829 81.1959 427.096 80.8606C427.369 80.5254 427.559 80.122 427.667 79.6504H430.147C430.056 80.497 429.781 81.2527 429.32 81.9175C428.86 82.5822 428.244 83.105 427.471 83.4856C426.704 83.8663 425.803 84.0567 424.769 84.0567Z" fill="white"/>
<path d="M438.983 70.7015V72.747H431.833V70.7015H438.983ZM433.75 67.5652H436.298V79.9487C436.298 80.443 436.372 80.8152 436.52 81.0652C436.668 81.3095 436.858 81.4771 437.091 81.568C437.33 81.6533 437.588 81.6959 437.867 81.6959C438.071 81.6959 438.25 81.6817 438.404 81.6533C438.557 81.6248 438.676 81.6021 438.761 81.5851L439.222 83.6902C439.074 83.747 438.864 83.8038 438.591 83.8606C438.318 83.9231 437.977 83.9572 437.568 83.9629C436.898 83.9743 436.273 83.855 435.693 83.605C435.114 83.355 434.645 82.9686 434.287 82.4459C433.929 81.9231 433.75 81.2669 433.75 80.4771V67.5652Z" fill="white"/>
<path d="M0 32C0 14.3269 14.3269 0 32 0H117.17C134.843 0 149.17 14.3269 149.17 32V117.17C149.17 134.843 134.843 149.17 117.17 149.17H32C14.3269 149.17 0 134.843 0 117.17V32Z" fill="#10B981"/>
<path d="M161.415 32C161.415 14.3269 175.742 0 193.415 0H278.585C296.258 0 310.585 14.3269 310.585 32V117.17C310.585 134.843 296.258 149.17 278.585 149.17H193.415C175.742 149.17 161.415 134.843 161.415 117.17V32Z" fill="#10B981"/>
<path d="M322.83 32C322.83 14.3269 337.157 0 354.83 0H440C457.673 0 472 14.3269 472 32V117.17C472 134.843 457.673 149.17 440 149.17H354.83C337.157 149.17 322.83 134.843 322.83 117.17V32Z" fill="#10B981"/>
<path d="M182.566 77.3679C182.566 92.4307 170.355 104.642 155.292 104.642C140.23 104.642 128.019 92.4307 128.019 77.3679C128.019 62.3051 140.23 50.0943 155.292 50.0943C170.355 50.0943 182.566 62.3051 182.566 77.3679Z" fill="#1F2329"/>
<path d="M343.981 77.3679C343.981 92.4307 331.77 104.642 316.708 104.642C301.645 104.642 289.434 92.4307 289.434 77.3679C289.434 62.3051 301.645 50.0943 316.708 50.0943C331.77 50.0943 343.981 62.3051 343.981 77.3679Z" fill="#1F2329"/>
<path d="M151.47 87.979V62.7517H159.106V87.979H151.47ZM142.675 79.1835V71.5472H167.902V79.1835H142.675Z" fill="#10B981"/>
<path d="M304.09 73.1153V65.479H329.317V73.1153H304.09ZM304.09 85.2517V77.6153H329.317V85.2517H304.09Z" fill="#10B981"/>
<path d="M37.4622 81.7925V67.247H46.5815V69.1362H39.6568V73.568H46.1056V75.4501H39.6568V79.9033H46.6667V81.7925H37.4622Z" fill="white"/>
<path d="M55.7701 73.5964V75.443H49.3212V73.5964H55.7701Z" fill="white"/>
<path d="M58.7708 81.7925V67.247H63.9554C65.0871 67.247 66.0246 67.453 66.7679 67.8649C67.5113 68.2768 68.0676 68.8403 68.437 69.5552C68.8063 70.2655 68.9909 71.0657 68.9909 71.9558C68.9909 72.8507 68.8039 73.6556 68.4299 74.3706C68.0605 75.0808 67.5018 75.6443 66.7537 76.0609C66.0104 76.4729 65.0752 76.6788 63.9483 76.6788H60.383V74.818H63.7495C64.4644 74.818 65.0444 74.6949 65.4895 74.4487C65.9346 74.1978 66.2613 73.8569 66.4696 73.426C66.678 72.9951 66.7821 72.5051 66.7821 71.9558C66.7821 71.4066 66.678 70.9189 66.4696 70.4927C66.2613 70.0666 65.9322 69.7328 65.4824 69.4913C65.0373 69.2498 64.4502 69.1291 63.7211 69.1291H60.9654V81.7925H58.7708Z" fill="white"/>
<path d="M71.3933 81.7925V70.8834H73.4458V72.6163H73.5595C73.7583 72.0292 74.1087 71.5676 74.6106 71.2314C75.1172 70.8905 75.6902 70.72 76.3294 70.72C76.4619 70.72 76.6182 70.7247 76.7981 70.7342C76.9828 70.7437 77.1272 70.7555 77.2314 70.7697V72.801C77.1461 72.7773 76.9946 72.7513 76.7768 72.7229C76.559 72.6897 76.3412 72.6731 76.1234 72.6731C75.6215 72.6731 75.1741 72.7797 74.7811 72.9927C74.3928 73.2011 74.085 73.4923 73.8578 73.8663C73.6305 74.2356 73.5169 74.657 73.5169 75.1305V81.7925H71.3933Z" fill="white"/>
<path d="M83.2736 82.0126C82.2509 82.0126 81.3584 81.7783 80.5961 81.3095C79.8337 80.8408 79.2419 80.185 78.8205 79.3422C78.3991 78.4994 78.1884 77.5145 78.1884 76.3876C78.1884 75.256 78.3991 74.2664 78.8205 73.4189C79.2419 72.5713 79.8337 71.9132 80.5961 71.4444C81.3584 70.9757 82.2509 70.7413 83.2736 70.7413C84.2963 70.7413 85.1889 70.9757 85.9512 71.4444C86.7135 71.9132 87.3053 72.5713 87.7267 73.4189C88.1481 74.2664 88.3588 75.256 88.3588 76.3876C88.3588 77.5145 88.1481 78.4994 87.7267 79.3422C87.3053 80.185 86.7135 80.8408 85.9512 81.3095C85.1889 81.7783 84.2963 82.0126 83.2736 82.0126ZM83.2807 80.23C83.9436 80.23 84.4928 80.0548 84.9284 79.7044C85.3641 79.354 85.686 78.8876 85.8944 78.3052C86.1074 77.7229 86.214 77.0813 86.214 76.3805C86.214 75.6845 86.1074 75.0453 85.8944 74.4629C85.686 73.8758 85.3641 73.4047 84.9284 73.0496C84.4928 72.6944 83.9436 72.5169 83.2807 72.5169C82.6131 72.5169 82.0591 72.6944 81.6188 73.0496C81.1832 73.4047 80.8588 73.8758 80.6458 74.4629C80.4374 75.0453 80.3333 75.6845 80.3333 76.3805C80.3333 77.0813 80.4374 77.7229 80.6458 78.3052C80.8588 78.8876 81.1832 79.354 81.6188 79.7044C82.0591 80.0548 82.6131 80.23 83.2807 80.23Z" fill="white"/>
<path d="M90.7292 81.7925V70.8834H92.7676V72.6589H92.9025C93.1298 72.0576 93.5015 71.5889 94.0176 71.2527C94.5337 70.9118 95.1516 70.7413 95.8713 70.7413C96.6004 70.7413 97.2112 70.9118 97.7037 71.2527C98.2008 71.5936 98.5678 72.0623 98.8045 72.6589H98.9181C99.1786 72.0765 99.5929 71.6125 100.161 71.2669C100.729 70.9165 101.406 70.7413 102.192 70.7413C103.182 70.7413 103.989 71.0514 104.614 71.6717C105.244 72.292 105.559 73.2271 105.559 74.4771V81.7925H103.435V74.676C103.435 73.9373 103.234 73.4023 102.831 73.0709C102.429 72.7394 101.948 72.5737 101.39 72.5737C100.698 72.5737 100.161 72.7868 99.7775 73.2129C99.394 73.6343 99.2022 74.1765 99.2022 74.8393V81.7925H97.0858V74.541C97.0858 73.9492 96.9011 73.4733 96.5318 73.1135C96.1625 72.7536 95.6819 72.5737 95.09 72.5737C94.6876 72.5737 94.3159 72.6802 93.975 72.8933C93.6388 73.1016 93.3665 73.3928 93.1582 73.7669C92.9546 74.1409 92.8528 74.5742 92.8528 75.0666V81.7925H90.7292Z" fill="white"/>
<path d="M113.497 70.8834V72.5879H107.539V70.8834H113.497ZM109.137 68.2697H111.26V78.5893C111.26 79.0013 111.322 79.3114 111.445 79.5197C111.568 79.7233 111.727 79.863 111.921 79.9388C112.119 80.0098 112.335 80.0453 112.567 80.0453C112.737 80.0453 112.887 80.0335 113.014 80.0098C113.142 79.9861 113.242 79.9672 113.313 79.953L113.696 81.7072C113.573 81.7546 113.398 81.8019 113.171 81.8493C112.943 81.9014 112.659 81.9298 112.318 81.9345C111.76 81.944 111.239 81.8445 110.756 81.6362C110.273 81.4279 109.882 81.1059 109.584 80.6703C109.286 80.2347 109.137 79.6878 109.137 79.0297V68.2697Z" fill="white"/>
<path d="M203.78 71.8422C203.642 71.4113 203.458 71.0254 203.226 70.6845C202.998 70.3389 202.726 70.0453 202.409 69.8038C202.092 69.5576 201.729 69.3706 201.322 69.2427C200.92 69.1149 200.477 69.051 199.994 69.051C199.175 69.051 198.436 69.2617 197.778 69.6831C197.12 70.1045 196.599 70.7224 196.216 71.5368C195.837 72.3464 195.648 73.3384 195.648 74.5126C195.648 75.6916 195.839 76.6883 196.223 77.5027C196.606 78.3171 197.132 78.935 197.799 79.3564C198.467 79.7778 199.227 79.9885 200.079 79.9885C200.87 79.9885 201.559 79.8275 202.146 79.5055C202.738 79.1836 203.195 78.729 203.517 78.1419C203.844 77.55 204.007 76.854 204.007 76.0538L204.575 76.1604H200.413V74.3493H206.13V76.0041C206.13 77.2257 205.87 78.2863 205.349 79.1859C204.833 80.0808 204.118 80.7721 203.204 81.2598C202.295 81.7475 201.254 81.9913 200.079 81.9913C198.763 81.9913 197.608 81.6883 196.613 81.0822C195.624 80.4762 194.852 79.6168 194.298 78.5041C193.744 77.3867 193.467 76.0609 193.467 74.5268C193.467 73.3668 193.628 72.3251 193.95 71.4018C194.272 70.4785 194.724 69.6949 195.307 69.051C195.894 68.4023 196.583 67.9075 197.373 67.5666C198.169 67.221 199.038 67.0481 199.98 67.0481C200.766 67.0481 201.497 67.1641 202.174 67.3961C202.856 67.6282 203.462 67.9572 203.993 68.3834C204.528 68.8095 204.97 69.3161 205.321 69.9033C205.671 70.4856 205.908 71.1319 206.031 71.8422H203.78Z" fill="white"/>
<path d="M213.448 82.0126C212.373 82.0126 211.447 81.783 210.671 81.3237C209.899 80.8597 209.302 80.2087 208.881 79.3706C208.464 78.5278 208.256 77.5406 208.256 76.4089C208.256 75.2915 208.464 74.3067 208.881 73.4544C209.302 72.6021 209.889 71.9369 210.642 71.4586C211.4 70.9804 212.285 70.7413 213.298 70.7413C213.914 70.7413 214.511 70.8431 215.088 71.0467C215.666 71.2503 216.184 71.5699 216.644 72.0055C217.103 72.4411 217.465 73.0069 217.73 73.703C217.995 74.3943 218.128 75.2347 218.128 76.2243V76.9771H209.456V75.3862H216.047C216.047 74.8275 215.933 74.3327 215.706 73.9018C215.479 73.4662 215.159 73.1229 214.747 72.872C214.34 72.6211 213.862 72.4956 213.313 72.4956C212.716 72.4956 212.195 72.6424 211.75 72.9359C211.31 73.2247 210.969 73.6035 210.727 74.0723C210.491 74.5363 210.372 75.0406 210.372 75.5851V76.828C210.372 77.5571 210.5 78.1774 210.756 78.6888C211.016 79.2001 211.378 79.5907 211.842 79.8606C212.306 80.1258 212.849 80.2584 213.469 80.2584C213.871 80.2584 214.238 80.2015 214.57 80.0879C214.901 79.9695 215.188 79.7943 215.429 79.5623C215.671 79.3303 215.855 79.0439 215.983 78.703L217.993 79.0652C217.832 79.657 217.543 80.1755 217.127 80.6206C216.715 81.0609 216.196 81.4042 215.571 81.6504C214.951 81.8919 214.243 82.0126 213.448 82.0126Z" fill="white"/>
<path d="M222.608 75.3152V81.7925H220.484V70.8834H222.523V72.6589H222.657C222.908 72.0813 223.301 71.6173 223.836 71.2669C224.376 70.9165 225.056 70.7413 225.875 70.7413C226.618 70.7413 227.269 70.8976 227.828 71.2101C228.387 71.5178 228.82 71.9771 229.128 72.5879C229.435 73.1987 229.589 73.9539 229.589 74.8535V81.7925H227.466V75.1092C227.466 74.3185 227.26 73.7006 226.848 73.2555C226.436 72.8057 225.87 72.5808 225.15 72.5808C224.658 72.5808 224.22 72.6873 223.836 72.9004C223.458 73.1135 223.157 73.426 222.934 73.8379C222.717 74.2451 222.608 74.7375 222.608 75.3152Z" fill="white"/>
<path d="M237.139 82.0126C236.064 82.0126 235.139 81.783 234.362 81.3237C233.59 80.8597 232.994 80.2087 232.572 79.3706C232.156 78.5278 231.947 77.5406 231.947 76.4089C231.947 75.2915 232.156 74.3067 232.572 73.4544C232.994 72.6021 233.581 71.9369 234.334 71.4586C235.091 70.9804 235.977 70.7413 236.99 70.7413C237.605 70.7413 238.202 70.8431 238.78 71.0467C239.357 71.2503 239.876 71.5699 240.335 72.0055C240.794 72.4411 241.157 73.0069 241.422 73.703C241.687 74.3943 241.819 75.2347 241.819 76.2243V76.9771H233.148V75.3862H239.738C239.738 74.8275 239.625 74.3327 239.398 73.9018C239.17 73.4662 238.851 73.1229 238.439 72.872C238.032 72.6211 237.553 72.4956 237.004 72.4956C236.407 72.4956 235.887 72.6424 235.442 72.9359C235.001 73.2247 234.66 73.6035 234.419 74.0723C234.182 74.5363 234.064 75.0406 234.064 75.5851V76.828C234.064 77.5571 234.192 78.1774 234.447 78.6888C234.708 79.2001 235.07 79.5907 235.534 79.8606C235.998 80.1258 236.54 80.2584 237.16 80.2584C237.563 80.2584 237.93 80.2015 238.261 80.0879C238.593 79.9695 238.879 79.7943 239.121 79.5623C239.362 79.3303 239.547 79.0439 239.674 78.703L241.684 79.0652C241.523 79.657 241.235 80.1755 240.818 80.6206C240.406 81.0609 239.888 81.4042 239.263 81.6504C238.642 81.8919 237.934 82.0126 237.139 82.0126Z" fill="white"/>
<path d="M244.176 81.7925V70.8834H246.228V72.6163H246.342C246.541 72.0292 246.891 71.5676 247.393 71.2314C247.9 70.8905 248.472 70.72 249.112 70.72C249.244 70.72 249.4 70.7247 249.58 70.7342C249.765 70.7437 249.909 70.7555 250.014 70.7697V72.801C249.928 72.7773 249.777 72.7513 249.559 72.7229C249.341 72.6897 249.123 72.6731 248.906 72.6731C248.404 72.6731 247.956 72.7797 247.563 72.9927C247.175 73.2011 246.867 73.4923 246.64 73.8663C246.413 74.2356 246.299 74.657 246.299 75.1305V81.7925H244.176Z" fill="white"/>
<path d="M254.928 82.0339C254.237 82.0339 253.612 81.9061 253.053 81.6504C252.495 81.39 252.052 81.0136 251.725 80.5211C251.403 80.0287 251.242 79.425 251.242 78.7101C251.242 78.0945 251.361 77.5879 251.597 77.1902C251.834 76.7925 252.154 76.4776 252.556 76.2456C252.959 76.0136 253.409 75.8384 253.906 75.72C254.403 75.6016 254.909 75.5117 255.426 75.4501C256.079 75.3744 256.609 75.3128 257.016 75.2655C257.424 75.2134 257.72 75.1305 257.904 75.0169C258.089 74.9032 258.181 74.7186 258.181 74.4629V74.4132C258.181 73.7929 258.006 73.3123 257.656 72.9714C257.31 72.6305 256.794 72.4601 256.107 72.4601C255.392 72.4601 254.829 72.6187 254.417 72.9359C254.01 73.2484 253.728 73.5964 253.572 73.98L251.576 73.5254C251.813 72.8625 252.159 72.3275 252.613 71.9203C253.072 71.5084 253.6 71.2101 254.197 71.0254C254.793 70.836 255.421 70.7413 256.079 70.7413C256.515 70.7413 256.976 70.7934 257.464 70.8976C257.956 70.997 258.416 71.1817 258.842 71.4515C259.273 71.7214 259.625 72.1073 259.9 72.6092C260.175 73.1064 260.312 73.7527 260.312 74.5481V81.7925H258.238V80.301H258.153C258.016 80.5756 257.81 80.8455 257.535 81.1106C257.26 81.3758 256.908 81.596 256.477 81.7711C256.046 81.9463 255.53 82.0339 254.928 82.0339ZM255.39 80.3294C255.977 80.3294 256.479 80.2134 256.896 79.9814C257.317 79.7494 257.637 79.4463 257.855 79.0723C258.077 78.6935 258.188 78.2887 258.188 77.8578V76.4515C258.113 76.5273 257.966 76.5983 257.748 76.6646C257.535 76.7262 257.291 76.7806 257.016 76.828C256.742 76.8706 256.474 76.9108 256.214 76.9487C255.954 76.9819 255.736 77.0103 255.561 77.0339C255.149 77.086 254.772 77.1736 254.431 77.2967C254.095 77.4198 253.825 77.5974 253.622 77.8294C253.423 78.0567 253.323 78.3597 253.323 78.7385C253.323 79.264 253.517 79.6618 253.906 79.9317C254.294 80.1968 254.789 80.3294 255.39 80.3294Z" fill="white"/>
<path d="M268.233 70.8834V72.5879H262.274V70.8834H268.233ZM263.872 68.2697H265.996V78.5893C265.996 79.0013 266.057 79.3114 266.18 79.5197C266.303 79.7233 266.462 79.863 266.656 79.9388C266.855 80.0098 267.07 80.0453 267.302 80.0453C267.473 80.0453 267.622 80.0335 267.75 80.0098C267.878 79.9861 267.977 79.9672 268.048 79.953L268.432 81.7072C268.309 81.7546 268.133 81.8019 267.906 81.8493C267.679 81.9014 267.395 81.9298 267.054 81.9345C266.495 81.944 265.974 81.8445 265.491 81.6362C265.008 81.4279 264.618 81.1059 264.319 80.6703C264.021 80.2347 263.872 79.6878 263.872 79.0297V68.2697Z" fill="white"/>
<path d="M275.166 82.0126C274.092 82.0126 273.166 81.783 272.389 81.3237C271.618 80.8597 271.021 80.2087 270.6 79.3706C270.183 78.5278 269.975 77.5406 269.975 76.4089C269.975 75.2915 270.183 74.3067 270.6 73.4544C271.021 72.6021 271.608 71.9369 272.361 71.4586C273.119 70.9804 274.004 70.7413 275.017 70.7413C275.633 70.7413 276.229 70.8431 276.807 71.0467C277.385 71.2503 277.903 71.5699 278.362 72.0055C278.822 72.4411 279.184 73.0069 279.449 73.703C279.714 74.3943 279.847 75.2347 279.847 76.2243V76.9771H271.175V75.3862H277.766C277.766 74.8275 277.652 74.3327 277.425 73.9018C277.198 73.4662 276.878 73.1229 276.466 72.872C276.059 72.6211 275.581 72.4956 275.031 72.4956C274.435 72.4956 273.914 72.6424 273.469 72.9359C273.029 73.2247 272.688 73.6035 272.446 74.0723C272.209 74.5363 272.091 75.0406 272.091 75.5851V76.828C272.091 77.5571 272.219 78.1774 272.475 78.6888C272.735 79.2001 273.097 79.5907 273.561 79.8606C274.025 80.1258 274.567 80.2584 275.188 80.2584C275.59 80.2584 275.957 80.2015 276.289 80.0879C276.62 79.9695 276.906 79.7943 277.148 79.5623C277.389 79.3303 277.574 79.0439 277.702 78.703L279.712 79.0652C279.551 79.657 279.262 80.1755 278.845 80.6206C278.433 81.0609 277.915 81.4042 277.29 81.6504C276.67 81.8919 275.962 82.0126 275.166 82.0126Z" fill="white"/>
<path d="M364.472 81.7925V67.247H369.657C370.788 67.247 371.726 67.453 372.469 67.8649C373.213 68.2768 373.769 68.8403 374.138 69.5552C374.508 70.2655 374.692 71.0657 374.692 71.9558C374.692 72.8507 374.505 73.6556 374.131 74.3706C373.762 75.0808 373.203 75.6443 372.455 76.0609C371.712 76.4729 370.777 76.6788 369.65 76.6788H366.084V74.818H369.451C370.166 74.818 370.746 74.6949 371.191 74.4487C371.636 74.1978 371.963 73.8569 372.171 73.426C372.379 72.9951 372.483 72.5051 372.483 71.9558C372.483 71.4066 372.379 70.9189 372.171 70.4927C371.963 70.0666 371.634 69.7328 371.184 69.4913C370.739 69.2498 370.152 69.1291 369.422 69.1291H366.667V81.7925H364.472Z" fill="white"/>
<path d="M381.66 82.0126C380.585 82.0126 379.659 81.783 378.883 81.3237C378.111 80.8597 377.514 80.2087 377.093 79.3706C376.676 78.5278 376.468 77.5406 376.468 76.4089C376.468 75.2915 376.676 74.3067 377.093 73.4544C377.514 72.6021 378.101 71.9369 378.854 71.4586C379.612 70.9804 380.497 70.7413 381.51 70.7413C382.126 70.7413 382.723 70.8431 383.3 71.0467C383.878 71.2503 384.396 71.5699 384.856 72.0055C385.315 72.4411 385.677 73.0069 385.942 73.703C386.207 74.3943 386.34 75.2347 386.34 76.2243V76.9771H377.668V75.3862H384.259C384.259 74.8275 384.145 74.3327 383.918 73.9018C383.691 73.4662 383.371 73.1229 382.959 72.872C382.552 72.6211 382.074 72.4956 381.525 72.4956C380.928 72.4956 380.407 72.6424 379.962 72.9359C379.522 73.2247 379.181 73.6035 378.939 74.0723C378.703 74.5363 378.584 75.0406 378.584 75.5851V76.828C378.584 77.5571 378.712 78.1774 378.968 78.6888C379.228 79.2001 379.59 79.5907 380.054 79.8606C380.518 80.1258 381.061 80.2584 381.681 80.2584C382.083 80.2584 382.45 80.2015 382.782 80.0879C383.113 79.9695 383.4 79.7943 383.641 79.5623C383.883 79.3303 384.067 79.0439 384.195 78.703L386.205 79.0652C386.044 79.657 385.755 80.1755 385.339 80.6206C384.927 81.0609 384.408 81.4042 383.783 81.6504C383.163 81.8919 382.455 82.0126 381.66 82.0126Z" fill="white"/>
<path d="M388.696 81.7925V70.8834H390.749V72.6163H390.862C391.061 72.0292 391.412 71.5676 391.913 71.2314C392.42 70.8905 392.993 70.72 393.632 70.72C393.765 70.72 393.921 70.7247 394.101 70.7342C394.286 70.7437 394.43 70.7555 394.534 70.7697V72.801C394.449 72.7773 394.297 72.7513 394.08 72.7229C393.862 72.6897 393.644 72.6731 393.426 72.6731C392.924 72.6731 392.477 72.7797 392.084 72.9927C391.696 73.2011 391.388 73.4923 391.161 73.8663C390.933 74.2356 390.82 74.657 390.82 75.1305V81.7925H388.696Z" fill="white"/>
<path d="M402.208 70.8834V72.5879H396.043V70.8834H402.208ZM397.734 81.7925V69.6192C397.734 68.9373 397.883 68.3715 398.181 67.9217C398.48 67.4672 398.875 67.1286 399.367 66.9061C399.86 66.6788 400.395 66.5652 400.972 66.5652C401.399 66.5652 401.763 66.6007 402.066 66.6717C402.369 66.738 402.594 66.7996 402.741 66.8564L402.244 68.5751C402.144 68.5467 402.016 68.5136 401.86 68.4757C401.704 68.4331 401.515 68.4118 401.292 68.4118C400.776 68.4118 400.407 68.5396 400.184 68.7953C399.966 69.051 399.857 69.4203 399.857 69.9033V81.7925H397.734Z" fill="white"/>
<path d="M408.671 82.0126C407.596 82.0126 406.671 81.783 405.894 81.3237C405.123 80.8597 404.526 80.2087 404.105 79.3706C403.688 78.5278 403.48 77.5406 403.48 76.4089C403.48 75.2915 403.688 74.3067 404.105 73.4544C404.526 72.6021 405.113 71.9369 405.866 71.4586C406.623 70.9804 407.509 70.7413 408.522 70.7413C409.138 70.7413 409.734 70.8431 410.312 71.0467C410.89 71.2503 411.408 71.5699 411.867 72.0055C412.327 72.4411 412.689 73.0069 412.954 73.703C413.219 74.3943 413.352 75.2347 413.352 76.2243V76.9771H404.68V75.3862H411.271C411.271 74.8275 411.157 74.3327 410.93 73.9018C410.703 73.4662 410.383 73.1229 409.971 72.872C409.564 72.6211 409.086 72.4956 408.536 72.4956C407.94 72.4956 407.419 72.6424 406.974 72.9359C406.534 73.2247 406.193 73.6035 405.951 74.0723C405.714 74.5363 405.596 75.0406 405.596 75.5851V76.828C405.596 77.5571 405.724 78.1774 405.98 78.6888C406.24 79.2001 406.602 79.5907 407.066 79.8606C407.53 80.1258 408.072 80.2584 408.693 80.2584C409.095 80.2584 409.462 80.2015 409.793 80.0879C410.125 79.9695 410.411 79.7943 410.653 79.5623C410.894 79.3303 411.079 79.0439 411.207 78.703L413.217 79.0652C413.056 79.657 412.767 80.1755 412.35 80.6206C411.938 81.0609 411.42 81.4042 410.795 81.6504C410.175 81.8919 409.467 82.0126 408.671 82.0126Z" fill="white"/>
<path d="M420.303 82.0126C419.247 82.0126 418.338 81.7735 417.576 81.2953C416.818 80.8123 416.236 80.1471 415.829 79.2996C415.421 78.452 415.218 77.4814 415.218 76.3876C415.218 75.2797 415.426 74.3019 415.843 73.4544C416.259 72.6021 416.847 71.9369 417.604 71.4586C418.362 70.9804 419.254 70.7413 420.282 70.7413C421.11 70.7413 421.849 70.8952 422.498 71.203C423.146 71.506 423.67 71.9321 424.067 72.4814C424.47 73.0306 424.709 73.6722 424.785 74.4061H422.718C422.604 73.8947 422.344 73.4544 421.937 73.0851C421.534 72.7157 420.994 72.5311 420.317 72.5311C419.725 72.5311 419.207 72.6873 418.762 72.9998C418.321 73.3076 417.978 73.7479 417.732 74.3209C417.486 74.889 417.363 75.5614 417.363 76.3379C417.363 77.1334 417.483 77.8199 417.725 78.3976C417.966 78.9752 418.307 79.4227 418.748 79.7399C419.193 80.0571 419.716 80.2158 420.317 80.2158C420.72 80.2158 421.084 80.1424 421.411 79.9956C421.742 79.8441 422.019 79.6286 422.242 79.3493C422.469 79.0699 422.628 78.7337 422.718 78.3408H424.785C424.709 79.0462 424.479 79.676 424.096 80.23C423.712 80.7839 423.198 81.2195 422.554 81.5368C421.915 81.854 421.165 82.0126 420.303 82.0126Z" fill="white"/>
<path d="M432.148 70.8834V72.5879H426.189V70.8834H432.148ZM427.787 68.2697H429.911V78.5893C429.911 79.0013 429.972 79.3114 430.095 79.5197C430.218 79.7233 430.377 79.863 430.571 79.9388C430.77 80.0098 430.985 80.0453 431.217 80.0453C431.388 80.0453 431.537 80.0335 431.665 80.0098C431.793 79.9861 431.892 79.9672 431.963 79.953L432.347 81.7072C432.224 81.7546 432.048 81.8019 431.821 81.8493C431.594 81.9014 431.31 81.9298 430.969 81.9345C430.41 81.944 429.889 81.8445 429.406 81.6362C428.923 81.4279 428.533 81.1059 428.234 80.6703C427.936 80.2347 427.787 79.6878 427.787 79.0297V68.2697Z" fill="white"/>
</svg>
